<svg width="160" height="48" viewBox="0 0 160 48" fill="none" xmlns="http://www.w3.org/2000/svg">
<g clip-path="url(#clip0_7_351)">
<path d="M42.242 14H30.1853V16.3991H34.7912V28.7109H37.66V16.3991H42.242V14Z" fill="#212721"/>
<path d="M45.8519 26.7361C44.1545 26.7361 43.0309 25.6407 42.8317 23.9436H50.912C50.9359 23.7353 50.9519 23.419 50.9519 23.0641C50.9519 20.5416 49.3023 17.9574 45.6288 17.9574C42.0428 17.9574 40.2658 20.5879 40.2658 23.3804C40.2658 26.1575 42.2659 28.8883 45.8439 28.8883C48.5373 28.8883 50.5773 27.4381 50.9917 25.1855H48.3859C48.115 26.1961 47.2225 26.7361 45.8519 26.7361ZM45.6367 19.8859C47.2225 19.8859 48.1788 20.8965 48.2823 22.2387H42.8955C43.1823 20.6419 44.1386 19.8859 45.6367 19.8859Z" fill="#212721"/>
<path d="M58.1397 26.6512C56.275 26.6512 55.255 25.2627 55.255 23.4113C55.255 21.5599 56.2511 20.1713 58.0998 20.1713C59.3589 20.1713 60.4188 20.9273 60.618 21.9765H63.2636C63.0245 19.5388 60.7853 17.9419 58.0281 17.9419C54.6175 17.9419 52.4659 20.3796 52.4659 23.4113C52.4659 26.4352 54.6175 28.8806 58.0281 28.8806C60.8491 28.8806 62.9767 27.2221 63.3273 24.9078H60.6339C60.3789 25.9647 59.3988 26.6512 58.1397 26.6512Z" fill="#212721"/>
<path d="M70.9614 17.9497C69.3995 17.9497 68.1405 18.5976 67.5269 19.7548V14H64.8813V28.7186H67.5269V22.9407C67.5269 21.3825 68.5947 20.2485 70.0689 20.2485C71.4395 20.2485 72.3719 21.259 72.3719 22.7093V28.7186H75.0175V22.1616C75.0255 19.6776 73.4158 17.9497 70.9614 17.9497Z" fill="#212721"/>
<path d="M83.1855 17.9497C81.6236 17.9497 80.3805 18.5977 79.7748 19.7548V18.1194H77.1053V28.7109H79.7748V22.933C79.7748 21.3748 80.8187 20.2408 82.3169 20.2408C83.6875 20.2408 84.5959 21.2513 84.5959 22.7016V28.7109H87.2655V22.1539C87.2655 19.6776 85.6558 17.9497 83.1855 17.9497Z" fill="#212721"/>
<path d="M94.4931 17.9497C91.1462 17.9497 88.7636 20.2639 88.7636 23.419C88.7636 26.5741 91.1542 28.8884 94.4931 28.8884C97.8161 28.8884 100.207 26.5741 100.207 23.419C100.199 20.2639 97.8161 17.9497 94.4931 17.9497ZM94.4931 26.6512C92.6683 26.6512 91.457 25.3244 91.457 23.4113C91.457 21.4982 92.6762 20.1713 94.4931 20.1713C96.2941 20.1713 97.5133 21.4982 97.5133 23.4113C97.5053 25.3321 96.2941 26.6512 94.4931 26.6512Z" fill="#212721"/>
<path d="M104.494 14H101.848V28.7186H104.494V14Z" fill="#212721"/>
<path d="M111.873 17.9497C108.526 17.9497 106.143 20.2639 106.143 23.419C106.143 26.5741 108.534 28.8884 111.873 28.8884C115.196 28.8884 117.587 26.5741 117.587 23.419C117.587 20.2639 115.196 17.9497 111.873 17.9497ZM111.873 26.6512C110.048 26.6512 108.837 25.3244 108.837 23.4113C108.837 21.4982 110.056 20.1713 111.873 20.1713C113.674 20.1713 114.893 21.4982 114.893 23.4113C114.893 25.3321 113.674 26.6512 111.873 26.6512Z" fill="#212721"/>
<path d="M127.324 19.3151C126.695 18.4974 125.5 17.9497 124.137 17.9497C120.878 17.9497 118.965 20.1791 118.965 23.419C118.965 26.659 120.878 28.8883 124.177 28.8883C125.547 28.8883 126.806 28.3638 127.348 27.5461V29.0581C127.348 30.1689 126.591 30.948 125.523 30.948H120.647V33.0077H125.89C128.344 33.0077 129.994 31.5189 129.994 29.3049V18.1194H127.324V19.3151ZM124.543 26.6512C122.766 26.6512 121.611 25.3707 121.611 23.4113C121.611 21.4596 122.758 20.1713 124.543 20.1713C126.344 20.1713 127.516 21.4519 127.516 23.4113C127.516 25.3707 126.344 26.6512 124.543 26.6512Z" fill="#212721"/>
<path d="M134.664 14H131.994V16.4608H134.664V14Z" fill="#212721"/>
<path d="M134.664 18.1194H131.994V28.7109H134.664V18.1194Z" fill="#212721"/>
<path d="M141.74 26.7361C140.043 26.7361 138.919 25.6407 138.72 23.9436H146.8C146.824 23.7353 146.84 23.419 146.84 23.0641C146.84 20.5416 145.19 17.9574 141.517 17.9574C137.931 17.9574 136.154 20.5879 136.154 23.3804C136.154 26.1575 138.154 28.8883 141.732 28.8883C144.425 28.8883 146.465 27.4381 146.88 25.1855H144.274C143.995 26.1961 143.11 26.7361 141.74 26.7361ZM141.525 19.8859C143.11 19.8859 144.067 20.8965 144.17 22.2387H138.783C139.07 20.6419 140.027 19.8859 141.525 19.8859Z" fill="#212721"/>
<path d="M150.752 21.0199C150.752 20.3025 151.382 19.8859 152.338 19.8859C153.183 19.8859 154.123 20.3873 154.275 21.3748H156.705C156.594 19.3151 154.84 17.9497 152.275 17.9497C150.019 17.9497 148.346 19.2534 148.346 21.1048C148.346 25.579 154.338 23.3342 154.338 25.687C154.338 26.3195 153.645 26.821 152.601 26.821C151.406 26.821 150.601 26.1884 150.497 25.1778H148.067C148.195 27.4458 149.956 28.8806 152.601 28.8806C155.167 28.8806 156.841 27.5769 156.841 25.579C156.841 20.7885 150.752 23.311 150.752 21.0199Z" fill="#212721"/>
<path d="M13.8573 14H4V28.7186H6.76516V22.7787H11.8731V20.1019H6.76516V16.6768H13.8573V14Z" fill="#212721"/>
<path d="M21.093 14H16.4312H15.5228V16.6768H16.4312V26.0341H15.5228V28.7109H16.4312H21.093C25.2128 28.7109 28.7111 26.2732 28.7111 21.3516C28.7191 16.4377 25.2128 14 21.093 14ZM20.8619 26.2964H19.3159V16.3991H20.8619C23.4278 16.3991 25.8742 17.7259 25.8742 21.3593C25.8742 24.9927 23.4278 26.2964 20.8619 26.2964Z" fill="#212721"/>
</g>
<defs>
<clipPath id="clip0_7_351">
<rect width="153" height="19" fill="white" transform="translate(4 14)"/>
</clipPath>
</defs>
</svg>
