<svg width="160" height="48" viewBox="0 0 160 48" fill="none" xmlns="http://www.w3.org/2000/svg">
<g clip-path="url(#clip0_7_292)">
<path d="M65.2647 14.9685H61.3303V16.9464H65.1216V19.2102H61.3303V23.3328H58.4928V12.5617H65.2647V14.9685Z" fill="black"/>
<path d="M72.0843 12.2043C75.6372 12.2043 77.7593 14.9447 77.7593 17.9472C77.7593 21.0689 75.3272 23.6902 72.0604 23.6902C68.1022 23.6902 66.3377 20.6162 66.3377 17.9472C66.3377 14.8732 68.746 12.2043 72.0843 12.2043ZM72.0366 21.1404C73.658 21.1404 74.8741 19.7583 74.8741 17.9472C74.8741 16.1838 73.7773 14.754 72.0604 14.754C70.439 14.754 69.1991 16.1362 69.1991 17.9472C69.2229 19.7345 70.439 21.1404 72.0366 21.1404Z" fill="black"/>
<path d="M79.0946 19.0672V12.5617H81.9322V19.234C81.9322 20.6162 82.4329 21.2834 83.3152 21.2834C84.4597 21.2834 84.722 20.354 84.722 19.234V12.5617H87.5357V19.0434C87.5357 22.3081 85.8666 23.6664 83.339 23.6664C80.8592 23.6664 79.0946 22.4511 79.0946 19.0672Z" fill="black"/>
<path d="M91.6847 16.7081C91.7085 17.1608 91.7562 18.1855 91.7562 18.6383V23.3328H89.3956V12.5617H91.78L94.4745 16.8511C95.3091 18.1855 95.5237 18.7574 95.8098 19.2579H95.8575C95.8336 18.7813 95.8098 17.9472 95.8098 17.5183V12.5379H98.1704V23.3089H95.8098L93.5207 19.663C92.4 17.8757 92.09 17.2085 91.78 16.6843L91.6847 16.7081Z" fill="black"/>
<path d="M103.989 12.5617C107.875 12.5617 109.95 15.0162 109.95 17.9472C109.95 20.8783 107.756 23.3328 103.965 23.3328H100.197V12.5617H103.989ZM103.845 20.8545C106.111 20.8545 107.088 19.52 107.088 17.9234C107.088 16.2077 106.039 14.9923 103.845 14.9923H103.035V20.8306L103.845 20.8545Z" fill="black"/>
<path d="M118.2 14.9685H114.266V16.6366H118.057V18.9004H114.266V20.9021H118.367V23.3328H111.428V12.5617H118.2V14.9685Z" fill="black"/>
<path d="M129.359 23.3328H126.069L123.327 19.2579H123.04V23.3328H120.203V12.5617H123.732C126.951 12.5617 128.072 13.9915 128.072 15.9217C128.072 17.4706 127.189 18.4238 126.069 18.8289L129.359 23.3328ZM123.827 14.754H123.04V17.3277H123.827C124.614 17.3277 125.163 16.8987 125.163 16.0647C125.187 15.2545 124.686 14.754 123.827 14.754Z" fill="black"/>
<path d="M134.486 15.7311C134.486 14.9447 134.104 14.4681 133.413 14.4681C132.936 14.4681 132.531 14.7779 132.531 15.326C132.531 15.9932 133.246 16.303 134.295 16.6604C136.394 17.3992 137.228 18.6621 137.228 20.2587C137.228 21.8315 136.131 23.6664 133.413 23.6664C131.052 23.6664 129.55 22.2128 129.55 19.8536H132.245C132.245 20.783 132.602 21.4264 133.461 21.4264C134.057 21.4264 134.51 21.0451 134.51 20.4255C134.51 19.7106 134.009 19.3532 132.793 18.9243C130.552 18.1379 129.86 16.7796 129.86 15.3975C129.86 13.3719 131.529 12.2281 133.484 12.2281C135.702 12.2281 137.109 13.5626 137.109 15.7549L134.486 15.7311Z" fill="black"/>
<path d="M65.2647 28.6468H61.3303V30.6485H65.1216V32.9123H61.3303V37.0111H58.4928V26.24H65.2647V28.6468Z" fill="black"/>
<path d="M69.3421 26.24H72.0128L75.8041 37.0111H72.9665L72.275 34.8426H68.7699L68.0784 37.0111H65.2885L69.3421 26.24ZM69.3421 32.96H71.6551L70.9159 30.6485C70.7013 30.0289 70.6536 29.7906 70.5582 29.3379H70.4867C70.3675 29.8145 70.2721 30.1481 70.1052 30.6723L69.3421 32.96Z" fill="black"/>
<path d="M86.9396 30.0766H83.9113C83.7682 29.1711 82.9098 28.2894 81.646 28.2894C79.8815 28.2894 78.9277 29.8145 78.9277 31.6255C78.9277 33.3889 80.0007 34.9855 81.6699 34.9855C83.1244 34.9855 83.8159 33.9132 84.0067 33.0077H87.1303C86.6296 35.3192 84.7458 37.3685 81.6222 37.3685C78.2839 37.3685 76.0664 34.8664 76.0664 31.6017C76.0664 28.337 78.4031 25.9064 81.6699 25.9064C84.722 25.8826 86.6773 28.0272 86.9396 30.0766Z" fill="black"/>
<path d="M89.8486 28.6468H87.4403V26.24H95.1183V28.6468H92.71V37.0111H89.8486V28.6468Z" fill="black"/>
<path d="M101.246 25.8826C104.799 25.8826 106.921 28.623 106.921 31.6255C106.921 34.7472 104.489 37.3685 101.223 37.3685C97.2643 37.3685 95.4998 34.2945 95.4998 31.6255C95.4998 28.5515 97.8843 25.8826 101.246 25.8826ZM101.199 34.8187C102.82 34.8187 104.036 33.4366 104.036 31.6255C104.036 29.8621 102.939 28.4323 101.223 28.4323C99.6011 28.4323 98.3612 29.8145 98.3612 31.6255C98.3612 33.4366 99.5773 34.8187 101.199 34.8187Z" fill="black"/>
<path d="M117.532 37.0111H114.242L111.523 32.9362H111.237V37.0111H108.4V26.24H111.905C115.124 26.24 116.245 27.6698 116.245 29.6C116.245 31.1489 115.362 32.1021 114.242 32.5072L117.532 37.0111ZM112 28.4323H111.213V31.006H112C112.787 31.006 113.336 30.577 113.336 29.743C113.36 28.9328 112.883 28.4323 112 28.4323Z" fill="black"/>
<path d="M120.298 32.7694L116.722 26.24H119.774L121.204 29.0043C121.443 29.457 121.634 29.9813 121.777 30.4102H121.801C121.944 29.9575 122.134 29.5047 122.373 29.0281L123.708 26.24H126.689L123.16 32.7694V37.0111H120.322L120.298 32.7694Z" fill="black"/>
<path d="M129.049 37.0349C127.714 37.0349 126.641 35.9626 126.641 34.6281C126.641 33.2936 127.714 32.2213 129.049 32.2213C130.385 32.2213 131.458 33.2936 131.458 34.6281C131.482 35.9387 130.385 37.0349 129.049 37.0349Z" fill="#FFED1A"/>
<path opacity="0.5" d="M46.6658 4.76936L51.0771 3.91149L43.7567 25.9064L39.6078 26.6689L40.5854 23.4043L31.6436 25.0485L33.1697 20.0681L42.1592 18.3285L46.6658 4.76936Z" fill="black"/>
<path opacity="0.5" d="M43.4706 30.0528L47.8104 33.8894L50.7194 33.2221L52.3647 28.2655L43.4706 30.0528Z" fill="black"/>
<path opacity="0.5" d="M23.8464 36.0102L22.2011 40.9191L39.0832 37.5115L34.8388 33.7226L23.8464 36.0102Z" fill="black"/>
<path opacity="0.5" d="M49.1218 39.8706L47.4765 44.9226L51.9593 43.9217L53.5331 38.9413L49.1218 39.8706Z" fill="black"/>
<path d="M53.7477 38.7268L48.478 34.0562L50.7909 33.5319C50.8863 33.5081 50.9817 33.4366 51.0055 33.3413L52.6747 28.3609C52.7224 28.2417 52.6747 28.1226 52.5793 28.0272L48.8595 24.7864C48.8118 24.7387 48.7403 24.7149 48.6688 24.7149C48.6449 24.7149 48.6449 24.7149 48.6211 24.7149L44.2336 25.5251L51.3871 4.00681C51.4347 3.88766 51.3871 3.76851 51.2917 3.69702L47.5957 0.384683C47.5481 0.337024 47.4765 0.313194 47.405 0.313194C47.3811 0.313194 47.3573 0.313194 47.3335 0.313194L42.946 1.24256C42.8506 1.26639 42.7553 1.33788 42.7314 1.43319L38.2486 14.7779L29.4499 16.5413L24.2041 17.4706C24.0848 17.4945 24.0133 17.566 23.9656 17.6613L22.2011 22.737C22.1534 22.8562 22.2011 22.9753 22.2965 23.0706L30.5229 30.2672L20.0551 32.3881C19.9597 32.4119 19.8643 32.4834 19.8405 32.5787L18.1237 37.5353C18.076 37.6545 18.1237 37.7736 18.219 37.8689L22.0103 41.1813C22.058 41.2289 22.1296 41.2528 22.2011 41.2528C22.225 41.2528 22.2488 41.2528 22.2488 41.2528L38.9878 37.8928L47.2619 45.1847C47.3096 45.2323 47.3811 45.2562 47.4527 45.2562C47.4765 45.2562 47.5004 45.2562 47.5242 45.2562L52.007 44.2553C52.1024 44.2315 52.1978 44.16 52.2216 44.0647L53.7954 39.1081C53.8669 38.9175 53.8192 38.7983 53.7477 38.7268ZM52.3647 28.2655L50.7194 33.2221L47.8103 33.8894L43.4706 30.0528L52.3647 28.2655ZM29.6884 17.137L32.9312 20.0204L31.5482 24.5243L28.1384 21.3311L29.6884 17.137ZM22.5111 22.8085L24.2756 17.7328L27.9477 21.1166L27.8285 21.4502L31.6675 25.0247L33.1935 20.0443L42.183 18.3047L38.4632 15.0162L42.9937 1.50468L46.6658 4.74554L51.0771 3.88766L43.7567 25.8826L39.6078 26.6451L36.7941 24.0477L32.3113 24.8579L49.098 39.823L53.5092 38.8936L51.9355 43.8502L47.4527 44.8511L39.0593 37.4638L22.1773 40.8477L18.386 37.5353L20.1028 32.5787L23.8225 35.9149L34.7911 33.6511L22.5111 22.8085Z" fill="black"/>
</g>
<defs>
<clipPath id="clip0_7_292">
<rect width="160" height="48" fill="white"/>
</clipPath>
</defs>
</svg>
