<svg width="160" height="48" viewBox="0 0 160 48" fill="none" xmlns="http://www.w3.org/2000/svg">
<g clip-path="url(#clip0_7_153)">
<path d="M37.0307 36.119C34.7571 36.4111 33.1509 38.4761 33.4429 40.7497C33.6515 42.4393 34.8822 43.8368 36.5509 44.254C36.8012 44.3166 37.0515 44.3583 37.3018 44.4209H37.8233C37.8859 44.4 37.9485 44.3792 38.011 44.3583C40.2847 44.0871 41.9117 42.0221 41.6405 39.7485C41.3485 37.4749 39.2834 35.8479 37.0307 36.119ZM41.0773 8.79387C41.1607 8.71043 41.265 8.60614 41.3485 8.5227C42.2245 7.62577 42.6209 6.37423 42.454 5.1227C42.1828 3.03681 40.4098 1.49325 38.3031 1.51411C37.1558 1.53497 36.0712 2.01473 35.2785 2.84908C29.4589 8.66871 23.6393 14.4883 17.8405 20.2871C17.7571 20.3706 17.6945 20.4331 17.6319 20.5166C16.7975 21.3926 16.4012 22.5816 16.5472 23.7914C16.7558 25.8982 18.5288 27.5043 20.6564 27.5043H20.9693C21.011 27.5043 21.0319 27.5043 21.0736 27.4834C22.1583 27.3583 23.0344 26.8577 23.7853 26.0859C29.5632 20.308 35.3202 14.5509 41.0773 8.79387ZM41.0773 15.8442C39.8675 15.8025 38.6994 16.2822 37.865 17.1583C34.8196 20.2037 31.7742 23.2491 28.7288 26.2945C27.8528 27.1706 26.935 28.0466 26.0798 28.9644C25.162 29.8822 24.7448 31.1963 24.9951 32.4896C25.2663 34.0957 26.2049 35.2221 27.7693 35.7436C29.3337 36.265 30.7939 35.9522 31.9828 34.7841C35.9669 30.8417 39.9301 26.8994 43.8724 22.9153C44.6442 22.1436 45.0822 21.1006 45.0822 19.9951C45.0613 19.7448 45.0405 19.4945 44.9988 19.2442C44.7067 17.3877 42.9546 15.865 41.0773 15.8442Z" fill="#FF355D"/>
<path d="M141.617 35.681C141.534 35.0761 141.242 34.5129 140.762 34.1166C140.345 33.762 139.886 33.4699 139.406 33.2196C138.78 32.9067 138.092 32.6564 137.445 32.3644C137.153 32.2393 136.882 32.0724 136.632 31.8847C136.298 31.6343 136.215 31.1546 136.465 30.8209C136.528 30.7374 136.59 30.6748 136.674 30.6123C136.84 30.4871 137.028 30.4037 137.237 30.362C137.821 30.2368 138.405 30.2785 138.947 30.508C139.448 30.6957 139.928 30.946 140.428 31.1755C140.679 30.654 140.95 30.0908 141.263 29.5485C141.409 29.2982 141.346 29.1521 141.137 29.0061C140.032 28.2344 138.78 27.9632 137.466 28.0049C136.486 28.0466 135.568 28.2552 134.775 28.8393C133.482 29.7571 133.19 31.5509 134.108 32.8442C134.254 33.0528 134.421 33.2196 134.609 33.3865C134.921 33.6368 135.255 33.8663 135.61 34.0331C136.256 34.346 136.924 34.6172 137.591 34.9092C137.904 35.0552 138.217 35.2221 138.509 35.4098C139.135 35.8687 139.052 36.5988 138.321 36.9325C138.196 36.9951 138.071 37.0368 137.925 37.0577C137.32 37.1411 136.715 37.0785 136.152 36.8699C135.547 36.6613 134.963 36.3276 134.483 35.9104L133.253 37.8086C133.274 37.8503 133.315 37.8712 133.336 37.9129C135.234 39.4356 137.341 39.8528 139.636 39.0184C140.553 38.7055 141.263 37.9546 141.534 37.0368C141.596 36.8699 141.617 36.6822 141.68 36.5153V35.7853C141.638 35.7644 141.617 35.7227 141.617 35.681ZM64.0847 23.9791C63.8969 23.9583 63.7509 24.0834 63.7092 24.2503C62.9583 26.5031 62.1865 28.7558 61.4147 31.0086C60.9141 32.5521 60.2883 34.054 59.9755 35.6601C59.9337 35.8061 59.892 35.973 59.8503 36.119C59.7877 36.0356 59.746 35.9521 59.7252 35.8478C59.5791 35.2638 59.454 34.6797 59.2663 34.1166C58.1607 30.8 57.0552 27.5043 55.9288 24.2086C55.908 24.0626 55.762 23.9583 55.616 24C54.7816 24 53.9681 24 53.1337 24C53.0503 24 52.9877 24.0209 52.9043 24.0209C52.9252 24.1043 52.946 24.1877 52.9669 24.2503C54.7607 29.173 56.5546 34.0957 58.3485 39.0184C58.3693 39.1644 58.4945 39.2478 58.6405 39.227C59.3914 39.227 60.1423 39.2061 60.8724 39.227C61.0601 39.2478 61.227 39.1436 61.2687 38.9558C62.9166 34.4086 64.5853 29.8613 66.254 25.2932C66.4 24.8761 66.546 24.4589 66.7129 24C65.816 23.9791 64.9607 23.9791 64.0847 23.9791ZM84.881 21.2258C85.3607 20.9963 85.7988 20.6834 86.2785 20.4123L85.2147 18.4515C85.173 18.4724 85.1522 18.4724 85.1522 18.4724L84.9644 18.5975C83.9841 19.265 82.9202 19.6822 81.6896 19.5988C80.438 19.5362 79.3534 18.7227 78.9362 17.5546C78.8528 17.2834 78.811 17.0123 78.7276 16.6994H86.3202C86.3202 16.0945 86.362 15.5104 86.3202 14.9472C86.1325 12.7988 84.8184 10.692 81.9816 10.5043C79.854 10.3583 78.081 11.0883 76.8712 12.9239C76.2454 13.8834 75.9951 14.9681 75.9742 16.1153C75.9117 18.7227 77.4969 20.9546 79.9374 21.6638C81.6061 22.1227 83.3583 21.9767 84.881 21.2258ZM80.7301 12.6736C81.1264 12.5902 81.5644 12.5693 81.9607 12.6319C82.9828 12.7779 83.7129 13.7791 83.6294 14.8429H78.8945C78.9153 13.8834 79.7288 12.8822 80.7301 12.6736ZM72.4699 28.0258C70.4883 28.0049 68.8613 28.7558 67.7558 30.4454C67.0258 31.5926 66.7129 32.9693 66.8798 34.3043C67.0675 36.2442 67.9644 37.746 69.6957 38.7055C71.9068 39.9362 74.9939 39.6233 77.038 37.9546C77.0589 37.9337 77.0798 37.892 77.1006 37.8712C76.746 37.2245 76.4123 36.5988 76.0577 35.9521L75.8282 36.119C75.0773 36.6822 74.2012 37.0159 73.2626 37.1202C71.8233 37.2662 70.1546 36.5779 69.7166 34.8049C69.6749 34.6172 69.654 34.4294 69.6123 34.2209H77.1632C77.2466 33.5325 77.2466 32.8233 77.1632 32.135C76.8086 29.6319 75.0147 28.0466 72.4699 28.0258ZM74.4933 32.3853H69.7166C69.8 31.7386 70.1129 31.1337 70.6135 30.7166C71.3018 30.1117 72.2822 29.9448 73.1374 30.2577C73.9926 30.5288 74.5558 31.4466 74.4933 32.3853ZM127.12 28.0258C125.347 28.0258 123.825 28.6098 122.698 30.0074C121.864 31.0503 121.53 32.281 121.488 33.6159C121.384 36.0773 122.886 38.3092 125.222 39.1018C126.828 39.6442 128.56 39.5607 130.103 38.8932C130.708 38.6429 131.25 38.3092 131.751 37.892C131.396 37.2454 131.063 36.5988 130.708 35.9521C129.853 36.5779 128.956 37.0368 127.934 37.1202C126.849 37.2245 125.869 36.9534 125.076 36.1399C124.596 35.6184 124.304 34.9509 124.283 34.2417H131.855C131.855 33.6159 131.897 33.0528 131.855 32.4896C131.605 29.9239 129.915 28.0466 127.12 28.0258ZM129.123 32.3853H124.346C124.492 31.5926 124.826 30.946 125.493 30.5288C126.119 30.1325 126.87 30.0074 127.6 30.2159C128.58 30.4454 129.227 31.384 129.123 32.3853ZM65.6282 21.6221C66.0871 21.789 66.5877 21.8724 67.0675 21.8932C68.7988 21.9558 70.1546 21.2883 71.0515 19.7656C71.0724 19.7239 71.0933 19.7031 71.1558 19.6196V21.6429H73.7423V10.7337H71.0307V15.573C71.0724 16.3865 70.8638 17.2 70.4675 17.9301C69.946 18.9104 68.8822 19.4945 67.7767 19.4319C67.0466 19.411 66.5669 19.0356 66.4 18.3472C66.3166 17.9509 66.254 17.5546 66.254 17.1583C66.2331 15.1141 66.254 13.0699 66.254 11.0258V10.7337H63.5423V17.8258C63.5423 18.2429 63.5841 18.6393 63.6466 19.0356C63.8552 20.2245 64.4184 21.184 65.6282 21.6221ZM108.097 28.6307V33.157C108.118 33.7828 108.014 34.3877 107.784 34.9718C107.304 36.1607 106.47 36.9117 105.135 36.9742C104.155 37.0368 103.571 36.5779 103.404 35.6184C103.341 35.3055 103.32 34.9718 103.32 34.6589V28.2969H100.609V35.389C100.609 35.8478 100.671 36.3276 100.755 36.7865C100.984 37.9129 101.589 38.7889 102.715 39.2061C103.299 39.4147 103.925 39.4982 104.572 39.4564C106.115 39.373 107.304 38.7055 108.118 37.3705C108.139 37.3288 108.18 37.2871 108.243 37.2245V39.2061H110.809V28.3178H108.118V28.6307H108.097ZM87.7595 28.2969C87.1546 28.0675 86.4871 27.984 85.8405 28.0258C84.2761 28.0883 83.0663 28.7767 82.2319 30.1116C82.1902 30.1742 82.1693 30.2159 82.1068 30.2785V28.2969H79.5411V39.1853H82.2319V34.2C82.2319 33.8245 82.2736 33.4491 82.3362 33.0736C82.6282 31.5301 83.8589 30.4871 85.3607 30.4871C86.3411 30.4871 86.8834 30.9251 87.0295 31.8847C87.092 32.2393 87.1129 32.5939 87.1129 32.9485V39.1853H89.7828C89.7828 39.081 89.8037 38.9975 89.8037 38.9141V32.2184C89.8037 31.7386 89.762 31.2798 89.6785 30.8209C89.4699 29.6528 88.8859 28.7558 87.7595 28.2969ZM55.6577 15.4896H60.3092C60.7472 15.4896 60.7055 15.5521 60.7055 15.1141V13.1117H55.6577V8.79387H61.6233V6.45767H52.9043V21.6429H55.6577V15.4896ZM97.7301 36.8908C96.6663 36.8282 95.9571 36.2024 95.8945 35.1595C95.8319 33.6994 95.8736 32.2184 95.8528 30.7583C95.8528 30.6123 95.9362 30.5914 96.0614 30.5914H98.335V28.4429H95.8528V25.3141C95.7485 25.3141 95.6859 25.2932 95.6233 25.2932H93.454C93.2245 25.2932 93.2037 25.3767 93.2037 25.5644V28.1509C93.2037 28.2552 93.1828 28.3595 93.1828 28.4638H91.7436V30.6123H93.1411V32.0307C93.162 33.3239 93.1202 34.6172 93.2037 35.9104C93.308 37.3497 94.0798 38.3926 95.4564 38.935C96.0822 39.1853 96.7497 39.3104 97.4172 39.3104C97.7718 39.3104 98.1472 39.2896 98.5018 39.2896V36.9116C98.2307 36.8908 97.9804 36.9116 97.7301 36.8908ZM92.7031 19.3485H92.2233C91.6601 19.3276 91.3681 19.0773 91.2638 18.535C91.2221 18.2429 91.2012 17.9718 91.2012 17.6798V6.45767H88.5104V18.1386C88.5104 18.5558 88.5521 18.9521 88.6147 19.3485C88.7816 20.2871 89.1988 21.0589 90.1166 21.4552C90.9509 21.8098 91.827 21.8098 92.7031 21.7055V19.3485ZM120.216 28.1509C119.861 28.1301 119.486 28.1718 119.131 28.2343C117.838 28.5681 117.066 29.4442 116.566 30.6123L116.42 30.946V28.3178H113.854V39.2061H116.545V35.0135C116.545 34.5337 116.587 34.054 116.67 33.5951C116.941 32.2184 117.692 31.238 119.09 30.9043C119.528 30.8417 119.966 30.8 120.404 30.8V28.3178C120.404 28.2344 120.279 28.1509 120.216 28.1509Z" fill="#262340"/>
</g>
<defs>
<clipPath id="clip0_7_153">
<rect width="160" height="48" fill="white"/>
</clipPath>
</defs>
</svg>
