<svg width="160" height="48" viewBox="0 0 160 48" fill="none" xmlns="http://www.w3.org/2000/svg">
<path fill-rule="evenodd" clip-rule="evenodd" d="M63 11H35V39H63V23.7273H47.7273V28.8182H45.1818V23.7273V21.1818H47.7273H63V11Z" fill="#003C0F"/>
<path d="M74.85 30.708C74.8067 30.266 74.694 29.8673 74.512 29.512C74.33 29.1567 74.0787 28.875 73.758 28.667C73.4373 28.4503 73.0387 28.3463 72.562 28.355C72.0767 28.355 71.691 28.4893 71.405 28.758C71.119 29.0267 70.976 29.3517 70.976 29.733C70.976 30.071 71.0713 30.357 71.262 30.591C71.4527 30.8163 71.7083 31.02 72.029 31.202C72.3583 31.384 72.7267 31.566 73.134 31.748C73.4633 31.8867 73.797 32.0427 74.135 32.216C74.473 32.3893 74.7807 32.5887 75.058 32.814C75.3353 33.0307 75.5563 33.295 75.721 33.607C75.8857 33.9103 75.968 34.27 75.968 34.686C75.968 35.1713 75.8423 35.6047 75.591 35.986C75.3397 36.3673 74.98 36.6663 74.512 36.883C74.0527 37.0997 73.4937 37.208 72.835 37.208C72.4623 37.208 72.068 37.1517 71.652 37.039C71.2447 36.9263 70.872 36.766 70.534 36.558L70.599 37.104H69.806L69.754 34.244H70.378C70.4473 34.998 70.716 35.57 71.184 35.96C71.6607 36.3413 72.2283 36.532 72.887 36.532C73.2163 36.532 73.5153 36.4713 73.784 36.35C74.0527 36.2287 74.265 36.0553 74.421 35.83C74.577 35.6047 74.655 35.3403 74.655 35.037C74.655 34.6817 74.5467 34.3827 74.33 34.14C74.122 33.8973 73.8533 33.6893 73.524 33.516C73.2033 33.3427 72.8653 33.178 72.51 33.022C72.1547 32.866 71.808 32.7013 71.47 32.528C71.1407 32.3547 70.8417 32.1553 70.573 31.93C70.3043 31.7047 70.092 31.4403 69.936 31.137C69.78 30.825 69.702 30.461 69.702 30.045C69.702 29.8023 69.7453 29.5467 69.832 29.278C69.9187 29.0093 70.066 28.7537 70.274 28.511C70.482 28.2683 70.7637 28.0733 71.119 27.926C71.483 27.77 71.938 27.692 72.484 27.692C72.8133 27.692 73.1817 27.7397 73.589 27.835C74.005 27.9303 74.382 28.0993 74.72 28.342L74.668 27.796H75.448V30.708H74.85ZM78.2319 37V36.428C78.5179 36.4107 78.7216 36.35 78.8429 36.246C78.9729 36.142 79.0553 35.986 79.0899 35.778C79.1246 35.57 79.1419 35.3057 79.1419 34.985V29.577C79.1419 29.3863 79.1463 29.2043 79.1549 29.031C79.1636 28.849 79.1723 28.693 79.1809 28.563C79.0336 28.5717 78.8733 28.5803 78.6999 28.589C78.5266 28.5977 78.3706 28.6063 78.2319 28.615V27.9H81.4299V28.472C81.1526 28.4807 80.9489 28.5413 80.8189 28.654C80.6889 28.758 80.6066 28.914 80.5719 29.122C80.5373 29.3213 80.5199 29.5857 80.5199 29.915V32.034H84.8229V29.577C84.8229 29.3863 84.8273 29.2043 84.8359 29.031C84.8446 28.849 84.8533 28.693 84.8619 28.563C84.7146 28.5717 84.5543 28.5803 84.3809 28.589C84.2076 28.5977 84.0516 28.6063 83.9129 28.615V27.9H87.1109V28.472C86.8336 28.4807 86.6299 28.5413 86.4999 28.654C86.3699 28.758 86.2876 28.914 86.2529 29.122C86.2183 29.3213 86.2009 29.5857 86.2009 29.915V35.258C86.2009 35.492 86.1966 35.7043 86.1879 35.895C86.1879 36.077 86.1793 36.2243 86.1619 36.337C86.3093 36.3197 86.4696 36.311 86.6429 36.311C86.8163 36.3023 86.9723 36.2937 87.1109 36.285V37H83.9129V36.428C84.1989 36.4107 84.4026 36.35 84.5239 36.246C84.6539 36.142 84.7363 35.986 84.7709 35.778C84.8056 35.57 84.8229 35.3057 84.8229 34.985V32.71L80.5199 32.749V35.258C80.5199 35.492 80.5156 35.7043 80.5069 35.895C80.5069 36.077 80.4983 36.2243 80.4809 36.337C80.6283 36.3197 80.7886 36.311 80.9619 36.311C81.1439 36.3023 81.2999 36.2937 81.4299 36.285V37H78.2319ZM93.8618 37.208C93.0385 37.208 92.3321 37.0693 91.7428 36.792C91.1621 36.5147 90.6898 36.1463 90.3258 35.687C89.9618 35.219 89.6931 34.7033 89.5198 34.14C89.3465 33.5767 89.2598 33.0133 89.2598 32.45C89.2598 31.904 89.3508 31.3537 89.5328 30.799C89.7235 30.2357 90.0051 29.72 90.3778 29.252C90.7591 28.784 91.2315 28.407 91.7948 28.121C92.3668 27.835 93.0341 27.692 93.7968 27.692C94.5941 27.692 95.2788 27.835 95.8508 28.121C96.4315 28.407 96.9081 28.7883 97.2808 29.265C97.6535 29.733 97.9308 30.2443 98.1128 30.799C98.3035 31.3537 98.3988 31.904 98.3988 32.45C98.3988 32.9873 98.3035 33.5377 98.1128 34.101C97.9308 34.6557 97.6491 35.1713 97.2678 35.648C96.8951 36.116 96.4271 36.493 95.8638 36.779C95.3005 37.065 94.6331 37.208 93.8618 37.208ZM93.9268 36.532C94.4295 36.532 94.8628 36.4193 95.2268 36.194C95.5995 35.9687 95.9028 35.6697 96.1368 35.297C96.3795 34.9157 96.5571 34.4997 96.6698 34.049C96.7825 33.5897 96.8388 33.1347 96.8388 32.684C96.8388 32.1293 96.7738 31.5963 96.6438 31.085C96.5138 30.565 96.3145 30.1013 96.0458 29.694C95.7858 29.278 95.4608 28.953 95.0708 28.719C94.6808 28.4763 94.2301 28.355 93.7188 28.355C93.2161 28.355 92.7785 28.472 92.4058 28.706C92.0331 28.94 91.7298 29.2477 91.4958 29.629C91.2618 30.0017 91.0841 30.4177 90.9628 30.877C90.8501 31.3277 90.7938 31.7827 90.7938 32.242C90.7938 32.6927 90.8545 33.1693 90.9758 33.672C91.0971 34.1747 91.2835 34.6427 91.5348 35.076C91.7861 35.5093 92.1068 35.8603 92.4968 36.129C92.8955 36.3977 93.3721 36.532 93.9268 36.532ZM100.536 37V36.428C100.822 36.4107 101.025 36.35 101.147 36.246C101.277 36.142 101.359 35.986 101.394 35.778C101.428 35.57 101.446 35.3057 101.446 34.985V29.577C101.446 29.3863 101.45 29.2043 101.459 29.031C101.467 28.849 101.476 28.693 101.485 28.563C101.337 28.5717 101.177 28.5803 101.004 28.589C100.83 28.5977 100.674 28.6063 100.536 28.615V27.9C101.064 27.8913 101.597 27.887 102.135 27.887C102.672 27.8783 103.214 27.8783 103.76 27.887C104.574 27.887 105.246 27.9823 105.775 28.173C106.303 28.355 106.698 28.628 106.958 28.992C107.226 29.356 107.356 29.8153 107.348 30.37C107.356 30.7167 107.287 31.0633 107.14 31.41C106.992 31.748 106.745 32.0513 106.399 32.32C106.052 32.5887 105.575 32.7923 104.969 32.931C105.142 33.035 105.298 33.178 105.437 33.36C105.575 33.542 105.718 33.7457 105.866 33.971L106.659 35.193C106.823 35.453 106.975 35.674 107.114 35.856C107.252 36.038 107.408 36.181 107.582 36.285C107.755 36.3803 107.963 36.428 108.206 36.428V37H106.399C106.173 36.8093 105.978 36.6057 105.814 36.389C105.658 36.1637 105.489 35.9123 105.307 35.635L104.41 34.179C104.297 34.0057 104.176 33.8193 104.046 33.62C103.924 33.4207 103.79 33.2517 103.643 33.113C103.504 33.113 103.365 33.113 103.227 33.113C103.097 33.113 102.962 33.113 102.824 33.113V35.258C102.824 35.492 102.819 35.7043 102.811 35.895C102.811 36.077 102.802 36.2243 102.785 36.337C102.889 36.3283 102.997 36.324 103.11 36.324C103.231 36.3153 103.348 36.3067 103.461 36.298C103.582 36.2893 103.686 36.285 103.773 36.285V37H100.536ZM103.578 32.476C104.054 32.4673 104.462 32.3937 104.8 32.255C105.138 32.1077 105.398 31.8867 105.58 31.592C105.762 31.2887 105.853 30.8987 105.853 30.422C105.853 30.0667 105.801 29.7677 105.697 29.525C105.593 29.2823 105.445 29.0873 105.255 28.94C105.064 28.784 104.834 28.6757 104.566 28.615C104.306 28.5457 104.024 28.511 103.721 28.511C103.443 28.511 103.24 28.563 103.11 28.667C102.988 28.771 102.91 28.9227 102.876 29.122C102.841 29.3213 102.824 29.577 102.824 29.889V32.437C102.954 32.4457 103.075 32.4587 103.188 32.476C103.309 32.4847 103.439 32.4847 103.578 32.476ZM114.491 33.711C114.491 33.3383 114.434 33.0697 114.322 32.905C114.218 32.7403 114.057 32.6407 113.841 32.606C113.624 32.5627 113.355 32.5497 113.035 32.567L112.281 32.593V35.297C112.281 35.531 112.276 35.739 112.268 35.921C112.268 36.0943 112.259 36.2373 112.242 36.35L114.478 36.324C114.816 36.3153 115.119 36.2547 115.388 36.142C115.656 36.0207 115.869 35.817 116.025 35.531C116.181 35.245 116.259 34.855 116.259 34.361H116.831L116.753 37H109.993V36.428C110.279 36.4107 110.482 36.35 110.604 36.246C110.734 36.142 110.816 35.986 110.851 35.778C110.885 35.57 110.903 35.3057 110.903 34.985V29.577C110.903 29.3863 110.907 29.2043 110.916 29.031C110.924 28.849 110.933 28.693 110.942 28.563C110.794 28.5717 110.634 28.5803 110.461 28.589C110.287 28.5977 110.131 28.6063 109.993 28.615V27.9H116.337L116.402 30.253H115.83C115.83 29.759 115.747 29.382 115.583 29.122C115.427 28.862 115.219 28.6887 114.959 28.602C114.707 28.5153 114.434 28.4763 114.14 28.485L113.23 28.511C112.961 28.511 112.757 28.5587 112.619 28.654C112.48 28.7407 112.389 28.888 112.346 29.096C112.302 29.2953 112.281 29.5683 112.281 29.915V31.956H114.426L114.348 30.838H115.063V33.711H114.491ZM124.293 30.708C124.25 30.266 124.137 29.8673 123.955 29.512C123.773 29.1567 123.522 28.875 123.201 28.667C122.88 28.4503 122.482 28.3463 122.005 28.355C121.52 28.355 121.134 28.4893 120.848 28.758C120.562 29.0267 120.419 29.3517 120.419 29.733C120.419 30.071 120.514 30.357 120.705 30.591C120.896 30.8163 121.151 31.02 121.472 31.202C121.801 31.384 122.17 31.566 122.577 31.748C122.906 31.8867 123.24 32.0427 123.578 32.216C123.916 32.3893 124.224 32.5887 124.501 32.814C124.778 33.0307 124.999 33.295 125.164 33.607C125.329 33.9103 125.411 34.27 125.411 34.686C125.411 35.1713 125.285 35.6047 125.034 35.986C124.783 36.3673 124.423 36.6663 123.955 36.883C123.496 37.0997 122.937 37.208 122.278 37.208C121.905 37.208 121.511 37.1517 121.095 37.039C120.688 36.9263 120.315 36.766 119.977 36.558L120.042 37.104H119.249L119.197 34.244H119.821C119.89 34.998 120.159 35.57 120.627 35.96C121.104 36.3413 121.671 36.532 122.33 36.532C122.659 36.532 122.958 36.4713 123.227 36.35C123.496 36.2287 123.708 36.0553 123.864 35.83C124.02 35.6047 124.098 35.3403 124.098 35.037C124.098 34.6817 123.99 34.3827 123.773 34.14C123.565 33.8973 123.296 33.6893 122.967 33.516C122.646 33.3427 122.308 33.178 121.953 33.022C121.598 32.866 121.251 32.7013 120.913 32.528C120.584 32.3547 120.285 32.1553 120.016 31.93C119.747 31.7047 119.535 31.4403 119.379 31.137C119.223 30.825 119.145 30.461 119.145 30.045C119.145 29.8023 119.188 29.5467 119.275 29.278C119.362 29.0093 119.509 28.7537 119.717 28.511C119.925 28.2683 120.207 28.0733 120.562 27.926C120.926 27.77 121.381 27.692 121.927 27.692C122.256 27.692 122.625 27.7397 123.032 27.835C123.448 27.9303 123.825 28.0993 124.163 28.342L124.111 27.796H124.891V30.708H124.293Z" fill="black"/>
<path d="M73.979 22.208C73.095 22.208 72.3193 22.0173 71.652 21.636C70.9847 21.2547 70.469 20.7217 70.105 20.037C69.741 19.3437 69.559 18.5377 69.559 17.619C69.559 17.0123 69.65 16.4187 69.832 15.838C70.0227 15.2573 70.3043 14.7287 70.677 14.252C71.0583 13.7753 71.5307 13.3983 72.094 13.121C72.666 12.835 73.329 12.692 74.083 12.692C74.369 12.692 74.668 12.718 74.98 12.77C75.292 12.822 75.5953 12.9 75.89 13.004C76.1933 13.108 76.4663 13.2337 76.709 13.381L76.657 12.783H77.463V15.773H76.865C76.8217 15.253 76.6743 14.8153 76.423 14.46C76.1803 14.096 75.864 13.823 75.474 13.641C75.0927 13.4503 74.668 13.355 74.2 13.355C73.7407 13.355 73.3203 13.459 72.939 13.667C72.5663 13.8663 72.2413 14.148 71.964 14.512C71.6867 14.8673 71.47 15.2877 71.314 15.773C71.1667 16.2583 71.093 16.7783 71.093 17.333C71.093 18.1303 71.223 18.841 71.483 19.465C71.7517 20.0803 72.1287 20.5657 72.614 20.921C73.0993 21.2763 73.667 21.454 74.317 21.454C74.525 21.454 74.7503 21.4367 74.993 21.402C75.2443 21.3587 75.4913 21.298 75.734 21.22C75.9853 21.1333 76.2107 21.025 76.41 20.895V19.439C76.41 19.2223 76.41 19.01 76.41 18.802C76.4187 18.5853 76.423 18.386 76.423 18.204C76.2843 18.2127 76.1283 18.2213 75.955 18.23C75.7817 18.2387 75.63 18.2473 75.5 18.256V17.541H78.607V18.113C78.399 18.113 78.23 18.1607 78.1 18.256C77.9787 18.3513 77.8877 18.4727 77.827 18.62C77.775 18.7587 77.7403 18.9103 77.723 19.075C77.7057 19.231 77.697 19.3783 77.697 19.517V21.545H77.359C77.177 21.545 76.9647 21.5753 76.722 21.636C76.4793 21.688 76.2063 21.7703 75.903 21.883C75.6343 21.9783 75.3267 22.0563 74.98 22.117C74.6333 22.1777 74.2997 22.208 73.979 22.208ZM80.5933 22V21.428C80.8793 21.4107 81.0829 21.35 81.2043 21.246C81.3343 21.142 81.4166 20.986 81.4513 20.778C81.4859 20.57 81.5033 20.3057 81.5033 19.985V14.577C81.5033 14.3863 81.5076 14.2043 81.5163 14.031C81.5249 13.849 81.5336 13.693 81.5423 13.563C81.3949 13.5717 81.2346 13.5803 81.0613 13.589C80.8879 13.5977 80.7319 13.6063 80.5933 13.615V12.9C81.1219 12.8913 81.6549 12.887 82.1923 12.887C82.7296 12.8783 83.2713 12.8783 83.8173 12.887C84.6319 12.887 85.3036 12.9823 85.8323 13.173C86.3609 13.355 86.7553 13.628 87.0153 13.992C87.2839 14.356 87.4139 14.8153 87.4053 15.37C87.4139 15.7167 87.3446 16.0633 87.1973 16.41C87.0499 16.748 86.8029 17.0513 86.4563 17.32C86.1096 17.5887 85.6329 17.7923 85.0263 17.931C85.1996 18.035 85.3556 18.178 85.4943 18.36C85.6329 18.542 85.7759 18.7457 85.9233 18.971L86.7163 20.193C86.8809 20.453 87.0326 20.674 87.1713 20.856C87.3099 21.038 87.4659 21.181 87.6393 21.285C87.8126 21.3803 88.0206 21.428 88.2633 21.428V22H86.4563C86.2309 21.8093 86.0359 21.6057 85.8713 21.389C85.7153 21.1637 85.5463 20.9123 85.3643 20.635L84.4673 19.179C84.3546 19.0057 84.2333 18.8193 84.1033 18.62C83.9819 18.4207 83.8476 18.2517 83.7003 18.113C83.5616 18.113 83.4229 18.113 83.2843 18.113C83.1543 18.113 83.0199 18.113 82.8813 18.113V20.258C82.8813 20.492 82.8769 20.7043 82.8683 20.895C82.8683 21.077 82.8596 21.2243 82.8423 21.337C82.9463 21.3283 83.0546 21.324 83.1673 21.324C83.2886 21.3153 83.4056 21.3067 83.5183 21.298C83.6396 21.2893 83.7436 21.285 83.8303 21.285V22H80.5933ZM83.6353 17.476C84.1119 17.4673 84.5193 17.3937 84.8573 17.255C85.1953 17.1077 85.4553 16.8867 85.6373 16.592C85.8193 16.2887 85.9103 15.8987 85.9103 15.422C85.9103 15.0667 85.8583 14.7677 85.7543 14.525C85.6503 14.2823 85.5029 14.0873 85.3123 13.94C85.1216 13.784 84.8919 13.6757 84.6233 13.615C84.3633 13.5457 84.0816 13.511 83.7783 13.511C83.5009 13.511 83.2973 13.563 83.1673 13.667C83.0459 13.771 82.9679 13.9227 82.9333 14.122C82.8986 14.3213 82.8813 14.577 82.8813 14.889V17.437C83.0113 17.4457 83.1326 17.4587 83.2453 17.476C83.3666 17.4847 83.4966 17.4847 83.6353 17.476ZM94.5483 18.711C94.5483 18.3383 94.4919 18.0697 94.3793 17.905C94.2753 17.7403 94.1149 17.6407 93.8983 17.606C93.6816 17.5627 93.4129 17.5497 93.0922 17.567L92.3383 17.593V20.297C92.3383 20.531 92.3339 20.739 92.3253 20.921C92.3253 21.0943 92.3166 21.2373 92.2993 21.35L94.5353 21.324C94.8733 21.3153 95.1766 21.2547 95.4453 21.142C95.7139 21.0207 95.9263 20.817 96.0823 20.531C96.2383 20.245 96.3163 19.855 96.3163 19.361H96.8883L96.8103 22H90.0502V21.428C90.3362 21.4107 90.5399 21.35 90.6612 21.246C90.7912 21.142 90.8736 20.986 90.9082 20.778C90.9429 20.57 90.9602 20.3057 90.9602 19.985V14.577C90.9602 14.3863 90.9646 14.2043 90.9732 14.031C90.9819 13.849 90.9906 13.693 90.9992 13.563C90.8519 13.5717 90.6916 13.5803 90.5182 13.589C90.3449 13.5977 90.1889 13.6063 90.0502 13.615V12.9H96.3943L96.4592 15.253H95.8873C95.8873 14.759 95.8049 14.382 95.6403 14.122C95.4843 13.862 95.2763 13.6887 95.0163 13.602C94.7649 13.5153 94.4919 13.4763 94.1973 13.485L93.2873 13.511C93.0186 13.511 92.8149 13.5587 92.6763 13.654C92.5376 13.7407 92.4466 13.888 92.4033 14.096C92.3599 14.2953 92.3383 14.5683 92.3383 14.915V16.956H94.4833L94.4053 15.838H95.1203V18.711H94.5483ZM103.688 18.711C103.688 18.3383 103.632 18.0697 103.519 17.905C103.415 17.7403 103.255 17.6407 103.038 17.606C102.821 17.5627 102.553 17.5497 102.232 17.567L101.478 17.593V20.297C101.478 20.531 101.474 20.739 101.465 20.921C101.465 21.0943 101.456 21.2373 101.439 21.35L103.675 21.324C104.013 21.3153 104.316 21.2547 104.585 21.142C104.854 21.0207 105.066 20.817 105.222 20.531C105.378 20.245 105.456 19.855 105.456 19.361H106.028L105.95 22H99.1899V21.428C99.4759 21.4107 99.6795 21.35 99.8009 21.246C99.9309 21.142 100.013 20.986 100.048 20.778C100.083 20.57 100.1 20.3057 100.1 19.985V14.577C100.1 14.3863 100.104 14.2043 100.113 14.031C100.122 13.849 100.13 13.693 100.139 13.563C99.9915 13.5717 99.8312 13.5803 99.6579 13.589C99.4845 13.5977 99.3285 13.6063 99.1899 13.615V12.9H105.534L105.599 15.253H105.027C105.027 14.759 104.945 14.382 104.78 14.122C104.624 13.862 104.416 13.6887 104.156 13.602C103.905 13.5153 103.632 13.4763 103.337 13.485L102.427 13.511C102.158 13.511 101.955 13.5587 101.816 13.654C101.677 13.7407 101.586 13.888 101.543 14.096C101.5 14.2953 101.478 14.5683 101.478 14.915V16.956H103.623L103.545 15.838H104.26V18.711H103.688ZM115.375 22.182L110.539 15.76C110.444 15.6473 110.353 15.5303 110.266 15.409C110.18 15.2877 110.089 15.162 109.993 15.032H109.98L110.019 20.089C110.019 20.3057 110.015 20.5223 110.006 20.739C110.006 20.9557 109.998 21.155 109.98 21.337C110.128 21.3197 110.288 21.311 110.461 21.311C110.643 21.3023 110.799 21.2937 110.929 21.285V22H108.355V21.428C108.598 21.428 108.78 21.3803 108.901 21.285C109.031 21.1897 109.118 21.064 109.161 20.908C109.213 20.752 109.239 20.57 109.239 20.362V14.538C109.239 14.3647 109.239 14.1913 109.239 14.018C109.239 13.8447 109.244 13.693 109.252 13.563C109.114 13.5717 108.958 13.5803 108.784 13.589C108.62 13.5977 108.472 13.6063 108.342 13.615V12.9H110.058L114.634 18.919C114.782 19.1097 114.912 19.2873 115.024 19.452C115.146 19.6167 115.263 19.7727 115.375 19.92H115.388L115.401 14.577C115.401 14.3863 115.406 14.2043 115.414 14.031C115.423 13.849 115.432 13.693 115.44 13.563C115.284 13.5717 115.12 13.5803 114.946 13.589C114.773 13.5977 114.621 13.6063 114.491 13.615V12.9H117.065V13.472C116.788 13.4807 116.584 13.5413 116.454 13.654C116.333 13.758 116.255 13.914 116.22 14.122C116.194 14.3213 116.181 14.5857 116.181 14.915L116.168 22.182H115.375Z" fill="black"/>
</svg>
