<svg width="160" height="48" viewBox="0 0 160 48" fill="none" xmlns="http://www.w3.org/2000/svg">
<path d="M82.4722 23.7379H70.842V11.9754H70.8409L59.2101 0.212463L59.2106 35.5076L94.1036 35.5012L82.4722 23.7379Z" fill="black"/>
<path d="M81.8806 39.4816V42.4062C81.4408 42.0555 80.9092 41.8798 80.2958 41.8798C78.7693 41.8798 77.543 43.1665 77.543 44.8396C77.543 45.6118 77.8209 46.3132 78.2606 46.8282C78.7575 47.4129 79.544 47.7874 80.377 47.7874C80.944 47.7874 81.4756 47.6117 81.9383 47.214V47.6701H83.3842V39.4816H81.8806ZM81.8806 45.6815C81.5915 46.103 81.0941 46.384 80.5272 46.384C79.6829 46.384 79.0466 45.7285 79.0466 44.8396C79.0466 44.0209 79.6135 43.2838 80.4924 43.2838C81.0711 43.2838 81.5686 43.5642 81.8806 43.9852V45.6815Z" fill="black"/>
<path d="M60.7715 39.4816H59.2102V47.6702H64.1837V46.2668H60.7715V39.4816Z" fill="black"/>
<path d="M69.0416 42.4531C68.6024 42.0905 68.0349 41.8797 67.3991 41.8797C65.8725 41.8797 64.6463 43.1664 64.6463 44.8394C64.6463 45.6117 64.9241 46.3136 65.3633 46.8281C65.8608 47.4128 66.6473 47.7872 67.4803 47.7872C68.0467 47.7872 68.5788 47.6116 69.0416 47.2144V47.6705H70.4874V41.997H69.0416V42.4531ZM68.9839 45.6819C68.6942 46.1029 68.1973 46.3839 67.6304 46.3839C66.7862 46.3839 66.1498 45.7284 66.1498 44.8394C66.1498 44.0207 66.7167 43.2836 67.5957 43.2836C68.1738 43.2836 68.6713 43.5641 68.9839 43.9856V45.6819Z" fill="black"/>
<path d="M74.3391 41.8798C73.7145 41.8798 73.1823 42.1019 72.7543 42.4532V41.9965H71.3084V47.6706H72.812V43.9851C73.0204 43.6928 73.5414 43.2837 74.1772 43.2837C74.5245 43.2837 74.8248 43.4005 75.0214 43.5993C75.2298 43.8101 75.357 44.1024 75.357 44.6639V47.6706H76.8605V44.7811C76.8605 43.8101 76.6527 43.2367 76.2824 42.7925C75.8197 42.231 75.1138 41.8798 74.3391 41.8798Z" fill="black"/>
<path d="M92.2845 46.5591C91.4862 46.5591 90.8504 46.009 90.7692 45.2141H94.6558C94.6788 45.085 94.69 44.9331 94.69 44.7807C94.69 43.2017 93.5914 41.8799 92.0413 41.8799C90.3759 41.8799 89.3121 43.26 89.3121 44.839C89.3121 46.6175 90.5725 47.7874 92.2498 47.7874C93.1175 47.7874 94.0076 47.4248 94.5516 46.7699L93.6956 45.9042C93.4295 46.1965 92.9203 46.5591 92.2845 46.5591H92.2845ZM92.0413 43.1082C92.6548 43.1082 93.1057 43.5994 93.1517 44.1025H90.8386C90.9082 43.5875 91.4167 43.1082 92.0413 43.1082Z" fill="black"/>
<path d="M99.7978 45.6663L99.7564 45.6352C99.5138 46.0091 99.0281 46.3836 98.4147 46.3836C97.501 46.3836 96.8646 45.7287 96.8646 44.8397C96.8646 43.974 97.5128 43.2839 98.38 43.2839C98.9217 43.2839 99.3715 43.5627 99.6718 43.9576L100.678 42.9395C100.153 42.3026 99.3149 41.88 98.38 41.88C96.668 41.88 95.3611 43.1899 95.3611 44.8397C95.3611 46.4771 96.6338 47.7876 98.3688 47.7876C99.3564 47.7876 100.151 47.447 100.79 46.6697L99.7978 45.6663Z" fill="black"/>
<path d="M86.0384 43.6228C86.0384 43.3305 86.3857 43.1668 86.8019 43.1668C87.1 43.1668 87.3504 43.2472 87.6372 43.394L88.5705 42.4359C88.1414 42.1322 87.3773 41.8773 86.686 41.8795C85.5762 41.8827 84.5348 42.5583 84.5348 43.6461C84.5348 45.471 87.2529 45.1673 87.2529 46.0211C87.2529 46.3016 86.9409 46.501 86.5358 46.501C86.0653 46.501 85.4608 46.322 85.0636 45.9928L84.1337 46.9333C84.7903 47.4171 85.756 47.7871 86.5241 47.7871C87.7044 47.7871 88.7565 47.1208 88.7565 46.0324C88.7565 44.067 86.0384 44.3599 86.0384 43.6228Z" fill="black"/>
</svg>
