<svg width="160" height="48" viewBox="0 0 160 48" fill="none" xmlns="http://www.w3.org/2000/svg">
<g clip-path="url(#clip0_6_3)">
<path d="M147.808 44.5919H13.1923V3.40809H147.808V44.5919Z" fill="#002147"/>
<path d="M65.9205 29.1585C65.9205 25.6877 64.2286 23.2662 61.3737 23.2662C58.2699 23.2662 56.8224 26.1744 56.8224 29.1585C56.8224 32.6275 58.5162 35.0471 61.3737 35.0471C64.4762 35.0471 65.9205 32.1395 65.9205 29.1585V29.1585ZM68.0383 29.0896C68.0383 32.9066 65.0758 35.6781 61.3737 35.6781C57.5996 35.6781 54.7072 32.8756 54.7072 29.2263C54.7072 25.4067 57.6696 22.6352 61.3737 22.6352C65.1471 22.6352 68.0383 25.4415 68.0383 29.0896V29.0896ZM106.619 29.1585C106.619 25.6877 104.925 23.2662 102.07 23.2662C98.9665 23.2662 97.5209 26.1744 97.5209 29.1585C97.5209 32.6275 99.2135 35.0471 102.07 35.0471C105.172 35.0471 106.619 32.1395 106.619 29.1585V29.1585ZM108.735 29.0896C108.735 32.9066 105.772 35.6781 102.07 35.6781C98.2956 35.6781 95.4038 32.8756 95.4038 29.2263C95.4038 25.4067 98.3669 22.6352 102.07 22.6352C105.843 22.6352 108.735 25.4415 108.735 29.0896V29.0896ZM116.811 31.2587C116.07 30.2068 115.787 29.8233 114.871 29.8233H113.883V34.1011C113.883 34.4523 114.024 34.6245 114.413 34.696L115.858 35.0112V35.4695H110.18V35.0112L111.486 34.696C111.873 34.5929 112.014 34.4523 112.014 34.1011V24.2132C112.014 23.8613 111.873 23.7221 111.486 23.6177L110.18 23.3018V22.8443H115.717C116.882 22.8443 117.693 22.9506 118.362 23.1942C119.738 23.7221 120.513 25.0215 120.513 26.2455C120.513 27.7904 119.35 29.0898 117.41 29.5404V29.6106C117.798 29.7891 118.01 30.0334 119.385 31.8245L121.113 34.1011C121.36 34.4523 121.677 34.6606 122.066 34.7327L123.335 35.0112V35.4695H120.303C119.95 35.4695 119.774 35.3625 119.456 34.9403L116.811 31.2587ZM113.883 29.2258H115.47C117.869 29.2258 118.399 27.7214 118.399 26.2815C118.399 25.1942 117.904 24.1772 116.775 23.6873C116.176 23.4411 115.611 23.4411 114.836 23.4411H113.883V29.2258ZM91.9482 27.1578H92.4778V31.3666H91.9482L91.6306 30.1053C91.5243 29.647 91.2429 29.473 90.8196 29.473H87.7508V34.1015C87.7508 34.4521 87.8921 34.6249 88.2804 34.6964L89.726 35.0116V35.4698H84.0487V35.0116L85.3536 34.6964C85.7413 34.5932 85.8832 34.4521 85.8832 34.1015V24.213C85.8832 23.8617 85.7413 23.7224 85.3536 23.618L84.0487 23.3016V22.8446H93.6408V26.0034H93.1118L92.5128 24.1072C92.3715 23.618 92.1595 23.4414 91.7363 23.4414H87.7508V28.8755H90.8196C91.2429 28.8755 91.4893 28.7028 91.6306 28.2446L91.9482 27.1578ZM128.061 23.4412V34.3095C128.061 34.7677 128.166 34.8746 128.625 34.8746H130.176C131.658 34.8746 132.751 34.6607 133.527 34.1012C134.832 33.1557 135.431 31.4373 135.431 29.262C135.431 27.1235 134.832 25.0216 133.069 24.0038C132.329 23.5817 131.376 23.4412 129.894 23.4412H128.061ZM124.357 35.4696V35.0113L125.662 34.6961C126.05 34.593 126.191 34.4518 126.191 34.1012V24.2127C126.191 23.8614 126.05 23.7222 125.662 23.6178L124.357 23.302V22.8444H130.318C131.94 22.8444 133.103 23.0551 134.056 23.476C136.454 24.5633 137.548 26.9121 137.548 29.226C137.548 31.4734 136.701 33.5746 134.55 34.6961C133.563 35.2253 132.187 35.4696 130.389 35.4696H124.357ZM73.0112 35.0114V35.4696H68.5325V35.0114L69.6592 34.7323C70.0844 34.6247 70.3651 34.488 70.6471 34.1728L74.5268 29.3336L70.6471 24.2128C70.4008 23.8615 70.0844 23.6874 69.6949 23.5818L68.6369 23.302V22.8444H74.2092V23.302L73.0112 23.5463C72.5873 23.6178 72.693 23.7919 72.9036 24.0735L75.7605 28.1406H75.8311L78.7586 24.0735C78.9706 23.7919 79.0419 23.6874 78.6529 23.5818L77.5243 23.302V22.8444H82.0031V23.302L80.8744 23.5818C80.4524 23.6874 80.1698 23.8261 79.8865 24.1419L76.2194 28.738L80.3098 34.1013C80.5581 34.4519 80.8744 34.6247 81.2621 34.7323L82.3213 35.0114V35.4696H76.749V35.0114L77.9476 34.7677C78.3715 34.6962 78.3003 34.5595 78.0889 34.2734L74.9851 29.926H74.9151L71.7764 34.2437C71.5644 34.5234 71.4937 34.6247 71.882 34.7323L73.0112 35.0114ZM59.6519 16.9036C59.3012 17.2523 58.7754 17.4846 58.0408 17.4846C57.4011 17.4846 56.8085 17.2846 56.4068 16.8852C55.8588 16.3409 55.8842 15.646 55.8842 14.9036V11.3923H56.6041V15.1644C56.6041 15.6416 56.5895 16.1068 56.9606 16.4751C57.2178 16.7308 57.6131 16.8688 58.0688 16.8688C58.5138 16.8688 58.8715 16.7163 59.0937 16.4941C59.5061 16.0846 59.48 15.6371 59.48 14.5568V11.3923H60.1898V14.3707C60.1898 15.503 60.2356 16.3232 59.6519 16.9036V16.9036ZM66.043 17.3724L63.1454 12.4705L63.1639 17.3724H62.5019V11.3921H63.2396L66.148 16.3211L66.1296 11.3921H66.7922V17.3724H66.043ZM69.2997 11.3922H70.0235V17.3719H69.2997V11.3922ZM74.5227 17.3718H73.6939L71.6207 11.3921H72.375L74.1287 16.6712L75.9352 11.3921H76.6354L74.5227 17.3718ZM78.2725 17.3718V11.3921H81.5424V11.9883H78.9816V13.9617H81.3858V14.5434H78.9816V16.7579H81.6136V17.3718H78.2725ZM86.8431 17.3718L86.1524 15.8219C85.7246 14.8687 85.5292 14.7706 84.6572 14.7706H84.2383V17.3718H83.5286V11.3921H84.8265C85.6285 11.3921 86.2339 11.3871 86.7068 11.8573C87.0079 12.1567 87.176 12.5541 87.176 13.0529C87.176 13.4687 87.0544 13.8143 86.8029 14.0807C86.5865 14.3098 86.2282 14.5111 85.8386 14.5522C86.0499 14.5642 86.225 14.6782 86.3383 14.7915C86.5025 14.9535 86.6215 15.2003 86.7978 15.5915L87.5967 17.3718H86.8431ZM86.1862 12.2921C85.8418 11.9491 85.3943 11.9649 84.9042 11.9649H84.2383V14.1984H84.477C85.0843 14.1984 85.738 14.2295 86.1505 13.8193C86.3497 13.6212 86.4611 13.3434 86.4611 13.0402C86.4611 12.7035 86.3281 12.4333 86.1862 12.2921V12.2921ZM94.6214 11.3922H95.3452V17.3719H94.6214V11.3922ZM99.4741 11.9884V17.3719H98.7516V11.9884H96.9629V11.3922H101.256V11.9884H99.4741ZM104.718 15.0085V17.3718H104.004V15.0085L102.095 11.3921H102.922L104.404 14.1964L105.843 11.3921H106.627L104.718 15.0085ZM113.376 17.4849C111.819 17.4849 110.681 16.2064 110.681 14.409C110.681 12.5621 111.807 11.2792 113.432 11.2792C115.005 11.2792 116.117 12.5488 116.117 14.3539C116.117 16.2051 115.003 17.4849 113.376 17.4849V17.4849ZM113.373 11.89C112.195 11.89 111.43 12.8799 111.43 14.371C111.43 15.857 112.282 16.8684 113.412 16.8684C114.669 16.8684 115.369 15.8051 115.369 14.3241C115.369 12.8647 114.543 11.89 113.373 11.89ZM118.813 11.9884V13.9618H121.138V14.5434H118.813V17.3719H118.095V11.3922H121.289V11.9884H118.813ZM89.0542 12.851C89.0542 11.9321 89.7976 11.2783 90.8842 11.2783C91.9841 11.2783 92.5119 11.8428 92.5653 11.901L92.2127 12.3257C92.0777 12.2225 91.5965 11.8707 90.9313 11.8707C90.1643 11.8707 89.7397 12.2694 89.7397 12.8105C89.7397 13.0726 89.8473 13.2612 90.021 13.4162C90.2273 13.5997 90.5284 13.7358 90.8524 13.8846C91.2559 14.0688 91.8085 14.2757 92.1789 14.658C92.4348 14.9219 92.6283 15.2656 92.6283 15.7371C92.6283 16.7314 91.9345 17.489 90.6863 17.489C89.622 17.489 88.951 16.906 88.888 16.8478L89.219 16.363C89.3896 16.489 90.058 16.882 90.6684 16.882C91.5736 16.882 91.9122 16.389 91.9122 15.7953C91.9122 15.5187 91.7862 15.2966 91.5984 15.1181C91.3177 14.8498 90.8931 14.6694 90.4864 14.4845C90.0822 14.301 89.6933 14.1086 89.4176 13.8207C89.2356 13.6314 89.0542 13.3213 89.0542 12.851V12.851ZM33.7799 19.5001C33.7799 18.9717 33.5998 18.5445 33.2102 18.3173C32.9664 18.1748 32.6361 18.128 32.2287 18.128H29.2637V24.0793H32.4903C33.2344 24.0793 33.6717 24.2457 33.7093 24.909H33.7799V19.5001ZM34.194 19.5001C34.194 18.9717 34.3742 18.5445 34.7637 18.3173C35.0082 18.1748 35.3385 18.128 35.7465 18.128H38.7313V24.0793H35.4843C34.7408 24.0793 34.3035 24.2457 34.2653 24.909H34.194V19.5001Z" fill="white"/>
<path d="M39.3556 18.5679V24.8595H34.7674L34.7152 24.988C34.6356 25.1842 34.4924 25.3659 33.9921 25.3659C33.4918 25.3659 33.3492 25.1842 33.269 24.988L33.2168 24.8595H28.6407V18.568H28.2269V18.7597L27.8297 18.6382C27.7839 18.4831 27.6413 18.3686 27.4701 18.3686C27.2625 18.3686 27.0932 18.5369 27.0932 18.7432C27.0932 18.9508 27.2625 19.1186 27.4701 19.1186C27.5611 19.1186 27.6432 19.085 27.7081 19.0318L28.2269 19.1901V19.6958L27.8374 19.6262C27.8083 19.5586 27.7599 19.5011 27.6983 19.4607C27.6366 19.4203 27.5643 19.3988 27.4904 19.3989C27.2829 19.3989 27.1136 19.5667 27.1136 19.7736C27.1136 19.9806 27.2829 20.1483 27.4904 20.1483C27.598 20.1483 27.6948 20.1027 27.7635 20.0312L28.2269 20.1141V20.6293L27.8195 20.6116C27.754 20.5027 27.6349 20.4287 27.4975 20.4287C27.2899 20.4287 27.1206 20.5964 27.1206 20.8034C27.1206 21.0103 27.2899 21.1787 27.4975 21.1787C27.6235 21.1787 27.7336 21.1166 27.8023 21.023L28.2269 21.0413V21.6014L27.8106 21.6166C27.7761 21.5679 27.7302 21.5281 27.6769 21.5007C27.6236 21.4732 27.5644 21.459 27.5044 21.4591C27.2969 21.4591 27.1276 21.6268 27.1276 21.8337C27.1276 22.0407 27.2969 22.2084 27.5044 22.2084C27.6407 22.2084 27.7591 22.1356 27.8253 22.028L28.2269 22.0135V22.5299L27.7718 22.6078C27.7367 22.5703 27.6942 22.5404 27.647 22.5199C27.5999 22.4995 27.5489 22.4889 27.4975 22.4888C27.2899 22.4888 27.1206 22.6565 27.1206 22.8635C27.1206 23.0704 27.2899 23.2381 27.4975 23.2381C27.5709 23.2382 27.6427 23.2169 27.7042 23.1769C27.7656 23.1368 27.8139 23.0798 27.8431 23.0128L28.2269 22.9477V23.4546L27.7292 23.6052C27.6642 23.5521 27.5815 23.5185 27.4904 23.5185C27.3905 23.5185 27.2946 23.558 27.224 23.6283C27.1533 23.6985 27.1136 23.7938 27.1136 23.8932C27.1136 23.9926 27.1533 24.0879 27.224 24.1582C27.2946 24.2284 27.3905 24.2679 27.4904 24.2679C27.6617 24.2679 27.8049 24.154 27.8507 23.9989L28.2269 23.8844V24.3748L27.677 24.6109C27.6157 24.5704 27.5437 24.5488 27.4701 24.5489C27.2625 24.5489 27.0932 24.7166 27.0932 24.9236C27.0932 25.1305 27.2625 25.2983 27.4701 25.2983C27.6553 25.2983 27.8094 25.1647 27.8405 24.9888L28.2269 24.8229V25.271H32.9615C33.1544 25.6046 33.4873 25.7773 33.9921 25.7773C34.4969 25.7773 34.8304 25.6046 35.022 25.271H39.7693V18.568L39.3556 18.5679ZM30.8769 16.4697C29.9196 16.4697 29.1443 16.6178 29.1443 16.8001C29.1443 16.983 29.9196 17.1305 30.8769 17.1305C31.8336 17.1305 32.6096 16.983 32.6096 16.8001C32.6096 16.6178 31.8336 16.4697 30.8769 16.4697V16.4697ZM33.2625 14.4058L32.2625 15.1045L32.2542 15.1754L32.4917 15.2817C32.5388 15.3051 32.5388 15.3425 32.5152 15.3652L31.887 15.8925L31.8271 15.8874L31.3822 15.2355C31.351 15.1931 31.3624 15.1507 31.4165 15.1419L31.7151 15.0931V15.0184L30.9404 13.9305H30.8131L30.0384 15.0184V15.0931L30.3376 15.1419C30.3911 15.1507 30.4019 15.1931 30.3713 15.2355L29.9257 15.8874L29.8672 15.8925L29.2797 15.3652C29.2561 15.3425 29.2561 15.3051 29.3032 15.2817L29.5413 15.1754L29.5324 15.1045L28.4904 14.4058L28.4063 14.4387L29.0174 16.2969C29.3287 16.1583 30.0416 16.0608 30.8761 16.057C31.7119 16.0608 32.4248 16.1583 32.7354 16.2969L33.3472 14.4387L33.2625 14.4058ZM33.9845 28.9319C33.0272 28.9319 32.2519 29.08 32.2519 29.2622C32.2519 29.4451 33.0272 29.5926 33.9845 29.5926C34.9412 29.5926 35.7172 29.4451 35.7172 29.2622C35.7172 29.08 34.9412 28.9319 33.9845 28.9319ZM36.3702 26.8677L35.3702 27.5671L35.3619 27.638L35.5993 27.7437C35.6464 27.7671 35.6464 27.8044 35.6228 27.8272L34.9946 28.355L34.9348 28.3494L34.4898 27.6975C34.4593 27.6551 34.4701 27.6127 34.5242 27.6038L34.8227 27.5557V27.4804L34.048 26.3924H33.9207L33.1461 27.4804V27.5557L33.4453 27.6038C33.4987 27.6127 33.5095 27.6551 33.479 27.6975L33.0334 28.3494L32.9742 28.355L32.3879 27.8272C32.3637 27.8044 32.3638 27.7671 32.4109 27.7437L32.6489 27.638L32.64 27.5671L31.598 26.8677L31.5133 26.9006L32.1257 28.7595C32.4363 28.6203 33.1492 28.5228 33.9844 28.519C34.8195 28.5228 35.5331 28.6203 35.8431 28.7595L36.4548 26.9006L36.3702 26.8677ZM37.0853 16.4697C36.1273 16.4697 35.352 16.6178 35.352 16.8001C35.352 16.983 36.1273 17.1305 37.0853 17.1305C38.0414 17.1305 38.8173 16.983 38.8173 16.8001C38.8173 16.6178 38.0414 16.4697 37.0853 16.4697ZM39.4704 14.4058L38.4704 15.1045L38.4615 15.1754L38.6995 15.2817C38.746 15.3051 38.7466 15.3425 38.7225 15.3652L38.0942 15.8925L38.035 15.8874L37.59 15.2355C37.5589 15.1931 37.5703 15.1507 37.6238 15.1419L37.9223 15.0931V15.0184L37.1477 13.9305H37.021L36.2464 15.0185V15.0931L36.5449 15.1419C36.599 15.1508 36.6098 15.1931 36.5792 15.2356L36.1343 15.8875L36.0745 15.8925L35.4876 15.3584C35.464 15.3362 35.464 15.2982 35.5111 15.2748L35.7492 15.1754L35.7403 15.1045L34.6983 14.4058L34.6136 14.4387L35.2253 16.2969C35.536 16.1584 36.2489 16.0609 37.0847 16.0571C37.9198 16.0609 38.6327 16.1584 38.9428 16.2969L39.5551 14.4387L39.4704 14.4058Z" fill="white"/>
<path d="M29.9647 19.7162C29.9647 19.8327 29.994 19.8555 30.0571 19.8555C30.171 19.8555 30.2856 19.7308 30.2856 19.4985C30.2856 19.2163 30.1417 19.1378 30.0297 19.1378C29.9991 19.1378 29.982 19.1416 29.9731 19.1472C29.966 19.1492 29.9647 19.1795 29.9647 19.2125V19.7162ZM30.0297 19.0719C30.192 19.0719 30.327 19.1036 30.4148 19.189C30.4765 19.2479 30.5281 19.3447 30.5281 19.458C30.5281 19.7846 30.2792 19.9251 29.9737 19.9251H29.6337V19.8738C29.7299 19.8656 29.7407 19.8567 29.7407 19.7149V19.282C29.7407 19.1403 29.7299 19.1307 29.6439 19.1231V19.0719L30.0297 19.0719ZM30.8883 19.4656C30.8883 19.7035 30.9781 19.8763 31.1073 19.8763C31.2212 19.8763 31.283 19.7674 31.283 19.5301C31.283 19.2662 31.1881 19.1206 31.0742 19.1206C30.973 19.1206 30.8883 19.2365 30.8883 19.4656V19.4656ZM31.5287 19.4877C31.5287 19.7687 31.3358 19.9447 31.0825 19.9447C30.8164 19.9447 30.6433 19.7516 30.6433 19.5105C30.6433 19.2978 30.7858 19.0523 31.101 19.0523C31.3422 19.0523 31.5287 19.2282 31.5287 19.4877V19.4877ZM32.6937 19.0719V19.1232C32.5932 19.1327 32.5881 19.1378 32.5919 19.2757L32.6053 19.715C32.6091 19.8606 32.6123 19.8643 32.7071 19.8738V19.9251H32.294V19.8738C32.3927 19.8643 32.3965 19.8605 32.3952 19.7149L32.392 19.2529H32.3863L32.1317 19.9105H32.0604L31.8185 19.2991H31.816L31.8071 19.5902C31.8032 19.7029 31.8045 19.7662 31.8096 19.8067C31.8147 19.8554 31.844 19.8674 31.9293 19.8738V19.9251H31.604V19.8738C31.667 19.8681 31.6918 19.8554 31.7001 19.8067C31.7071 19.7662 31.7147 19.6966 31.7211 19.577L31.7351 19.3124C31.7453 19.1472 31.7345 19.1327 31.6301 19.1231V19.0719H31.9401L32.1712 19.5915L32.3729 19.0719L32.6937 19.0719ZM33.1224 19.715C33.1224 19.8568 33.1326 19.8656 33.2236 19.8738V19.9251H32.7965V19.8738C32.8875 19.8656 32.8983 19.8567 32.8983 19.7149V19.282C32.8983 19.1403 32.8875 19.1307 32.7965 19.1231V19.0719H33.2236V19.1231C33.1326 19.1307 33.1224 19.1403 33.1224 19.282V19.715ZM30.9974 21.5084H30.8841L30.3958 20.8887H30.3927V21.1305C30.3927 21.2679 30.3984 21.34 30.4035 21.3811C30.4098 21.4274 30.4455 21.4438 30.5327 21.4482V21.4989H30.2042V21.4482C30.2621 21.4451 30.2965 21.4274 30.3035 21.3811C30.3086 21.34 30.3137 21.2679 30.3137 21.1305V20.8887C30.3137 20.7919 30.3112 20.7748 30.2844 20.7381C30.2654 20.7103 30.2323 20.7014 30.1845 20.6976V20.6464H30.476L30.9152 21.1907H30.9184V21.0153C30.9184 20.8774 30.9127 20.8052 30.9076 20.7647C30.9012 20.7185 30.865 20.7014 30.7784 20.6976V20.6464H31.1145V20.6976C31.0489 20.7001 31.0145 20.7185 31.0076 20.7647C31.0025 20.8052 30.9974 20.8774 30.9974 21.0153V21.5084ZM31.5319 21.5084C31.444 21.2806 31.3564 21.0528 31.269 20.8248C31.2257 20.7122 31.1996 20.7052 31.1359 20.6976V20.6464H31.5618V20.6976L31.5173 20.7027C31.4682 20.7077 31.4682 20.7198 31.4829 20.766C31.5064 20.8394 31.6108 21.0976 31.6598 21.2261C31.7006 21.1147 31.7852 20.8641 31.8062 20.8027C31.8336 20.7223 31.8259 20.7077 31.7668 20.7014L31.7266 20.6976V20.6464H32.0469V20.6976C31.9711 20.7065 31.9526 20.7135 31.9011 20.833C31.8928 20.8508 31.7317 21.2406 31.6331 21.5084H31.5319ZM32.1269 21.2289C32.1543 21.3048 32.232 21.4504 32.3618 21.4504C32.4306 21.4504 32.4834 21.4061 32.4834 21.3206C32.4834 21.2434 32.4318 21.1998 32.351 21.1631L32.3313 21.1542C32.2237 21.1042 32.1008 21.0358 32.1008 20.896C32.1008 20.7472 32.2084 20.6264 32.4159 20.6264C32.4569 20.6265 32.4978 20.6318 32.5375 20.6422C32.5674 20.6504 32.5884 20.6555 32.6056 20.6611C32.6107 20.7118 32.6203 20.7763 32.6349 20.8656L32.577 20.8745C32.5477 20.7877 32.5019 20.6947 32.3975 20.6947C32.33 20.6947 32.2822 20.746 32.2822 20.8092C32.2822 20.8745 32.3344 20.9124 32.4184 20.951L32.4471 20.9637C32.5693 21.0188 32.6731 21.0859 32.6731 21.2396C32.6731 21.4004 32.5426 21.5188 32.3382 21.5188C32.2848 21.5188 32.2307 21.5086 32.1957 21.4966C32.1562 21.4833 32.1282 21.4732 32.1129 21.4649C32.1021 21.4048 32.0849 21.334 32.069 21.246L32.1269 21.2289ZM30.4106 22.8635C30.4106 23.0052 30.4208 23.0141 30.5124 23.0223V23.0736H30.0847V23.0223C30.1757 23.0141 30.1865 23.0052 30.1865 22.8635V22.4305C30.1865 22.2888 30.1757 22.2793 30.0847 22.2717V22.2204H30.5124V22.2717C30.4208 22.2793 30.4106 22.2888 30.4106 22.4305V22.8635ZM30.9328 22.8804C30.9328 22.9488 30.9354 22.9811 30.9589 22.9931C30.9806 23.0039 31.0105 23.0051 31.0512 23.0051C31.0939 23.0051 31.1512 23.0013 31.1785 22.9672C31.1995 22.9424 31.2218 22.907 31.2428 22.8374L31.3001 22.8462C31.2918 22.8963 31.2645 23.033 31.2523 23.0735H30.598V23.0222C30.6979 23.014 30.7087 23.0051 30.7087 22.8634V22.4304C30.7087 22.2887 30.6979 22.2798 30.6094 22.2716V22.2203H31.0385V22.2716C30.9437 22.2798 30.9328 22.2887 30.9328 22.4304V22.8804ZM31.6694 22.8804C31.6694 22.9488 31.672 22.9811 31.6955 22.9931C31.7165 23.0039 31.7465 23.0051 31.7878 23.0051C31.8305 23.0051 31.8871 23.0013 31.9145 22.9672C31.9355 22.9424 31.9584 22.907 31.9788 22.8374L32.0361 22.8462C32.0284 22.8963 32.0004 23.033 31.9883 23.0735H31.334V23.0222C31.4346 23.014 31.4447 23.0051 31.4447 22.8634V22.4304C31.4447 22.2887 31.4346 22.2798 31.346 22.2716V22.2203H31.7745V22.2716C31.6796 22.2798 31.6694 22.2887 31.6694 22.4304V22.8804ZM32.2998 23.0825C32.2121 22.8548 32.1247 22.627 32.0376 22.399C31.9937 22.2863 31.967 22.2794 31.9039 22.2718V22.2205H32.3304V22.2718L32.2852 22.2768C32.2362 22.2819 32.2362 22.2939 32.2515 22.3401C32.275 22.4135 32.3794 22.6718 32.4278 22.8003C32.4686 22.6889 32.5532 22.4382 32.5742 22.3768C32.6022 22.2965 32.5946 22.2819 32.5348 22.2756L32.4953 22.2718V22.2205H32.8142V22.2718C32.7391 22.2806 32.7206 22.2876 32.669 22.4072C32.6608 22.4249 32.5004 22.8148 32.4017 23.0825H32.2998ZM35.8439 19.0719V19.1232C35.7433 19.1327 35.7382 19.1378 35.742 19.2757L35.7554 19.715C35.7592 19.8606 35.7624 19.8643 35.8572 19.8738V19.9251H35.4441V19.8738C35.5428 19.8643 35.5466 19.8605 35.5453 19.7149L35.5415 19.2529H35.5364L35.2812 19.9105H35.2105L34.9692 19.2991H34.9667L34.9572 19.5902C34.9534 19.7029 34.9546 19.7662 34.9597 19.8067C34.9648 19.8554 34.9934 19.8674 35.0794 19.8738V19.9251H34.7541V19.8738C34.8171 19.8681 34.8419 19.8554 34.8502 19.8067C34.8572 19.7662 34.8649 19.6966 34.8712 19.577L34.8852 19.3124C34.8954 19.1472 34.8846 19.1327 34.7802 19.1231V19.0719H35.0902L35.3213 19.5915L35.523 19.0719L35.8439 19.0719ZM36.2723 19.715C36.2723 19.8568 36.2831 19.8656 36.3741 19.8738V19.9251H35.9464V19.8738C36.0374 19.8656 36.0482 19.8567 36.0482 19.7149V19.282C36.0482 19.1403 36.0374 19.1307 35.9464 19.1231V19.0719H36.3741V19.1231C36.2831 19.1307 36.2723 19.1403 36.2723 19.282V19.715ZM37.254 19.934H37.1407L36.6525 19.3144H36.6499V19.5561C36.6499 19.6935 36.655 19.7663 36.6607 19.8068C36.6671 19.853 36.7027 19.8695 36.79 19.8739V19.9245H36.4608V19.8739C36.5188 19.8707 36.5538 19.853 36.5601 19.8068C36.5652 19.7663 36.571 19.6935 36.571 19.5561V19.3144C36.571 19.2176 36.5684 19.2005 36.5417 19.1637C36.522 19.1366 36.4889 19.127 36.4417 19.1232V19.072H36.7327L37.1725 19.6163H37.1744V19.441C37.1744 19.303 37.17 19.2308 37.1649 19.1903C37.1572 19.1442 37.1222 19.127 37.035 19.1232V19.072H37.3718V19.1232C37.3056 19.1258 37.2712 19.1442 37.2648 19.1903C37.2597 19.2308 37.254 19.303 37.254 19.441V19.934ZM37.6384 19.589H37.8071L37.7237 19.3383H37.7199L37.6384 19.589ZM37.8052 19.8738L37.8453 19.8681C37.8943 19.8618 37.8968 19.8484 37.8797 19.8016L37.8319 19.6674H37.6155L37.576 19.7934C37.5589 19.8504 37.5589 19.863 37.6193 19.87L37.6575 19.8738V19.9251H37.3501V19.8738C37.4182 19.8643 37.4379 19.8592 37.4812 19.7491L37.7453 19.0706L37.8357 19.0523L37.9261 19.3004C37.9821 19.4567 38.0388 19.6111 38.0891 19.7453C38.1317 19.8592 38.1553 19.8656 38.2202 19.8738V19.9251H37.8052V19.8738ZM35.8336 21.2891C35.8336 21.4309 35.8438 21.4398 35.9546 21.448V21.4993H35.493V21.448C35.5981 21.4398 35.6089 21.4309 35.6089 21.2891V20.7145H35.5866C35.4981 20.7145 35.4625 20.7303 35.4415 20.7543C35.4262 20.7733 35.4097 20.8075 35.3931 20.8816H35.3371C35.3422 20.7708 35.3505 20.6803 35.353 20.6138H35.3937C35.4135 20.6436 35.4275 20.6461 35.4625 20.6461H35.9889C36.0239 20.6461 36.0297 20.6385 36.0507 20.6138H36.0921C36.0933 20.6689 36.0997 20.7803 36.1067 20.8771L36.0481 20.8816C36.029 20.8024 36.0144 20.7682 35.9946 20.7461C35.9717 20.7221 35.9278 20.7145 35.8648 20.7145H35.8336V21.2891ZM36.5242 21.2891C36.5242 21.4309 36.5351 21.4398 36.6255 21.448V21.4993H36.1983V21.448C36.2894 21.4398 36.3002 21.4309 36.3002 21.2891V20.8562C36.3002 20.7145 36.2894 20.7056 36.1983 20.6974V20.6461H36.6255V20.6974C36.5351 20.7056 36.5242 20.7145 36.5242 20.8562V21.2891ZM36.9812 21.0397C36.9812 21.2777 37.071 21.4505 37.2001 21.4505C37.3141 21.4505 37.3758 21.3416 37.3758 21.1043C37.3758 20.8403 37.281 20.6948 37.167 20.6948C37.0659 20.6948 36.9812 20.8106 36.9812 21.0397ZM37.6215 21.0625C37.6215 21.3429 37.4287 21.5188 37.1753 21.5188C36.9093 21.5188 36.7361 21.3258 36.7361 21.0846C36.7361 20.872 36.8781 20.6264 37.1938 20.6264C37.4351 20.6264 37.6215 20.8024 37.6215 21.0625V21.0625ZM36.2229 22.2206V22.2718C36.1223 22.2807 36.1172 22.2864 36.121 22.4237L36.1344 22.8636C36.1382 23.0092 36.1407 23.013 36.2356 23.0224V23.0731H35.8231V23.0224C35.9218 23.013 35.9262 23.0092 35.9243 22.8636L35.9205 22.4016H35.9154L35.6608 23.0592H35.5895L35.3483 22.4478H35.3451L35.3361 22.7389C35.3317 22.8516 35.3336 22.9142 35.3387 22.9554C35.3438 23.0035 35.3725 23.0155 35.459 23.0224V23.0731H35.1325V23.0224C35.1961 23.0168 35.2216 23.0035 35.2292 22.9554C35.2362 22.9142 35.2439 22.8452 35.2502 22.7256L35.2642 22.4604C35.2738 22.2953 35.2642 22.2807 35.1592 22.2718V22.2206H35.4692L35.7003 22.7402L35.9021 22.2206H36.2229ZM36.4269 22.4304C36.4269 22.2887 36.4161 22.2798 36.3283 22.2716V22.2203H36.9534C36.9553 22.2431 36.9616 22.3387 36.968 22.4368L36.9101 22.4412C36.8967 22.3767 36.8821 22.34 36.861 22.3191C36.8401 22.2969 36.7961 22.2887 36.7268 22.2887H36.7038C36.6542 22.2887 36.651 22.2887 36.651 22.3349V22.5881H36.7172C36.8305 22.5881 36.835 22.5798 36.8483 22.4805H36.9056V22.7899H36.8483C36.835 22.6747 36.8305 22.6665 36.7172 22.6665H36.651V22.8805C36.651 22.9488 36.6542 22.9811 36.6777 22.9931C36.6988 23.0039 36.7293 23.0051 36.77 23.0051C36.8229 23.0051 36.8814 22.9975 36.9101 22.9659C36.9323 22.9425 36.9553 22.8937 36.975 22.8304L37.0323 22.84C37.0266 22.9039 36.9985 23.038 36.9865 23.0735H36.3149V23.0222C36.4161 23.014 36.4269 23.0051 36.4269 22.8634V22.4304ZM37.3282 22.7375H37.4975L37.4142 22.4869H37.4097L37.3282 22.7375ZM37.4963 23.0223L37.5357 23.0166C37.5841 23.0102 37.5873 22.997 37.5701 22.9501L37.5217 22.816H37.306L37.2658 22.9419C37.2487 22.9988 37.2487 23.0115 37.3098 23.0185L37.3473 23.0223V23.0735H37.0412V23.0223C37.1074 23.0134 37.1283 23.0077 37.171 22.8976L37.4352 22.2191L37.5268 22.2008L37.6153 22.4489C37.6726 22.6052 37.7292 22.7596 37.7796 22.8938C37.8222 23.0077 37.8458 23.014 37.91 23.0223V23.0735H37.4963V23.0223Z" fill="#002147"/>
<path d="M32.7948 33.628C32.7948 33.6731 32.7859 33.7177 32.7685 33.7593C32.7512 33.8009 32.7258 33.8388 32.6938 33.8706C32.6617 33.9025 32.6237 33.9277 32.5818 33.945C32.5399 33.9622 32.4951 33.9711 32.4498 33.971C32.4044 33.9711 32.3595 33.9623 32.3175 33.9451C32.2756 33.9279 32.2375 33.9027 32.2054 33.8708C32.1733 33.8389 32.1478 33.8011 32.1304 33.7594C32.113 33.7178 32.1041 33.6731 32.1041 33.628C32.1041 33.4387 32.2588 33.285 32.4498 33.285C32.5412 33.285 32.629 33.3212 32.6936 33.3855C32.7583 33.4498 32.7947 33.5371 32.7948 33.628ZM36.2942 34.1987C36.2942 34.2437 36.2853 34.2884 36.268 34.33C36.2507 34.3716 36.2253 34.4094 36.1932 34.4413C36.1612 34.4732 36.1231 34.4984 36.0813 34.5157C36.0394 34.5329 35.9945 34.5417 35.9492 34.5417C35.9039 34.5418 35.8589 34.533 35.817 34.5158C35.7751 34.4986 35.737 34.4733 35.7049 34.4415C35.6728 34.4096 35.6473 34.3718 35.6299 34.3301C35.6125 34.2884 35.6036 34.2438 35.6036 34.1987C35.6036 34.0094 35.7583 33.8563 35.9492 33.8563C36.1396 33.8563 36.2942 34.0094 36.2942 34.1987ZM34.3164 9.40338C34.3164 9.59259 34.1618 9.74642 33.9708 9.74642C33.7804 9.74642 33.6264 9.59259 33.6264 9.40338C33.6264 9.21412 33.7804 9.06035 33.9708 9.06035C34.1618 9.06035 34.3164 9.21412 34.3164 9.40338ZM42.5283 12.6149C42.52 12.8042 42.3589 12.951 42.1686 12.9434C41.9783 12.9352 41.8306 12.7751 41.8383 12.5858C41.8422 12.4949 41.8824 12.4093 41.9498 12.3479C42.0173 12.2864 42.1065 12.254 42.1979 12.258C42.3876 12.2662 42.5359 12.4257 42.5283 12.6149V12.6149ZM25.2217 27.3425C25.3541 27.5324 25.4216 27.7355 25.421 27.9456C25.4203 28.1855 25.3401 28.3798 24.9085 28.6767L23.6628 29.5595L23.433 29.2317C23.433 29.2317 24.7093 28.3279 24.7303 28.3134C24.9505 28.1621 25.0441 28.0514 25.0447 27.8786C25.0447 27.7684 25.004 27.6488 24.9245 27.5342C24.7997 27.3558 24.6393 27.2982 24.4986 27.2982C24.37 27.2982 24.2325 27.3874 23.9868 27.5577L22.8149 28.3482L22.5902 28.026L23.7048 27.2748C24.0155 27.0583 24.2624 26.9096 24.4922 26.9102C24.827 26.9109 25.0715 27.1273 25.2217 27.3425ZM21.24 24.9237L23.6105 24.0972L23.7417 24.4541L22.3852 26.1016L24.0994 25.4275L24.2274 25.7756L21.8836 26.6706L21.7525 26.3136L23.116 24.6636L21.3673 25.2718L21.24 24.9237ZM20.8853 23.047L23.3666 22.6812L23.4258 23.0761L20.9445 23.4419L20.8853 23.047ZM20.8118 20.0724L20.8213 19.6584L23.2981 20.6591L23.2803 21.0699L20.7373 21.8236L20.7399 21.409L22.8023 20.8344L20.8118 20.0724ZM22.63 15.2481C22.7771 14.9823 22.8821 14.8817 23.0374 14.8823C23.0953 14.8823 23.1679 14.8962 23.2405 14.9361C23.3347 14.9886 23.4066 15.0747 23.4333 15.1671C23.4438 15.202 23.4487 15.2383 23.448 15.2747C23.4467 15.4228 23.364 15.5721 23.2767 15.7278L23.2252 15.8202L22.5186 15.4424L22.63 15.2481ZM23.0762 14.4924C22.7217 14.4931 22.5574 14.6949 22.3315 15.1013L22.0367 15.626L24.2468 16.8183L24.4372 16.4753L23.5193 15.9766L23.5727 15.8785C23.7274 15.6 23.7809 15.5582 24.1749 15.5911L24.8904 15.6544L25.0947 15.2855L24.2704 15.2158C24.1042 15.2006 23.9738 15.188 23.8681 15.219C23.8324 15.2291 23.7904 15.2506 23.749 15.2791C23.7586 15.2348 23.7758 15.1911 23.7764 15.1462C23.7764 15.0759 23.7669 15.0063 23.7452 14.943C23.6975 14.7962 23.5924 14.6779 23.4333 14.5905C23.3149 14.5253 23.1965 14.4918 23.0762 14.4924V14.4924ZM25.8216 10.9675L26.1411 10.7257L27.6631 12.708L27.3436 12.9497L25.8216 10.9675ZM27.199 9.99512L28.8222 9.15528L28.9801 9.45781L28.3486 9.785L29.3487 11.6945L28.9928 11.8786L27.9922 9.9692L27.3576 10.2983L27.199 9.99512ZM31.2471 8.3965L31.6704 8.27944L31.3299 9.94778L31.6055 10.8952L31.2229 11.0047L30.9536 10.0648L29.762 8.8288L30.1745 8.70982L31.0313 9.59776L31.2471 8.3965ZM38.9013 11.8062L40.175 9.65756L41.3736 10.3594L41.1992 10.6537L40.3431 10.1518L39.9911 10.7468L40.7963 11.2183L40.6263 11.5062L39.8211 11.0341L39.2444 12.0075L38.9013 11.8062ZM45.3466 17.3622L46.26 16.2756L46.402 16.7059L45.7222 17.4794L46.7324 17.7053L46.866 18.1103L45.4841 17.7781L44.5026 18.9477L44.3631 18.5249L45.1035 17.666L43.9959 17.4148L43.8609 17.0059L45.3466 17.3622ZM44.6298 19.813L47.1301 19.6105L47.2434 20.9889L46.901 21.0168L46.8208 20.0326L46.1288 20.0883L46.2046 21.0149L45.8704 21.0421L45.794 20.1155L44.6622 20.2073L44.6298 19.813ZM45.9332 23.9374C45.4444 23.9374 44.874 23.6729 44.874 23.1829C44.874 23.0057 44.9357 22.7672 45.1566 22.6077C45.3049 22.5001 45.4984 22.4431 45.7155 22.4431C45.9644 22.4431 46.4132 22.5127 46.6487 22.8355C46.7302 22.9469 46.7709 23.076 46.7702 23.2133C46.7702 23.4045 46.692 23.6317 46.4863 23.7798C46.3406 23.8849 46.1484 23.9374 45.9332 23.9374V23.9374ZM45.7352 22.0368C45.4456 22.0368 45.1789 22.1146 44.9682 22.2665C44.5901 22.5393 44.5214 22.9317 44.5214 23.1608C44.5214 24.0039 45.3177 24.3412 45.916 24.3412C46.2037 24.3412 46.4666 24.2633 46.6741 24.114C47.0968 23.8102 47.1197 23.3526 47.1197 23.2057C47.1197 22.4697 46.4399 22.0368 45.7352 22.0368ZM43.8889 15.7662C43.6636 15.7662 43.4606 15.6725 43.3205 15.4522C43.2486 15.3402 43.2142 15.2193 43.2136 15.0971C43.2117 14.8149 43.3918 14.5257 43.7209 14.3181C43.9386 14.1807 44.1525 14.113 44.3434 14.1136C44.5853 14.1136 44.782 14.2193 44.9132 14.4257C44.9908 14.5472 45.0265 14.6763 45.0265 14.8054C45.0265 15.0807 44.8508 15.351 44.5331 15.551C44.3103 15.6915 44.0857 15.7662 43.8889 15.7662V15.7662ZM44.2798 13.7339C44.0258 13.7339 43.7559 13.8143 43.4956 13.9782C43.0137 14.2826 42.838 14.7181 42.838 15.0351C42.838 15.2415 42.8947 15.4434 43.0131 15.6288C43.2804 16.0484 43.6821 16.151 43.9533 16.1497C44.2123 16.1484 44.4854 16.063 44.7426 15.9003C45.0532 15.7047 45.3988 15.3415 45.3988 14.8491C45.3988 14.6446 45.3403 14.4434 45.2213 14.2573C45.0016 13.913 44.6573 13.7339 44.2798 13.7339V13.7339ZM37.3068 10.8216C37.1247 10.8216 36.8625 10.733 36.7161 10.4672C36.6448 10.3381 36.6136 10.1818 36.6136 10.0197C36.6136 9.5729 36.9127 8.94632 37.4596 8.94632C37.7664 8.94632 38.1521 9.17356 38.1521 9.73745C38.1521 10.0969 37.8968 10.8216 37.3068 10.8216ZM37.4354 8.59696C36.9127 8.59696 36.4576 8.94698 36.2737 9.5691C36.2336 9.70707 36.2075 9.84378 36.2075 9.97608C36.2075 10.2254 36.2495 10.4229 36.3526 10.609C36.5843 11.0311 37.0089 11.1748 37.3316 11.1748C37.5143 11.1748 37.69 11.1336 37.851 11.0457C38.2743 10.8159 38.5537 10.2818 38.5537 9.77036C38.5537 9.54885 38.5105 9.33938 38.4112 9.1609C38.2075 8.79255 37.8306 8.59696 37.4354 8.59696ZM23.5412 17.6425L23.8779 17.7374L23.4979 19.107L21.0701 18.4457L21.4845 17.0596L21.8149 17.152L21.5099 18.1507L22.1796 18.333L22.4374 17.426L22.7608 17.5172L22.5036 18.4216L23.2604 18.6286L23.5412 17.6425ZM24.1779 12.4315C24.5261 12.0429 24.8825 12.0701 24.8825 12.0701L24.9436 12.3992C24.9436 12.3992 24.6687 12.4081 24.4535 12.6473C24.36 12.7518 24.3129 12.8606 24.3129 12.9587C24.3129 13.0397 24.3447 13.1106 24.4083 13.1669C24.5821 13.3207 24.8787 13.1498 25.0646 13.0758C25.2078 13.0169 25.4109 12.9346 25.614 12.9346C25.7655 12.9346 25.922 12.9777 26.0652 13.1043C26.232 13.253 26.316 13.4391 26.316 13.6346C26.316 13.846 26.2333 14.0346 26.0665 14.2201C25.7464 14.5764 25.3161 14.615 25.3161 14.615L25.2308 14.2815C25.4847 14.2232 25.6763 14.1264 25.7928 13.9967C25.8838 13.8948 25.929 13.7809 25.929 13.6802C25.929 13.5865 25.8896 13.4986 25.8119 13.4296C25.7495 13.3745 25.6731 13.3543 25.5904 13.3555C25.4287 13.3555 25.2358 13.448 25.0767 13.5138C24.7718 13.6384 24.4504 13.7397 24.1626 13.484C24.0162 13.3543 23.9386 13.1903 23.9386 13.0087C23.9386 12.8169 24.015 12.6131 24.1779 12.4315V12.4315ZM45.4442 26.7435C45.3316 26.7435 45.1394 26.679 45.0668 26.4935C45.0491 26.4477 45.0404 26.3989 45.0413 26.3499C45.0426 26.2131 45.1075 26.0707 45.175 25.922L45.217 25.8258L45.9407 26.1492L45.8605 26.3416C45.7256 26.6461 45.6378 26.7429 45.4442 26.7435V26.7435ZM43.963 25.2644L44.9121 25.691L44.8644 25.7973C44.7351 26.0872 44.6861 26.1347 44.2908 26.1359L43.5722 26.1365L43.4016 26.5213L44.2291 26.5188C44.3972 26.5195 44.527 26.5195 44.6295 26.4802C44.6675 26.465 44.7031 26.4443 44.7351 26.4188C44.7326 26.4397 44.7256 26.4606 44.7256 26.4821C44.7243 26.5739 44.7415 26.6644 44.7765 26.7441C44.8898 27.0074 45.1979 27.1365 45.4245 27.1359C45.8236 27.1359 45.9764 26.8986 46.1706 26.4612C46.1775 26.4454 46.4035 25.9271 46.4035 25.9271L44.1228 24.9056L43.963 25.2644ZM43.5361 29.5017C43.3369 29.5017 43.1498 29.4251 42.955 29.2706C42.7577 29.1143 42.5482 28.87 42.5482 28.558C42.5482 28.3415 42.6666 28.1346 42.8487 27.908L43.0148 27.7017L44.4477 28.8384L44.3376 28.9744C44.0721 29.3061 43.8901 29.5017 43.5361 29.5017V29.5017ZM42.6424 27.6238C42.3821 27.9479 42.1848 28.2371 42.1848 28.6112C42.1848 28.9283 42.3299 29.2903 42.6966 29.5814C42.9397 29.7738 43.2147 29.8789 43.4986 29.8789C43.8474 29.8789 44.1269 29.7744 44.5616 29.2327L44.9582 28.7377L42.9976 27.1814L42.6424 27.6238Z" fill="white"/>
<path d="M42.4091 32.3685C40.0742 33.1894 37.8953 33.1331 36.0366 32.7204C36.0971 31.8951 36.4408 31.0128 36.9666 30.8489C41.0601 29.5863 44.0417 25.7914 44.0417 21.318C44.0417 15.8161 39.5318 11.3402 33.9882 11.3402C28.4439 11.3402 23.934 15.8161 23.934 21.318C23.934 24.3787 25.3719 27.2863 27.792 29.1711C27.2173 29.4223 26.7271 29.8286 26.3726 30.3344C26.1892 30.2097 26.0123 30.0812 25.8487 29.9476L25.757 30.0388C25.8665 30.1704 26.0365 30.3438 26.2402 30.5382C25.9423 31.0362 25.7698 31.6166 25.7698 32.2369C25.7698 32.3337 25.7761 32.4293 25.7844 32.523C22.1828 29.9129 20.0422 25.7641 20.0422 21.318C20.0422 13.6731 26.2987 7.45292 33.9882 7.45292C41.6776 7.45292 47.9335 13.6731 47.9335 21.318C47.9335 25.697 45.9202 29.7204 42.409 32.3685H42.4091ZM34.3186 35.6412C32.3918 35.6412 29.9869 34.99 28.3344 34.021C27.8341 33.7273 27.237 33.1805 27.237 32.2476C27.237 31.9951 27.2867 31.7546 27.3745 31.5336C27.9914 32.0406 28.6292 32.5159 29.0289 32.733C29.1206 32.7837 29.1741 32.8077 29.281 32.8077C29.5382 32.8077 29.7457 32.6001 29.7457 32.3438C29.7457 32.1482 29.6387 31.9893 29.4624 31.9128C29.1206 31.764 28.4057 31.4704 27.6355 31.0735C27.9914 30.6058 28.5528 30.3027 29.1842 30.3027C29.4732 30.3027 29.7514 30.364 30.0111 30.4856L30.5388 30.7913C32.218 31.8115 36.5382 34.4267 41.754 32.9893C39.7744 34.7659 37.3358 35.6412 34.3186 35.6412V35.6412ZM35.9704 36.8083C35.4408 36.8083 35.0061 37.1811 35.0061 37.7532C35.0061 38.3133 35.4466 38.6981 35.9704 38.6981C36.05 38.6981 36.1264 38.6849 36.2002 38.6659C36.0895 39.4583 35.1614 40.345 33.964 40.7437C32.7762 40.3481 31.8488 39.4551 31.7259 38.6665C31.7992 38.6855 31.8749 38.6981 31.9545 38.6981C32.5254 38.6981 32.9188 38.3007 32.9188 37.7532C32.9188 37.2317 32.5063 36.8222 31.9748 36.8108C32.1371 36.5159 32.2931 36.2026 32.4077 35.8665C33.0659 35.9798 33.7152 36.0425 34.3186 36.0425C34.8138 36.0425 35.2944 36.0153 35.7635 35.9684C35.8259 36.2387 35.9182 36.5209 36.0264 36.8127C36.008 36.8121 35.9895 36.8083 35.9704 36.8083V36.8083ZM29.1537 29.2863C30.1455 29.2863 31.0729 29.792 31.6165 30.6021C31.1385 30.4815 30.6705 30.3245 30.2168 30.1325L30.2148 30.135L30.2002 30.1268C29.8826 29.9777 29.5356 29.9007 29.1843 29.9015C28.3943 29.9015 27.6954 30.2863 27.2645 30.8755C27.0812 30.7749 26.9006 30.6696 26.7228 30.5597C27.2575 29.792 28.1467 29.2863 29.1537 29.2863ZM33.0787 31.2534C32.9552 31.3445 32.8578 31.4527 32.7871 31.5724C32.4236 31.3964 31.9666 31.1705 31.6681 31.004C32.0908 31.097 32.6433 31.2148 33.0787 31.2534V31.2534ZM36.1309 31.0654C35.8425 31.4749 35.6707 32.0445 35.6185 32.6211C34.7076 32.3876 33.8807 32.0736 33.1595 31.7464C33.2964 31.4825 33.6891 31.2958 33.9883 31.2958C34.7235 31.2958 35.4396 31.2148 36.1309 31.0654ZM33.9883 30.8945C33.3721 30.8945 32.7661 30.8357 32.1722 30.723C31.5987 29.6047 30.423 28.8857 29.1537 28.8857C28.8418 28.8857 28.5414 28.9306 28.2543 29.0097C25.8144 27.2072 24.3593 24.3401 24.3593 21.318C24.3593 16.0377 28.6789 11.7415 33.9883 11.7415C39.2977 11.7415 43.6173 16.0377 43.6173 21.318C43.6173 26.5984 39.2977 30.8945 33.9883 30.8945V30.8945ZM29.1537 35.1875C27.5223 35.1875 26.1951 33.8641 26.1951 32.2369C26.1945 31.7452 26.3181 31.2612 26.5547 30.8293C26.7069 30.9667 26.8698 31.1091 27.0385 31.2534C26.8953 31.5553 26.8125 31.8914 26.8125 32.2477C26.8125 33.1319 27.2613 33.8628 28.1104 34.3616C28.598 34.6476 29.1505 34.9059 29.7349 35.1306C29.5435 35.1684 29.3489 35.1875 29.1537 35.1875V35.1875ZM48.3588 21.318C48.3588 13.4516 41.9119 7.05236 33.9883 7.05236C26.0646 7.05236 19.6177 13.4516 19.6177 21.318C19.6177 26.037 21.9614 30.4357 25.8883 33.1015C26.2746 34.5312 27.5904 35.5888 29.1537 35.5888C29.5764 35.5888 29.987 35.509 30.3765 35.359C30.9048 35.5321 31.4427 35.6745 31.9876 35.7856C31.8349 36.2185 31.6121 36.6299 31.3995 36.985C31.3995 36.985 31.4046 36.9837 31.4115 36.9824C31.4077 36.985 31.4033 36.9869 31.3995 36.9894L31.6986 37.2875C31.775 37.2457 31.8616 37.2204 31.9545 37.2204C32.2505 37.2204 32.4911 37.459 32.4911 37.7533C32.4911 38.0476 32.2505 38.2868 31.9545 38.2868C31.6961 38.2868 31.4695 38.1223 31.3504 37.9463C31.3504 37.9463 31.2811 38.1862 31.2811 38.5027C31.2785 39.5273 32.4039 40.6982 33.9641 41.1919C35.523 40.709 36.6477 39.5299 36.6477 38.5046C36.6477 38.1514 36.5771 37.9463 36.5771 37.9463C36.4574 38.09 36.2633 38.2868 35.9705 38.2868C35.6751 38.2868 35.4339 38.0476 35.4339 37.7533C35.4339 37.459 35.6751 37.2204 35.9705 37.2204C36.0742 37.2204 36.1703 37.2508 36.2525 37.302L36.5427 37.0128L36.5535 37.016C36.3893 36.6248 36.2696 36.266 36.1881 35.921C38.7719 35.5755 40.952 34.4881 42.6847 32.6762L42.6841 32.6742C46.29 29.9496 48.3588 25.8155 48.3588 21.318" fill="white"/>
</g>
<defs>
<clipPath id="clip0_6_3">
<rect width="160" height="48" fill="white"/>
</clipPath>
</defs>
</svg>
