<svg width="160" height="48" viewBox="0 0 160 48" fill="none" xmlns="http://www.w3.org/2000/svg">
<g clip-path="url(#clip0_7_423)">
<g clip-path="url(#clip1_7_423)">
<path d="M25 -1.52588e-05V48.9174H135V-1.52588e-05H25Z" fill="#E68C2D"/>
<path d="M42.256 31.5979H117.744V17.313H42.256V31.5979Z" fill="white"/>
<path fill-rule="evenodd" clip-rule="evenodd" d="M45.3194 27.5985C46.137 28.4306 47.0942 28.699 48.3559 28.699C50.0954 28.699 51.4376 27.7868 51.4376 26.1698C51.4376 25.4314 51.2392 24.822 50.7952 24.4002C50.4452 24.0727 49.9674 23.8619 49.207 23.7571L48.2263 23.6154C47.8881 23.569 47.6191 23.4399 47.4558 23.288C47.2825 23.1243 47.2121 22.9013 47.2121 22.6905C47.2121 22.1167 47.6307 21.6356 48.4956 21.6356C49.044 21.6356 49.6748 21.7065 50.1997 22.2096L51.2275 21.1919C50.5158 20.4998 49.6864 20.2188 48.5426 20.2188C46.7442 20.2188 45.6459 21.2609 45.6459 22.7497C45.6459 23.4516 45.846 23.9899 46.243 24.3892C46.6148 24.753 47.1412 24.9741 47.8529 25.0805L48.8572 25.2204C49.244 25.2794 49.429 25.3615 49.5925 25.5133C49.7674 25.678 49.8497 25.9243 49.8497 26.2163C49.8497 26.8847 49.3366 27.2473 48.3794 27.2473C47.6072 27.2473 46.8957 27.0718 46.3709 26.5445L45.3194 27.5985ZM55.4887 28.6297V21.7421H57.6603V20.2888H51.6933V21.7421H53.8651V28.6297H55.4887ZM63.1597 28.6297L61.5363 25.3032H60.3687V28.6297H58.7471V20.2888H62.004C63.6962 20.2888 64.7005 21.4492 64.7005 22.8424C64.7005 24.0146 63.9888 24.7404 63.1832 25.033L65.0387 28.6297H63.1597ZM61.8997 21.7421H60.3687V23.9445H61.8997C62.6112 23.9445 63.0772 23.4871 63.0772 22.8424C63.0772 22.1986 62.6112 21.7421 61.8997 21.7421ZM68.938 28.699C69.8851 28.699 70.5968 28.3714 71.1804 27.7868C72.01 26.9544 72.01 25.9285 72.0098 24.5185V24.4592V24.3998C72.01 22.9901 72.01 21.9641 71.1804 21.1328C70.5968 20.5471 69.8851 20.2188 68.938 20.2188C67.9926 20.2188 67.2693 20.5471 66.6856 21.1328C65.8668 21.9533 65.8672 22.9633 65.8679 24.3451V24.4592V24.5733C65.8672 25.9552 65.8668 26.9652 66.6856 27.7868C67.2693 28.3714 67.9926 28.699 68.938 28.699ZM68.938 21.6712C69.3821 21.6712 69.7456 21.8467 69.9777 22.1167C70.294 22.4676 70.3864 22.8543 70.3864 24.4592C70.3864 26.0643 70.294 26.4507 69.9777 26.8019C69.7456 27.0718 69.3821 27.2473 68.938 27.2473C68.4955 27.2473 68.1204 27.0718 67.8883 26.8019C67.5722 26.4507 67.4915 26.0643 67.4915 24.4592C67.4915 22.8543 67.5722 22.4676 67.8883 22.1167C68.1204 21.8467 68.4955 21.6712 68.938 21.6712ZM78.1157 28.6297L74.8234 23.5107V28.6297H73.1991V20.2888H74.6485L77.9408 25.3959V20.2888H79.564V28.6297H78.1157ZM83.7523 28.699C84.686 28.699 85.4564 28.407 86.0991 27.7512C86.6711 27.1412 86.893 26.4273 86.893 25.2094V23.9899H83.7523V25.3496H85.2815V25.6661C85.2815 26.1225 85.152 26.4973 84.908 26.7783C84.6154 27.0946 84.2302 27.2473 83.7523 27.2473C83.3081 27.2473 82.9566 27.1065 82.7128 26.8136C82.3863 26.4273 82.3157 26.0989 82.3157 24.4592C82.3157 22.8077 82.4099 22.5031 82.7128 22.1167C82.97 21.8238 83.32 21.6712 83.7523 21.6712C84.5564 21.6712 85.0477 22.0814 85.2461 22.8896H86.8812C86.6592 21.4373 85.6432 20.2188 83.7523 20.2188C82.8642 20.2188 82.1173 20.5234 81.5099 21.1328C81.1482 21.4956 80.9262 21.9057 80.8338 22.3857C80.7394 22.8543 80.6923 23.5454 80.6923 24.4592C80.6923 25.3732 80.7394 26.0643 80.8338 26.5326C80.9262 27.001 81.1482 27.423 81.5099 27.7868C82.1173 28.3951 82.8642 28.699 83.7523 28.699ZM92.6749 28.6297V25.1386H89.8606V28.6297H88.239V20.2888H89.8606V23.6981H92.6749V20.2888H94.2982V28.6297H92.6749ZM98.3139 28.699C99.2608 28.699 99.9725 28.3714 100.556 27.7868C101.386 26.9527 101.386 25.9243 101.386 24.5102V24.4592V24.4082C101.386 22.994 101.386 21.9658 100.556 21.1328C99.9725 20.5471 99.2608 20.2188 98.3139 20.2188C97.3683 20.2188 96.645 20.5471 96.0613 21.1328C95.2425 21.9533 95.2429 22.9633 95.2436 24.3451V24.4592V24.5733C95.2429 25.9552 95.2425 26.9652 96.0613 27.7868C96.645 28.3714 97.3683 28.699 98.3139 28.699ZM98.3139 21.6712C98.7581 21.6712 99.1198 21.8467 99.3534 22.1167C99.668 22.4676 99.7622 22.8543 99.7622 24.4592C99.7622 26.0643 99.668 26.4507 99.3534 26.8019C99.1198 27.0718 98.7581 27.2473 98.3139 27.2473C97.8697 27.2473 97.4962 27.0718 97.2641 26.8019C96.9479 26.4507 96.8654 26.0643 96.8654 24.4592C96.8654 22.8543 96.9479 22.4676 97.2641 22.1167C97.4962 21.8467 97.8697 21.6712 98.3139 21.6712ZM102.346 28.6297V20.2888H103.968V27.1773H107.739V28.6297H102.346ZM111.642 28.6297C112.505 28.6297 113.287 28.3834 113.838 27.8331C114.692 26.9754 114.685 25.8813 114.678 24.7402C114.677 24.6351 114.677 24.5296 114.677 24.4239C114.677 24.3177 114.677 24.2124 114.678 24.108C114.685 22.9777 114.692 21.9429 113.838 21.0854C113.287 20.5353 112.505 20.2888 111.642 20.2888H108.641V28.6297H111.642ZM111.491 21.7421C112.051 21.7421 112.424 21.9176 112.704 22.2568C113.008 22.6314 113.055 23.1589 113.055 24.4239C113.055 25.6897 113.008 26.2872 112.704 26.6617C112.424 27.001 112.051 27.1773 111.491 27.1773H110.265V21.7421H111.491Z" fill="#1E3C55"/>
</g>
</g>
<defs>
<clipPath id="clip0_7_423">
<rect width="160" height="48" fill="white"/>
</clipPath>
<clipPath id="clip1_7_423">
<rect width="110" height="49" fill="white" transform="translate(25)"/>
</clipPath>
</defs>
</svg>
