<?xml version="1.0" encoding="utf-8"?>
<!-- Generator: Adobe Illustrator 24.1.2, SVG Export Plug-In . SVG Version: 6.00 Build 0)  -->
<svg version="1.1" id="Layer_1" xmlns="http://www.w3.org/2000/svg" xmlns:xlink="http://www.w3.org/1999/xlink" x="0px" y="0px"
	 viewBox="0 0 504 504" style="enable-background:new 0 0 504 504;" xml:space="preserve">
<style type="text/css">
	.st0{fill:#FFFFFF;}
	.st1{fill:#10069F;}
</style>
<ellipse class="st0" cx="252" cy="252" rx="249" ry="249"/>
<path class="st1" d="M222.5,115.1c-1.4-1.8-2.9-2.8-4.7-2.8c-1.3,0.1-2.5,0.5-3.6,1.2c-13.3,10.4-31.4,54.5-46.3,112.7l13.2,0.1
	c26,0.3,52.9,0.6,79.4,1c-7-26.6-13.6-49.4-19.7-67.9C231.9,132.5,225.9,120.5,222.5,115.1z"/>
<path class="st1" d="M252,3C114.5,3,3,114.5,3,252s111.5,249,249,249s249-111.5,249-249S389.5,3,252,3z M431,256.5L431,256.5
	c-0.3,0.2-0.6,0.4-0.9,0.6l-0.3,0.2l-0.6,0.4l-0.5,0.3l0,0c-1.9,1-4,1.5-6.2,1.5h-118c0.9,3.9,2,8.4,3.1,13.2
	c6.5,27.9,23.6,102.1,41.9,102.1h0.9c14.2,0,21.5-20.6,37.5-65.7l0.2-0.5c2.6-7.2,5.5-15.4,8.6-24.1l0.8-2.2l0,0
	c1-3,4.3-4.5,7.2-3.5c2.9,1,4.5,4.2,3.5,7.1l0,0l-0.7,2.2c-1.7,5.4-3.4,12.7-5.5,21.2c-9.5,39.4-23.9,98.9-60.7,98.9H341
	c-23.8-0.2-38-38.2-44.1-54.5c-11.4-30.4-20-62.7-28.3-94.1H160.4l-22.5,72.1l-0.3-0.3c-3.4,5.3-10.5,6.9-15.8,3.5
	c-3.3-2.1-5.3-5.7-5.3-9.6v-0.4l1.4-8.2c3.1-18.5,6.9-37.8,11.1-57.2H83l-0.2-0.2c-9.4-1.4-15.9-10.2-14.5-19.6
	c1.1-7.3,6.7-13.1,13.9-14.4c1.8-0.2,3.6-0.3,5.4-0.2h2.2c14.5,0.2,29.9,0.5,46.9,0.7c23.9-97.2,51.6-146.6,82.4-146.7
	c33,0,57.5,75.1,77.1,148.6l0.1,0.3c40.2,0.8,83.2,2,124.9,5l1.8,0.2c0.7,0,1.3,0.1,2,0.2h0.2l0.2,0.1h0.1
	c7.1,1.4,11.8,8.4,10.3,15.5C435.1,251.9,433.4,254.6,431,256.5L431,256.5z"/>
</svg>
