<svg xmlns="http://www.w3.org/2000/svg" xmlns:xlink="http://www.w3.org/1999/xlink" version="1.1" id="Layer_1" x="0px" y="0px" viewBox="0 0 1221.7 194.5" style="enable-background:new 0 0 1221.7 194.5;" xml:space="preserve">
  <style type="text/css">
    .st0{fill:#737373;}
    .st1{fill:#F25022;}
    .st2{fill:#7FBA00;}
    .st3{fill:#00A4EF;}
    .st4{fill:#FFB900;}
    .st5{fill:#333333;}
  </style>
  <g>
    <path class="st0" d="M211.3,104.3l-3.6,10.1h-0.3c-0.6-2.3-1.7-5.7-3.5-9.9l-19.1-48.1h-18.7V133h12.4V85.8c0-3,0-6.3-0.1-10.5   c-0.1-2.1-0.3-3.7-0.4-4.9h0.3c0.6,3,1.3,5.2,1.8,6.5l23,55.9h8.7l22.8-56.4c0.5-1.3,1-3.9,1.5-6h0.3c-0.3,5.6-0.5,10.7-0.6,13.8   v48.6h13.2V56.2h-18L211.3,104.3z M261.4,77.8h12.9v54.9h-12.9V77.8z M268,54.6c-2.2,0-4,0.8-5.5,2.2c-1.5,1.4-2.3,3.2-2.3,5.4   c0,2.1,0.8,3.9,2.3,5.3c1.5,1.4,3.3,2.1,5.5,2.1c2.2,0,4.1-0.8,5.5-2.1c1.5-1.4,2.3-3.2,2.3-5.3c0-2.1-0.8-3.9-2.3-5.4   C272.1,55.4,270.2,54.6,268,54.6 M320,77.3c-2.4-0.5-4.9-0.8-7.2-0.8c-5.8,0-11.2,1.3-15.7,3.9c-4.5,2.6-8,6.1-10.3,10.6   c-2.4,4.6-3.6,9.8-3.6,15.9c0,5.3,1.2,9.9,3.5,14.2c2.3,4.2,5.5,7.5,9.7,9.8c4.1,2.3,8.8,3.5,14.2,3.5c6.1,0,11.4-1.3,15.6-3.7   l0.1-0.1v-11.9l-0.5,0.4c-1.9,1.4-4.1,2.6-6.2,3.3c-2.3,0.8-4.4,1.2-6.1,1.2c-5.2,0-9.2-1.5-12.1-4.8c-3-3.2-4.5-7.5-4.5-13   c0-5.6,1.5-10.1,4.6-13.4c3.1-3.3,7.1-5,12.1-5c4.2,0,8.4,1.4,12.3,4.2l0.5,0.4V79.4l-0.1-0.1C324.4,78.6,322.6,77.8,320,77.3    M362.5,76.9c-3.2,0-6.1,1-8.7,3.1c-2.2,1.8-3.7,4.4-5,7.4h-0.1v-9.6h-12.9v54.9h12.9v-28c0-4.8,1-8.7,3.2-11.6   c2.2-3,5-4.5,8.3-4.5c1.2,0,2.4,0.3,3.9,0.5c1.4,0.4,2.4,0.8,3.1,1.3l0.5,0.4V77.9l-0.3-0.1C366.5,77.2,364.7,76.9,362.5,76.9    M397.6,76.6c-9,0-16.3,2.7-21.3,7.9c-5.2,5.3-7.6,12.5-7.6,21.6c0,8.5,2.6,15.5,7.5,20.5c5,5,11.7,7.5,20.1,7.5   c8.8,0,15.9-2.7,20.9-8c5.2-5.4,7.6-12.5,7.6-21.3c0-8.7-2.4-15.7-7.2-20.7C412.9,79.1,406.1,76.6,397.6,76.6 M407.9,118.8   c-2.4,3.1-6.1,4.6-10.8,4.6s-8.4-1.5-11.1-4.8c-2.7-3.1-4-7.5-4-13.2c0-5.8,1.4-10.3,4-13.5c2.7-3.2,6.3-4.8,11-4.8   c4.6,0,8.1,1.5,10.7,4.6c2.6,3.1,4,7.5,4,13.4C411.4,111.1,410.4,115.8,407.9,118.8 M453.6,100.6c-4.1-1.7-6.6-3-7.8-4.1   c-1-1-1.5-2.4-1.5-4.2c0-1.5,0.6-3,2.1-4c1.5-1,3.2-1.5,5.6-1.5c2.2,0,4.5,0.4,6.6,1c2.2,0.6,4.2,1.5,5.7,2.7l0.5,0.4V78.9   l-0.3-0.1c-1.5-0.6-3.5-1.2-5.8-1.7c-2.4-0.4-4.6-0.6-6.3-0.6c-6.1,0-11.2,1.5-15.2,4.8c-4,3.1-5.8,7.2-5.8,12.1   c0,2.6,0.4,4.9,1.3,6.7c0.9,1.9,2.2,3.7,4,5.2c1.8,1.4,4.4,3,7.9,4.5c3,1.3,5.3,2.3,6.6,3.1c1.4,0.8,2.3,1.7,3,2.4   c0.5,0.8,0.8,1.8,0.8,3.1c0,3.7-2.8,5.5-8.4,5.5c-2.2,0-4.5-0.4-7.1-1.3c-2.7-0.9-5.2-2.2-7.2-3.7l-0.5-0.4v12.6l0.3,0.1   c1.9,0.9,4.2,1.5,6.9,2.2c2.8,0.5,5.3,0.9,7.4,0.9c6.6,0,12.1-1.5,16-4.8c4-3.2,6-7.2,6-12.5c0-3.7-1-6.9-3.2-9.4   C462.3,105.1,458.7,102.6,453.6,100.6 M502.3,76.6c-9,0-16.3,2.7-21.3,7.9c-5.1,5.3-7.6,12.5-7.6,21.6c0,8.5,2.6,15.5,7.5,20.5   c5,5,11.7,7.5,20.1,7.5c8.8,0,15.9-2.7,20.9-8c5.2-5.4,7.6-12.5,7.6-21.3c0-8.7-2.4-15.7-7.2-20.7   C517.7,79.1,510.8,76.6,502.3,76.6 M512.5,118.8c-2.4,3.1-6.1,4.6-10.8,4.6c-4.8,0-8.4-1.5-11.1-4.8c-2.7-3.1-4-7.5-4-13.2   c0-5.8,1.4-10.3,4-13.5c2.7-3.2,6.3-4.8,11-4.8c4.5,0,8.1,1.5,10.7,4.6c2.6,3.1,4,7.5,4,13.4C516.3,111.1,515,115.8,512.5,118.8    M598.4,88.4V77.8h-13V61.6l-0.4,0.1l-12.3,3.7l-0.3,0.1v12.4H553v-6.9c0-3.2,0.8-5.6,2.2-7.2c1.4-1.6,3.5-2.4,6-2.4   c1.8,0,3.7,0.4,5.7,1.3l0.5,0.3V51.7l-0.3-0.1c-1.8-0.6-4.2-1-7.2-1c-3.9,0-7.2,0.9-10.3,2.4c-3.1,1.7-5.4,4-7,7   c-1.7,3-2.6,6.3-2.6,10.2v7.6h-9v10.5h9v44.4h13V88.4h19.4v28.2c0,11.6,5.5,17.4,16.4,17.4c1.8,0,3.7-0.3,5.5-0.6   c1.9-0.4,3.3-0.9,4.1-1.3l0.1-0.1v-10.6l-0.5,0.4c-0.8,0.5-1.5,0.9-2.7,1.2c-1,0.3-1.9,0.4-2.6,0.4c-2.6,0-4.4-0.6-5.6-2.1   c-1.2-1.4-1.8-3.7-1.8-7v-26L598.4,88.4L598.4,88.4z" />
    <path class="st1" d="M0,30.7h60.7v60.7H0V30.7z" />
    <path class="st2" d="M67.1,30.7h60.7v60.7H67.1V30.7z" />
    <path class="st3" d="M0,97.7h60.7v60.7H0V97.7z" />
    <path class="st4" d="M67.1,97.7h60.7v60.7H67.1V97.7z" />
  </g>
  <path class="st5" d="M826.2,132.6c-2.9,0-5.7,0-8.4,0c-0.5,0-0.5-0.3-0.6-0.6c-1.5-4-3-7.9-4.5-11.9c-0.8-2-1.6-4.1-2.3-6.1  c-0.1-0.4-0.3-0.5-0.7-0.5c-9.3,0-18.6,0-27.9,0c-0.5,0-0.6,0.3-0.8,0.7c-2.1,5.9-4.2,11.9-6.3,17.8c-0.2,0.5-0.4,0.7-0.9,0.7  c-2.7,0-5.4,0-8.2,0c0.4-1.2,0.9-2.3,1.3-3.4c8.2-21.4,16.4-42.7,24.6-64.1c0.2-0.6,0.5-0.8,1.1-0.8c2.3,0,4.6,0,6.9,0  c0.5,0,0.7,0.2,0.8,0.6c8.6,22.4,17.2,44.7,25.8,67.1C826.1,132.2,826.1,132.3,826.2,132.6z M807.5,106.2c-0.1-0.3-0.2-0.5-0.2-0.7  c-2.8-7.7-5.7-15.4-8.5-23.1c-1.1-2.9-2.4-5.8-2.9-8.9c-0.1-0.3-0.1-0.6-0.2-0.9c-0.2,0.2-0.2,0.4-0.3,0.6c-0.4,1.5-0.7,3-1.2,4.5  c-3.3,9.3-6.7,18.5-10.1,27.8c-0.1,0.2-0.1,0.4-0.2,0.7C791.8,106.2,799.6,106.2,807.5,106.2z" />
  <path class="st5" d="M864,90.5c0-10,0-20,0-30.1c2.6,0,5.1,0,7.7,0c0,24,0,48,0,72.1c-2.5,0-5.1,0-7.7,0c0-2.7,0-5.4,0-8.1  c-0.1,0-0.1,0-0.2-0.1c-0.1,0.2-0.3,0.4-0.4,0.6c-2.8,4.5-6.7,7.4-12,8.4c-4.6,0.8-9.2,0.6-13.5-1.6c-4.8-2.5-7.8-6.5-9.5-11.5  c-1.4-4.2-1.8-8.6-1.6-13.1c0.2-4.4,1.1-8.6,3.1-12.5c2.3-4.5,5.5-8,10.2-10.1c3-1.3,6.1-1.9,9.3-1.7c1.8,0.1,3.6,0.3,5.3,0.7  c3.8,0.9,6.6,3.3,8.7,6.5c0.1,0.2,0.3,0.4,0.4,0.6C863.9,90.6,864,90.5,864,90.5z M864.1,107.8c-0.1-2.7,0-4.8-0.3-6.8  c-1.4-9.3-10.7-14.4-19.9-10.4c-4.3,1.9-6.6,5.6-7.9,10c-1.1,3.7-1.3,7.5-0.9,11.4c0.3,3.3,1.2,6.4,3,9.2c4.3,6.7,12.3,7,17.2,4.7  c4.9-2.2,7.5-6.4,8.4-11.6C864.1,112,864,109.6,864.1,107.8z" />
  <path class="st5" d="M965.2,121.8c0,2.4,0,4.7,0,7c0,0.2-0.3,0.5-0.5,0.6c-2.8,1.9-5.8,3-9.1,3.6c-3.8,0.7-7.6,0.9-11.4,0.4  c-8-1.2-13.4-5.7-16.2-13.2c-1.7-4.6-2.2-9.5-1.8-14.4c0.3-4.3,1.3-8.5,3.6-12.2c3.3-5.5,8-9.3,14.5-10.6c4.7-0.9,9.3-0.6,13.7,1.5  c4.7,2.3,7.6,6.2,9.2,11.1c1,3,1.4,6.1,1.5,9.2c0,1.7,0,3.4,0,5.2c-11.5,0-22.9,0-34.4,0c0.1,0.9,0.1,1.8,0.2,2.6  c0.4,3,1.1,5.8,2.9,8.4c2.6,3.7,6.2,5.5,10.5,5.9c6.2,0.6,11.8-1.1,16.8-4.8c0.2-0.1,0.3-0.2,0.5-0.4  C965,121.9,965,121.9,965.2,121.8z M934.2,103.5c8.9,0,17.6,0,26.4,0c-0.1-3.3-0.6-6.5-2.4-9.3c-1.1-1.7-2.5-3.1-4.4-3.9  c-4.5-1.8-8.9-1.5-12.9,1.3c-3.1,2.2-5,5.3-6,9C934.6,101.6,934.4,102.5,934.2,103.5z" />
  <path class="st5" d="M877.5,83.8c2.8,0,5.5,0,8.2,0c0.5,0,0.5,0.3,0.6,0.6c1.9,5.3,3.7,10.7,5.6,16c2.3,6.5,4.6,13,6.8,19.5  c0.6,1.8,1,3.8,1.4,5.7c0,0.1,0.1,0.3,0.2,0.6c0.3-1.3,0.4-2.4,0.7-3.5c1.1-3.5,2.3-6.9,3.5-10.3c3.3-9.3,6.7-18.5,10.1-27.8  c0.2-0.5,0.4-0.8,1-0.7c2.2,0,4.5,0,6.7,0c0.2,0,0.4,0,0.7,0c-0.1,0.3-0.2,0.5-0.2,0.7c-6.3,15.8-12.6,31.6-18.9,47.4  c-0.2,0.5-0.4,0.7-1,0.7c-2.1,0-4.2,0-6.3,0c-0.5,0-0.7-0.2-0.9-0.6c-5.2-13.8-10.5-27.6-15.7-41.5c-0.8-2-1.5-4-2.3-5.9  C877.6,84.4,877.6,84.1,877.5,83.8z" />
  <path class="st5" d="M1012.7,71.9c2.6-0.9,5.2-1.7,7.8-2.5c0,4.8,0,9.6,0,14.4c4.1,0,8.2,0,12.3,0c0,2.3,0,4.4,0,6.7  c-4.1,0-8.1,0-12.2,0c0,0.3,0,0.5,0,0.8c0,9,0,18.1,0,27.1c0,1.3,0.2,2.7,0.4,4c0.6,2.9,2.6,4.5,5.9,4.7c2.1,0.1,4-0.3,5.9-1.5  c0,0.3,0.1,0.4,0.1,0.6c0,1.8,0,3.6,0,5.3c0,0.5-0.2,0.8-0.6,0.9c-1.3,0.4-2.6,0.8-4,1c-2.6,0.3-5.1,0.3-7.6-0.5  c-4.1-1.3-6.4-4.3-7.3-8.4c-0.3-1.7-0.5-3.4-0.5-5.2c-0.1-9.4,0-18.8,0-28.2c0-0.2,0-0.4,0-0.7c-2.8,0-5.5,0-8.3,0  c0-2.2,0-4.4,0-6.7c2.7,0,5.5,0,8.3,0C1012.7,79.9,1012.7,75.9,1012.7,71.9z" />
  <path class="st5" d="M987.2,132.6c-2.6,0-5.2,0-7.8,0c0-16.2,0-32.4,0-48.7c2.6,0,5.1,0,7.8,0c0,3.3,0,6.6,0,9.9c0.1,0,0.1,0,0.2,0  c0.1-0.2,0.2-0.5,0.3-0.7c1.3-3.4,3.2-6.3,6.3-8.3c2.5-1.7,5.4-2,8.3-1.7c0.8,0.1,1.7,0.3,2.5,0.5c0,0.8,0.1,1.6,0.1,2.4  c0,1.8,0,3.6,0,5.4c0,0,0,0.1,0,0c-1.3-0.4-2.5-0.9-3.9-1.1c-4.5-0.7-8,1-10.6,4.8c-1.9,2.8-2.7,5.9-3,9.2c-0.1,1.3-0.2,2.6-0.2,3.9  c0,7.9,0,15.7,0,23.6C987.2,132,987.2,132.2,987.2,132.6z" />
  <g>
    <path class="st5" d="M1046.3,83.9c2.6,0,5.1,0,7.7,0c0,16.2,0,32.4,0,48.7c-2.6,0-5.1,0-7.7,0   C1046.3,116.3,1046.3,100.1,1046.3,83.9z" />
    <path class="st5" d="M1050.4,61.3c2.9,0,5.1,2.2,5.1,5.1c0,2.8-2.3,5-5.1,5c-2.9,0-5.1-2.2-5-5.1   C1045.3,63.4,1047.5,61.3,1050.4,61.3z" />
  </g>
  <path class="st5" d="M1180.2,144.5c2.1,0.9,4.2,1.9,6.3,2.7c4.8,1.8,9.8,2.2,14.9,1.2c6.4-1.3,10.2-5.2,11.7-11.5  c0.6-2.4,0.8-4.8,0.8-7.2c0-1.7,0-3.4,0-5.1c-0.1,0-0.1,0-0.2-0.1c-0.1,0.2-0.3,0.4-0.4,0.6c-2.9,4.4-6.8,7.3-12,8.3  c-4.4,0.8-8.7,0.6-12.8-1.3c-5-2.3-8.4-6.3-10-11.5c-2.9-8.8-2.4-17.6,1.5-26.1c2.2-4.8,5.9-8.5,11-10.3c4.6-1.7,9.2-1.9,14-0.6  c3.7,1.1,6.4,3.3,8.5,6.5c0.1,0.2,0.2,0.3,0.3,0.5c0,0,0.1,0,0.2,0.1c0-2.2,0-4.5,0-6.7c2.6,0,5.2,0,7.8,0c0,0.2,0,0.5,0,0.7  c0,14.8,0,29.6,0,44.3c0,4.6-0.5,9.1-2.3,13.3c-2.8,7-8.2,11-15.4,12.5c-6.7,1.4-13.4,1.1-20-1c-1.2-0.4-2.3-0.9-3.4-1.4  c-0.2-0.1-0.4-0.4-0.4-0.6C1180.2,149.3,1180.2,146.9,1180.2,144.5z M1214,107.1c-0.1,0-0.1,0-0.2,0c0-1.3,0-2.6,0-3.9  c0.1-7.9-6.7-15.9-17.2-13.7c-4.8,1-7.9,4-9.8,8.3c-2,4.5-2.4,9.3-2,14.2c0.3,3.2,1.2,6.3,3,9.1c4.3,6.6,12,7.1,17.1,4.8  c4.9-2.1,7.6-6.2,8.5-11.3C1213.9,112.2,1213.9,109.7,1214,107.1z" />
  <path class="st5" d="M1128,83.9c2.6,0,5.1,0,7.7,0c0,2.7,0,5.3,0,8c0.1,0,0.1,0,0.2,0.1c0.1-0.2,0.3-0.4,0.4-0.6  c2.6-4.1,6.1-7,10.9-8.1c4.4-1,8.7-0.9,12.7,1.2c3.8,1.9,5.9,5.1,7.2,9c0.9,2.9,1.3,5.8,1.3,8.8c0,9.9,0,19.7,0,29.6  c0,0.2,0,0.4,0,0.7c-2.6,0-5.2,0-7.8,0c0-0.2,0-0.5,0-0.7c0-9.1,0-18.2,0-27.3c0-2.4-0.2-4.7-0.8-7c-0.9-3.4-2.6-6.2-6.1-7.5  c-4.8-1.9-10.6-0.4-14,3.5c-2.8,3.2-4,7-4,11.1c0,9,0,18,0,27c0,0.3,0,0.6,0,0.9c-2.6,0-5.1,0-7.7,0  C1128,116.3,1128,100.1,1128,83.9z" />
  <path class="st5" d="M1094,92.6c-1.7-0.7-3.3-1.6-5-2.1c-3.5-1.2-7.2-1.5-10.9-0.8c-1.6,0.3-3.1,1-4.3,2.2c-2.2,2.2-2.4,6-0.5,8.4  c1,1.2,2.2,2,3.6,2.7c2.5,1.1,5,2,7.5,3.1c1.9,0.8,3.7,1.7,5.5,2.7c8.9,5,8.2,17.3-0.5,22c-2.7,1.5-5.6,2.3-8.7,2.7  c-4.5,0.5-9,0.3-13.4-1.2c-1.1-0.4-2.1-0.8-3.1-1.3c-0.2-0.1-0.4-0.3-0.4-0.5c0-2.6,0-5.3,0-8c0.3,0.2,0.5,0.3,0.7,0.4  c5.4,3.7,11.2,4.9,17.6,3.8c0.7-0.1,1.4-0.3,2-0.6c5-1.8,5-7.9,1.9-10.6c-1.4-1.2-3.1-2.1-4.8-2.9c-3-1.3-6-2.5-9-3.8  c-2.2-1-4.1-2.3-5.7-4.1c-1.6-1.9-2.4-4.2-2.6-6.7c-0.4-5.6,2.1-9.7,6.9-12.4c3.7-2.1,7.7-2.9,11.9-2.9c3.6,0,7.2,0.6,10.6,1.9  c0.4,0.2,0.6,0.4,0.6,0.9C1094,87.9,1094,90.2,1094,92.6z" />
  <g>
    <path class="st5" d="M1108.3,83.9c0.2,0,0.4,0,0.6,0c2.4,0,4.7,0,7.1,0c0,16.3,0,32.5,0,48.7c-2.6,0-5.1,0-7.7,0   C1108.3,116.3,1108.3,100.1,1108.3,83.9z" />
    <path class="st5" d="M1107.2,66.4c0-2.9,2.1-5.1,5-5.1c2.9,0,5.2,2.2,5.2,5.1c0,2.8-2.2,5-5.1,5   C1109.4,71.5,1107.2,69.3,1107.2,66.4z" />
  </g>
  <g>
    <rect x="682.2" class="st5" width="5" height="194.5" />
  </g>
</svg>