<svg id="Layer_1" data-name="Layer 1" xmlns="http://www.w3.org/2000/svg" viewBox="0 0 400 400">
  <defs>
    <style>
      .cls-1 {
        fill: #5294cf;
      }

      .cls-1, .cls-2, .cls-4, .cls-5 {
        fill-rule: evenodd;
      }

      .cls-2 {
        fill: #1f5b98;
      }

      .cls-3, .cls-5 {
        fill: #2d72b8;
      }

      .cls-4 {
        fill: #1a476f;
      }
    </style>
  </defs>
  <title>p</title>
  <polygon class="cls-1" points="238.5 5 238.5 395.2 243.3 395.2 320.7 356.5 322 354.7 322 45.5 320.7 43.7 243.3 5 238.5 5"/>
  <polygon class="cls-2" points="132.9 5 55.5 43.7 53.2 47.1 54 353.8 55.5 356.5 132.9 395.2 137.7 395.2 137.8 5 132.9 5"/>
  <rect class="cls-3" x="133.1" y="5" width="110.1" height="390.24"/>
  <polygon class="cls-4" points="15 91.2 15 132.7 15.3 132.4 27 133.7 27 143.6 15 150.1 15 191.4 15.3 191.3 27 191.5 27 208.8 16.9 209 15 208.8 15 250.1 27 256.6 27 266.6 15.5 267.9 15 267.5 15 309 55.5 356.5 55.5 297.1 133.1 321.1 243.2 321.1 321 297 322 297.5 359.6 270.6 361.3 267.9 349.2 266.6 349.2 256.8 347.7 256.1 321.9 270 321 272 243.2 289.8 243.2 289.8 133.1 289.8 133.1 289.8 55.5 271.9 55.5 212.6 133.1 215.6 133.1 215.7 243.2 215.7 320.7 212.6 322.5 213.4 358.7 210.2 361.3 209 349.2 208.8 349.2 191.5 361.3 191.3 358.7 190.8 321.3 187.3 320.7 187.5 243.2 184.4 133.1 184.4 55.5 187.5 55.5 128.4 55.5 128.5 55.5 128.3 133.1 110.3 243.2 110.3 320.7 128.3 349.2 143.4 349.2 133.7 361.3 132.4 360 130 321.9 102.7 320.7 103.1 243.2 79 133.1 79 55.5 103.1 55.5 43.7 15 91.2"/>
  <polygon class="cls-5" points="321 297 320.7 297.1 320.7 356.5 361.3 309 361.3 267.8 321 297"/>
  <polygon class="cls-5" points="320.7 212.6 320.7 272 321 272 361.3 250.3 361.3 208.8 320.7 212.6"/>
  <polygon class="cls-5" points="320.7 187.5 361.3 191.3 361.3 149.9 321 128.3 320.7 128.3 320.7 187.5"/>
  <polygon class="cls-5" points="320.7 103.1 321 103.1 321 103.3 361.3 132.4 361.3 91.2 320.7 43.7 320.7 103.1"/>
</svg>
