<svg id="Layer_1" data-name="Layer 1" xmlns="http://www.w3.org/2000/svg" xmlns:xlink="http://www.w3.org/1999/xlink" width="360" height="360" viewBox="0 0 360 360">
  <defs>
    <style>
      .cls-1 {
        fill: #4fc3f7;
      }

      .cls-2 {
        fill: #4285f4;
      }

      .cls-3, .cls-8 {
        fill: #1a237e;
      }

      .cls-3, .cls-5, .cls-6, .cls-7 {
        opacity: 0.2;
      }

      .cls-3, .cls-5, .cls-6 {
        isolation: isolate;
      }

      .cls-4 {
        fill: #ffc107;
      }

      .cls-5, .cls-9 {
        fill: #fff;
      }

      .cls-6 {
        fill: #bf360c;
      }

      .cls-10 {
        fill: #3367d6;
      }

      .cls-11 {
        fill: url(#linear-gradient);
      }

      .cls-12 {
        fill-opacity: 0.1;
        fill: url(#radial-gradient);
      }
    </style>
    <linearGradient id="linear-gradient" x1="-2445.48" y1="1647.32" x2="-2444.83" y2="1646.98" gradientTransform="matrix(56.82, 0, 0, -110.18, 139192.95, 181690.18)" gradientUnits="userSpaceOnUse">
      <stop offset="0" stop-color="#bf360c" stop-opacity="0.2"/>
      <stop offset="1" stop-color="#bf360c" stop-opacity="0"/>
    </linearGradient>
    <radialGradient id="radial-gradient" cx="-2479.83" cy="1654.5" r="0.84" gradientTransform="matrix(254.33, 0, 0, -254.33, 630790.24, 420887.63)" gradientUnits="userSpaceOnUse">
      <stop offset="0" stop-color="#fff"/>
      <stop offset="1" stop-color="#fff" stop-opacity="0"/>
    </radialGradient>
  </defs>
  <title>logos</title>
  <g>
    <g>
      <path class="cls-1" d="M211.69,214.7a49.33,49.33,0,0,1-32.4,14.36c-.73,0-1.59.12-2.33.12a15.1,15.1,0,0,1-2.33-.12,78.76,78.76,0,0,1-36.45-10.18,75.18,75.18,0,0,1-16.69-12.77,78.22,78.22,0,0,1-12.77-94.25A78.44,78.44,0,1,0,225.93,182.3,48.36,48.36,0,0,1,211.69,214.7Z"/>
      <path class="cls-2" d="M232.43,95a78.52,78.52,0,0,0-111.07,0,82,82,0,0,0-12.76,16.69A78.54,78.54,0,0,0,104.18,180a76.8,76.8,0,0,0,17.31,26,81.34,81.34,0,0,0,16.69,12.76,78.77,78.77,0,0,0,36.45,10.19,49.59,49.59,0,0,1-32.4-14.36A48.59,48.59,0,0,1,127.87,180v-.12a78.1,78.1,0,0,1,10.31-38.78,75.13,75.13,0,0,1,12.76-16.69,77.83,77.83,0,0,1,26-17.31,78.82,78.82,0,0,1,68.36,4.54A78.5,78.5,0,0,0,232.43,95Z"/>
      <path class="cls-3" d="M177,106a76.62,76.62,0,0,0-26,17.3A81.61,81.61,0,0,0,138.18,140a77.36,77.36,0,0,0-10.31,38.66v.61a78.39,78.39,0,0,1,10.31-38.16,75.13,75.13,0,0,1,12.76-16.69,77.83,77.83,0,0,1,26-17.31,78.82,78.82,0,0,1,68.36,4.54l-1.11-1.84A78.82,78.82,0,0,0,177,106Z"/>
      <path class="cls-3" d="M121.49,204.76a78.34,78.34,0,0,1-23.08-55.35A78.38,78.38,0,0,0,121.49,206a81.34,81.34,0,0,0,16.69,12.76,78.77,78.77,0,0,0,36.45,10.19,50.45,50.45,0,0,1-15.22-3.19,80.39,80.39,0,0,1-21.23-8.22A71.74,71.74,0,0,1,121.49,204.76Z"/>
      <path class="cls-4" d="M261.89,124.5a81.67,81.67,0,0,0-16.69-12.77,78.82,78.82,0,0,0-68.36-4.54,76.8,76.8,0,0,0-26,17.31,81,81,0,0,0-12.76,16.69,78.46,78.46,0,0,0-10.19,38.66,48.8,48.8,0,0,1,14.36-34.61,49.33,49.33,0,0,1,32.4-14.36,30.19,30.19,0,0,1,4.66,0,78.65,78.65,0,0,1,36.45,10.19,75.13,75.13,0,0,1,16.69,12.76,78.22,78.22,0,0,1,12.77,94.25,75.06,75.06,0,0,0,16.69-12.76A78.22,78.22,0,0,0,261.89,124.5Z"/>
      <path class="cls-5" d="M127.87,181.2a49.13,49.13,0,0,0,46.76,49.09c.73,0,1.59.12,2.33.12a15.1,15.1,0,0,0,2.33-.12,49.24,49.24,0,0,0,46.52-43.69c.12-1.35.24-2.82.24-4.17a49.24,49.24,0,0,1-46.76,46.63c-.73,0-1.59.12-2.33.12a15.1,15.1,0,0,1-2.33-.12,49.13,49.13,0,0,1-46.76-48.48v.62Z"/>
      <path class="cls-6" d="M249.86,178.74a76.49,76.49,0,0,0-17.3-26A81.45,81.45,0,0,0,215.86,140a78.61,78.61,0,0,0-36.45-10.18,27.88,27.88,0,0,0-4.66,0,49,49,0,0,0-32.4,14.35,48,48,0,0,0-14.48,34.49v.74a48.69,48.69,0,0,1,14.36-34.12,49.33,49.33,0,0,1,32.4-14.36,30.19,30.19,0,0,1,4.66,0,78.65,78.65,0,0,1,36.45,10.19,75.13,75.13,0,0,1,16.69,12.76,77.48,77.48,0,0,1,22.95,55.35A76.74,76.74,0,0,0,249.86,178.74Z"/>
      <path class="cls-6" d="M261.89,234.22a79.52,79.52,0,0,1-15.83,12.15c-.37.61-.62,1.22-1,1.84a75.18,75.18,0,0,0,16.69-12.77,77.92,77.92,0,0,0,22.95-56.21A76.56,76.56,0,0,1,261.89,234.22Z"/>
      <g class="cls-7">
        <path class="cls-8" d="M232.43,155.18a77.48,77.48,0,0,1,22.95,55.35A79.41,79.41,0,0,0,249.74,180a76.8,76.8,0,0,0-17.31-26,81.7,81.7,0,0,0-16.69-12.76A78.77,78.77,0,0,0,179.29,131a50.45,50.45,0,0,1,15.22,3.19,80.07,80.07,0,0,1,21.23,8.23A71.69,71.69,0,0,1,232.43,155.18Z"/>
      </g>
      <g class="cls-7">
        <path class="cls-9" d="M261.89,124.5a81.67,81.67,0,0,0-16.69-12.77A75.64,75.64,0,0,0,232.43,95a78.52,78.52,0,0,0-111.07,0,82,82,0,0,0-12.76,16.69A78.47,78.47,0,0,0,69,180v.61a78.4,78.4,0,0,1,38.66-67,78.88,78.88,0,0,0-9.21,37.06A79.22,79.22,0,0,1,108.6,113a75.67,75.67,0,0,1,12.76-16.69,78.52,78.52,0,0,1,111.07,0,75.61,75.61,0,0,1,11.66,15,78.42,78.42,0,0,0-67.25-3.92,76.62,76.62,0,0,0-26,17.3,81.26,81.26,0,0,0-12.76,16.69,77.69,77.69,0,0,0-10.19,38.54c0-1.6.12-3.32.24-4.91a78.51,78.51,0,0,1,10.07-32.65,75.36,75.36,0,0,1,12.76-16.69,77.8,77.8,0,0,1,26-17.3,78.79,78.79,0,0,1,68.36,4.54A75.67,75.67,0,0,1,262,125.6a77.93,77.93,0,0,1,22.95,55A77.85,77.85,0,0,0,261.89,124.5Z"/>
      </g>
      <path class="cls-10" d="M249.86,180a76.62,76.62,0,0,0-17.3-26,81.75,81.75,0,0,0-16.7-12.76A78.74,78.74,0,0,0,179.41,131a49,49,0,0,1,46.64,46.52c0,.86.12,1.59.12,2.45a16.89,16.89,0,0,1-.12,2.46,78,78,0,0,1-10.19,36.45,78.32,78.32,0,0,1-107,29.45A75.36,75.36,0,0,0,121.61,265a78.52,78.52,0,0,0,111.07,0,81.34,81.34,0,0,0,12.76-16.69A79.63,79.63,0,0,0,249.86,180Z"/>
      <g class="cls-7">
        <path class="cls-8" d="M177,254a78.47,78.47,0,0,0,49-70.45c0-.86.12-1.6.12-2.45v1.22a77.92,77.92,0,0,1-10.19,36.45,78.31,78.31,0,0,1-107,29.46l1.1,1.84A77.86,77.86,0,0,0,177,254Z"/>
      </g>
      <g class="cls-7">
        <path class="cls-8" d="M109.71,248.82A78.49,78.49,0,0,0,225.93,182.3a22.58,22.58,0,0,1-.25,2.95A78.5,78.5,0,0,1,69,179.36V180a78.33,78.33,0,0,0,39.76,68.24"/>
      </g>
      <path class="cls-11" d="M233.17,154.69a78.25,78.25,0,0,1,12,93.52,75.41,75.41,0,0,0,16.69-12.77,77.06,77.06,0,0,0,19.51-32.52Z"/>
      <path class="cls-3" d="M245.2,247a75.41,75.41,0,0,1-12.77,16.69,78.56,78.56,0,0,1-122.72-14.85c-.37-.24-.74-.37-1.11-.61a75.67,75.67,0,0,0,12.76,16.69,78.52,78.52,0,0,0,111.07,0,81.67,81.67,0,0,0,12.77-16.69,77.13,77.13,0,0,0,10.18-38.91A76.46,76.46,0,0,1,245.2,247Z"/>
    </g>
    <path class="cls-12" d="M261.89,124.5a81.67,81.67,0,0,0-16.69-12.77A75.64,75.64,0,0,0,232.43,95a78.52,78.52,0,0,0-111.07,0,82,82,0,0,0-12.76,16.69,78.5,78.5,0,0,0,.12,136.48,75.41,75.41,0,0,0,12.77,16.69,78.52,78.52,0,0,0,111.07,0,82,82,0,0,0,12.76-16.69A75.41,75.41,0,0,0,262,235.44,78.47,78.47,0,0,0,261.89,124.5ZM226.05,180A49.09,49.09,0,1,1,177,130.88,49.08,49.08,0,0,1,226.05,180Z"/>
  </g>
</svg>
