<?xml version="1.0" standalone="no"?>
<!DOCTYPE svg PUBLIC "-//W3C//DTD SVG 20010904//EN"
 "http://www.w3.org/TR/2001/REC-SVG-20010904/DTD/svg10.dtd">
<svg version="1.0" xmlns="http://www.w3.org/2000/svg"
 width="720.000000pt" height="720.000000pt" viewBox="0 0 720.000000 720.000000"
 preserveAspectRatio="xMidYMid meet">

<g transform="translate(0.000000,720.000000) scale(0.100000,-0.100000)"
fill="#000000" stroke="none">
<path d="M0 3600 l0 -3600 3600 0 3600 0 0 3600 0 3600 -3600 0 -3600 0 0
-3600z m4180 2203 c87 -59 113 -154 68 -243 -33 -64 -84 -92 -164 -88 -48 3
-69 10 -96 30 -95 73 -89 228 11 295 43 29 143 32 181 6z m-577 -399 c304 -69
550 -307 638 -617 26 -93 36 -270 20 -362 -65 -377 -345 -661 -716 -726 -94
-16 -270 -6 -365 21 -243 69 -449 245 -555 475 -57 124 -70 191 -70 370 0 140
3 169 24 235 50 159 116 268 236 385 206 203 500 284 788 219z m242 -1958
c300 -78 558 -292 690 -573 110 -235 126 -539 41 -789 -91 -268 -293 -490
-558 -614 -151 -70 -226 -85 -438 -84 -200 0 -242 8 -410 79 -204 85 -405 276
-509 482 -87 174 -106 260 -105 488 0 177 2 196 27 278 123 401 431 678 837
753 114 20 301 12 425 -20z"/>
<path d="M3230 5207 c-219 -65 -376 -213 -453 -425 -30 -82 -32 -94 -31 -227
0 -132 2 -145 31 -223 66 -173 179 -298 338 -376 112 -55 174 -70 295 -69 210
1 388 88 523 256 97 121 142 253 141 417 -2 194 -62 339 -199 476 -131 132
-284 194 -471 193 -72 0 -120 -6 -174 -22z"/>
<path d="M3470 3281 c-382 -54 -679 -363 -730 -755 -25 -200 34 -432 154 -601
90 -125 254 -253 396 -306 98 -37 204 -52 340 -47 106 4 139 9 215 35 276 95
470 286 557 553 26 81 31 115 36 227 5 145 -4 212 -45 332 -87 255 -325 474
-588 542 -88 23 -249 32 -335 20z"/>
</g>
</svg>
