<svg xmlns="http://www.w3.org/2000/svg" xmlns:xlink="http://www.w3.org/1999/xlink" version="1.1" style="enable-background:new 0 0 100 100;" xml:space="preserve" width="40" height="40"><rect id="backgroundrect" width="100%" height="100%" x="0" y="0" fill="none" stroke="none"/>
<style type="text/css">
	.st0{fill-rule:evenodd;clip-rule:evenodd;}
	.st1{fill-rule:evenodd;clip-rule:evenodd;fill:#FF5551;}
</style>

<g class="currentLayer" style=""><title>Layer 1</title><g id="svg_1" class="">
	<g id="svg_2">
		<path id="SVGID_37_" class="st0" d="M13.199999237060545,26.099999618530276 c-0.2,0 -0.4,0.1 -0.5,0.30000000000000004 c-0.1,0.2 -0.1,0.4 0,0.5 c0.1,0.2 2.5,4.2 7.3,4.2 s7.2,-4.1 7.3,-4.2 c0.1,-0.2 0.1,-0.4 0,-0.5 c-0.1,-0.2 -0.30000000000000004,-0.30000000000000004 -0.5,-0.30000000000000004 H13.199999237060545 zM11.799999237060547,14.399999618530273 V19.899999618530273 c0,0.6000000000000001 0.5,1.1 1.1,1.1 h3.7 c0.6000000000000001,0 1.1,-0.5 1.1,-1.1 v-3.7 c0,-0.6000000000000001 -0.5,-1.1 -1.1,-1.1 h-2.6 v-0.7000000000000001 c0,-1.4 1.2,-2.5 2.6,-2.5 c0.6000000000000001,0 1.1,-0.5 1.1,-1.1 c0,-0.6000000000000001 -0.5,-1.1 -1.1,-1.1 C13.99999923706055,9.599999618530276 11.799999237060547,11.69999961853027 11.799999237060547,14.399999618530273 zM22.099999237060544,14.399999618530273 V19.899999618530273 c0,0.6000000000000001 0.5,1.1 1.1,1.1 h3.7 c0.6000000000000001,0 1.1,-0.5 1.1,-1.1 v-3.7 c0,-0.6000000000000001 -0.5,-1.1 -1.1,-1.1 h-2.6 v-0.7000000000000001 c0,-1.4 1.2,-2.5 2.6,-2.5 c0.6000000000000001,0 1.1,-0.5 1.1,-1.1 c0,-0.6000000000000001 -0.5,-1.1 -1.1,-1.1 C24.299999237060547,9.599999618530276 22.099999237060544,11.69999961853027 22.099999237060544,14.399999618530273 z"/>
		<path id="SVGID_22_" class="st1" d="M12.299999237060547,-3.8146972514141453e-7 c-6.8,0 -12.3,5.5 -12.3,12.2 v15.2 c0,6.8 5.5,12.2 12.3,12.2 h10.4 L15.799999237060547,34.89999961853027 H12.299999237060547 c-4.1,0 -7.4,-3.3 -7.4,-7.3 V12.299999618530272 c0,-4.1 3.3,-7.3 7.4,-7.3 h15.3 c4.1,0 7.4,3.3 7.4,7.3 v15.2 c0,4.1 -3.3,7.3 -7.4,7.3 h-2.9 v4.9 h2.9 c6.8,0 12.3,-5.5 12.3,-12.2 V12.299999618530272 c0,-6.8 -5.5,-12.2 -12.3,-12.2 C27.599999237060544,-3.8146972514141453e-7 12.299999237060547,-3.8146972514141453e-7 12.299999237060547,-3.8146972514141453e-7 z"/>
	</g>
</g></g></svg>