<svg id="Layer_1" data-name="Layer 1" xmlns="http://www.w3.org/2000/svg" viewBox="0 0 400 400">
  <defs>
    <style>
      .cls-1 {
        fill: #438ee8;
      }
    </style>
  </defs>
  <title>2</title>
  <path class="cls-1" d="M399.8,327.4c-.7-3.4-1.8-6.6-2.7-9.9L368.3,217.1l-43-150.4a12.7,12.7,0,0,0-20.7-6L291.7,71.9,277.1,84.6,272.3,89l-8.7,7.5-8,7-9.2,8-5.1,4.5-6.3,5.5-5.6,5-8.6,7.4-5.5,4.9-11.5,10.1-3.4,2.8c-.4.4-.7.4-1.1,0l-10.2-9-12.6-11.1-15.3-13.3L150.5,109c-5.1-4.4-10.2-8.8-15.2-13.3s-8.6-7.6-12.9-11.4c-8.3-7.6-16.9-14.8-25.4-22.3-2.7-2.4-5.6-4.3-9.2-4.7a4.2,4.2,0,0,0-1.8,0c-6.9.8-10,4.5-11.6,9.6s-2.5,9.2-3.9,13.8-2.7,9.8-4.2,14.6c-2.2,7.2-4.2,14.5-6.2,21.8L55.7,133c-1.3,4.6-2.5,9.1-3.8,13.7l-4.2,14.4-6.2,21.8-4.5,15.9c-1.5,5.3-2.9,10.6-4.5,15.8s-2.8,9.4-4.2,14.2c-2.1,7.3-4.1,14.6-6.2,21.8l-5.2,18c-1.5,5.3-2.9,10.6-4.4,15.8s-2.8,9.5-4.2,14.3c-2.1,7.3-4.2,14.6-6.2,22C1,324,0,327.2,0,330.8c.1,5.9,5.7,11,10.8,11.9a20.4,20.4,0,0,0,3.8,0,23.8,23.8,0,0,1,3.9-.7c.2-.3.6-.3.9-.5l15.6-3,24-4.5,26.8-5,22.4-4.2,31.6-5.9,24-4.5,29.9-5.5c2.7-.5,5.3-1.5,8.2-.8l4.3.9,17.4,3.2,11.9,2.2,11.9,2.3,13.3,2.5,11.9,2.2,11.8,2.3,18.2,3.3,16.6,3.2,18.2,3.3c5.5,1,11,2.3,16.6,3.2s12.4,2.2,18.6,3.3a81.3,81.3,0,0,1,8.5,1.6c4.1,1.2,8,1.8,12-.4A12.7,12.7,0,0,0,399.8,327.4ZM217.3,165.1l31.9-27.9,30.2-26.4,1.4-1.2.2.2-39.2,78.9-12-10.5-12.5-10.9C216.4,166.5,216.2,166.1,217.3,165.1Zm-97.9-55.2,4.7,4,55.3,48.3,3.7,3.2c.8.6.7,1,0,1.6l-17.2,15-6.6,5.8c-.8.7-1.2.7-1.7-.3l-22.1-44.5-15.9-32-.4-.9ZM30.5,300.5l-1,.8L88.4,95.6l6.1,12.3,27.6,55.5,19.1,38.4a1.5,1.5,0,0,1-.5,2.2l-39.3,34.4L66.9,268.7Zm152.7-11.3-55.6,10.4-43.5,8.2-36.9,6.9h-1l7.9-6.9,37.1-32.4,44.4-38.8,14.9-13.1c.9-.8,1.2-.8,1.7.3L184,287.7C184.4,288.6,184.5,289,183.2,289.2Zm17.5-17.7-.7,1.3-8.5-17-20.7-41.5c-.8-1.6-1.6-3.3-2.4-4.9a1.2,1.2,0,0,1,.3-1.8l28-24.5.9-.8c2.4-2.1,2.4-2.1,4.7,0l28.8,25.1a1.4,1.4,0,0,1,.4,2Zm153,43.4-8.9-1.6-47.3-8.9-46.8-8.8-33.8-6.3c-1.3-.2-1.1-.6-.7-1.5L234,252.1c4.6-9.3,9.3-18.7,13.9-28.1.7-1.3,1-1.2,2-.4L298.3,266l36.5,31.9,17.9,15.6,1.2,1.1Zm16.1-14.4-5.5-4.8L323,259.6l-57.6-50.2-6.3-5.5c-.7-.6-.7-1.1-.3-1.9l17.9-35.9,30.5-61.4,4.4-9,58.6,204.5Z"/>
</svg>
