<svg id="Layer_1" data-name="Layer 1" xmlns="http://www.w3.org/2000/svg" xmlns:xlink="http://www.w3.org/1999/xlink" viewBox="0 0 400 400">
  <defs>
    <style>
      .cls-1 {
        fill: url(#linear-gradient);
      }

      .cls-2 {
        fill: #fff;
      }
    </style>
    <linearGradient id="linear-gradient" x1="-1.58" y1="-1.58" x2="398.42" y2="398.42" gradientUnits="userSpaceOnUse">
      <stop offset="0" stop-color="#011b40"/>
      <stop offset="1" stop-color="#1587bc"/>
    </linearGradient>
  </defs>
  <title>d</title>
  <g>
    <rect class="cls-1" width="400" height="400"/>
    <g>
      <circle class="cls-2" cx="62.4" cy="236.4" r="13.2"/>
      <circle class="cls-2" cx="109.9" cy="236.6" r="9.3"/>
      <circle class="cls-2" cx="149.1" cy="236.6" r="4.2"/>
      <path class="cls-2" d="M347.5,208.9a3.9,3.9,0,0,1-4-4V154.4a4,4,0,1,1,8.1,0v50.4A3.9,3.9,0,0,1,347.5,208.9Zm-27.3-32.5c-5.9,0-9.9,4.2-10.7,9.5h21.1c-.7-5.1-4.5-9.5-10.4-9.5ZM338,189.7c0,1.4-.8,2.7-3.1,2.7H309.3c.4,5.9,4.5,10.4,11.6,10.4,4.5,0,7.1-1.5,9.9-4.2a3.9,3.9,0,0,1,2.7-1.3,3.2,3.2,0,0,1,3.3,3.3,3.6,3.6,0,0,1-1,2.3c-3.3,3.8-9.1,6.3-15.3,6.3-12.8,0-19.5-8.9-19.5-19.6s8.1-19.6,19.2-19.6,17.8,8.7,17.8,19.7Zm-59.9-19.7a17.6,17.6,0,0,1,18,17.9v17a4,4,0,1,1-8.1,0V186.9a9.9,9.9,0,0,0-19.8,0v17.9a4,4,0,1,1-8.1,0v-17A17.5,17.5,0,0,1,278.1,169.9Zm-44,6.9c-6.9,0-11.7,5.7-11.7,12.8s4,12.8,11.7,12.8,11.7-6.1,11.7-12.8S241,176.8,234.2,176.8Zm19.7,28a4,4,0,1,1-8,0v-1.9a14.9,14.9,0,0,1-12.5,6.3c-12,0-18.9-8.7-18.9-19.6s7.7-19.6,19.8-19.6,19.6,8.1,19.6,19.6v15.3Zm-62.1-28.2c-6.9,0-11.6,6.1-11.6,12.9s4.6,12.9,11.6,12.9,11.5-5.2,11.5-12.9S198.8,176.6,191.8,176.6Zm1.6,32.6a15.4,15.4,0,0,1-13.2-7.4v19a4,4,0,0,1-8.1,0V174.3a3.7,3.7,0,0,1,3.9-4,3.9,3.9,0,0,1,3.9,4.1v2.9a15.5,15.5,0,0,1,13.5-7.4c9.9,0,17.9,8.2,17.9,19.6S203.3,209.2,193.4,209.2Zm-44-25,10.2-12.7a3.4,3.4,0,0,1,2.7-1.2,3.4,3.4,0,0,1,3.7,3.5,3.4,3.4,0,0,1-.9,2.3l-11.2,13.4,11.4,13.5a3.4,3.4,0,0,1,.9,2.4,3.6,3.6,0,0,1-3.6,3.5,3.4,3.4,0,0,1-2.8-1.3l-10.3-12.8-10.3,12.8a3.4,3.4,0,0,1-2.8,1.3,3.6,3.6,0,0,1-3.6-3.5,3.4,3.4,0,0,1,.9-2.4l11.4-13.5-11.2-13.4a3.4,3.4,0,0,1-.9-2.3,3.4,3.4,0,0,1,3.7-3.5,3.4,3.4,0,0,1,2.7,1.2Zm-26.7,24.7a3.9,3.9,0,0,1-4-4V174.3a4,4,0,1,1,8.1,0v30.5a3.9,3.9,0,0,1-4,4Zm0-53.8a4.7,4.7,0,1,1-4.7,4.7A4.8,4.8,0,0,1,122.7,155Zm-15.3,53.8a4,4,0,0,1-4-4V187.7c0-5.9-2.8-10.5-9.2-10.5S84,182.1,84,187.8v17.1a3.9,3.9,0,0,1-4,4,3.9,3.9,0,0,1-4-4V187.7c0-5.9-3.1-10.5-9.4-10.5s-9.9,4.9-9.9,10.5v17.1a3.9,3.9,0,0,1-4,4,4,4,0,0,1-4-4V174.4a3.8,3.8,0,0,1,4-4.1,3.8,3.8,0,0,1,4,4.1v2.7a13.4,13.4,0,0,1,12.1-7.2c6.2,0,10.8,3.1,13.1,7.6a16.1,16.1,0,0,1,14.3-7.6c10.4,0,15.3,7.1,15.3,17.1v17.7a3.9,3.9,0,0,1-4,4Z"/>
    </g>
  </g>
</svg>
