<svg id="Layer_1" data-name="Layer 1" xmlns="http://www.w3.org/2000/svg" viewBox="0 0 400 400">
  <defs>
    <style>
      .cls-1 {
        fill: #4e3629;
      }

      .cls-2 {
        fill: #48a63a;
      }

      .cls-3 {
        fill: #419433;
      }

      .cls-4 {
        fill: #46a037;
      }

      .cls-5 {
        fill: #429734;
      }

      .cls-6 {
        fill: #4da83f;
      }

      .cls-7 {
        fill: #45a437;
      }

      .cls-8 {
        fill: #41a334;
      }

      .cls-9 {
        fill: #59af49;
      }

      .cls-10 {
        fill: #53ab43;
      }

      .cls-11 {
        fill: #55ad46;
      }

      .cls-12 {
        fill: #5db04c;
      }

      .cls-13 {
        fill: #61b250;
      }

      .cls-14 {
        fill: #3f9231;
      }

      .cls-15 {
        fill: #65b453;
      }

      .cls-16 {
        fill: #b1b192;
      }

      .cls-17 {
        fill: #d6d4c0;
      }

      .cls-18 {
        fill: #c4c2a9;
      }

      .cls-19 {
        fill: #4ba73d;
      }

      .cls-20 {
        fill: #399f2c;
      }

      .cls-21 {
        fill: #50aa41;
      }

      .cls-22 {
        fill: #93795d;
      }

      .cls-23 {
        fill: #94a577;
      }

      .cls-24 {
        fill: #6ea057;
      }

      .cls-25 {
        fill: #439d35;
      }

      .cls-26 {
        fill: #439b34;
      }
    </style>
  </defs>
  <title>d</title>
  <path class="cls-1" d="M24.1,99.4c0,4.6,0,9.2,0,13.8.1,6.2.6,6.9,6.7,7.8,1.8.3,2.6.8,2.5,2.8s-.8,2.9-3.1,2.7a159.3,159.3,0,0,0-24.6,0c-1.3.1-3,.7-3.1-1.7s-.1-3.6,2.5-3.8a19.1,19.1,0,0,0,3.6-.7,4.3,4.3,0,0,0,3.5-4.2c.8-11.8.5-23.5.4-35.3a4,4,0,0,0-2.4-3.6,36.9,36.9,0,0,0-6.8-2.8c-.9-.3-1.9-.7-1.8-1.9a2,2,0,0,1,1.7-1.7,115.3,115.3,0,0,0,19.7-5c1.5-.6,1.4.9,1.4,1.7s-.3,3.2-.4,4.8-.3,1.8.6,2.3,1.4-.4,2-.8a46.9,46.9,0,0,1,12.5-7c8-2.8,15-.8,19.9,6.2,1.6,2.4,2.6,2.4,4.7.7A40.5,40.5,0,0,1,73.1,68c13.6-6.2,25.7.4,27.8,15.3,1.1,7.6.3,15.2.5,22.9.1,3,.1,6-.1,9a4.3,4.3,0,0,0,3.6,5,21,21,0,0,0,3.6.9c2,.2,3.1.7,2.7,3.1s-1.4,2.6-3.4,2.4a190.6,190.6,0,0,0-24.6-.1c-1,0-2.3.5-2.2-1.2s-1.1-3.6,1.4-3.9c6.7-1,7.1-2.4,7.1-9.8s.5-16-.3-24S81.3,73.3,72.2,75.4a23.6,23.6,0,0,0-3.5,1.1c-5.8,2.4-6,3-5.9,9.2.2,8.9.1,17.7.1,26.6,0,7.3,0,7.3,7.1,8.8,1.8.4,2.2,1.2,2.1,2.9s-.6,2.8-2.7,2.6a213.5,213.5,0,0,0-25.1,0c-1.3.1-2.8.4-2.8-1.7s-.3-3.3,2.2-3.7c7.2-1.3,7.2-1.5,7.4-9s.5-15.4,0-23.2a22.7,22.7,0,0,0-.8-5c-2.2-7.5-8.1-10.9-15.7-9l-2.7.8c-7.3,2.7-8,3.7-8,11.4V99.4Z"/>
  <path class="cls-1" d="M215,75.2a88.9,88.9,0,0,1,9.1-6.3c4.8-2.7,9.7-4.6,15.3-3.4,7.8,1.6,13.2,7.6,14.7,16.3a54,54,0,0,1,.7,9c.1,8.1.3,16.2.3,24.3,0,2.9,1.1,4.4,3.8,5l3,.7c3.1.6,3.4,1.3,2.7,4.4-.3,1.4-.9,2.1-2.5,2a186.8,186.8,0,0,0-26,0c-2,.1-2.8-.6-2.8-2.5s-.5-3.3,2.1-3.7c6.7-1.1,6.8-1.3,6.7-8.2-.1-8.7.5-17.3-.5-26S236,75.2,228.6,75.3a18.5,18.5,0,0,0-5.8,1.1c-6.2,2.2-7.5,4-7.5,10.5.1,8.9.2,17.9.3,26.8.1,5.7.4,6.1,6.1,7.1,3.5.6,3.8,1.1,3.1,4.5a1.9,1.9,0,0,1-2.3,1.8,222.3,222.3,0,0,0-26.8,0c-1.1.1-2.1.1-2.2-1.4s-.7-3.4,1.1-4.5.7-.1,1.1-.2c6.6-1.4,6.8-1.5,6.9-8.3.1-10.2.1-20.3.2-30.5a4.2,4.2,0,0,0-2.7-4.4l-5.5-2.3c-1.3-.5-2.9-.8-2.7-2.7s1.7-2.2,3.2-2.3a90.5,90.5,0,0,0,11.3-2.4c2.1-.6,4.1-1.2,6.2-1.9s3.1-.4,3,2.3S215.2,72.4,215,75.2Z"/>
  <path class="cls-2" d="M40.5,311c-2.9-2.6-6.2-4.7-8.7-7.8,1.5-.9,2.1.3,2.7,1L3.4,211.6c-.5,3.8-1.2,7.7-1.5,11.6-.4.8-.4,1.8-1.5,1.9a98.5,98.5,0,0,1,4.9-26.6c1-1.6,1.4-3.5,2-5.2s1.4-1.5,2.4-.5a9.9,9.9,0,0,1,1.7,3.8l29.9,89.5c.6,1.8.9,4,3.3,4.5a2,2,0,0,1,.4,1.7,13.8,13.8,0,0,0-.2,4.1A45.4,45.4,0,0,1,42.7,309C42.4,309.9,42.5,311.7,40.5,311Z"/>
  <path class="cls-3" d="M78.9,277.3a71.9,71.9,0,0,1-12.5,18.5c-5.6-.1-11,1.5-16.5,2.1a4.1,4.1,0,0,0-3.5,1.9c-2-1.5-1.4-3.7-1.8-5.7s.3-1.9.2-2.9-.2-1.9-.2-2.9c-1-3.4.3-6.8,0-10.2a51.1,51.1,0,0,1,.8-8.8,14.3,14.3,0,0,0,.4-5,2.8,2.8,0,0,1,2.7-3.2l35.1-5.6c2.4-.4,2.8.1,2.2,2.6a73.4,73.4,0,0,1-5.2,15.1A17,17,0,0,0,78.9,277.3Z"/>
  <path class="cls-4" d="M57,156.6c11.2,11,19,24.2,24.6,38.7,3.4,9,6.3,18.1,7.1,27.8.1,1.4.2,2.8.2,4.2a.6.6,0,0,1-.8-.2c-1.4-3.2-1.1-6.8-1.6-10.1a150.2,150.2,0,0,0-6.3-21c-.6-1.6-1-2.1-3-1.5-5.3,1.6-10.9,2-16.3,3s-8.7,1.4-13.1,2.2c-.8.2-1.7.6-2.2-.5-.7-6.3-.1-12.5-.3-18.8-.1-3,.4-6-.4-8.9-.4-5.9-.3-11.8-.3-17.7a25.5,25.5,0,0,0-.2-6.9,12.9,12.9,0,0,1-.2-3.3c.1-.7.1-1.7.9-1.9s.9.9,1.3,1.4.9,2.6,2.1,3.5h0C50.1,150.8,53.9,153.4,57,156.6Z"/>
  <path class="cls-5" d="M88.5,227.4h.5c1.1,17.6-1.6,34.3-10,50,0-3.3,2.4-5.6,3.3-8.6s2.5-7.2,3.4-11c.4-1.6,0-1.9-1.6-1.6l-35.7,5.7c-1.3.2-1.9.6-1.9,2.1s.6,3.6-.5,5.2c-1.1-1.2-.8-2.7-.8-4.1,0-7.9.8-15.7.6-23.6a5.3,5.3,0,0,1,.4-2.5,1.2,1.2,0,0,1,1.1-.7c8.6.2,16.9-2.5,25.3-3.5q5.5-.6,10.9-1.6c2.6-.5,4.5-1.2,4.3-4.4A1.8,1.8,0,0,1,88.5,227.4Z"/>
  <path class="cls-6" d="M45.5,278.3c.4,3.4-1,6.8,0,10.2-.7.5-.4,1.4-.9,2l-.3.2c-.8.9-1.6,1.5-2.3,0s-1.1-2.4-1.5-3.6L10.4,196.4v-.3c-.6-1.2-.5-3.4-2-3.4s-1.2,2.2-1.8,3.4-.4,1.8-1.4,2.4a43,43,0,0,1,3.3-9.6c1.4-1.7,1.6-4,2.8-5.8s.4-1.8,1.6-1.7,1.6,2.5,2,3.9l26.9,80.7C43.2,270,44.8,274,45.5,278.3Z"/>
  <path class="cls-7" d="M1.4,223.4a43,43,0,0,1,2.2-13.7L35.5,305c-1.8-.2-2.2-2.1-3.7-1.9a50.3,50.3,0,0,1-8.1-8.5c1.5-.6.8-1.6.4-2.6-2.6-7.6-5.1-15.2-7.7-22.7-5.1-14.6-9.7-29.3-14.8-43.9A3.8,3.8,0,0,1,1.4,223.4Z"/>
  <path class="cls-8" d="M1.4,223.4c3.8,8.4,6.1,17.3,9.1,26,4.9,14.2,9.7,28.4,14.4,42.6.3,1,1.1,2,.6,3.3l-1.8-.7-.9-1.1a5.6,5.6,0,0,0-1.9-2.3A94.2,94.2,0,0,1,2.6,255.1,59.2,59.2,0,0,1,.3,240.9a109.1,109.1,0,0,0,0-15.2v-.6Z"/>
  <path class="cls-9" d="M45.5,171.4c.9.8.5,1.9.5,2.9,0,8.5,0,16.9,0,25.4a2.9,2.9,0,0,1,.8,2.3c.1,7.9.2,15.7-.3,23.6-.8,1.4-1.6,1-2.3,0a10.3,10.3,0,0,1-1.3-3.1c-6.4-19-12.6-38-19.1-57a3.4,3.4,0,0,1,.1-3.2,1.6,1.6,0,0,1,1-1.7c3.3-3.5,4.2-3.3,5.8,1.3l13.9,41.7c.1-4.5,0-8.5,0-12.5-.1-5.6-.1-11.2-.1-16.7C44.8,173.4,44.6,172.2,45.5,171.4Z"/>
  <path class="cls-10" d="M46.6,238.7c.3,8.9-.4,17.7-.6,26.6-1.4-.1-1.2-1.3-1.3-2.1a20.8,20.8,0,0,0-1.3-5.8l-26.7-80a15.5,15.5,0,0,1-.9-3,.9.9,0,0,1,.1-.9c.7-.8.7-2.1,1.6-2.8s2.1-.2,2.9.8a9,9,0,0,1,1.1,2.6c7.5,23,15.5,45.8,23.1,68.8a10,10,0,0,1,.6,2.4c.1-3-.8-6.1.5-9a.7.7,0,0,1,.8.1A1.8,1.8,0,0,1,46.6,238.7Z"/>
  <path class="cls-11" d="M46,236.4v11.3l-.5-.3a4.4,4.4,0,0,1-.1-.8c-2.4-17.5-9.9-33.4-15.1-50.1-2.6-8.3-5.6-16.6-8.3-24.9-.6-1.8-1.3-2.8-3.3-2.5,1.4-2.5,2.8-5,5.1-6.8-.2,2.2,1.1,4,1.7,5.9q9.1,27.5,18.3,55c.4,1.1.3,2.8,2,3.1A14.2,14.2,0,0,1,46,236.4Z"/>
  <path class="cls-12" d="M45.5,191.8v13.7a1.9,1.9,0,0,1-1.7-1.6L30.2,162.8c-1.5-4.6-1.5-4.6-5.3-2.2a18.6,18.6,0,0,1,3.9-4.5c3.4-3.4,4.4-3.2,5.9,1.4,2.6,7.8,5.4,15.6,8.1,23.4C44,184.5,43.7,188.3,45.5,191.8Z"/>
  <path class="cls-13" d="M45.5,191.8a7.4,7.4,0,0,1-2.2-5.8,9.2,9.2,0,0,0-.8-3.5l-8.2-23.9c-1.6-4.7-1.6-4.7-5.4-2.4a33.3,33.3,0,0,1,6.8-6.8c1.8-1.1,2.8-.9,3.7,1.3,2.2,5.2,2.9,10.8,5.2,15.9,1.1,2.4.3,5.2.9,7.7Z"/>
  <path class="cls-10" d="M18.8,169.1c2.5-1.8,2.5-1.8,3.6,1.3,7.4,22,14.7,44,22.2,65.9,1.2,3.4.6,6.9.9,10.3-3.1-7.4-5.3-15.2-7.9-22.9-5.7-16.6-11.3-33.3-16.9-49.9-.5-1.6-.9-3.2-3.1-3Z"/>
  <path class="cls-14" d="M46.6,299.8c-.3-1.8.3-2.3,2.3-2.4,5.1-.5,10.1-1.5,15.2-2.4,1-.2,2.1-.7,2.4.9-4,5.3-9,9.5-14.2,13.5a1.3,1.3,0,0,1-1.2.2,7.6,7.6,0,0,1-2.2-1.9C47.5,305.2,45.5,303,46.6,299.8Z"/>
  <path class="cls-15" d="M45.5,174.2c-1.3-1.5-.2-3.5-.8-5.2-1.3-3.3-2.3-6.8-3.4-10.2s-1.5-5.2-2.4-7.7-1.4-2.5-3.2-1.9l3.7-3.4c2.4-2.4,4.2-5,4-8.8,1.2.4,1.2,1.4,1.5,2.1s-.6,2.6.1,3.9v3.4c.7,2.2-.2,4.6.5,6.8v20.9Z"/>
  <path class="cls-16" d="M46.6,299.8a19.3,19.3,0,0,0,2.9,7.8c-1.2,5.3-3.4,10.3-5.1,15.7-1.5-1-.8-2.5-1.7-3.3a54.4,54.4,0,0,0-2.3-9.1c1.2-.1,1.2-1.1,1.3-1.9,1-4.2,2-8.4,2-12.7.6-.9.1-1.9.4-2.8s1,0,1.3.5S45.8,298,46.6,299.8Z"/>
  <path class="cls-17" d="M51.3,309.3h1c-2.4,3.6-2.7,7.6-3.2,11.8s0,8,.5,12.1c-1.2-.4-.2-1.5-1-1.9-.5,3.5-1.4,4.2-3.8,3a1.7,1.7,0,0,1-1.1-1.7,50.4,50.4,0,0,1-.3-7.5c1.4-.1,1.4.8,1.2,1.8,2.1-5.1,2.8-10.6,4.9-15.7C49.8,310.5,49.8,309.1,51.3,309.3Z"/>
  <path class="cls-18" d="M51.3,309.3c-1.8,2.8-2.6,5.9-3.3,9.1a104.1,104.1,0,0,1-3.4,10c-.5-1.2,0-2.5-1.3-3.1l-.5-5.2c2.2-.1.2,1.9,1.4,2.4,1.3-4.3,2.6-8.6,4-12.9.2-.6.2-1.7,1.3-1.9Z"/>
  <path class="cls-19" d="M57,156.6c-3.7-2.7-7.4-5.4-8.6-10.2C50.7,150.3,54.2,153.1,57,156.6Z"/>
  <path class="cls-20" d="M.3,225.7a48.8,48.8,0,0,1,0,15.2A93.2,93.2,0,0,1,.3,225.7Z"/>
  <path class="cls-10" d="M16,173.6v.7c.3,3.1-1.9,5.1-3.4,7.3l-1.1,1.7a.3.3,0,0,1-.6,0A43.9,43.9,0,0,1,16,173.6Z"/>
  <path class="cls-19" d="M44.9,143.1a3.5,3.5,0,0,1-.1-3.9l3.6,7.2c-2-.5-1.6-2.7-2.7-3.9s-.2-.9-.7-.5S45,142.8,44.9,143.1Z"/>
  <path class="cls-21" d="M11,183.3h.6c-1.2,1.7-1.1,4.2-3,5.6A19.5,19.5,0,0,1,11,183.3Z"/>
  <path class="cls-7" d="M20.9,291.3a2.2,2.2,0,0,1,1.9,2.3Z"/>
  <path class="cls-22" d="M253.1,236.6c-.4-19.3-6.7-36.2-21-49.6s-29.7-17.4-47.5-17.9c-11.9-.3-23.7-.1-34-.1-13.7,1.1-25.9.2-38,.1-6.6-.1-7.2.4-9.5,6.6v.3c-.8,1.6-.2,2.1,1.4,2.3a88,88,0,0,1,13.9,2.6,9,9,0,0,1,6.9,7.4,30.7,30.7,0,0,1,.5,5.3q.1,42,.1,84c0,5.5-.3,10.9-.6,16.4-.4,7.4-2.6,9.7-9.9,11.1a10.1,10.1,0,0,1-2.2.3c-2.9-.1-4.4,1.4-5.4,4-2.1,5.4-1.7,6,3.9,6,12.4.1,24.9.1,37.3.4s27.5.6,41.1-1.9c19.4-3.6,35.9-12.4,48.3-27.9S253.5,254.6,253.1,236.6Zm-30.7,38.5c-8.6,20.1-27.3,31.1-49.1,29.3a59.3,59.3,0,0,1-13-2.2c-7.9-2.5-11.2-6.8-11.4-15.1-.4-16.4-.5-32.8-.4-49.9s0-33.9.4-51.2c.1-3.8,1.3-5.6,5-5.9,18.8-1.5,36.9-.1,52.6,12.1,11.8,9.2,18.4,21.5,20.7,36.1S228.9,260.1,222.4,275.2Z"/>
  <path class="cls-22" d="M368.5,236.5c-3.3-1.4-6.7-2.5-10.7-3.7,2.5-1.4,4.5-2.3,6.4-3.5,11-7.1,17-16.9,15.6-30.4s-8.5-21.2-20.2-25.8a59.9,59.9,0,0,0-21.8-3.8c-20.6-.1-41.2,1.1-61.9,0-5.5-.3-5.7-.1-7.7,5.2l-.5,1.3c-.8,1.8-.2,2.5,1.8,2.8q5.6.7,11.2,1.6c5.3.9,7.6,3.6,8,9,.1.9.1,1.9.1,2.8q0,42.5-.1,85.1a154.2,154.2,0,0,1-1,20.6,6.9,6.9,0,0,1-5.5,6.4c-2.7.7-5.5,1.6-8.3,1.6s-4.4,1.1-5.2,3.7c-.3,1.1-.8,2.1-1.1,3.2s0,2.8,2.3,2.8l26.6.4c14.8.2,29.6,1.4,44.3-.6s27-7.1,37.9-16.8C395,283.5,398.7,249.4,368.5,236.5Zm-57.1-51.7c0-3.1,1.3-4.2,4.5-4.5a60.7,60.7,0,0,1,20.2,1.3c14,3.4,21.1,12.9,20.6,27.3-.2,4.9-1.2,9.5-3.9,13.6a17.7,17.7,0,0,1-11.3,7.8c-5.5,1.2-11,1.1-16.6,1.1-3.8-.1-7.5,0-11.3-.4-1.9-.2-2.7-.8-2.7-2.7C311,213.7,311.1,199.3,311.4,184.8Zm55.1,92.5c-1.8,18.5-14.4,28.7-33.9,27.3-2.6-.2-5.3-.4-7.9-.8-8.8-1.4-13.2-6.3-13.4-15.3s-.6-18.6-.4-26.2,0-12.1,0-17.3c0-1.5.2-3,2.1-3.1,12.4-.5,24.7-.9,36.3,4.5S367.8,263.4,366.4,277.3Z"/>
  <path class="cls-1" d="M317.6,119.8c-7-1.4-14.2-1.5-21.3-2.1-3.7-.3-6-2-6-4.4s2-3.9,6-4.2h.3c13-1.3,27.1-9.9,24.3-28.3-.5-3.5-.5-3.5,3-3.1s5.2-.3,6.7-2.6a8.7,8.7,0,0,0,1-8.4c-3.1,3-6.7,3.5-10.4,3.4a25.1,25.1,0,0,1-8.5-2c-9.9-4.1-19.5-3.1-28.8,2.1-7.7,4.3-11.4,11-11,19.8s4.1,14.8,12.2,18c2.4,1,1.9,1.9.2,2.9s-4.8,3.1-7.2,4.5-2.2,2.5-1.4,4.5a13,13,0,0,0,5.9,6.3c.9.5,2,.6,2.6,1.5s-1.3,1.3-2.1,1.9a94.1,94.1,0,0,0-9,7.3c-3.6,3.4-4.5,7.5-2.9,12.1,2.4,6.9,7.5,11.1,14.4,12.8,14.9,3.6,28,0,38.8-10.9a23.6,23.6,0,0,0,5.9-10.2C333.2,130.2,328.2,121.8,317.6,119.8ZM284.5,85.2a40.8,40.8,0,0,1,.5-4.5c1.2-5.4,4.4-8.7,8.9-9.4s10.6,1.5,13,6a21.7,21.7,0,0,1,.7,20.4c-3.2,6.9-13.3,7.4-18.6,1.2C286.1,95.7,284.6,90.9,284.5,85.2ZM315,151.7c-4.1,3-8.9,3.8-14,3.8s-9.2-.9-13.3-3.6-7.1-8.2-5.9-12.9,7.3-9.8,12.2-9.9a59.7,59.7,0,0,1,17.1,1.6c4.4,1.1,8.2,3.2,9.1,8.2A12.3,12.3,0,0,1,315,151.7Z"/>
  <path class="cls-1" d="M378.9,66.4a33.9,33.9,0,0,0-29.1,6.5c-10.8,8.3-12.6,19.8-10,32.3,2,9.5,7,16.7,16.3,20.5,17.2,7,44.2-2.7,43.8-30.2C400,80.6,392,69.4,378.9,66.4Zm7,43.3c-2.7,10.9-13,15.1-22.6,9.1-6.6-4.2-9.4-10.8-10.9-18.1a39.9,39.9,0,0,1-.7-8.1,39.8,39.8,0,0,1,.6-7.6c1.2-5.8,3.8-10.6,9.7-12.5s12-.2,16.6,4.3,7.4,12.5,8.1,19.9A40,40,0,0,1,386,109.7Z"/>
  <path class="cls-1" d="M164.8,67.5c-12.9-4.4-24.8-1.6-34.7,7.4-11.9,10.8-11.8,33.2-.4,44.9a25.8,25.8,0,0,0,10.2,6.4c17.3,6.1,42.6-4,42.5-30.2C182.6,82.2,176.1,71.3,164.8,67.5Zm3.6,42.5c-2.7,10.6-12.8,14.7-22.3,9.1-5.1-3.1-8-7.8-9.8-13.3a39.1,39.1,0,0,1-1-22c2.9-11.5,14.1-15.6,23.8-8.7,7,5,9.3,12.5,10.2,20.6a41.1,41.1,0,0,1,0,4.5A32.9,32.9,0,0,1,168.4,109.9Z"/>
  <path class="cls-23" d="M45.4,294.1l-1-.5a.8.8,0,0,1-.1-1.1v-1.7h.1c.6-.4.8.2,1.1.6Z"/>
  <path class="cls-6" d="M44.3,292.4v1.1c-.2.9.2,2-.6,2.9C43.9,295.1,43.3,293.7,44.3,292.4Z"/>
  <path class="cls-21" d="M12.7,181.6c.4-2.8,2.8-4.7,3.4-7.3,1.1.8,1.2,2.1,1.6,3.3,9.1,27.1,18,54.2,27.2,81.3.7,2.2,0,4.5,1.2,6.5v4c.2,3-.9,6-.6,9-3-7.4-5.3-15.1-7.9-22.7q-12-35.8-23.9-71.7C13.5,183.1,13.4,182.1,12.7,181.6Z"/>
  <path class="cls-24" d="M45.4,291.3l-1.1-.6c.1-.9-.4-2.1,1.1-2.3Z"/>
  <path class="cls-25" d="M46,236.4V226.2q0-13.3,0-26.6c2.7-2,6.1-1.6,9.1-2.2,6.5-1.2,13.1-2,19.6-3a4.2,4.2,0,0,0,2.1-.6c2.8-2.6,3.1-.4,4,1.7a192.8,192.8,0,0,1,6.4,21c-2.1,1.9-4.8,1.2-7.2,1.4a34.4,34.4,0,0,1-8.1.4c-2-.3-3.6,1.2-5.3.5s-4.3-.1-6.4-.8a6.3,6.3,0,0,0-3,.3c-1.2.2-2.5,2.2-3.7,0-.1-.1-.1,0-.3.2-1.9,2-3.1.5-4.3-.9s-.5-.8-1.1-.9-.5,1.5-.5,2.3c0,4.7,0,9.4,0,14.1,0,1.1.3,2.3-.7,3.2Z"/>
  <path class="cls-26" d="M46.6,236.4c0-6.2,0-12.4,0-18.6,0-.8-.4-1.9.7-2.1s1.5.6,2,1.3c1.9,2.7,2.6,2.7,4.6-.3-.1,2.4,1.6,2.3,2.4,1.6a3.9,3.9,0,0,1,3.9-.7c2.3.9,4.7-.4,7,.9s2.4-.1,1.6-2.2c1.3,2,2.7,1.5,4.5,1.4s6.5-.3,9.8-.5c1.4-.1,2.8-.4,4.2-.6l1.2,10.7c0,6.1,0,5.9-5.9,6.8-10,1.5-20.1,3.3-30.1,4.9a12.3,12.3,0,0,1-5.8-.4Z"/>
  <path class="cls-19" d="M45.5,153.3c-1.1-2.2-.3-4.5-.5-6.8C46.1,148.7,45.2,151.1,45.5,153.3Z"/>
</svg>
