<svg id="Layer_1" data-name="Layer 1" xmlns="http://www.w3.org/2000/svg" xmlns:xlink="http://www.w3.org/1999/xlink" width="100" height="100" viewBox="0 0 100 100"><defs><style>.cls-1,.cls-2{fill-rule:evenodd;}.cls-1{fill:url(#linear-gradient);}.cls-2{fill:#fff;}.cls-3{fill:none;}.cls-4{fill:#309de4;}</style><linearGradient id="linear-gradient" x1="48.72" y1="63.73" x2="48.72" y2="39.27" gradientTransform="matrix(1, 0, 0, -1, 0, 102)" gradientUnits="userSpaceOnUse"><stop offset="0" stop-color="#00aeef"/><stop offset="0.21" stop-color="#0097dc"/><stop offset="0.52" stop-color="#007cc5"/><stop offset="0.79" stop-color="#006cb8"/><stop offset="1" stop-color="#0066b3"/></linearGradient></defs><title>sap-erp-logo-color</title><path class="cls-1" d="M24,62.73H49L73.44,38.27H24V62.73"/><path class="cls-2" d="M53.34,43.16H48.46V54.65L44.22,43.16H40l-3.63,9.59c-.39-2.44-2.91-3.28-4.9-3.91-1.31-.42-2.7-1-2.69-1.73s.75-1.08,2.2-1a8,8,0,0,1,3.57,1l1.69-3a13.27,13.27,0,0,0-5.52-1.3h0a6.65,6.65,0,0,0-4.86,1.78,4.1,4.1,0,0,0-1.17,2.84,3.79,3.79,0,0,0,1.67,3.39,11.26,11.26,0,0,0,3.31,1.52c1.35.42,2.45.78,2.44,1.56a1.18,1.18,0,0,1-.32.76,2.2,2.2,0,0,1-1.57.49,6.74,6.74,0,0,1-4-1.15l-1.5,3A10.41,10.41,0,0,0,30,58.38h.44a6.6,6.6,0,0,0,4.19-1.33l.18-.15-.19,1h4.12l.74-1.9a8,8,0,0,0,2.6.42A8.15,8.15,0,0,0,44.63,56l.51,1.87h7.4V53.53h1.58c3.8,0,6-1.93,6-5.18C60.17,44.74,58,43.16,53.34,43.16ZM42.09,53a4.51,4.51,0,0,1-1.56-.27l1.54-4.87h0l1.52,4.88a4.67,4.67,0,0,1-1.53.26Zm11.54-2.8H52.55V46.26h1.08c1.42,0,2.57.48,2.57,1.94s-1.15,2-2.57,2"/><path class="cls-3" d="M24,38.27H74V62.73H24Z"/><polygon class="cls-4" points="59.31 57.39 62.38 57.39 62.38 56.32 59.31 56.32 58.24 56.32 58.24 57.39 58.24 58.85 58.24 58.99 58.24 60.06 58.24 60.19 58.24 61.39 58.24 62.73 59.31 62.73 62.51 62.73 62.51 61.39 59.31 61.39 59.31 60.19 62.51 60.19 62.51 58.85 59.31 58.85 59.31 57.39"/><path class="cls-4" d="M71.73,56.32H68.79v6.41h1.07V60.86h1.87a2.27,2.27,0,0,0,0-4.54Zm0,3.47H69.86v-2.4h1.87a1.2,1.2,0,1,1,0,2.4Z"/><path class="cls-4" d="M68.26,58.45a2.14,2.14,0,0,0-2.14-2.13H63.18v6.41h1.07V60.59h1.07l1.6,2.14h1.34v-.26l-1.45-2A2.15,2.15,0,0,0,68.26,58.45Zm-2.14,1.07H64.25V57.39h1.87a1.07,1.07,0,1,1,0,2.13Z"/></svg>