<svg width="512" height="512" fill="none" xmlns="http://www.w3.org/2000/svg">
  <path d="M203 107h-32a64 64 0 0 0-64 64v25c0 6-3 11-7 15l-30 30a21 21 0 0 0 0 31l30 30a21 21 0 0 1 7 15v25a64 64 0 0 0 64 64h32a11 11 0 0 0 10-11v-21a11 11 0 0 0-10-11h-32a21 21 0 0 1-22-21v-25a64 64 0 0 0-18-45l-15-16 15-15a64 64 0 0 0 18-45v-25a21 21 0 0 1 22-21h32a11 11 0 0 0 10-11v-21a11 11 0 0 0-10-11Zm239 134-30-30c-4-4-7-9-7-15v-25a64 64 0 0 0-64-64h-32a11 11 0 0 0-10 11v21a11 11 0 0 0 10 11h32a21 21 0 0 1 22 21v25a64 64 0 0 0 18 45l15 15-15 16a64 64 0 0 0-18 45v25a21 21 0 0 1-22 21h-32a11 11 0 0 0-10 11v21a11 11 0 0 0 10 11h32a64 64 0 0 0 64-64v-25a21 21 0 0 1 7-15l30-30a21 21 0 0 0 0-31Z"
        fill="#000" />
</svg>
