<svg height="512" viewBox="0 0 510 510" width="512" xmlns="http://www.w3.org/2000/svg"
     xmlns:xlink="http://www.w3.org/1999/xlink">
    <linearGradient id="b" gradientUnits="userSpaceOnUse" x1="157.2" x2="399.8" y1="198.8" y2="441.4">
        <stop offset="0" stop-color="#28a265" />
        <stop offset="1" stop-color="#28895e" />
    </linearGradient>
    <linearGradient id="a">
        <stop offset="0" stop-color="#108372" stop-opacity="0" />
        <stop offset="1" stop-color="#108372" />
    </linearGradient>
    <linearGradient id="c" gradientUnits="userSpaceOnUse" x1="410.1" x2="371.6" xlink:href="#a" y1="173.7" y2="61.2" />
    <linearGradient id="d" gradientUnits="userSpaceOnUse" x1="343.3" x2="388" y1="58.7" y2="103.5">
        <stop offset="0" stop-color="#91d1b2" />
        <stop offset="1" stop-color="#28a265" />
    </linearGradient>
    <linearGradient id="e" gradientTransform="matrix(-1 0 0 1 2638 0)" gradientUnits="userSpaceOnUse" x1="2383"
                    x2="2383" xlink:href="#a" y1="463.7" y2="513.3" />
    <path d="M68 32v446c0 18 15 32 32 32h310c17 0 32-14 32-32V117c0-9-4-19-11-26l-80-80c-7-7-17-11-27-11H100C83 0 68 14 68 32z"
          fill="url(#b)" />
    <path d="M346 205H164c-11 0-20 9-20 20v192c0 11 9 20 20 20h182c11 0 20-9 20-20V225c0-11-9-20-20-20zm-17 69h-52c-4 0-7-4-7-8v-23c0-5 3-8 7-8h52c4 0 7 3 7 8v23c0 4-3 8-7 8zm-52 30h52c4 0 7 3 7 7v20c0 4-3 8-7 8h-52c-4 0-7-4-7-8v-20c0-4 3-7 7-7zm-44 35h-52c-4 0-7-4-7-8v-20c0-4 3-7 7-7h52c4 0 7 3 7 7v20c0 4-3 8-7 8zm7-96v23c0 4-3 8-7 8h-52c-4 0-7-4-7-8v-23c0-4 3-8 7-8h52c4 0 7 4 7 8zm-59 126h52c4 0 7 3 7 7v24c0 4-3 7-7 7h-52c-4 0-7-3-7-7v-24c0-4 3-7 7-7zm89 31v-24c0-4 3-7 7-7h52c4 0 7 3 7 7v24c0 4-3 7-7 7h-52c-4 0-7-3-7-7z"
          fill="#ebeff0" />
    <path d="M351 11c-5-5-11-8-17-10v104l108 108v-96c0-9-4-19-11-26z" fill="url(#c)" />
    <path d="M441 108v2h-98c-6 0-12-6-12-13V1h2c8 2 14 5 19 11l78 77c5 6 9 12 11 19z" fill="url(#d)" />
    <path d="M442 447v31c0 18-14 32-32 32H100c-17 0-32-14-32-32v-31z" fill="url(#e)" />
</svg>
