<svg width="512" height="512" fill="none" xmlns="http://www.w3.org/2000/svg">
      <path d="M288 136V0H88C75 0 64 11 64 24v464c0 13 11 24 24 24h336c13 0 24-11 24-24V160H312c-13 0-24-11-24-24Zm-96 144c0 4-4 8-8 8h-8c-9 0-16 7-16 16v32c0 9 7 16 16 16h8c4 0 8 4 8 8v16c0 4-4 8-8 8h-8c-27 0-48-21-48-48v-32c0-27 21-48 48-48h8c4 0 8 4 8 8v16Zm44 104h-12c-4 0-8-4-8-8v-16c0-4 4-8 8-8h12c6 0 11-3 11-7l-2-3-22-19c-9-7-14-18-14-28 0-22 19-39 43-39h12c4 0 8 4 8 8v16c0 4-4 8-8 8h-12c-6 0-11 4-11 7l2 3 22 19c9 7 14 18 14 28 0 22-19 39-43 39Zm84-120v21c0 20 6 40 16 57 10-17 16-37 16-57v-21c0-4 4-8 8-8h16c4 0 8 4 8 8v21c0 35-13 69-36 94a16 16 0 0 1-24 0c-23-25-36-59-36-94v-21c0-4 4-8 8-8h16c4 0 8 4 8 8Zm121-159L343 7c-4-4-10-7-17-7h-6v128h128v-6c0-6-2-12-7-17Z"
            fill="#6A6B77" />
</svg>
