<svg width="160" height="48" viewBox="0 0 160 48" fill="none" xmlns="http://www.w3.org/2000/svg">
<g clip-path="url(#clip0_3_282)">
<path d="M83.6754 13.5527C83.6754 15.0664 82.4432 16.2852 80.914 16.2852C79.3848 16.2852 78.1534 15.0664 78.1534 13.5527C78.1534 12.0391 79.3428 10.8202 80.914 10.8202C82.4865 10.8622 83.6754 12.0815 83.6754 13.5527V13.5527ZM72.292 19.0605V19.7333C72.292 19.7333 70.9758 18.0508 68.1723 18.0508C63.5431 18.0508 59.9322 21.5405 59.9322 26.3751C59.9322 31.168 63.5007 34.6993 68.1723 34.6993C71.0182 34.6993 72.292 32.9757 72.292 32.9757V33.6901C72.292 34.0265 72.5474 34.278 72.8869 34.278H76.3267V18.47H72.8869C72.5474 18.4712 72.292 18.7661 72.292 19.0605V19.0605ZM72.292 29.1919C71.6555 30.1172 70.3809 30.916 68.8521 30.916C66.1339 30.916 64.0523 29.2344 64.0523 26.3751C64.0523 23.5162 66.1339 21.8345 68.8521 21.8345C70.3389 21.8345 71.6979 22.6754 72.292 23.5582V29.1919ZM78.8756 18.4712H82.9528V34.2793H78.8756V18.4712V18.4712ZM139.783 18.0504C136.98 18.0504 135.663 19.7329 135.663 19.7329V10.8622H131.586V34.2793H135.026C135.366 34.2793 135.62 33.9849 135.62 33.6905V32.9761C135.62 32.9761 136.938 34.6997 139.74 34.6997C144.37 34.6997 147.98 31.1693 147.98 26.3763C147.98 21.5834 144.37 18.0504 139.783 18.0504V18.0504ZM139.104 30.8736C137.532 30.8736 136.3 30.0756 135.663 29.1499V23.5162C136.3 22.6753 137.659 21.7925 139.104 21.7925C141.822 21.7925 143.903 23.4742 143.903 26.3331C143.903 29.1919 141.822 30.8736 139.104 30.8736ZM129.462 24.9043V34.3213H125.384V25.3662C125.384 22.7602 124.535 21.7085 122.243 21.7085C121.011 21.7085 119.737 22.3394 118.928 23.2646V34.2797H114.852V18.4717H118.079C118.419 18.4717 118.674 18.7661 118.674 19.0605V19.7333C119.863 18.5137 121.434 18.0508 123.006 18.0508C124.79 18.0508 126.277 18.5561 127.466 19.5649C128.91 20.7421 129.462 22.2554 129.462 24.9043V24.9043ZM104.954 18.0504C102.152 18.0504 100.835 19.7329 100.835 19.7329V10.8622H96.7574V34.2793H100.197C100.537 34.2793 100.792 33.9849 100.792 33.6905V32.9761C100.792 32.9761 102.109 34.6997 104.912 34.6997C109.542 34.6997 113.152 31.1693 113.152 26.3763C113.194 21.5829 109.584 18.0504 104.954 18.0504V18.0504ZM104.274 30.8736C102.703 30.8736 101.472 30.0756 100.835 29.1499V23.5162C101.472 22.6753 102.831 21.7925 104.274 21.7925C106.993 21.7925 109.074 23.4742 109.074 26.3331C109.074 29.1919 106.993 30.8736 104.274 30.8736ZM93.2317 18.0504C94.4631 18.0504 95.1004 18.2612 95.1004 18.2612V22.0025C95.1004 22.0025 91.7025 20.8673 89.5793 23.2642V34.3209H85.5012V18.4712H88.942C89.2818 18.4712 89.536 18.7657 89.536 19.0601V19.7329C90.3014 18.8496 91.958 18.0504 93.2317 18.0504V18.0504ZM50.8859 32.8497C50.6737 32.3452 50.4612 31.7988 50.249 31.336C49.9087 30.5796 49.5688 29.8644 49.2722 29.1919L49.2298 29.1499C46.2987 22.8433 43.1562 16.4536 39.8427 10.1478L39.7155 9.895C39.367 9.24085 39.0273 8.58211 38.6967 7.91894C38.2715 7.1617 37.8472 6.36371 37.1675 5.60646C35.8084 3.92481 33.8544 2.99957 31.7736 2.99957C29.6495 2.99957 27.7384 3.92482 26.3374 5.52205C25.7 6.27845 25.2324 7.07728 24.8081 7.83453C24.4766 8.49728 24.137 9.15601 23.7894 9.81058L23.6616 10.0634C20.3911 16.3692 17.2057 22.7594 14.275 29.0655L14.2322 29.1491C13.9352 29.8228 13.5949 30.5372 13.255 31.2932C13.0428 31.756 12.8307 32.2604 12.6185 32.8068C12.0661 34.362 11.8959 35.8337 12.1089 37.3478C12.5761 40.5011 14.6993 43.1487 17.6305 44.3268C18.735 44.7896 19.8819 44.9996 21.0708 44.9996C21.4107 44.9996 21.835 44.9576 22.1753 44.9152C23.5772 44.7472 25.0211 44.2852 26.4231 43.4864C28.1644 42.5191 29.8209 41.1323 31.6896 39.1143C33.5583 41.1323 35.2572 42.5191 36.9562 43.4864C38.3585 44.2852 39.802 44.7472 41.2035 44.9152C41.5434 44.958 41.9686 44.9996 42.3084 44.9996C43.4978 44.9996 44.6867 44.7896 45.7483 44.3268C48.7219 43.1487 50.8027 40.4591 51.2703 37.3478C51.6076 35.8765 51.4379 34.4057 50.8859 32.8497V32.8497ZM31.7308 35.0357C29.4369 32.1768 27.9502 29.4864 27.441 27.2167C27.2288 26.2495 27.186 25.4087 27.3137 24.6518C27.3981 23.979 27.6536 23.3902 27.9934 22.8858C28.8005 21.7514 30.1596 21.0361 31.7312 21.0361C33.3033 21.0361 34.7048 21.7089 35.4694 22.8858C35.8093 23.3902 36.0638 23.9794 36.1496 24.6518C36.2764 25.4091 36.234 26.2915 36.0218 27.2167C35.5105 29.4444 34.0238 32.1352 31.7308 35.0357ZM48.6769 37.0118C48.3799 39.1978 46.8931 41.0903 44.8123 41.9311C43.7931 42.3511 42.6882 42.4775 41.5846 42.3511C40.5229 42.2247 39.4605 41.8883 38.3568 41.2583C36.8276 40.4166 35.2988 39.1142 33.5146 37.1798C36.3176 33.7749 38.0165 30.6632 38.6538 27.8891C38.9513 26.5855 38.9941 25.4087 38.866 24.315C38.6967 23.2642 38.314 22.2969 37.7195 21.4561C36.402 19.5636 34.193 18.4712 31.7303 18.4712C29.2676 18.4712 27.0587 19.6065 25.742 21.4561C25.1476 22.2969 24.7648 23.2642 24.5951 24.315C24.4254 25.4087 24.4674 26.6275 24.8073 27.8891C25.4442 30.6632 27.1856 33.8165 29.9461 37.2218C28.2047 39.1558 26.6331 40.4595 25.1039 41.3003C23.9994 41.9311 22.9382 42.2676 21.8766 42.3931C20.7301 42.5195 19.6252 42.3511 18.6484 41.9731C16.5676 41.1323 15.0808 39.2398 14.7838 37.0538C14.6565 36.0029 14.7409 34.9521 15.1661 33.7749C15.2929 33.3541 15.506 32.9341 15.7181 32.4297C16.0155 31.7568 16.3546 31.0416 16.6949 30.3272L16.7377 30.2436C19.668 23.979 22.8109 17.5888 26.0815 11.3671L26.2088 11.1142C26.5491 10.4843 26.889 9.81142 27.2284 9.1806C27.5683 8.50777 27.9502 7.87694 28.4177 7.33011C29.3096 6.32213 30.4986 5.77488 31.8156 5.77488C33.1327 5.77488 34.3216 6.32213 35.2135 7.33011C35.6811 7.8782 36.063 8.50903 36.4029 9.1806C36.7432 9.81142 37.083 10.4843 37.4221 11.1142L37.5498 11.3671C40.7705 17.6147 43.8716 23.922 46.8515 30.2856V30.3276C47.1918 31.0013 47.4888 31.7573 47.8287 32.4309C48.0409 32.9345 48.2535 33.3545 48.3807 33.7753C48.7198 34.8673 48.8471 35.919 48.6769 37.0118V37.0118Z" fill="#FF5A5F"/>
</g>
<defs>
<clipPath id="clip0_3_282">
<rect width="136" height="42" fill="white" transform="translate(12 3)"/>
</clipPath>
</defs>
</svg>
