<svg width="160" height="48" viewBox="0 0 160 48" fill="none" xmlns="http://www.w3.org/2000/svg">
<g clip-path="url(#clip0_1_2)">
<path d="M52.5964 32.9563H46.484C47.275 32.2453 47.492 29.6875 47.779 25.0685L47.849 24.0034L48.136 17.9637C48.136 16.7561 47.9918 15.9745 47.632 15.6895H54.464C56.116 15.6895 59.3542 15.7587 59.3542 19.1008C59.3542 21.375 57.2542 22.7252 55.3264 23.2232C58.0592 23.4362 60.0864 24.7863 60.0864 27.5572C60.1564 30.541 57.2822 32.9577 52.6076 32.9577L52.5964 32.9563ZM52.392 24.5747H51.1698L50.9542 27.1339L50.81 30.3321C50.81 30.4746 51.314 30.8301 52.462 30.8301C54.9078 30.8301 56.4898 29.6225 56.4898 27.6319C56.5598 25.4296 54.6194 24.5885 52.3906 24.5885L52.392 24.5747ZM52.8946 17.7687C52.5348 17.7687 52.1036 17.7687 51.6724 17.8379C51.4568 19.0455 51.3854 20.1826 51.3126 21.5314L51.2426 22.5274H51.6738C53.9026 22.5274 55.9158 21.7458 55.9158 19.7565C55.9858 18.6194 54.9806 17.7673 52.896 17.7673L52.8946 17.7687ZM74.456 33.1154C72.944 33.1154 72.804 33.0462 71.6518 28.9931L71.2206 27.4991C70.501 27.8546 69.2074 27.9971 67.1928 27.9971H65.0928L64.733 28.7786C64.3732 29.5602 63.5108 31.1953 63.5108 32.1899C63.5048 32.4523 63.5287 32.7145 63.5822 32.9715H59.4102C60.561 31.8344 62.143 29.0636 64.229 24.6715L65.4512 22.1124L67.7528 16.7824C67.7528 16.4269 67.6828 16.1433 67.5372 15.7864H71.348L73.2184 22.6062L73.938 25.3065C75.233 29.9268 76.094 32.1263 77.102 32.9812L74.442 33.1237L74.456 33.1154ZM68.9764 19.7648L66.0994 25.8045H70.7026L68.9764 19.7648ZM90.9844 33.6922C89.6894 33.6922 89.4024 33.4792 88.9712 32.9107L84.0096 26.2292C83.6498 25.6758 83.29 25.3051 82.7146 25.3051H82.6446L82.5746 26.6552L82.359 30.9187C82.359 32.0558 82.5032 32.7668 82.863 33.049H78.103C78.8226 32.4957 79.0382 30.4898 79.4694 25.1612L79.5394 24.0961L79.8264 18.0564C79.8264 16.8488 79.6822 16.0672 79.3224 15.7822H85.7232C87.8792 15.7822 90.6848 16.1377 90.6848 19.4757C90.6848 22.2465 88.8144 23.7392 86.5128 24.4502C86.8181 24.7667 87.1059 25.0992 87.3752 25.4462L90.899 30.0665C93.1278 32.9798 93.272 33.1099 94.063 33.4778C93.0423 33.6168 92.0133 33.688 90.983 33.6909L90.9844 33.6922ZM84.655 17.8448C84.2238 17.8448 83.7198 17.8448 83.2886 17.9139C83.1444 18.625 83.073 19.9032 82.9288 21.9643L82.8588 23.172C83.0744 23.2412 83.4188 23.2412 83.6498 23.2412C85.8058 23.2412 87.3178 21.891 87.3178 19.9723C87.2478 18.6222 86.3098 17.842 84.6578 17.842L84.655 17.8448ZM100.276 33.3118C95.7458 33.3118 93.1572 29.6183 93.1572 25.5652C93.1572 19.8935 96.3212 15.4032 102.291 15.4032C104.161 15.4032 105.024 15.7587 106.606 15.7587L106.174 20.1646C105.312 18.6015 103.873 17.6055 102.002 17.6055C98.2644 17.6055 96.7524 21.5853 96.7524 24.9952C96.7524 28.6887 98.9084 30.7499 101.643 30.7499C103.155 30.7499 104.52 30.3944 106.748 28.8312C105.813 31.5315 103.729 33.3077 100.276 33.3077V33.3118ZM131.055 33.0946C129.543 33.0946 129.473 33.0255 128.251 28.9723L127.82 27.4783C127.1 27.8338 125.807 27.9763 123.792 27.9763H121.636L121.276 28.7579C120.716 29.895 120.054 31.2451 120.054 32.1692C120.054 32.3822 120.124 32.6672 120.124 32.9508H107.755C108.475 32.1692 108.69 29.6114 109.05 25.063L109.12 23.9978L109.407 17.9582C109.407 16.8211 109.263 16.0395 108.976 15.684H113.795C113.075 16.182 112.859 18.9528 112.572 23.5718L112.502 24.6369L112.143 29.7525C112.143 30.5341 112.43 30.7485 113.293 30.7485C116.242 30.7485 116.889 30.6793 118.255 29.8244C119.117 28.3304 119.981 26.4851 120.915 24.5678L122.137 22.0086L124.439 16.6786C124.439 16.3231 124.369 16.0395 124.223 15.6826H128.02L129.89 22.5025L130.61 25.2027C131.905 29.8231 132.71 32.0226 133.847 32.8775C132.917 32.9985 131.981 33.0696 131.043 33.0905L131.055 33.0946ZM125.577 19.7316L122.773 25.7713H127.303L125.577 19.7316ZM141.974 23.6396L140.752 25.9138C140.465 27.1933 140.392 28.8976 140.392 30.7457C140.392 31.5273 140.536 32.5939 140.896 32.948H136.136C136.998 32.1664 137.287 27.405 137.287 25.8418C136.64 23.7115 135.775 21.5784 134.482 19.022C133.62 17.4588 132.685 15.9787 132.037 15.6826L135.117 15.5401C136.267 15.5401 136.629 15.6826 137.345 17.2458L139.791 23.0724L142.871 18.1699C143.087 17.7438 143.375 17.1739 143.375 16.6759C143.375 16.3203 143.305 15.8237 143.16 15.6799H147.836C146.828 15.8929 142.801 22.2175 141.939 23.6382L141.974 23.6396ZM157.759 19.7303C157.039 18.4507 155.457 17.4561 153.731 17.4561C152.219 17.4561 150.927 18.0094 150.927 19.5864C150.927 20.9365 152.579 21.7887 154.306 22.9258C156.177 24.0629 158.117 25.4849 158.117 27.9708C158.117 31.169 154.953 33.2274 151.215 33.2274C149.703 33.2274 148.135 32.9439 146.325 32.3034L146.612 28.0399C147.474 29.7456 149.058 31.0833 151.431 31.0833C153.228 31.0833 154.668 30.2311 154.668 28.6666C154.668 27.387 153.59 26.5363 152.222 25.7533C149.345 24.0476 147.546 22.71 147.546 20.2103C147.546 16.5168 150.626 15.3077 153.947 15.3077C155.817 15.3077 157.027 15.6633 158.189 15.6633L157.759 19.7303Z" fill="#00AEEF"/>
<path d="M39.5652 12.5646C39.1816 11.6793 38.5432 10.6694 37.3924 9.91275C36.8814 9.53371 36.2416 9.15468 35.6032 8.90291C35.0922 8.76458 34.5812 8.64976 33.9414 8.64976H33.8014C33.0342 8.64976 31.6286 8.7881 30.8614 9.91275C30.4778 10.2918 30.3504 11.0498 30.4778 11.6806C30.6178 12.1856 30.9888 12.6905 31.4998 12.8177C31.6074 12.9054 31.7442 12.9503 31.8834 12.9436C31.8834 13.082 31.7434 13.3227 31.7434 13.3227C31.3598 13.7017 30.7214 14.3325 28.8034 14.3325H28.6634C27.6414 14.1942 26.8742 13.9535 25.7234 12.8164C25.0836 12.0583 24.7014 10.6694 24.7014 8.5225C24.7014 7.3854 24.5614 6.50283 24.3178 5.75583C24.1778 5.25091 23.678 4.746 23.2958 4.49285C22.9136 4.2397 22.656 4.11381 22.0176 3.86066L19.8448 3.60751C19.0776 3.60751 18.5666 3.74585 18.3104 4.11243H17.5432C17.1596 4.11243 16.6472 4.25076 16.265 4.25076C15.4978 4.3891 14.9868 4.75568 14.4758 5.1361C14.3358 5.27443 13.836 5.76828 13.7086 6.2732C13.7086 6.65223 13.8486 7.03126 13.8486 7.15853L13.9886 7.29686C14.2448 7.04371 14.7558 6.91783 15.3942 6.91783C16.2902 6.91783 17.567 7.29686 17.8232 7.92766C18.463 8.9375 18.2068 9.69556 18.2068 10.5795C17.8232 12.9796 16.9286 14.1167 15.0106 14.3698C14.627 14.5082 14.2434 14.5082 13.9886 14.5082C12.583 14.5082 11.5596 14.1291 11.0486 13.2452V12.992C11.0486 12.992 11.1886 12.992 11.3048 12.8537C11.8158 12.6006 12.2008 12.2215 12.3268 11.7166C12.4668 11.0844 12.3268 10.4536 11.9432 9.94871C11.176 9.19065 10.154 8.68573 9.00323 8.68573C8.23603 8.68573 7.72502 8.82406 7.21402 8.93888C5.67962 9.31791 4.27402 10.5809 3.25202 12.6019C2.48482 14.1181 1.97382 15.886 1.84642 17.907C1.71902 19.9281 1.70642 21.5701 1.84642 23.0848C1.98642 25.6108 2.48622 27.1269 3.12462 28.7565C3.76302 30.3861 4.52462 31.9147 5.42062 33.3077C5.67682 33.6867 5.80422 34.0657 6.06042 34.3175L6.20042 34.1792C6.34042 34.0408 6.45662 33.926 6.58402 33.6743C7.09502 33.2952 7.98962 32.0322 8.24582 31.6546C8.50202 31.2769 8.88562 30.6448 9.14182 30.0126L9.28182 29.7594L9.53802 29.8978C9.79422 30.1509 9.92162 30.5299 9.92162 30.9076C9.92162 31.2852 9.78162 31.6657 9.53802 32.4237C9.28182 33.3091 8.77082 34.3189 8.25982 35.3287C8.39982 35.4671 8.39982 35.7078 8.25982 35.7078C7.87622 36.3399 7.87622 36.5931 7.87622 36.8449H8.01623C8.15623 36.8449 8.65602 36.7065 9.03822 36.3399C9.42182 36.0868 10.4438 35.2028 11.722 33.4349C12.744 32.172 13.3838 30.7831 14.151 29.267L14.291 29.0138L14.5472 29.1521C14.6872 29.2905 14.8034 29.2905 14.9308 29.4053C15.0708 29.6584 15.0708 30.0375 15.0708 30.4151C14.9308 31.425 14.3036 32.8152 13.92 33.825C13.1528 35.5929 11.7472 37.4881 10.7238 38.877C10.6954 38.966 10.6457 39.0468 10.5789 39.1128C10.5121 39.1788 10.4303 39.2279 10.3402 39.256C10.4802 39.3943 10.5964 39.5092 10.8512 39.6351L11.2348 40.0141C12.5802 41.1252 14.0362 42.0985 15.5804 42.9191C16.8586 43.6771 19.4164 44.9387 21.2042 45.445C22.9934 45.066 25.5498 43.6771 26.828 42.9191C28.3723 42.0985 29.8283 41.1252 31.1736 40.0141L31.5572 39.6351C31.8134 39.4967 31.9408 39.256 32.0682 39.256C32.2082 39.0029 32.2082 38.877 32.2082 38.7511L32.0682 38.6128C31.0462 37.3498 29.6392 35.3287 28.872 33.5608C28.4884 32.551 27.85 31.1607 27.7212 30.1509C27.5812 29.7719 27.7212 29.3928 27.8612 29.1411L28.1174 28.8879C28.2574 28.7496 28.501 28.7496 28.501 28.7496L28.641 29.0027C29.4082 30.5189 30.1754 31.9077 31.07 33.1707C32.3482 34.9386 33.3702 35.8226 33.7538 36.0757C34.1374 36.4548 34.521 36.5806 34.7758 36.5806H34.9158C35.0558 36.4423 34.9158 36.2016 34.5322 35.5708C34.3922 35.4325 34.3922 35.3177 34.3922 35.1918C33.8812 34.1819 33.3702 33.1721 33.114 32.2868C32.8578 31.5287 32.7304 31.0238 32.7304 30.7706C32.7304 30.3916 32.8704 30.0126 33.114 29.7608L33.3702 29.6225L33.5102 29.8756C33.7664 30.5078 34.2774 31.2645 34.5322 31.6435C34.787 32.0226 35.8104 33.1597 36.0666 33.5387C36.3228 33.7918 36.4502 33.9177 36.4502 34.0436L36.5902 34.1819C36.7302 34.0436 36.8464 33.8029 37.1012 33.2966L37.2412 33.1583C38.0084 31.8953 38.7756 30.2533 39.414 28.6113C40.0538 27.0951 40.436 25.4531 40.6922 22.9396C40.8322 21.4235 40.9484 19.7814 40.6922 17.7618C40.8322 15.8666 40.3086 13.9714 39.6702 12.584L39.5652 12.5646Z" fill="url(#paint0_radial_1_2)"/>
</g>
<defs>
<radialGradient id="paint0_radial_1_2" cx="0" cy="0" r="1" gradientUnits="userSpaceOnUse" gradientTransform="translate(2.88719 10.89) scale(43.1751 42.661)">
<stop stop-color="#20C4F4"/>
<stop offset="0.305" stop-color="#09B4F0"/>
<stop offset="0.5" stop-color="#00AEEF"/>
<stop offset="0.8" stop-color="#0092C8"/>
<stop offset="1" stop-color="#006E98"/>
</radialGradient>
<clipPath id="clip0_1_2">
<rect width="160" height="48" fill="white"/>
</clipPath>
</defs>
</svg>
