<svg width="160" height="48" viewBox="0 0 160 48" fill="none" xmlns="http://www.w3.org/2000/svg">
<path d="M82.6667 23.7733C82.6667 23.2933 82.64 22.8133 82.6133 22.36C82.5867 21.9067 82.5067 21.4267 82.4533 20.9733H75.9733H69.4933L67.52 24.0667L65.5467 27.16H75.5467C74.96 29.1867 73.8133 30.92 72.2667 32.1467C70.72 33.3733 68.7733 34.12 66.5067 34.12C63.68 34.12 61.1733 32.9467 59.3333 31.0533C57.4933 29.16 56.3733 26.5733 56.3733 23.72C56.3733 20.92 57.4933 18.36 59.36 16.4933C61.2 14.6267 63.76 13.4533 66.5867 13.4533C67.8133 13.4533 68.96 13.64 70.0267 14.0133C71.0933 14.36 72.0533 14.8933 72.9067 15.5333L74.64 12.76L76.3733 9.98666C75.04 9.05333 73.5467 8.30667 71.8933 7.82667C70.2667 7.32 68.48 7.08 66.6133 7.08C64.1067 7.08 61.84 7.53334 59.84 8.36C57.84 9.18667 56.0533 10.3867 54.56 11.88C51.0133 15.4267 50 19.0267 49.3067 22.3067C48.5867 25.6133 48.1867 28.6267 45.76 31.0267C44.7467 32.04 43.6533 32.8133 42.4267 33.32C41.2 33.8267 39.8933 34.0933 38.48 34.0933C35.5733 34.0933 32.96 32.8933 31.04 31C29.1467 29.1067 27.9733 26.52 27.9733 23.72C27.9733 20.9733 29.1467 18.4133 31.04 16.52C32.9333 14.6267 35.5467 13.4267 38.48 13.4C39.7067 13.4267 40.8267 13.6133 41.8667 13.9333C42.9067 14.2533 43.8667 14.76 44.72 15.4L46.48 12.6267L48.24 9.85333C46.9067 8.92 45.4133 8.2 43.7867 7.72C42.16 7.24 40.3733 7 38.5067 7C35.6267 7 32.9333 7.69333 30.5867 8.92C28.24 10.1467 26.24 11.88 24.72 13.96C24.1333 12.12 22.9067 10.5467 21.2267 9.45333C19.5467 8.33333 17.4133 7.69334 15.0133 7.69334H7.49333H0V23.7733V39.8H16.5333C18.6133 39.8 20.48 39.2933 22.0267 38.44C23.5733 37.5867 24.8 36.36 25.6533 34.92C27.2 36.6267 29.0667 38.0133 31.2 38.9733C33.3333 39.9333 35.7067 40.4667 38.2667 40.4667C41.2533 40.4667 44 39.7733 46.3733 38.52C48.7467 37.2667 50.7467 35.48 52.2933 33.2667C53.76 35.4533 55.76 37.24 58.16 38.4933C60.5333 39.7467 63.3333 40.4667 66.32 40.4667C70.9333 40.4667 75.0133 38.6 77.9467 35.56C80.88 32.5733 82.6667 28.3867 82.6667 23.7733ZM6.96 20.7067V13.6933H14.88C15.8933 13.6933 16.7733 14.0667 17.4133 14.68C18.0533 15.2933 18.4533 16.1733 18.4533 17.1867C18.4533 18.2 18.0533 19.08 17.4133 19.6933C16.7733 20.3333 15.8667 20.7067 14.88 20.7067H10.9333H6.96ZM6.96 33.8533V26.5733H16.4533C17.52 26.5733 18.4533 26.9733 19.1467 27.6133C19.84 28.2533 20.2667 29.16 20.2667 30.2C20.2667 31.24 19.84 32.1467 19.1467 32.8133C18.4533 33.48 17.52 33.88 16.4533 33.88H11.7067H6.96V33.8533Z" fill="#007254"/>
<path d="M98.48 35.9067C98.5067 35.96 98.5067 36.04 98.5067 36.12C98.5067 36.2 98.5333 36.3067 98.5333 36.3867C98.5333 37.4 98.1867 38.28 97.5733 38.92C96.96 39.56 96.08 39.9333 95.0667 39.9333C94.0533 39.9333 93.12 39.5333 92.4534 38.84C91.7867 38.1733 91.3867 37.24 91.3867 36.2C91.3867 35.16 91.8133 34.2267 92.48 33.56C93.1467 32.8933 94.08 32.4667 95.12 32.4667C95.5467 32.4667 95.9467 32.52 96.32 32.6267C96.6934 32.7333 97.04 32.8933 97.36 33.1333L97.0667 33.5867L96.7733 34.04C96.5333 33.8533 96.2667 33.72 96 33.64C95.7333 33.56 95.44 33.5067 95.12 33.5067C94.4 33.5067 93.76 33.8 93.3067 34.2533C92.8533 34.7067 92.56 35.3733 92.56 36.1467C92.56 36.8933 92.8267 37.56 93.28 38.04C93.7333 38.52 94.3467 38.8133 95.0667 38.8133C95.7333 38.8133 96.2667 38.6 96.6667 38.2533C97.0667 37.9067 97.3067 37.4 97.4133 36.84H94.9867L95.3067 36.3333L95.6267 35.8267L98.48 35.9067ZM110.533 39.9867C111.573 39.9867 112.507 39.56 113.2 38.8933C113.867 38.2267 114.293 37.2933 114.293 36.28C114.293 35.2667 113.867 34.3333 113.2 33.6667C112.533 33 111.573 32.5733 110.533 32.5733C109.493 32.5733 108.56 33 107.893 33.6667C107.227 34.3333 106.8 35.2667 106.8 36.28C106.8 37.2933 107.227 38.2267 107.893 38.8933C108.56 39.56 109.493 39.9867 110.533 39.9867ZM116.987 32.7067V37.08C116.987 37.5867 117.173 38.0667 117.493 38.3867C117.813 38.7067 118.267 38.92 118.8 38.92C119.333 38.92 119.787 38.7067 120.107 38.3867C120.427 38.0667 120.613 37.5867 120.613 37.08V32.7067H121.733V37.08C121.733 37.9067 121.413 38.6267 120.907 39.16C120.373 39.6667 119.653 39.9867 118.8 39.9867C117.947 39.9867 117.227 39.6667 116.693 39.16C116.16 38.6533 115.84 37.9333 115.84 37.08V32.7067H116.987ZM103.013 32.7067C103.76 32.7067 104.373 32.9467 104.8 33.3733C105.227 33.7733 105.467 34.36 105.467 35C105.467 35.5333 105.307 35.9867 105.04 36.36C104.773 36.7333 104.373 37 103.867 37.1067L104.72 38.4667L105.573 39.8267H104.24L103.44 38.5467L102.64 37.2667H101.28V39.8267H100.133V32.7067H103.013ZM126.587 32.7067C127.333 32.7067 127.947 32.9733 128.4 33.3733C128.827 33.8 129.067 34.36 129.067 35.0267C129.067 35.6667 128.827 36.2533 128.4 36.68C127.973 37.1067 127.333 37.3467 126.587 37.3467H124.96V39.8267H123.813V32.7067H126.587ZM110.533 38.92C109.813 38.92 109.173 38.6267 108.72 38.1467C108.267 37.6667 107.973 37 107.973 36.28C107.973 35.56 108.267 34.8933 108.72 34.4133C109.173 33.9333 109.84 33.64 110.533 33.64C111.253 33.64 111.893 33.9333 112.373 34.4133C112.827 34.8933 113.12 35.56 113.12 36.28C113.12 37.0267 112.827 37.6933 112.373 38.1467C111.92 38.6267 111.28 38.92 110.533 38.92ZM126.587 36.3333C126.96 36.3333 127.28 36.2 127.52 35.9867C127.76 35.7733 127.893 35.4533 127.893 35.0533C127.893 34.6533 127.76 34.36 127.52 34.12C127.28 33.9067 126.96 33.7733 126.587 33.7733H124.96V36.3333H126.587ZM103.013 36.2267C103.387 36.2267 103.68 36.12 103.92 35.9067C104.133 35.6933 104.267 35.4 104.267 35C104.267 34.6267 104.133 34.3067 103.92 34.0933C103.707 33.88 103.387 33.7467 103.013 33.7467H101.28V36.2267H103.013V36.2267ZM159.947 23.4267C159.973 23.48 159.973 23.56 159.973 23.64C159.973 23.72 160 23.8267 160 23.9067C160 24.92 159.653 25.8 159.04 26.44C158.427 27.08 157.547 27.48 156.533 27.48C155.493 27.48 154.587 27.08 153.92 26.3867C153.253 25.72 152.853 24.7867 152.853 23.7467C152.853 22.7067 153.253 21.7733 153.947 21.1067C154.613 20.44 155.547 20.0133 156.587 20.0133C157.013 20.0133 157.413 20.0667 157.787 20.1733C158.16 20.28 158.507 20.44 158.827 20.68L158.533 21.1333L158.24 21.5867C158 21.4 157.733 21.2667 157.467 21.1867C157.2 21.1067 156.907 21.0533 156.587 21.0533C155.867 21.0533 155.227 21.3467 154.773 21.8C154.32 22.28 154.027 22.9467 154.027 23.6933C154.027 24.44 154.293 25.1067 154.747 25.5867C155.2 26.0667 155.813 26.36 156.533 26.36C157.2 26.36 157.733 26.1467 158.133 25.8C158.533 25.4533 158.773 24.9467 158.88 24.3867H156.453L156.773 23.88L157.093 23.3733L159.947 23.4267ZM123.12 20.2267V24.6C123.12 25.1067 123.307 25.5867 123.627 25.9067C123.947 26.2267 124.4 26.44 124.933 26.44C125.467 26.44 125.92 26.2267 126.24 25.9067C126.56 25.5867 126.747 25.1067 126.747 24.6V20.2267H127.867V24.6C127.867 25.4267 127.547 26.1467 127.04 26.68C126.507 27.1867 125.787 27.5067 124.933 27.5067C124.08 27.5067 123.36 27.1867 122.827 26.68C122.293 26.1733 121.973 25.4533 121.973 24.6V20.2267H123.12ZM117.813 27.5067C118.613 27.5067 119.227 27.2667 119.653 26.8933C120.08 26.4933 120.32 25.96 120.32 25.3467C120.32 24.68 120.053 24.2267 119.653 23.9333C119.253 23.6133 118.72 23.4533 118.16 23.2667C117.707 23.1333 117.307 23.0267 117.04 22.84C116.773 22.68 116.613 22.4667 116.613 22.12C116.613 21.8267 116.72 21.5867 116.907 21.4C117.12 21.2133 117.413 21.1067 117.84 21.1067C118.107 21.1067 118.373 21.16 118.64 21.24C118.907 21.32 119.173 21.4533 119.44 21.64L119.733 21.1867L120.027 20.7333C119.733 20.52 119.413 20.36 119.067 20.2533C118.693 20.1467 118.32 20.0667 117.893 20.0667C117.147 20.0667 116.533 20.28 116.133 20.6533C115.733 21.0267 115.493 21.56 115.493 22.1733C115.493 22.8667 115.76 23.2933 116.16 23.5867C116.56 23.88 117.093 24.0667 117.653 24.2267C118.107 24.36 118.507 24.4933 118.773 24.6533C119.04 24.8133 119.2 25.0267 119.2 25.3733C119.2 25.6667 119.093 25.9333 118.853 26.12C118.64 26.3067 118.293 26.4133 117.84 26.4133C117.467 26.4133 117.147 26.3333 116.827 26.2267C116.507 26.0933 116.187 25.9333 115.893 25.7467L115.6 26.2L115.307 26.6533C115.6 26.8667 115.947 27.08 116.373 27.24C116.773 27.4 117.253 27.5067 117.813 27.5067ZM102.267 27.5067C103.307 27.5067 104.24 27.08 104.933 26.4133C105.6 25.7467 106.027 24.8133 106.027 23.8C106.027 22.7867 105.6 21.8533 104.933 21.16C104.24 20.4933 103.307 20.0667 102.267 20.0667C101.227 20.0667 100.293 20.4933 99.6267 21.16C98.96 21.8267 98.5333 22.76 98.5333 23.8C98.5333 24.8133 98.96 25.7467 99.6267 26.4133C100.293 27.08 101.227 27.5067 102.267 27.5067ZM91.36 23.8C91.36 24.84 91.7867 25.7733 92.4534 26.44C93.1467 27.1067 94.08 27.5333 95.1467 27.5333C95.6533 27.5333 96.08 27.4533 96.48 27.32C96.88 27.1867 97.2 27 97.5467 26.7333L97.2534 26.28L96.96 25.8267C96.6934 26.04 96.4 26.2 96.1067 26.3067C95.8133 26.4133 95.4667 26.4667 95.12 26.4667C94.4267 26.4667 93.7867 26.1733 93.3333 25.6933C92.88 25.2133 92.5867 24.5467 92.5867 23.8C92.5867 23.0533 92.8533 22.3867 93.3333 21.9067C93.7867 21.4267 94.4267 21.1333 95.12 21.1333C95.4934 21.1333 95.8133 21.1867 96.1067 21.2933C96.4 21.4 96.6934 21.56 96.96 21.7733L97.2534 21.32L97.5467 20.8667C97.2267 20.6267 96.88 20.4133 96.48 20.28C96.08 20.1467 95.6533 20.0667 95.1467 20.0667C94.08 20.0667 93.1467 20.4667 92.4534 21.16C91.7867 21.8267 91.36 22.76 91.36 23.8ZM142.853 27.3467H141.707V20.2267H142.853V27.3467ZM146.48 27.3467H145.387V20.2267H146.8L148.453 22.92L150.107 25.6133V20.2267H151.2V27.3467H149.867L148.16 24.6L146.453 21.8533V27.3467H146.48ZM139.973 21.2933H137.733V27.3467H136.56V21.2933H134.347V20.2267H139.973V21.2933V21.2933ZM131.04 26.28H134.56V27.3467H129.893V20.2267H131.04V26.28ZM108.747 27.3467H107.653V20.2267H109.067L110.72 22.92L112.373 25.6133V20.2267H113.467V27.3467H112.133L110.427 24.6L108.72 21.8533V27.3467H108.747ZM102.267 26.44C101.547 26.44 100.907 26.1467 100.453 25.6667C100 25.1867 99.7067 24.52 99.7067 23.8C99.7067 23.0533 100 22.3867 100.453 21.9333C100.907 21.4533 101.573 21.16 102.267 21.16C102.987 21.16 103.627 21.4533 104.107 21.9333C104.56 22.4133 104.853 23.08 104.853 23.8C104.853 24.5467 104.56 25.2133 104.107 25.6667C103.627 26.1467 102.987 26.44 102.267 26.44ZM123.147 15C124.187 15 125.12 14.5733 125.813 13.9067C126.48 13.24 126.907 12.3067 126.907 11.2933C126.907 10.28 126.48 9.34666 125.813 8.65332C125.147 7.98666 124.213 7.56 123.147 7.56C122.107 7.56 121.173 7.98666 120.507 8.65332C119.84 9.31999 119.413 10.2533 119.413 11.2933C119.413 12.3067 119.84 13.24 120.507 13.9067C121.173 14.6 122.107 15 123.147 15ZM109.44 15C110.24 15 110.853 14.7867 111.28 14.3867C111.707 13.9867 111.947 13.4533 111.947 12.84C111.947 12.1733 111.68 11.72 111.28 11.4267C110.88 11.1333 110.347 10.9467 109.787 10.76C109.333 10.6267 108.933 10.52 108.667 10.3333C108.4 10.1733 108.24 9.95999 108.24 9.61333C108.24 9.31999 108.347 9.08 108.533 8.89333C108.747 8.70666 109.04 8.6 109.467 8.6C109.733 8.6 110 8.65333 110.267 8.73333C110.533 8.81333 110.8 8.94666 111.067 9.13333L111.36 8.67999L111.653 8.22666C111.36 8.01333 111.04 7.85333 110.693 7.74666C110.32 7.63999 109.947 7.56 109.52 7.56C108.773 7.56 108.16 7.77333 107.76 8.14666C107.36 8.51999 107.12 9.05333 107.12 9.66666C107.12 10.36 107.387 10.7867 107.787 11.08C108.187 11.3733 108.72 11.56 109.28 11.72C109.733 11.8533 110.133 11.9867 110.4 12.1467C110.667 12.3067 110.827 12.52 110.827 12.8667C110.827 13.16 110.72 13.4267 110.48 13.6133C110.267 13.8 109.92 13.9067 109.467 13.9067C109.093 13.9067 108.773 13.8267 108.453 13.72C108.133 13.5867 107.813 13.4267 107.52 13.24L107.227 13.6933L106.933 14.1467C107.227 14.36 107.573 14.5733 108 14.7333C108.4 14.92 108.88 15 109.44 15ZM102.053 15C103.093 15 104.027 14.5733 104.72 13.9067C105.387 13.24 105.813 12.3067 105.813 11.2933C105.813 10.28 105.387 9.34666 104.72 8.65332C104.053 7.98666 103.12 7.56 102.053 7.56C101.013 7.56 100.08 7.98666 99.4133 8.65332C98.7467 9.31999 98.32 10.2533 98.32 11.2933C98.32 12.3067 98.7467 13.24 99.4133 13.9067C100.08 14.6 101.013 15 102.053 15ZM129.947 7.74666L131.6 10.44L133.253 13.1333V7.74666H134.347V14.8667H133.013L131.307 12.12L129.6 9.37333V14.8933H128.533V7.77333L129.947 7.74666ZM118.693 7.74666V8.81333H116.453V14.8667H115.28V8.81333H113.067V7.74666H118.693ZM94.5333 7.74666C95.1733 7.74666 95.7067 7.95999 96.1067 8.27999C96.5067 8.62666 96.7467 9.10666 96.7467 9.63999C96.7467 9.95999 96.6667 10.2267 96.5333 10.4667C96.3733 10.7067 96.1867 10.92 95.92 11.0533C96.2667 11.2133 96.56 11.4533 96.7467 11.7467C96.9333 12.04 97.04 12.3867 97.04 12.76C97.04 13.3467 96.8 13.8533 96.4 14.2267C96 14.6 95.44 14.8133 94.7733 14.8133H91.7333V7.69333L94.5333 7.74666ZM123.147 13.9333C122.427 13.9333 121.787 13.64 121.333 13.16C120.88 12.68 120.587 12.0133 120.587 11.2933C120.587 10.5733 120.88 9.88 121.333 9.42666C121.787 8.94666 122.453 8.65332 123.147 8.65332C123.867 8.65332 124.507 8.94666 124.987 9.42666C125.44 9.90666 125.733 10.5733 125.733 11.2933C125.733 12.04 125.44 12.7067 124.987 13.16C124.507 13.6667 123.867 13.9333 123.147 13.9333ZM102.053 13.9333C101.333 13.9333 100.693 13.64 100.24 13.16C99.7867 12.68 99.4934 12.0133 99.4934 11.2933C99.4934 10.5733 99.7867 9.88 100.24 9.42666C100.693 8.94666 101.36 8.65332 102.053 8.65332C102.773 8.65332 103.413 8.94666 103.893 9.42666C104.347 9.90666 104.64 10.5733 104.64 11.2933C104.64 12.04 104.347 12.7067 103.893 13.16C103.413 13.6667 102.773 13.9333 102.053 13.9333ZM94.72 13.8267C95.04 13.8267 95.3067 13.72 95.52 13.5067C95.7067 13.32 95.84 13.0533 95.84 12.76C95.84 12.4667 95.7334 12.2 95.52 12.0133C95.3067 11.8267 95.04 11.72 94.72 11.72H92.88V13.8L94.72 13.8267ZM94.5333 10.76C94.8267 10.76 95.0933 10.6533 95.28 10.4667C95.4667 10.28 95.5733 10.04 95.5733 9.74666C95.5733 9.45333 95.4667 9.21333 95.28 9.02666C95.0933 8.84 94.8267 8.73333 94.5333 8.73333H92.88V10.7333L94.5333 10.76Z" fill="#007254"/>
</svg>
