<svg width="160" height="48" viewBox="0 0 160 48" fill="none" xmlns="http://www.w3.org/2000/svg">
<g clip-path="url(#clip0_3_314)">
<path d="M112.739 1.92525H47.2429C44.8966 1.92525 42.9872 3.87584 42.9872 6.27239V40.5919C42.9872 42.8822 44.7439 44.7855 46.9853 44.9243L112.968 44.9267L113.003 44.9243C115.245 44.7855 117.001 42.8822 117.001 40.5819V6.27782C117.001 3.88127 115.092 1.93068 112.746 1.93068" fill="white"/>
<path d="M44.2037 37.3694H115.854V40.5128H44.2037V37.3694Z" fill="#32ACE7"/>
<path d="M44.2037 34.1895H115.854V37.388H44.2037V34.1895Z" fill="#FCD405"/>
<path d="M47.0909 43.7292H112.959C114.57 43.6291 115.85 42.2672 115.85 40.5966V40.5857H44.1998V40.5966C44.1998 42.2672 45.4801 43.6291 47.0917 43.7292" fill="#EE2722"/>
<path d="M112.739 3.08865H47.2429C45.5432 3.08865 44.1656 4.49711 44.1656 6.23441V34.2019H115.816V6.23441C115.816 4.49711 114.439 3.08865 112.739 3.08865" fill="#1D3F8A"/>
<path d="M71.7089 18.4452C72.5751 19.3309 72.9839 20.312 72.9839 21.4211C72.9839 22.4797 72.5379 23.4965 71.8373 24.2868C71.0806 25.1539 69.9727 25.6433 68.738 25.6433C67.5725 25.6433 66.5764 25.3021 65.7467 24.2868C64.9344 23.3057 64.749 22.5154 64.749 21.3652C64.749 20.4609 65.1943 19.1432 66.299 18.2389C67.204 17.4819 68.1667 17.3322 68.9189 17.3322C70.1566 17.3322 71.0806 17.8255 71.7089 18.4452V18.4452ZM70.7303 21.3652C70.7303 19.2921 69.6589 18.0837 68.8079 18.0837C68.33 18.0837 67.9615 18.2389 67.6477 18.5987C67.0741 19.2572 66.8529 20.0467 66.8529 21.4211C66.8529 22.5154 66.9274 23.2313 67.4274 24.0394C67.7397 24.5505 68.1469 24.853 68.8832 24.853C70.1019 24.853 70.7303 23.2879 70.7303 21.3652" fill="white"/>
<path d="M89.9444 21.2373C89.9444 23.16 91.2916 24.29 92.3432 24.29C93.4882 24.29 94.1872 23.7975 94.577 23.1964C94.653 23.0646 94.7259 23.0646 94.8012 23.1026L95.0747 23.2709C95.1674 23.3267 95.2046 23.4035 95.0747 23.6478C94.6872 24.3652 93.7465 25.6465 91.7163 25.6465C90.534 25.6465 89.7036 25.3836 89.0585 24.6305C88.209 23.63 88.0229 22.6876 88.0229 21.5204C88.0229 20.4865 88.1368 19.7854 88.9301 18.7298C89.7036 17.7138 90.534 17.3346 92.1418 17.3346C94.2457 17.3346 94.9303 19.5783 94.9303 20.3531C94.9303 20.6347 94.7442 20.6548 94.4106 20.6548H89.9444V21.2373ZM92.233 19.9746C92.6197 19.9746 92.8431 19.8614 92.8431 19.7102C92.8431 19.1455 92.6577 18.0334 91.6988 18.0334C90.7931 18.0334 90.2377 18.7128 89.9999 19.9746H92.233Z" fill="white"/>
<path d="M97.1627 20.5393C97.1627 19.6706 97.0168 19.3712 96.4621 19.0695L96.1308 18.8803C96.0222 18.8415 95.9849 18.8058 95.9849 18.7275V18.6151C95.9849 18.5414 96.0222 18.5041 96.1308 18.446L98.3639 17.371C98.4756 17.3346 98.5486 17.2958 98.6603 17.2958C98.7712 17.2958 98.8061 17.4106 98.8267 17.5246L98.9923 18.8803H99.0668C99.6936 17.8247 100.469 17.1825 101.281 17.1825C101.872 17.1825 102.24 17.6006 102.24 18.1264C102.24 18.6554 101.724 19.144 101.244 19.144C100.985 19.144 100.763 19.0695 100.614 18.9943C100.469 18.8803 100.285 18.8415 100.099 18.8415C99.879 18.8415 99.5477 18.9943 99.3251 19.3891C99.1784 19.6528 99.1025 20.0646 99.1025 20.3136V23.9487C99.1025 24.5514 99.2514 24.7406 99.6199 24.7406H100.434C100.543 24.7406 100.58 24.7771 100.58 24.8694V25.3068C100.58 25.3998 100.543 25.4386 100.45 25.4386C100.321 25.4386 99.509 25.3812 98.1595 25.3812C96.8701 25.3812 96.1498 25.4386 96.0032 25.4386C95.909 25.4386 95.8725 25.3998 95.8725 25.3068V24.8934C95.8725 24.7771 95.909 24.7406 96.0366 24.7406H96.6855C96.9803 24.7406 97.1627 24.5917 97.1627 24.231V20.5393Z" fill="white"/>
<path d="M102.785 23.0211C102.767 22.9451 102.785 22.8869 102.838 22.8683L103.19 22.7574C103.265 22.7372 103.319 22.7372 103.357 22.8132L103.965 23.868C104.299 24.4358 104.649 24.8825 105.554 24.8825C106.274 24.8825 106.864 24.4358 106.864 23.7346C106.864 22.9808 106.384 22.6395 105.093 22.2649C103.838 21.8895 102.838 21.2481 102.838 19.9087C102.838 19.0819 103.135 18.4025 103.781 17.9309C104.426 17.4803 104.945 17.3081 105.701 17.3081C106.605 17.3081 107.16 17.5369 107.492 17.7239C107.768 17.8728 107.823 17.9503 107.841 18.0597L108.084 19.3448C108.1 19.4201 108.1 19.5131 108.065 19.5519L107.713 19.721C107.659 19.7396 107.603 19.721 107.566 19.6442L106.678 18.6274C106.457 18.3831 106.124 18.0465 105.517 18.0465C104.834 18.0465 104.242 18.4591 104.242 19.1191C104.242 19.8916 104.797 20.1204 105.904 20.4175C106.755 20.6424 107.273 20.8704 107.751 21.397C108.158 21.812 108.304 22.2649 108.304 22.9071C108.304 24.4885 107.048 25.6193 105.223 25.6193C104.242 25.6193 103.432 25.299 103.226 25.1299C103.154 25.0523 103.1 24.9981 103.079 24.9236L102.785 23.0211Z" fill="white"/>
<path d="M87.2851 24.7274H86.5465C86.3612 24.7274 86.2867 24.5785 86.2517 24.2373C86.213 24.0108 86.213 23.3298 86.213 22.614V20.5819C86.213 19.0176 86.213 17.8116 86.2517 17.5114C86.2692 17.3578 86.213 17.2826 86.1021 17.2826C85.9926 17.2826 85.8452 17.3214 85.6598 17.3974C85.3445 17.5277 83.5187 18.1885 83.2604 18.3009C83.1669 18.3389 83.1297 18.3769 83.1297 18.4514V18.66C83.1297 18.7329 83.1479 18.7911 83.3151 18.8283C84.1645 19.0564 84.2762 19.4317 84.2762 19.9971V22.6558C84.2762 23.1817 84.258 23.7843 84.2382 24.3505C84.2192 24.6545 84.1273 24.7274 83.9434 24.7274C83.9434 24.7274 83.8112 24.7553 83.0294 24.7553C82.2422 24.7553 82.0325 24.7274 82.0325 24.7274C81.6275 24.7274 81.5918 24.4629 81.5538 24.1217C81.5166 23.5578 81.5166 21.6375 81.5166 20.7712V18.0551C81.5166 17.0197 81.5538 13.0991 81.5918 12.0839C81.5918 11.8194 81.5166 11.7449 81.4072 11.7449C81.3312 11.7449 81.2225 11.7806 81.0014 11.8566C80.4088 12.2336 78.9697 12.7237 78.2327 12.9502C78.1179 12.9874 78.0853 13.0611 78.0853 13.0991V13.324C78.0853 13.4039 78.0853 13.4388 78.1954 13.4799L78.5639 13.5908C79.1543 13.7793 79.4681 14.081 79.5046 14.7209C79.5411 15.211 79.5798 16.8304 79.5798 18.1497V24.0503C79.5798 24.5785 79.301 24.7274 79.1186 24.7274C79.1186 24.7274 78.8413 24.7553 78.1643 24.7553C77.4865 24.7553 77.2229 24.7274 77.2229 24.7274C76.8149 24.7274 76.7769 24.4629 76.7404 24.1217C76.7032 23.5578 76.7032 21.6375 76.7032 20.7712V18.0551C76.7032 17.0197 76.7404 13.0991 76.7769 12.0839C76.7769 11.8194 76.7032 11.7449 76.5945 11.7449C76.5208 11.7449 76.4106 11.7806 76.1872 11.8566C75.5954 12.2336 74.1585 12.7237 73.4192 12.9502C73.3076 12.9874 73.2703 13.0611 73.2703 13.0991V13.324C73.2703 13.4039 73.2703 13.4388 73.3835 13.4799L73.7513 13.5908C74.3424 13.7793 74.6539 14.081 74.6927 14.7209C74.7307 15.211 74.7672 16.8304 74.7672 18.1497V24.0503C74.7672 24.5785 74.4906 24.7274 74.3052 24.7274H73.6024C73.3835 24.7274 73.3463 24.7639 73.3463 24.8802V25.237C73.3463 25.3494 73.3835 25.4254 73.4937 25.4254C73.5674 25.4254 77.1066 25.3905 80.5873 25.3905C83.9457 25.3905 87.2486 25.4254 87.3216 25.4254C87.4333 25.4254 87.4705 25.3494 87.4705 25.237V24.8569C87.4705 24.7639 87.4333 24.7274 87.2851 24.7274" fill="white"/>
<path d="M63.8069 22.7109C63.6868 22.5945 63.4725 22.4006 63.4581 22.382C63.4376 22.3587 63.373 22.3789 63.354 22.403C62.5334 23.4647 61.0077 24.383 59.1013 24.383C58.2154 24.383 57.1441 24.231 55.9284 22.911C54.5607 21.4032 54.2279 19.1804 54.2279 18.0116C54.2279 15.3017 55.4474 12.5864 58.3985 12.5864C59.8414 12.5864 60.801 13.1883 61.6133 13.9793C62.386 14.8069 62.8313 15.7492 63.0531 16.4271C63.1071 16.5791 63.1641 16.6543 63.2545 16.6179L63.6048 16.5046C63.6792 16.4853 63.6982 16.4271 63.6792 16.3131C63.6048 15.7492 63.2362 12.7361 63.2362 12.3995C63.2362 12.1335 63.2005 12.0955 62.9771 12.0955C62.7568 12.0955 62.7173 12.0955 62.6839 12.2118L62.5334 12.6989C62.4985 12.8478 62.4232 12.8478 62.1649 12.6989C61.5016 12.325 60.1354 11.7945 58.4365 11.7945C56.2216 11.7945 54.6344 12.6989 53.6368 13.7917C52.3443 15.2249 51.7547 16.9956 51.7547 18.8407C51.7547 20.4997 52.3823 22.6853 53.7477 23.9301C54.895 24.9849 56.2216 25.7015 58.5862 25.7015C61.0161 25.7015 62.7127 24.3722 63.8327 22.8885C63.8532 22.8574 63.8616 22.7613 63.8069 22.7109" fill="white"/>
<path d="M86.1453 14.8775C86.1453 15.5111 85.6416 16.0253 85.0193 16.0253C84.3955 16.0253 83.894 15.5111 83.894 14.8775C83.894 14.243 84.3955 13.7265 85.0193 13.7265C85.6416 13.7265 86.1453 14.243 86.1453 14.8775Z" fill="white"/>
</g>
<defs>
<clipPath id="clip0_3_314">
<rect width="74" height="43" fill="white" transform="translate(43 2)"/>
</clipPath>
</defs>
</svg>
