<svg width="160" height="48" viewBox="0 0 160 48" fill="none" xmlns="http://www.w3.org/2000/svg">
<g clip-path="url(#clip0_3_405)">
<path d="M142.195 20.785C139.083 20.785 137.463 22.9944 137.463 25.9186C137.463 28.9315 139.083 30.9398 141.978 30.9398C144.873 30.9398 146.667 28.9764 146.667 25.8726C146.667 22.682 145.003 20.785 142.195 20.785ZM110.889 20.785C107.777 20.785 106.157 22.9944 106.157 25.9186C106.157 28.9315 107.777 30.9398 110.673 30.9398C113.569 30.9398 115.361 28.9764 115.361 25.8726C115.361 22.682 113.697 20.785 110.889 20.785V20.785ZM47.8526 24.9374H51.1804V28.1729C50.1644 29.0877 48.6087 29.4441 47.3564 29.4441C44.2233 29.4441 42.4304 27.3459 42.4304 23.6632C42.4304 19.7579 44.3527 17.5934 47.3129 17.5934C49.0841 17.5934 50.4025 18.2407 51.6558 19.4679L52.7568 18.1733C51.6341 16.9011 49.7107 15.9639 47.5076 15.9639C43.0777 15.9639 40.4635 19.1555 40.4635 23.6193C40.4635 27.9932 42.6458 31.0297 47.3772 31.0297C49.9914 31.0297 52.0225 29.8453 53.0168 28.7304V23.4406H47.8526V24.9374V24.9374ZM96.9113 30.7172H98.6192V25.1375C98.6192 23.5305 99.2873 22.4135 100.908 22.4135C102.42 22.4135 102.896 23.0833 102.896 24.7128V30.7172H104.645V24.1992C104.645 21.9673 103.738 20.8075 101.686 20.8075C100.282 20.8075 99.2448 21.3425 98.6192 22.2583V16.1425H96.9113V30.7172V30.7172ZM96.004 17.7047V16.1425H86.0214V17.7047H90.1054V30.7172H91.9853V17.7047H96.004ZM148.266 30.7172H149.972V25.1375C149.972 23.5305 150.642 22.4135 152.262 22.4135C153.773 22.4135 154.251 23.0833 154.251 24.7128V30.7172H156V24.1992C156 21.9673 155.094 20.8075 153.04 20.8075C151.636 20.8075 150.598 21.3425 149.972 22.2583L149.756 21.03H148.266V30.7172V30.7172ZM70.0849 30.7172H71.7909V25.1375C71.7909 23.5305 72.461 22.4135 74.0809 22.4135C75.5941 22.4135 76.0685 23.0833 76.0685 24.7128V30.7172H77.8189V24.1992C77.8189 21.9673 76.9116 20.8075 74.8588 20.8075C73.4553 20.8075 72.4175 21.3425 71.7909 22.2583L71.5754 21.03H70.0849V30.7172V30.7172ZM122.945 30.7172H124.652V25.1375C124.652 23.5305 125.321 22.4135 126.942 22.4135C128.454 22.4135 128.93 23.0833 128.93 24.7128V30.7172H130.679V24.1992C130.679 21.9673 129.772 20.8075 127.72 20.8075C126.316 20.8075 125.278 21.3425 124.652 22.2583L124.435 21.03H122.945V30.7172V30.7172ZM142.065 29.4675C140.38 29.4675 139.3 28.2617 139.3 25.8522C139.3 23.5519 140.422 22.2583 142.087 22.2583C143.773 22.2583 144.765 23.5305 144.765 25.9635C144.765 28.3056 143.728 29.4675 142.065 29.4675V29.4675ZM110.758 29.4675C109.074 29.4675 107.993 28.2617 107.993 25.8522C107.993 23.5519 109.118 22.2583 110.781 22.2583C112.465 22.2583 113.461 23.5305 113.461 25.9635C113.461 28.3056 112.423 29.4675 110.758 29.4675V29.4675ZM136.836 22.6146V21.03H134.913V18.2631L133.121 18.5541V21.03H131.76V22.6146H133.121V28.7753C133.121 30.1588 133.617 30.9847 135.583 30.9847C136.016 30.9847 136.664 30.8959 137.053 30.7836V29.4002C136.644 29.5114 136.253 29.5339 135.974 29.5339C135.152 29.5339 134.913 29.1327 134.913 28.2403V22.6146H136.836V22.6146ZM84.0397 22.6146V21.03H82.1184V18.2631L80.3255 18.5541V21.03H78.9645V22.6146H80.3255V28.7753C80.3255 30.1588 80.8226 30.9847 82.7885 30.9847C83.2214 30.9847 83.8678 30.8959 84.2572 30.7836V29.4002C83.847 29.5114 83.4576 29.5339 83.1769 29.5339C82.3565 29.5339 82.1184 29.1327 82.1184 28.2403V22.6146H84.0397V22.6146ZM116.938 30.7172H118.689V24.6464C118.689 23.2395 119.53 22.5922 120.61 22.5922C120.978 22.5922 121.346 22.6146 121.735 22.682V20.9187C121.41 20.8075 121.109 20.785 120.806 20.785C119.835 20.785 119.076 21.3874 118.689 22.2134L118.473 21.03H116.938V30.7172V30.7172ZM54.8749 30.7172H56.6253V24.6464C56.6253 23.2395 57.4674 22.5922 58.5477 22.5922C58.9144 22.5922 59.2821 22.6146 59.6715 22.682V20.9187C59.3463 20.8075 59.0439 20.785 58.7424 20.785C57.7699 20.785 57.0138 21.3874 56.6253 22.2134L56.4089 21.03H54.8749V30.7172V30.7172ZM59.8217 28.0831C59.8217 29.4675 60.5996 30.9398 63.0201 30.9398C64.4236 30.9398 65.3961 30.3824 66.0662 29.489L66.3034 30.7172H67.8157V24.1094C67.8157 21.2751 66.174 20.785 64.2298 20.785C62.7601 20.785 60.8378 21.2312 60.3624 23.508H62.2205C62.4577 22.6595 63.0201 22.1684 64.2081 22.1684C65.1807 22.1684 66.1097 22.5258 66.1097 24.1318V24.8251H64.0569C61.5939 24.8251 59.8217 25.6725 59.8217 28.0831ZM63.5815 29.5339C62.1987 29.5339 61.6799 28.9091 61.6799 27.9044C61.6799 26.7445 62.3065 26.1411 63.9482 26.1411H66.1097V26.8109C66.1097 28.5742 65.0502 29.5339 63.5815 29.5339Z" fill="#231F20"/>
<path d="M12.1412 10.8735C12.0453 10.9297 11.9465 10.9838 11.8496 11.0441C5.28584 15.0841 3.07782 23.7871 6.81386 30.6247C4.13736 25.3553 10.116 14.9718 19.036 17.9021C21.246 18.628 23.0024 20.33 24.1864 22.7457C24.3456 23.0704 24.4256 23.5563 24.3406 23.8422C24.3821 23.7289 24.4187 23.6166 24.4553 23.4992C26.8284 15.7917 20.1826 10.2109 14.961 10.2099C13.94 10.2099 12.9754 10.4232 12.1412 10.8735" fill="url(#paint0_linear_3_405)"/>
<path d="M6.81387 30.6216C6.86724 30.7227 6.92061 30.8238 6.97794 30.9238C10.8889 37.7042 19.3138 39.9862 25.9329 36.1258C20.8319 38.8907 10.7802 32.7146 13.6178 23.5002C14.3205 21.2182 15.9672 19.4029 18.3066 18.1798C18.6199 18.0164 19.0904 17.9327 19.3672 18.0205C19.2574 17.9776 19.1487 17.9398 19.0361 17.9021C17.9666 17.5508 16.9368 17.3906 15.9612 17.3906C8.80544 17.3896 4.45957 25.9843 6.81387 30.6216" fill="url(#paint1_linear_3_405)"/>
<path d="M19.0361 29.0972C16.8271 28.3723 15.0697 26.6704 13.8857 24.2537C13.7275 23.93 13.6465 23.444 13.7315 23.1591C13.691 23.2714 13.6534 23.3848 13.6178 23.5001C10.7812 32.7136 20.829 38.8906 25.93 36.1258C26.0278 36.0696 26.1256 36.0155 26.2225 35.9563C32.7863 31.9162 34.9953 23.2143 31.2583 16.3767C33.9357 21.645 27.9561 32.0275 19.0361 29.0972" fill="url(#paint2_linear_3_405)"/>
<path d="M12.1402 10.8745C17.2402 8.10867 27.2909 14.2857 24.4553 23.4991C23.7516 25.7831 22.1049 27.5974 19.7655 28.8196C19.4531 28.9839 18.9827 29.0676 18.7059 28.9798C18.8147 29.0217 18.9244 29.0605 19.0361 29.0972C27.9551 32.0275 33.9338 21.6481 31.2582 16.3777C31.2049 16.2777 31.1525 16.1765 31.0952 16.0765C28.4691 11.5259 23.8099 9.00102 19.0282 9C16.6867 9 14.3156 9.60545 12.1402 10.8745" fill="url(#paint3_linear_3_405)"/>
</g>
<defs>
<linearGradient id="paint0_linear_3_405" x1="24.9098" y1="19.3949" x2="4.77948" y2="20.7576" gradientUnits="userSpaceOnUse">
<stop stop-color="#47237F"/>
<stop offset="0.873627" stop-color="#9C7DBF"/>
<stop offset="1" stop-color="#8B69B3"/>
</linearGradient>
<linearGradient id="paint1_linear_3_405" x1="15.0622" y1="17.4329" x2="16.5633" y2="38.2147" gradientUnits="userSpaceOnUse">
<stop stop-color="#47237F"/>
<stop offset="0.873627" stop-color="#9C7DBF"/>
<stop offset="1" stop-color="#8B69B3"/>
</linearGradient>
<linearGradient id="paint2_linear_3_405" x1="13.1629" y1="27.6057" x2="33.293" y2="26.2431" gradientUnits="userSpaceOnUse">
<stop stop-color="#47237F"/>
<stop offset="0.873627" stop-color="#9C7DBF"/>
<stop offset="1" stop-color="#8B69B3"/>
</linearGradient>
<linearGradient id="paint3_linear_3_405" x1="23.0105" y1="29.5676" x2="21.5094" y2="8.78595" gradientUnits="userSpaceOnUse">
<stop stop-color="#47237F"/>
<stop offset="0.873627" stop-color="#9C7DBF"/>
<stop offset="1" stop-color="#8B69B3"/>
</linearGradient>
<clipPath id="clip0_3_405">
<rect width="151" height="29" fill="white" transform="translate(5 9)"/>
</clipPath>
</defs>
</svg>
