<svg width="160" height="48" viewBox="0 0 160 48" fill="none" xmlns="http://www.w3.org/2000/svg">
<g clip-path="url(#clip0_2_244)">
<path d="M115.942 7.62505C115.245 6.84861 114.071 6.11199 112.657 6.11199C108.118 6.11199 106.625 10.1734 106.625 13.9959C106.625 17.5595 108.178 21.0834 112.458 21.0834C113.633 21.0834 115.006 20.4065 115.444 19.6698V20.9042C115.444 23.1141 115.265 24.1692 112.398 24.1692C111.024 24.1692 109.412 23.6715 107.998 22.9349L107.063 25.5827C108.914 26.4985 110.666 27.056 112.597 27.056C114.09 27.056 116.201 26.8171 117.555 25.6425C118.988 24.4679 119.048 22.3774 119.048 20.3467L119.068 6.07217L116.221 6.53007C116.221 6.49025 116.002 7.30651 115.942 7.62505ZM115.444 15.0908C115.444 15.7677 115.385 16.4446 115.126 17.0021C114.807 17.679 114.19 18.117 113.394 18.117C111.104 18.117 110.845 16.5243 110.845 13.4981C110.845 10.7905 111.343 9.19784 113.334 9.19784C114.329 9.19784 115.066 9.69556 115.444 10.1136V15.0908Z" fill="#D0103A"/>
<path d="M101.886 42.4853L101.906 37.5678C101.906 36.0548 101.847 35.5968 101.647 34.9797C101.09 33.387 99.4177 32.4513 96.9291 32.4513C95.5554 32.4513 94.3211 32.6902 92.8876 33.3073C92.0913 33.6458 91.3148 34.0838 90.5782 34.5218L91.9917 37.0303C93.7437 35.9353 95.1174 35.4973 96.3517 35.4973C97.7852 35.4973 98.1236 36.1344 98.1236 37.7271V38.2845H97.2277C92.5691 38.2845 90.2198 39.8772 90.2198 43.2617C90.2198 45.8897 91.6533 47.5222 94.4007 47.781H95.9536C96.8296 47.6815 97.5662 47.4027 98.1634 47.0245C98.482 46.8453 98.7806 46.5268 99.0992 46.2082C99.4177 46.8254 100.015 47.4027 100.692 47.781L101.15 48L101.349 47.781L103.32 45.6707C102.026 44.6951 101.886 43.9784 101.886 42.4853ZM96.0133 45.0734C95.0179 45.0734 94.341 44.2771 94.341 43.1622C94.341 41.4301 95.2169 40.793 97.8847 40.793H98.1037V44.1775C97.5264 44.7947 96.7499 45.0734 96.0133 45.0734Z" fill="#D0103A"/>
<path d="M31.4691 1.17462H16V16.5243L23.7843 24.2688L39.2733 8.91912L31.4691 1.17462Z" fill="#D0103A"/>
<path d="M16 32.0133V47.3828H31.4691L39.2733 39.6383L23.7843 24.2688L16 32.0133Z" fill="#D0103A"/>
<path d="M47.0577 47.3828H62.4472V31.8938L54.7624 24.2688L39.2734 39.6383L47.0577 47.3828Z" fill="#D0103A"/>
<path d="M39.2734 8.91912L54.7624 24.2688L62.4472 16.6437V1.17462H47.0577L39.2734 8.91912Z" fill="#D0103A"/>
<path d="M144.332 18.2961C143.655 18.4753 143.336 18.6147 142.978 18.6147C141.664 18.6147 141.306 18.117 141.306 16.2654V8.99875H143.715L144.71 6.35089H141.306V2.34923L137.523 2.9664V6.35089H136.03V8.99875H137.523V16.8826C137.523 18.2364 137.523 18.4753 137.762 19.1124C138.2 20.4065 139.753 21.2625 141.664 21.2625C142.659 21.2625 143.715 21.0236 144.83 20.5856L144.332 18.2961Z" fill="#D0103A"/>
<path d="M73.9345 10.5915L79.927 20.8843H84.9838L78.1153 10.2928L84.3069 1.17462H79.5886L73.9345 10.1734V1.17462H69.9129V20.8843H73.9345V10.5915Z" fill="#D0103A"/>
<path d="M92.5093 9.29739C93.5645 9.29739 93.8631 9.97428 93.8631 11.6267V20.8644H97.5861V10.2928C97.5861 9.35711 97.5263 8.75985 97.3472 8.20241C96.9092 6.96806 95.416 6.11199 93.8034 6.11199C92.9274 6.11199 91.9519 6.29116 91.1954 6.72916C90.5782 7.0477 89.961 7.52551 89.523 8.08295L89.2841 6.1518L86.0589 6.66943V20.8843H89.9013V12.3235C89.9013 11.2684 90.2198 10.5317 90.7175 10.0539C91.275 9.5562 91.8922 9.29739 92.5093 9.29739Z" fill="#D0103A"/>
<path d="M100.493 20.8843H104.355V6.05226L100.493 6.64952V20.8843Z" fill="#D0103A"/>
<path d="M129.878 5.99253C128.206 5.99253 126.772 6.60971 125.717 7.76441C125.717 7.58523 125.777 6.70925 125.777 6.29117V0.816259L121.875 1.45334V20.9042H125.777V12.881C125.777 11.5272 125.956 10.7507 126.394 10.2331C126.971 9.5562 127.947 9.17793 128.823 9.17793C129.938 9.17793 130.316 9.79511 130.316 11.1489V20.8843H134.039V10.7308C134.039 9.3173 133.979 8.8793 133.661 8.08295C133.223 6.78888 131.75 5.99253 129.878 5.99253Z" fill="#D0103A"/>
<path d="M102.444 0C101.13 0 100.075 1.05516 100.075 2.36914C100.075 3.68312 101.13 4.73828 102.444 4.73828C103.758 4.73828 104.813 3.68312 104.813 2.36914C104.813 1.07507 103.758 0 102.444 0Z" fill="#D0103A"/>
<path d="M69.873 47.2833H73.7752V38.5433H78.8718V35.3579H73.7752V30.7391H80.1061L80.6039 27.5935H69.873V47.2833Z" fill="#D0103A"/>
<path d="M84.6454 34.6611L84.2671 32.6902L81.1613 33.1879V47.2833H85.0037V38.2845C85.0037 37.5479 85.1232 36.9307 85.5612 36.4529C85.9394 36.0548 86.5566 35.776 87.2534 35.776C87.6914 35.776 88.1891 35.8955 88.5674 36.0747L89.5429 32.6902C88.9258 32.4513 88.667 32.3915 88.1095 32.3915C86.6761 32.3915 85.2625 33.6856 84.6454 34.6611Z" fill="#D0103A"/>
<path d="M119.526 27.9718V47.2833H123.368V39.0411V27.3546L119.526 27.9718Z" fill="#D0103A"/>
<path d="M131.809 32.7499H127.151L123.368 39.0411L128.365 47.2833H132.864L127.091 38.8619L131.809 32.7499Z" fill="#D0103A"/>
<path d="M112.836 32.511C111.96 32.511 110.965 32.6902 110.228 33.1282C109.611 33.4467 108.994 33.9245 108.556 34.482L108.317 32.5508L105.092 33.0684V47.2833H108.934V38.7225C108.934 37.6674 109.253 36.9307 109.75 36.433C110.308 35.9353 110.925 35.6964 111.542 35.6964C112.597 35.6964 112.916 36.3733 112.916 38.0456V47.2833H116.639V36.6918C116.639 35.776 116.579 35.1589 116.4 34.6014C115.942 33.387 114.449 32.511 112.836 32.511Z" fill="#D0103A"/>
</g>
<defs>
<clipPath id="clip0_2_244">
<rect width="160" height="48" fill="white"/>
</clipPath>
</defs>
</svg>
