<svg width="160" height="48" viewBox="0 0 160 48" fill="none" xmlns="http://www.w3.org/2000/svg">
<g clip-path="url(#clip0_1_128)">
<path d="M21.7692 7.1304C21.7692 6.83009 20.9532 6.05973 20.6985 6.05973H20V5.37424H24.0672L28.2651 15.9047H28.3499L32.7632 5.37424H36.3995V6.05973H35.7467C35.4921 6.05973 34.676 6.83009 34.676 7.1304V17.6217C34.676 17.922 35.4921 18.6923 35.7467 18.6923H36.3995V19.3844H31.0201V18.6923H31.7056C31.9602 18.6923 32.7762 17.922 32.7762 17.6217V7.43071L27.6775 19.5867L22.6114 7.21527V17.576C22.6114 17.8763 23.4275 18.6466 23.6821 18.6466H24.3676V19.3321H20V18.6466H20.6528C20.9075 18.6466 21.7235 17.8763 21.7235 17.576L21.7692 7.1304Z" fill="#051C2C"/>
<path d="M42.2817 13.3782C42.5363 11.968 42.2817 10.7276 40.7345 10.7276C38.9391 10.7276 38.0382 12.1835 38.0382 14.2791C38.0382 16.3747 39.3439 17.9612 41.3808 17.9612C41.9682 18.0218 42.5599 17.8979 43.0736 17.6065C43.5873 17.3151 43.9974 16.8709 44.2468 16.3356H44.8082C44.2076 18.2941 43.0064 19.5476 40.7345 19.5476C38.2145 19.5476 36.5823 17.4258 36.5823 14.8144C36.5823 11.9027 38.5082 9.97683 40.9107 9.97683C41.5089 9.9475 42.1062 10.0491 42.661 10.2747C43.2158 10.5002 43.7147 10.8442 44.1227 11.2825L42.817 13.339L42.2817 13.3782Z" fill="#051C2C"/>
<path d="M60.5614 8.15537C60.7156 8.15813 60.8687 8.12946 61.0115 8.07113C61.1542 8.01279 61.2836 7.92601 61.3917 7.81606C61.4998 7.70612 61.5844 7.57532 61.6403 7.43162C61.6962 7.28793 61.7223 7.13435 61.717 6.98025C61.7255 6.82627 61.7014 6.67223 61.6463 6.52819C61.5913 6.38414 61.5065 6.25333 61.3974 6.14428C61.2884 6.03524 61.1575 5.95041 61.0135 5.89535C60.8695 5.84028 60.7154 5.81621 60.5614 5.82471C60.3993 5.81263 60.2364 5.83414 60.083 5.88789C59.9296 5.94163 59.7889 6.02646 59.6698 6.13706C59.5506 6.24767 59.4556 6.38167 59.3906 6.53069C59.3256 6.6797 59.292 6.84052 59.292 7.0031C59.292 7.16567 59.3256 7.32649 59.3906 7.47551C59.4556 7.62452 59.5506 7.75853 59.6698 7.86913C59.7889 7.97973 59.9296 8.06456 60.083 8.11831C60.2364 8.17206 60.3993 8.19356 60.5614 8.18149V8.15537Z" fill="#051C2C"/>
<path d="M73.4095 18.6466C73.1549 18.6466 72.4237 17.9938 72.4237 17.7065V12.6535C72.4391 12.3155 72.3846 11.978 72.2637 11.6619C72.1428 11.3459 71.958 11.0583 71.7209 10.8169C71.4838 10.5755 71.1995 10.3856 70.8857 10.259C70.5719 10.1325 70.2354 10.0719 69.8972 10.0813C68.2716 10.0813 67.4164 11.0279 66.3457 12.1377L65.9997 10.2445H63.1337V10.8973H63.6886C63.9432 10.8973 64.6744 11.5828 64.6744 11.844V17.6217C64.6744 17.922 63.9432 18.5618 63.6886 18.5618H62.5788C62.3176 18.5618 61.593 17.9089 61.593 17.6217V10.2445H58.3287V10.8973H58.8836C59.1448 10.8973 59.8694 11.5828 59.8694 11.844V17.6217C59.8694 17.922 59.1448 18.5618 58.8836 18.5618H57.8652C57.2385 18.2973 56.6704 17.9112 56.1939 17.4258L51.3367 10.9822L54.7185 7.33931C55.2393 6.80631 55.8463 6.3649 56.5138 6.03361H57.1666V5.37424H52.1136V6.05973H52.7991C53.0537 6.05973 53.8698 6.99983 53.6543 7.25444L48.66 12.8559V7.1304C48.66 6.83009 49.4696 6.05973 49.7307 6.05973H50.3836V5.37424H44.978V6.05973H45.6308C45.8854 6.05973 46.7015 6.83009 46.7015 7.1304V17.6217C46.7015 17.922 45.8854 18.6923 45.6308 18.6923H44.978V19.3844H50.4162V18.6923H49.7633C49.5022 18.6923 48.6927 17.922 48.6927 17.6217V13.9396L50.1028 12.3924L54.9078 19.3844H67.8864V18.6923H67.3707C67.116 18.6923 66.3849 18.0395 66.3849 17.7457V13.0778C66.3849 12.4838 68.0562 11.1976 69.3423 11.1976C69.5436 11.187 69.7449 11.2202 69.9322 11.2951C70.1194 11.3699 70.2881 11.4846 70.4266 11.6312C70.5651 11.7778 70.6701 11.9527 70.7342 12.1439C70.7984 12.3351 70.8202 12.5379 70.7981 12.7384V17.7065C70.7981 18.0068 70.0669 18.6466 69.8123 18.6466H69.2966V19.3321H73.9253V18.6466H73.4095Z" fill="#051C2C"/>
<path d="M75.0808 16.1658C75.0808 17.021 76.3212 18.8164 78.2471 18.8164C79.3635 18.8164 80.0033 18.4312 80.0033 17.576C80.0033 16.551 79.1023 16.205 78.2928 15.8655C77.64 15.6044 77.1373 15.3955 76.4061 15.0494C75.2962 14.5337 74.4475 13.809 74.4475 12.5686C74.4475 10.9365 75.4333 9.9964 77.1895 9.9964C78.1753 9.9964 78.7302 10.4664 79.4157 10.4664C79.6703 10.4664 79.8401 10.4273 79.9249 10.2118H80.4407V12.993H79.8858C79.761 12.3493 79.4222 11.7667 78.9243 11.34C78.4265 10.9133 77.799 10.6676 77.1438 10.6427C76.0731 10.6427 75.6031 11.1128 75.6031 11.8374C75.6031 12.5621 76.158 12.9081 77.0589 13.2933C77.7444 13.5936 78.2602 13.809 79.0175 14.1093C80.0033 14.4945 81.1131 15.2649 81.1131 16.7207C81.1131 18.4312 79.9119 19.4627 78.2014 19.4627C77.0459 19.4627 76.3604 18.9013 75.59 18.9013C75.4595 18.887 75.3275 18.9072 75.2072 18.9599C75.0869 19.0126 74.9825 19.0959 74.9045 19.2016H74.4737V16.0352H75.0351L75.0808 16.1658Z" fill="#051C2C"/>
<path d="M81.7137 14.8144C81.7137 12.1182 83.5548 10.016 85.8724 10.0617C86.2971 10.0458 86.7205 10.1161 87.1173 10.2684C87.5141 10.4206 87.8759 10.6516 88.1809 10.9475C88.4859 11.2434 88.7279 11.598 88.8921 11.99C89.0564 12.3819 89.1396 12.803 89.1366 13.228L89.1758 13.8809L83.137 14.3574C83.137 16.1985 84.4427 17.9938 86.4338 17.9938C87.0155 18.0499 87.6002 17.9236 88.1067 17.6322C88.6133 17.3409 89.0166 16.8992 89.2607 16.3682H89.8548C89.2541 18.3268 88.1378 19.5802 85.9377 19.5802C83.385 19.5476 81.7137 17.3605 81.7137 14.8144V14.8144ZM87.6677 13.3586C87.8375 12.0529 87.622 10.7864 85.8267 10.7864C84.0314 10.7864 83.2153 12.3271 83.1304 13.7438L87.6677 13.3586Z" fill="#051C2C"/>
<path d="M90.7948 11.968C90.5106 11.5255 90.1111 11.1689 89.6393 10.9365H89.2541V10.2445H94.046V10.8973H93.4911C93.2365 10.8973 92.675 11.5502 92.675 11.8831L94.7772 16.773L96.8337 11.9354C96.7932 11.7215 96.7022 11.5205 96.5681 11.349C96.4341 11.1775 96.261 11.0405 96.0633 10.9496H95.5019V10.2445H99.1448V10.8973H98.7139C98.4984 10.8973 97.8587 11.5828 97.6432 11.8831L94.5618 18.8621L92.2899 23.876L91.4803 23.4908L93.8763 18.5226L90.7948 11.968Z" fill="#051C2C"/>
<path d="M46.9887 26.5657C47.0189 27.1316 47.2233 27.6744 47.5739 28.1197C47.9245 28.565 48.4042 28.891 48.9473 29.053C50.7426 30.979 52.9297 33.0354 54.8229 34.7459C55.3515 33.8532 55.6058 32.8247 55.5541 31.7885C55.5541 30.4828 54.6989 29.732 53.3279 29.6863V29.0335H58.2961V29.6863H57.7346C57.1624 30.0312 56.7249 30.5609 56.4942 31.1879C56.4824 32.5815 56.0674 33.9419 55.2995 35.105C56.198 35.9104 57.1395 36.6667 58.1198 37.3703H58.9816V38.0232H57.4343C56.7891 38.0417 56.1468 37.9279 55.5473 37.6888C54.9477 37.4496 54.4034 37.0902 53.9481 36.6326C53.3403 37.2085 52.6218 37.6548 51.8362 37.9443C51.0506 38.2339 50.2143 38.3606 49.3782 38.317C48.2484 38.3557 47.1496 37.9442 46.3232 37.1729C45.4968 36.4017 45.0106 35.3337 44.9714 34.204C44.9697 33.3699 45.1716 32.548 45.5595 31.8097C45.9475 31.0713 46.5098 30.4388 47.1977 29.967C46.4849 29.161 46.0985 28.1181 46.1139 27.0423C46.1139 25.025 47.4196 23.9151 49.4565 23.9151C50.7622 23.9151 51.4151 24.3395 52.0222 24.3395C52.3225 24.3395 52.538 24.3395 52.6751 24.0849H53.2757V27.3491H52.6424C52.6424 26.409 51.2714 24.5223 49.3782 24.5223C47.8897 24.5549 46.9887 25.26 46.9887 26.5657ZM46.3881 33.2509C46.3881 35.2616 48.5295 37.168 50.5011 37.168C51.591 37.1978 52.6603 36.8674 53.5433 36.2279C51.4145 34.3805 49.3979 32.4075 47.5045 30.3196C47.1205 30.7005 46.8222 31.1591 46.6297 31.6646C46.4372 32.1702 46.3548 32.711 46.3881 33.2509V33.2509Z" fill="#051C2C"/>
<path d="M73.2789 29.0073C73.2789 27.5515 71.6533 24.6398 69.0419 24.6398C66.646 24.6398 65.1901 25.9455 64.929 29.1379C64.8594 30.3213 64.8746 31.5082 64.9747 32.6894C65.0207 33.908 65.5457 35.0592 66.4356 35.8928C67.3255 36.7265 68.5085 37.1754 69.7274 37.1418C72.1234 37.1418 73.3246 36.1169 74.2256 34.2758H74.9502C74.5747 35.4676 73.8179 36.5029 72.7964 37.2225C71.7749 37.942 70.5452 38.3059 69.2966 38.2582C65.275 38.2582 62.7028 34.994 62.7028 30.9789C62.7028 26.9639 65.0596 23.7976 68.9571 23.7976C70.4521 23.7976 71.3987 24.3982 72.4694 24.3982C72.6328 24.4107 72.7967 24.382 72.9461 24.3147C73.0956 24.2474 73.2257 24.1437 73.3246 24.013H73.8404V28.9812H73.2789V29.0073Z" fill="#051C2C"/>
<path d="M75.8903 33.5055C75.8903 30.5481 77.9925 28.707 80.3884 28.707C82.7844 28.707 84.8866 30.5481 84.8866 33.5055C84.8866 36.4629 82.7844 38.317 80.3884 38.317C79.7735 38.3082 79.1667 38.1753 78.6043 37.9264C78.0419 37.6775 77.5355 37.3176 77.1155 36.8684C76.6955 36.4191 76.3705 35.8897 76.16 35.3119C75.9495 34.734 75.8578 34.1196 75.8903 33.5055V33.5055ZM83.0716 35.007C83.2022 33.9818 83.2022 32.9442 83.0716 31.9191C82.9019 30.4632 82.0858 29.4774 80.4211 29.4774C78.7563 29.4774 77.9794 30.4632 77.764 31.8799C77.6334 32.9029 77.6334 33.9383 77.764 34.9613C77.9794 36.3715 78.7498 37.403 80.4211 37.403C82.0924 37.403 82.915 36.4172 83.0847 35.007H83.0716Z" fill="#051C2C"/>
<path d="M99.6475 36.3584C99.6475 36.6587 100.333 37.3051 100.588 37.3051H101.018V37.9579H96.4485V37.3051H96.9577C97.2189 37.3051 97.9044 36.6522 97.9044 36.3584V31.3641C97.9352 31.1673 97.9206 30.966 97.8616 30.7756C97.8026 30.5853 97.7008 30.411 97.5641 30.2661C97.4274 30.1211 97.2593 30.0094 97.0727 29.9395C96.8861 29.8696 96.686 29.8432 96.4877 29.8626C95.293 29.8626 93.8371 31.0247 93.8371 31.6187V36.3584C93.8371 36.6587 94.49 37.3051 94.7772 37.3051H95.293V37.9579H90.6643V37.3051H91.1604C91.4151 37.3051 92.1005 36.6522 92.1005 36.3584V31.3641C92.1247 31.1651 92.1041 30.9632 92.0401 30.7732C91.9762 30.5831 91.8706 30.4098 91.731 30.2659C91.5915 30.1219 91.4215 30.011 91.2335 29.9412C91.0456 29.8714 90.8444 29.8446 90.6447 29.8626C89.4435 29.8626 87.9876 31.0638 87.9876 31.7036V36.4172C87.9876 36.7175 88.6731 37.3573 88.9342 37.3573H89.4435V38.0101H84.8213V37.3573H85.337C85.5917 37.3573 86.2771 36.7044 86.2771 36.4172V30.5938C86.2771 30.2935 85.5917 29.6537 85.337 29.6537H84.8213V29.0008H87.6024L87.9876 30.757C89.0191 29.6406 89.7046 28.7984 91.291 28.7984C91.8664 28.7505 92.4379 28.9279 92.8849 29.2933C93.332 29.6587 93.6195 30.1836 93.687 30.757C94.7968 29.6406 95.528 28.8702 97.023 28.8702C97.3601 28.8585 97.6959 28.9177 98.0087 29.0439C98.3215 29.1702 98.6043 29.3607 98.8387 29.6032C99.0732 29.8457 99.2542 30.1347 99.3699 30.4515C99.4856 30.7684 99.5334 31.106 99.5104 31.4425V36.3584H99.6475Z" fill="#051C2C"/>
<path d="M103.682 28.9682L103.982 30.8092C104.254 30.1661 104.715 29.6208 105.304 29.2454C105.893 28.8701 106.581 28.6823 107.279 28.707C109.505 28.707 110.831 30.5481 110.831 33.3357C110.831 36.1234 109.29 38.2125 107.11 38.2125C106.473 38.2696 105.835 38.1276 105.283 37.8059C104.731 37.4843 104.292 36.999 104.028 36.4172V40.739C104.028 41.0393 104.753 41.6856 104.968 41.6856H105.569V42.3385H100.77V41.6856H101.371C101.626 41.6856 102.311 41.0328 102.311 40.739V30.5938C102.311 30.2935 101.626 29.6537 101.371 29.6537H100.77V29.0008L103.682 28.9682ZM103.982 32.2324V34.661C103.982 35.3536 104.257 36.0178 104.747 36.5075C105.237 36.9973 105.901 37.2724 106.594 37.2724C108.134 37.2724 108.866 36.2866 109.075 34.8764C109.205 33.9824 109.205 33.0742 109.075 32.1802C108.905 30.7243 108.095 29.8234 106.809 29.8234C105.268 29.7777 104.413 30.8484 103.982 32.2651V32.2324Z" fill="#051C2C"/>
<path d="M130.527 37.3573C130.273 37.3573 129.548 36.7044 129.548 36.4172V31.3641C129.562 31.0264 129.507 30.6893 129.386 30.3737C129.265 30.0581 129.08 29.7708 128.843 29.5297C128.606 29.2885 128.322 29.0985 128.009 28.9716C127.695 28.8447 127.359 28.7836 127.021 28.7919C125.389 28.7919 124.534 29.7385 123.463 30.8484L123.15 29.0074H120.277V29.6602H120.839C121.094 29.6602 121.818 30.3457 121.818 30.6068V36.3584C121.818 36.6587 121.094 37.3051 120.839 37.3051H119.723C119.468 37.3051 118.737 36.6522 118.737 36.3584V31.449C118.737 29.6537 117.281 28.7527 115.355 28.7527C114.683 28.7099 114.009 28.8139 113.382 29.0574C112.754 29.3009 112.186 29.6781 111.719 30.1629L112.913 32.0039H113.566C112.881 30.4632 113.39 29.4382 114.931 29.4382C116.471 29.4382 117.072 30.1629 117.072 31.449V32.5654L114.722 33.0354C113.416 33.29 111.764 33.9364 111.764 35.7317C111.749 36.0472 111.798 36.3626 111.907 36.6591C112.015 36.9557 112.182 37.2276 112.398 37.4587C112.613 37.6898 112.872 37.8756 113.16 38.005C113.448 38.1345 113.76 38.205 114.075 38.2125C115.381 38.2125 116.386 37.1418 117.118 36.2017L117.333 38.0428H125.037V37.3899H124.528C124.266 37.3899 123.542 36.7371 123.542 36.4498V31.7493C123.542 31.1487 125.213 29.8626 126.493 29.8626C126.694 29.8529 126.896 29.887 127.083 29.9627C127.27 30.0383 127.439 30.1536 127.577 30.3007C127.715 30.4477 127.82 30.6231 127.884 30.8145C127.949 31.006 127.97 31.2091 127.948 31.4098V36.3584C127.948 36.6587 127.224 37.3051 126.969 37.3051H126.414V37.9579H131.036V37.3051H130.521L130.527 37.3573ZM117.039 35.3987C116.654 36.0516 115.734 36.9786 114.813 36.9786C114.62 36.9831 114.428 36.9483 114.249 36.8764C114.07 36.8044 113.908 36.6967 113.771 36.5599C113.635 36.4231 113.528 36.2601 113.457 36.0806C113.386 35.9012 113.352 35.7092 113.357 35.5162C113.357 34.6153 113.742 34.0212 114.859 33.7209L117.039 33.1595V35.3922V35.3987Z" fill="#051C2C"/>
<path d="M131.637 30.6786C131.353 30.2379 130.953 29.8834 130.481 29.6537H130.096V29.0008H134.901V29.6537H134.346C134.092 29.6537 133.537 30.3065 133.537 30.6395L135.632 35.4771L137.689 30.6395C137.653 30.4238 137.564 30.2205 137.43 30.0483C137.295 29.8761 137.119 29.7404 136.919 29.6537H136.357V29.0008H140V29.6537H139.569C139.36 29.6537 138.714 30.3392 138.498 30.6395L135.417 37.6184L133.152 42.6258L132.329 42.234L134.725 37.2659L131.637 30.6786Z" fill="#051C2C"/>
</g>
<defs>
<clipPath id="clip0_1_128">
<rect width="160" height="48" fill="white"/>
</clipPath>
</defs>
</svg>
