<svg width="160" height="48" viewBox="0 0 160 48" fill="none" xmlns="http://www.w3.org/2000/svg">
<g clip-path="url(#clip0_1_16)">
<path d="M77.6644 47.048C90.361 47.048 100.654 36.695 100.654 23.9239C100.654 11.1528 90.361 0.799774 77.6644 0.799774C64.9678 0.799774 54.6751 11.1528 54.6751 23.9239C54.6751 36.695 64.9678 47.048 77.6644 47.048Z" fill="#0B3D91"/>
<path d="M76.307 5.50063C76.4494 5.50063 76.5648 5.38456 76.5648 5.24139C76.5648 5.09821 76.4494 4.98215 76.307 4.98215C76.1647 4.98215 76.0493 5.09821 76.0493 5.24139C76.0493 5.38456 76.1647 5.50063 76.307 5.50063Z" fill="white"/>
<path d="M78.9531 5.8463C79.0954 5.8463 79.2108 5.73023 79.2108 5.58706C79.2108 5.44388 79.0954 5.32782 78.9531 5.32782C78.8107 5.32782 78.6953 5.44388 78.6953 5.58706C78.6953 5.73023 78.8107 5.8463 78.9531 5.8463Z" fill="white"/>
<path d="M82.4238 10.5472C82.5661 10.5472 82.6815 10.4311 82.6815 10.2879C82.6815 10.1448 82.5661 10.0287 82.4238 10.0287C82.2814 10.0287 82.166 10.1448 82.166 10.2879C82.166 10.4311 82.2814 10.5472 82.4238 10.5472Z" fill="white"/>
<path d="M63.3863 34.7428C63.5287 34.7428 63.6441 34.6267 63.6441 34.4836C63.6441 34.3404 63.5287 34.2243 63.3863 34.2243C63.244 34.2243 63.1286 34.3404 63.1286 34.4836C63.1286 34.6267 63.244 34.7428 63.3863 34.7428Z" fill="white"/>
<path d="M64.0564 36.8167C64.1988 36.8167 64.3142 36.7007 64.3142 36.5575C64.3142 36.4143 64.1988 36.2982 64.0564 36.2982C63.9141 36.2982 63.7987 36.4143 63.7987 36.5575C63.7987 36.7007 63.9141 36.8167 64.0564 36.8167Z" fill="white"/>
<path d="M60.8606 34.9888C60.9672 34.9888 61.0536 34.9019 61.0536 34.7947C61.0536 34.6874 60.9672 34.6005 60.8606 34.6005C60.754 34.6005 60.6676 34.6874 60.6676 34.7947C60.6676 34.9019 60.754 34.9888 60.8606 34.9888Z" fill="white"/>
<path d="M71.3415 39.0635C71.4484 39.0635 71.5351 38.9763 71.5351 38.8688C71.5351 38.7612 71.4484 38.674 71.3415 38.674C71.2346 38.674 71.1479 38.7612 71.1479 38.8688C71.1479 38.9763 71.2346 39.0635 71.3415 39.0635Z" fill="white"/>
<path d="M87.7799 35.6283C87.8865 35.6283 87.9729 35.5414 87.9729 35.4341C87.9729 35.3269 87.8865 35.24 87.7799 35.24C87.6733 35.24 87.5869 35.3269 87.5869 35.4341C87.5869 35.5414 87.6733 35.6283 87.7799 35.6283Z" fill="white"/>
<path d="M92.5571 30.4095C92.664 30.4095 92.7506 30.3223 92.7506 30.2148C92.7506 30.1072 92.664 30.0201 92.5571 30.0201C92.4501 30.0201 92.3635 30.1072 92.3635 30.2148C92.3635 30.3223 92.4501 30.4095 92.5571 30.4095Z" fill="white"/>
<path d="M69.1422 11.9983C69.2488 11.9983 69.3352 11.9114 69.3352 11.8042C69.3352 11.697 69.2488 11.61 69.1422 11.61C69.0356 11.61 68.9492 11.697 68.9492 11.8042C68.9492 11.9114 69.0356 11.9983 69.1422 11.9983Z" fill="white"/>
<path d="M74.3999 8.11436C74.5065 8.11436 74.5929 8.02744 74.5929 7.92021C74.5929 7.81299 74.5065 7.72607 74.3999 7.72607C74.2933 7.72607 74.2069 7.81299 74.2069 7.92021C74.2069 8.02744 74.2933 8.11436 74.3999 8.11436Z" fill="white"/>
<path d="M73.8289 7.73414C73.9355 7.73414 74.0219 7.64722 74.0219 7.54C74.0219 7.43278 73.9355 7.34586 73.8289 7.34586C73.7223 7.34586 73.6359 7.43278 73.6359 7.54C73.6359 7.64722 73.7223 7.73414 73.8289 7.73414Z" fill="white"/>
<path d="M73.3134 7.35392C73.42 7.35392 73.5064 7.267 73.5064 7.15978C73.5064 7.05256 73.42 6.96564 73.3134 6.96564C73.2068 6.96564 73.1204 7.05256 73.1204 7.15978C73.1204 7.267 73.2068 7.35392 73.3134 7.35392Z" fill="white"/>
<path d="M69.967 13.0013C70.0736 13.0013 70.16 12.9144 70.16 12.8071C70.16 12.6999 70.0736 12.613 69.967 12.613C69.8604 12.613 69.774 12.6999 69.774 12.8071C69.774 12.9144 69.8604 13.0013 69.967 13.0013Z" fill="white"/>
<path d="M77.7114 2.895C77.818 2.895 77.9044 2.80808 77.9044 2.70086C77.9044 2.59363 77.818 2.50671 77.7114 2.50671C77.6048 2.50671 77.5184 2.59363 77.5184 2.70086C77.5184 2.80808 77.6048 2.895 77.7114 2.895Z" fill="white"/>
<path d="M78.9834 8.49457C79.09 8.49457 79.1764 8.40765 79.1764 8.30043C79.1764 8.19321 79.09 8.10629 78.9834 8.10629C78.8768 8.10629 78.7904 8.19321 78.7904 8.30043C78.7904 8.40765 78.8768 8.49457 78.9834 8.49457Z" fill="white"/>
<path d="M76.9772 7.40116C77.0838 7.40116 77.1702 7.31424 77.1702 7.20702C77.1702 7.0998 77.0838 7.01288 76.9772 7.01288C76.8706 7.01288 76.7841 7.0998 76.7841 7.20702C76.7841 7.31424 76.8706 7.40116 76.9772 7.40116Z" fill="white"/>
<path d="M73.5408 8.88804C73.6474 8.88804 73.7338 8.80112 73.7338 8.6939C73.7338 8.58668 73.6474 8.49976 73.5408 8.49976C73.4342 8.49976 73.3478 8.58668 73.3478 8.6939C73.3478 8.80112 73.4342 8.88804 73.5408 8.88804Z" fill="white"/>
<path d="M88.6951 40.7571C88.8017 40.7571 88.8882 40.6702 88.8882 40.563C88.8882 40.4558 88.8017 40.3689 88.6951 40.3689C88.5885 40.3689 88.5021 40.4558 88.5021 40.563C88.5021 40.6702 88.5885 40.7571 88.6951 40.7571Z" fill="white"/>
<path d="M63.0599 35.9918C63.1668 35.9918 63.2535 35.9046 63.2535 35.797C63.2535 35.6895 63.1668 35.6023 63.0599 35.6023C62.953 35.6023 62.8663 35.6895 62.8663 35.797C62.8663 35.9046 62.953 35.9918 63.0599 35.9918Z" fill="white"/>
<path d="M76.496 38.4977C76.603 38.4977 76.6896 38.4106 76.6896 38.303C76.6896 38.1955 76.603 38.1083 76.496 38.1083C76.3891 38.1083 76.3025 38.1955 76.3025 38.303C76.3025 38.4106 76.3891 38.4977 76.496 38.4977Z" fill="white"/>
<path d="M67.0587 35.8362C67.1656 35.8362 67.2522 35.749 67.2522 35.6415C67.2522 35.534 67.1656 35.4468 67.0587 35.4468C66.9518 35.4468 66.8651 35.534 66.8651 35.6415C66.8651 35.749 66.9518 35.8362 67.0587 35.8362Z" fill="white"/>
<path d="M68.7299 38.5801C68.8368 38.5801 68.9235 38.493 68.9235 38.3854C68.9235 38.2779 68.8368 38.1907 68.7299 38.1907C68.623 38.1907 68.5363 38.2779 68.5363 38.3854C68.5363 38.493 68.623 38.5801 68.7299 38.5801Z" fill="white"/>
<path d="M81.0321 36.8513C81.1387 36.8513 81.2251 36.7644 81.2251 36.6572C81.2251 36.5499 81.1387 36.463 81.0321 36.463C80.9255 36.463 80.8391 36.5499 80.8391 36.6572C80.8391 36.7644 80.9255 36.8513 81.0321 36.8513Z" fill="white"/>
<path d="M87.8143 33.0013C87.9209 33.0013 88.0073 32.9144 88.0073 32.8072C88.0073 32.6999 87.9209 32.613 87.8143 32.613C87.7077 32.613 87.6213 32.6999 87.6213 32.8072C87.6213 32.9144 87.7077 33.0013 87.8143 33.0013Z" fill="white"/>
<path d="M92.9563 35.3644C93.0629 35.3644 93.1493 35.2775 93.1493 35.1703C93.1493 35.063 93.0629 34.9761 92.9563 34.9761C92.8497 34.9761 92.7632 35.063 92.7632 35.1703C92.7632 35.2775 92.8497 35.3644 92.9563 35.3644Z" fill="white"/>
<path d="M94.7088 36.4924C94.8154 36.4924 94.9018 36.4055 94.9018 36.2982C94.9018 36.191 94.8154 36.1041 94.7088 36.1041C94.6022 36.1041 94.5158 36.191 94.5158 36.2982C94.5158 36.4055 94.6022 36.4924 94.7088 36.4924Z" fill="white"/>
<path d="M94.9968 33.4161C95.1034 33.4161 95.1899 33.3292 95.1899 33.2219C95.1899 33.1147 95.1034 33.0278 94.9968 33.0278C94.8902 33.0278 94.8038 33.1147 94.8038 33.2219C94.8038 33.3292 94.8902 33.4161 94.9968 33.4161Z" fill="white"/>
<path d="M69.4298 29.0609C69.5364 29.0609 69.6228 28.9739 69.6228 28.8667C69.6228 28.7595 69.5364 28.6726 69.4298 28.6726C69.3232 28.6726 69.2368 28.7595 69.2368 28.8667C69.2368 28.9739 69.3232 29.0609 69.4298 29.0609Z" fill="white"/>
<path d="M69.5031 33.5849C69.6454 33.5849 69.7608 33.4688 69.7608 33.3256C69.7608 33.1825 69.6454 33.0664 69.5031 33.0664C69.3607 33.0664 69.2453 33.1825 69.2453 33.3256C69.2453 33.4688 69.3607 33.5849 69.5031 33.5849Z" fill="white"/>
<path d="M71.0494 36.8686C71.1918 36.8686 71.3071 36.7525 71.3071 36.6093C71.3071 36.4662 71.1918 36.3501 71.0494 36.3501C70.9071 36.3501 70.7917 36.4662 70.7917 36.6093C70.7917 36.7525 70.9071 36.8686 71.0494 36.8686Z" fill="white"/>
<path d="M89.5714 33.4466C89.7138 33.4466 89.8291 33.3306 89.8291 33.1874C89.8291 33.0442 89.7138 32.9281 89.5714 32.9281C89.4291 32.9281 89.3137 33.0442 89.3137 33.1874C89.3137 33.3306 89.4291 33.4466 89.5714 33.4466Z" fill="white"/>
<path d="M96.2379 33.0664C96.3803 33.0664 96.4957 32.9503 96.4957 32.8071C96.4957 32.664 96.3803 32.5479 96.2379 32.5479C96.0956 32.5479 95.9802 32.664 95.9802 32.8071C95.9802 32.9503 96.0956 33.0664 96.2379 33.0664Z" fill="white"/>
<path d="M92.9391 31.6492C93.0814 31.6492 93.1968 31.5332 93.1968 31.39C93.1968 31.2468 93.0814 31.1307 92.9391 31.1307C92.7967 31.1307 92.6813 31.2468 92.6813 31.39C92.6813 31.5332 92.7967 31.6492 92.9391 31.6492Z" fill="white"/>
<path d="M89.5714 31.7875C89.7138 31.7875 89.8291 31.6714 89.8291 31.5283C89.8291 31.3851 89.7138 31.269 89.5714 31.269C89.4291 31.269 89.3137 31.3851 89.3137 31.5283C89.3137 31.6714 89.4291 31.7875 89.5714 31.7875Z" fill="white"/>
<path d="M82.6248 5.07894L83.2657 5.0173L82.626 4.981C82.6059 4.85657 82.5068 4.75921 82.382 4.74308L82.3207 4.10132L82.284 4.74826C82.1684 4.77419 82.0796 4.87155 82.0653 4.99252L81.4101 5.05244L82.0698 5.08815C82.0939 5.19934 82.1832 5.28633 82.2955 5.30707L82.3551 5.96841L82.39 5.30822C82.5086 5.28806 82.6025 5.19646 82.6248 5.07894Z" fill="white"/>
<path d="M71.8083 12.2558L72.4492 12.1942L71.8094 12.1579C71.79 12.0334 71.6903 11.9361 71.5655 11.92L71.5042 11.2782L71.4681 11.9251C71.3518 11.9511 71.2631 12.0484 71.2487 12.1694L70.5935 12.2293L71.2533 12.265C71.2774 12.3762 71.3667 12.4632 71.479 12.4839L71.5385 13.1453L71.574 12.4851C71.6926 12.4655 71.7865 12.3733 71.8083 12.2558Z" fill="white"/>
<path d="M95.7683 31.231L96.4092 31.1693L95.7695 31.133C95.75 31.0086 95.6503 30.9112 95.5255 30.8951L95.4642 30.2534L95.4281 30.9003C95.3124 30.9262 95.2237 31.0236 95.2093 31.1446L94.5541 31.2045L95.2139 31.2402C95.238 31.3514 95.3273 31.4384 95.4396 31.4591L95.4991 32.1205L95.5346 31.4603C95.6521 31.4407 95.746 31.3491 95.7683 31.231Z" fill="white"/>
<path d="M69.6434 41.1524L70.2843 41.0907L69.6445 41.0544C69.6245 40.93 69.5254 40.8326 69.4005 40.8165L69.3393 40.1753L69.3032 40.8217C69.1869 40.8476 69.0981 40.945 69.0838 41.0659L68.4286 41.1259L69.0884 41.1616C69.1125 41.2728 69.2018 41.3603 69.3141 41.3805L69.3736 42.0418L69.4091 41.3816C69.5271 41.3621 69.6216 41.2699 69.6434 41.1524Z" fill="white"/>
<path d="M93.7323 36.3132L94.3732 36.2516L93.7334 36.2153C93.7139 36.0908 93.6143 35.9935 93.4894 35.9774L93.4282 35.3356L93.3921 35.982C93.2764 36.0079 93.1876 36.1053 93.1733 36.2262L92.5181 36.2861L93.1779 36.3219C93.2019 36.433 93.2913 36.52 93.4035 36.5408L93.4631 37.2021L93.4986 36.5419C93.616 36.5229 93.7105 36.4307 93.7323 36.3132Z" fill="white"/>
<path d="M83.1162 18.3848C80.4433 19.4298 77.8362 20.3625 75.6364 21.055C71.1663 22.4629 58.9357 26.2743 51.5475 31.0789L52.166 31.3208C56.6677 28.763 59.5937 27.9594 62.4064 27.0693C65.4648 26.1015 75.3517 23.7741 79.8288 22.5067C81.3413 22.0787 83.1128 21.5181 84.989 20.8361C84.5526 20.2237 84.0921 19.6096 83.6076 18.9966C83.4455 18.7898 83.2812 18.5859 83.1162 18.3848ZM86.3819 22.9123C85.7347 23.3518 85.1923 23.7027 84.8126 23.9239C82.6134 25.2028 71.8913 32.5652 69.4521 34.2589C67.0128 35.9526 60.2426 42.3817 58.2495 44.2482L58.1808 45.0081C64.6068 39.2011 66.6228 37.769 69.1772 35.8143C72.3386 33.3948 78.8786 28.9186 81.1014 27.4841C83.2262 26.113 85.1425 24.852 86.8624 23.6981C86.8344 23.6508 86.8063 23.6036 86.7782 23.5558C86.6488 23.342 86.5165 23.1277 86.3819 22.9123ZM96.427 12.2408C93.2964 14.0866 88.3624 16.3144 83.5755 18.2045C83.6901 18.3456 83.8041 18.4879 83.9175 18.6314C84.4524 19.3089 84.957 19.9909 85.4317 20.6736C89.1946 19.2795 93.3234 17.4083 96.5994 15.1437C95.0387 16.6312 89.879 20.51 86.733 22.6721C86.8951 22.9376 87.052 23.2032 87.2038 23.4676C91.97 20.2594 95.1773 17.898 97.0461 16.319C99.6234 14.1414 105.5 9.26766 107.733 2.73483C103.815 7.74737 99.1829 10.6157 96.427 12.2408Z" fill="#FC3D21"/>
<path d="M74.7063 29.6496C74.1994 29.0079 73.4984 28.1483 72.9721 27.4818C72.2682 26.5906 71.617 25.6902 71.0202 24.7909C70.8255 24.8399 70.6313 24.8888 70.4372 24.9378C71.1577 26.0687 71.9578 27.1978 72.8295 28.3016C73.4663 29.1081 74.0454 29.7574 74.342 30.1612C74.4022 30.243 74.5213 30.4239 74.6822 30.6647C74.8678 30.538 75.0551 30.4101 75.2441 30.281C75.0614 30.0811 74.881 29.8708 74.7063 29.6496ZM78.4061 33.0278C77.9897 32.6315 76.98 31.9695 75.9291 30.9764C75.6971 31.1365 75.4629 31.299 75.228 31.4626C75.9067 32.4246 76.8311 33.6062 77.555 33.9507C78.6455 34.4703 78.9393 33.5359 78.4061 33.0278ZM83.9175 18.6314C77.9084 11.0236 70.5678 6.84408 67.4029 9.37368C64.9447 11.3381 65.9539 17.0794 69.3421 23.1105C69.5174 23.05 69.6909 22.9906 69.8627 22.9319C66.443 17.0558 65.5072 11.5951 67.8256 9.7418C70.739 7.41326 77.7738 11.6089 83.6088 18.9961C84.8166 20.525 85.8785 22.0597 86.7777 23.5558C90.2209 29.2878 91.2776 34.4715 88.8985 36.5874C88.1705 37.235 85.9461 37.489 83.032 36.1698C82.9914 36.2211 83.0567 36.3599 83.1076 36.3939C85.623 37.4112 88.0325 37.799 89.249 36.8271C92.1722 34.4905 89.9265 26.2392 83.9175 18.6314Z" fill="white"/>
<path d="M58.1459 19.5341H61.9946L65.2248 25.0473C65.2248 25.0473 65.2248 21.055 65.2248 20.7439C65.2248 20.26 64.6148 19.6292 64.4001 19.5341C64.6578 19.5341 66.9086 19.5341 67.0632 19.5341C66.9 19.5773 66.376 20.2168 66.376 20.7439C66.376 21.0031 66.376 26.7928 66.376 27.0693C66.376 27.4582 66.9344 27.994 67.2007 28.2013H63.4894L60.2077 22.6623C60.2077 22.6623 60.2077 26.7928 60.2077 27.0175C60.2077 27.4496 60.6286 27.8643 61.0668 28.2186H58.2318C58.6356 28.0458 59.0221 27.5014 59.0565 27.0693C59.0909 26.6373 59.0565 21.0636 59.0565 20.8217C59.0565 20.2946 58.5496 19.8625 58.1459 19.5341Z" fill="white"/>
<path d="M93.3514 28.2013H98.4716C98.1881 28.1322 97.8702 27.7952 97.6984 27.3459C97.5266 26.8965 94.8119 19.5341 94.8119 19.5341H92.8652C92.3131 19.9339 91.7214 20.3556 91.0897 20.7998C91.088 20.8159 91.0863 20.832 91.0834 20.8476C90.9987 21.3661 89.4752 26.9161 89.3824 27.1903C89.2536 27.5705 88.5921 27.994 88.3257 28.2186H91.0834C90.8085 27.9075 90.5851 27.6051 90.6367 27.2594C90.6882 26.9138 90.8429 26.2225 90.8429 26.2225H93.6951C93.8239 26.5681 93.9201 26.8786 93.97 27.173C94.0301 27.5273 93.6693 27.9248 93.3514 28.2013ZM91.1006 25.1164L92.0628 21.9537L93.3342 25.1164H91.1006ZM90.6671 19.8498C90.8085 19.745 90.9506 19.6395 91.092 19.5341H90.3446C90.4191 19.6032 90.5422 19.7121 90.6671 19.8498Z" fill="white"/>
<path d="M71.0838 27.2594C71.1353 26.9138 71.29 26.2225 71.29 26.2225H74.1421C74.271 26.5681 74.3672 26.8786 74.4171 27.173C74.4772 27.5273 74.1164 27.9248 73.7985 28.2013H78.3064C78.4004 28.138 78.4937 28.0746 78.5871 28.0118C78.4124 27.8563 78.2515 27.623 78.1455 27.3459C77.9737 26.8965 75.259 19.5341 75.259 19.5341H70.7917C71.0065 19.7329 71.625 20.2686 71.5305 20.8476C71.4463 21.3661 69.9223 26.9161 69.8295 27.1903C69.7006 27.5705 69.0391 27.994 68.7728 28.2186H71.5305C71.2556 27.9075 71.0322 27.6051 71.0838 27.2594ZM72.5099 21.9537L73.7813 25.1164H71.5477L72.5099 21.9537Z" fill="white"/>
<path d="M86.6557 23.8363C85.8149 24.3998 84.9278 24.9879 83.9931 25.602C84.4123 25.8066 84.7462 26.0635 84.7783 26.3953C84.8378 27.0186 83.5927 27.3199 82.4673 27.1903C82.2422 27.1644 82.0212 27.1051 81.8104 27.0256C81.5767 27.1771 81.3408 27.3297 81.1014 27.4841C80.858 27.6414 80.5624 27.835 80.2251 28.0585V28.9531C80.4485 28.5124 80.937 28.1178 81.3161 28.0977C81.4794 28.089 82.0464 28.6161 84.3831 28.4865C85.5171 28.4237 87.7078 27.2076 87.6734 25.8077C87.6528 24.9804 87.2233 24.3352 86.6557 23.8363ZM80.2245 25.9978V26.9092C80.4313 26.7704 80.6352 26.6338 80.835 26.5007C80.5206 26.2807 80.2978 26.075 80.2245 25.9978ZM85.8567 23.2643C85.6391 23.1347 85.4186 23.0212 85.2073 22.9209C84.1076 22.4025 82.9564 22.3074 82.7159 21.6075C82.5464 21.1138 83.0252 20.6569 84.1935 20.6742C85.3619 20.6915 86.4443 21.3914 86.7364 21.642V19.4126C86.6505 19.499 86.2737 19.9339 85.9289 19.8619C85.2674 19.7237 84.142 19.5433 82.8533 19.5508C81.3757 19.5595 80.1042 20.7082 80.0613 22.1605C80.0012 24.1912 81.6163 24.7443 82.5269 25.064C82.6208 25.0968 82.7279 25.132 82.8442 25.1694C83.7176 24.5979 84.4083 24.1578 84.8126 23.9233C85.0841 23.7661 85.4398 23.5402 85.8567 23.2643Z" fill="white"/>
</g>
<defs>
<clipPath id="clip0_1_16">
<rect width="160" height="48" fill="white"/>
</clipPath>
</defs>
</svg>
