<svg width="160" height="48" viewBox="0 0 160 48" fill="none" xmlns="http://www.w3.org/2000/svg">
<g clip-path="url(#clip0_4_497)">
<path d="M32.9324 24.3256H22.1046V23.0153C22.334 22.9919 22.6102 22.964 22.9332 22.9267C23.2562 22.8894 23.5043 22.8334 23.6729 22.7495C23.921 22.6189 24.1035 22.4231 24.2112 22.1759C24.3189 21.9241 24.375 21.5511 24.375 21.0615V12.6634C24.375 11.4417 24.1457 10.5231 23.6963 9.9076C23.2469 9.29209 22.5774 8.98433 21.702 8.98433C21.2199 8.98433 20.7705 9.05428 20.3538 9.19883C19.9419 9.34338 19.5346 9.54855 19.1367 9.82833C18.7856 10.0661 18.5047 10.3086 18.2941 10.5604C18.0834 10.8122 17.9055 11.036 17.7604 11.2272V20.861C17.7604 21.2806 17.8213 21.6303 17.943 21.9148C18.0647 22.1946 18.2613 22.4044 18.5375 22.549C18.7294 22.6609 18.9729 22.7541 19.2584 22.8381C19.544 22.922 19.8295 22.9826 20.1057 23.0153V24.3256H9.15159V23.0153C9.45119 22.9919 9.75547 22.9593 10.0598 22.9173C10.3687 22.8754 10.6309 22.8194 10.8462 22.7495C11.2301 22.6189 11.4922 22.4137 11.6373 22.1386C11.7825 21.8635 11.8527 21.5044 11.8527 21.0615V10.6164C11.8527 10.2433 11.7591 9.87962 11.5671 9.52057C11.3705 9.16152 11.1224 8.86776 10.8088 8.63927C10.5934 8.49938 10.3172 8.37814 9.98954 8.28488C9.65717 8.18696 9.29671 8.12168 8.8988 8.08437V6.77408L17.4936 6.30778L17.7604 6.57823V9.18018H17.8353C18.1724 8.88174 18.5796 8.52269 19.0571 8.10303C19.5393 7.68336 19.984 7.34296 20.3913 7.07717C20.836 6.79273 21.4212 6.54559 22.1421 6.34508C22.863 6.13991 23.6307 6.03732 24.4453 6.03732C26.402 6.03732 27.8719 6.59222 28.8503 7.69735C29.8287 8.80714 30.3202 10.276 30.3202 12.1039V20.8983C30.3202 21.3412 30.3858 21.6956 30.5169 21.9568C30.6526 22.2225 30.896 22.4324 31.2565 22.5863C31.4484 22.6702 31.6872 22.7541 31.968 22.8381C32.2489 22.922 32.5719 22.9826 32.9324 23.0153" fill="#253745"/>
<path d="M59.2083 23.9525L50.6135 24.4701L50.342 24.2183V21.8682H50.2343C49.8271 22.2412 49.4292 22.6002 49.0406 22.9546C48.6474 23.309 48.1839 23.6261 47.6456 23.9152C47.0324 24.237 46.4519 24.4748 45.9089 24.6333C45.3611 24.7872 44.57 24.8665 43.5261 24.8665C41.7144 24.8665 40.3241 24.3209 39.3598 23.2344C38.3954 22.1433 37.9133 20.6045 37.9133 18.6181V10.5418C37.9133 10.0755 37.8243 9.69776 37.6418 9.40399C37.4639 9.11022 37.2251 8.8491 36.9255 8.62061C36.6868 8.44342 36.3778 8.31285 35.994 8.23825C35.6148 8.15898 35.2684 8.10768 34.9547 8.08437V6.77407L43.6619 6.30777L43.8585 6.57822V18.5108C43.8585 19.7465 44.0925 20.6558 44.57 21.2387C45.0428 21.8262 45.6935 22.12 46.5221 22.12C47.3741 22.12 48.1418 21.8961 48.8206 21.4531C49.4994 21.0148 49.9956 20.5392 50.3092 20.0403V10.3646C50.3092 9.95889 50.2297 9.59051 50.0705 9.26877C49.916 8.94702 49.6866 8.68123 49.387 8.48072C49.1717 8.33617 48.8627 8.23825 48.4601 8.19162C48.0576 8.14499 47.6456 8.10768 47.2243 8.08437V6.77407L55.9829 6.30777L56.2544 6.57822V20.432C56.2544 20.8516 56.334 21.206 56.5025 21.4998C56.6711 21.7935 56.9145 22.0407 57.2375 22.2459C57.4622 22.3904 57.7571 22.4883 58.1223 22.5396C58.4874 22.5956 58.8479 22.6282 59.2083 22.6375" fill="#253745"/>
<path d="M82.329 7.83255C81.786 7.91648 81.2617 8.12165 80.7514 8.4434C80.2412 8.76514 79.8199 9.26875 79.4828 9.94954C78.6402 11.6982 77.8163 13.4608 77.0064 15.2374C76.1919 17.014 75.3961 18.7346 74.619 20.3946C74.3756 20.8982 74.1041 21.5464 73.7998 22.3344C73.4908 23.1271 73.238 23.8406 73.0321 24.4887H69.7177C68.3367 21.2946 67.1571 18.646 66.1787 16.5383C65.2003 14.4307 64.1611 12.1691 63.0703 9.7537C62.8175 9.18948 62.4243 8.74649 61.8907 8.42475C61.357 8.103 60.8093 7.90715 60.2569 7.83255V6.52225H71.3562V7.83255C70.9489 7.84654 70.4714 7.93513 69.9143 8.103C69.3666 8.27087 69.0904 8.48536 69.0904 8.74649C69.0904 8.8211 69.1138 8.92835 69.1606 9.0729C69.2075 9.21745 69.2683 9.37599 69.3385 9.55785C69.7271 10.4671 70.3076 11.7728 71.0846 13.4841C71.8617 15.1954 72.681 16.9953 73.547 18.8838C74.1462 17.5829 74.722 16.3052 75.265 15.0555C75.8127 13.8058 76.4868 12.2111 77.292 10.276C77.3997 9.98685 77.4605 9.7537 77.4792 9.57184C77.498 9.39465 77.5073 9.27341 77.5073 9.21745C77.5073 9.00296 77.3997 8.81177 77.189 8.64857C76.9784 8.49003 76.7302 8.34548 76.44 8.2289C76.1404 8.10766 75.8502 8.01907 75.574 7.95845C75.2978 7.89783 75.0684 7.86052 74.8905 7.83255V6.52225H82.329" fill="#253745"/>
<path d="M96.2979 13.2183C96.2979 12.5002 96.2651 11.7635 96.1902 11.0081C96.12 10.2573 95.9936 9.6418 95.8157 9.16151C95.6097 8.59729 95.3289 8.17296 94.9778 7.88852C94.622 7.59941 94.1726 7.45486 93.6342 7.45486C92.7074 7.45486 91.9677 7.92116 91.4153 8.85375C90.8629 9.79101 90.5633 11.2692 90.5165 13.2883L96.2979 13.2183ZM103.179 20.0356C102.763 20.7211 102.252 21.3645 101.658 21.9661C101.063 22.5723 100.389 23.0898 99.6309 23.5188C98.8258 23.9758 98.0112 24.3162 97.192 24.554C96.3681 24.7872 95.4225 24.9038 94.3552 24.9038C92.5763 24.9038 91.0408 24.6519 89.7488 24.1483C88.4568 23.6447 87.3894 22.9686 86.5515 22.1199C85.7136 21.2713 85.0863 20.2687 84.6696 19.1123C84.253 17.9606 84.047 16.7062 84.047 15.354C84.047 14.1323 84.2717 12.9618 84.7258 11.8474C85.1752 10.7283 85.8119 9.73039 86.6404 8.85375C87.4597 8.00509 88.4895 7.31963 89.7348 6.79271C90.9753 6.2658 92.3656 6.00467 93.9011 6.00467C95.5817 6.00467 96.9673 6.20518 98.044 6.61086C99.1254 7.0212 100.019 7.58076 100.731 8.29886C101.415 8.98432 101.915 9.78635 102.224 10.7143C102.538 11.6422 102.692 12.6121 102.692 13.6287V14.7991H90.5165C90.5165 17.2518 90.9893 19.117 91.9396 20.3946C92.8852 21.677 94.3926 22.3158 96.4617 22.3158C97.5899 22.3158 98.6057 22.008 99.5045 21.3925C100.408 20.777 101.176 19.9936 101.812 19.0517" fill="#253745"/>
<path d="M118.501 13.2183C118.501 12.5002 118.464 11.7635 118.393 11.0081C118.323 10.2573 118.197 9.6418 118.014 9.16151C117.813 8.59729 117.532 8.17296 117.176 7.88852C116.825 7.59941 116.376 7.45486 115.833 7.45486C114.911 7.45486 114.171 7.92116 113.619 8.85375C113.066 9.79101 112.767 11.2692 112.72 13.2883L118.501 13.2183ZM125.383 20.0356C124.961 20.7211 124.456 21.3645 123.861 21.9661C123.267 22.5723 122.593 23.0898 121.834 23.5188C121.029 23.9758 120.219 24.3162 119.395 24.554C118.571 24.7872 117.626 24.9038 116.558 24.9038C114.779 24.9038 113.244 24.6519 111.952 24.1483C110.66 23.6447 109.597 22.9686 108.755 22.1199C107.917 21.2713 107.285 20.2687 106.873 19.1123C106.456 17.9606 106.25 16.7062 106.25 15.354C106.25 14.1323 106.475 12.9618 106.929 11.8474C107.378 10.7283 108.015 9.73039 108.844 8.85375C109.663 8.00509 110.693 7.31963 111.933 6.79271C113.179 6.2658 114.569 6.00467 116.104 6.00467C117.785 6.00467 119.171 6.20518 120.247 6.61086C121.329 7.0212 122.223 7.58076 122.934 8.29886C123.618 8.98432 124.119 9.78635 124.428 10.7143C124.741 11.6422 124.896 12.6121 124.896 13.6287V14.7991H112.72C112.72 17.2518 113.193 19.117 114.143 20.3946C115.088 21.677 116.596 22.3158 118.665 22.3158C119.793 22.3158 120.809 22.008 121.708 21.3925C122.611 20.777 123.379 19.9936 124.016 19.0517" fill="#253745"/>
<path d="M152 24.3256H141.172V23.0153C141.402 22.9919 141.678 22.964 142.001 22.9267C142.329 22.8894 142.572 22.8334 142.741 22.7495C142.993 22.6189 143.176 22.4231 143.284 22.1759C143.391 21.9241 143.443 21.5511 143.443 21.0615V12.6634C143.443 11.4417 143.218 10.5231 142.764 9.9076C142.315 9.29209 141.65 8.98433 140.77 8.98433C140.288 8.98433 139.838 9.05428 139.422 9.19883C139.01 9.34338 138.602 9.54855 138.205 9.82833C137.853 10.0661 137.577 10.3086 137.367 10.5604C137.156 10.8122 136.978 11.036 136.833 11.2272V20.861C136.833 21.2806 136.894 21.6303 137.011 21.9148C137.133 22.1946 137.329 22.4044 137.605 22.549C137.797 22.6609 138.041 22.7541 138.326 22.8381C138.616 22.922 138.897 22.9826 139.174 23.0153V24.3256H128.219V23.0153C128.519 22.9919 128.823 22.9593 129.128 22.9173C129.437 22.8754 129.699 22.8194 129.914 22.7495C130.298 22.6189 130.56 22.4137 130.705 22.1386C130.85 21.8635 130.92 21.5044 130.92 21.0615V10.6164C130.92 10.2433 130.827 9.87962 130.635 9.52057C130.443 9.16152 130.19 8.86776 129.877 8.63927C129.661 8.49938 129.39 8.37814 129.057 8.28488C128.73 8.18696 128.365 8.12168 127.967 8.08437V6.77408L136.561 6.30778L136.833 6.57823V9.18018H136.903C137.24 8.88174 137.647 8.52269 138.13 8.10303C138.607 7.68336 139.052 7.34296 139.464 7.07717C139.904 6.79273 140.489 6.54559 141.21 6.34508C141.931 6.13991 142.699 6.03732 143.518 6.03732C145.475 6.03732 146.94 6.59222 147.923 7.69735C148.901 8.80714 149.388 10.276 149.388 12.1039V20.8983C149.388 21.3412 149.454 21.6956 149.585 21.9568C149.72 22.2225 149.964 22.4324 150.324 22.5863C150.521 22.6702 150.755 22.7541 151.036 22.8381C151.321 22.922 151.64 22.9826 152 23.0153" fill="#253745"/>
<path d="M12.3817 35.9877L11.3237 33.2925L10.2845 35.9877H12.3817ZM15.1857 38.8274H12.288V38.4777C12.5408 38.4637 12.7562 38.4311 12.9247 38.3798C13.0932 38.3331 13.1775 38.2725 13.1775 38.2026C13.1775 38.1699 13.1728 38.1326 13.1681 38.0907C13.1587 38.0487 13.1494 38.0114 13.1353 37.9788L12.5595 36.4213H10.1112C10.0176 36.6498 9.94272 36.8503 9.88655 37.0182C9.83037 37.1907 9.77888 37.3446 9.73207 37.4891C9.68993 37.629 9.66185 37.7456 9.64312 37.8342C9.62908 37.9228 9.61972 37.9927 9.61972 38.0487C9.61972 38.1793 9.7227 38.2818 9.92868 38.3518C10.1347 38.4217 10.3687 38.4684 10.6262 38.4777V38.8274H8V38.4777C8.08426 38.473 8.19193 38.4544 8.31833 38.4217C8.44472 38.3938 8.55239 38.3518 8.63197 38.3005C8.76305 38.2072 8.86603 38.1186 8.93625 38.0207C9.01115 37.9275 9.08137 37.7922 9.15159 37.6197C9.498 36.7524 9.88655 35.7732 10.3079 34.6867C10.7339 33.5955 11.1084 32.6303 11.4407 31.7816H11.834L14.1559 37.7736C14.2073 37.9041 14.2635 38.0021 14.3244 38.0813C14.3852 38.1606 14.4742 38.2399 14.5865 38.3145C14.6614 38.3565 14.7597 38.3984 14.8814 38.4264C15.0032 38.459 15.1015 38.4777 15.1857 38.4777" fill="#696D79"/>
<path d="M24.038 33.7634H23.701C23.6682 33.6468 23.6167 33.507 23.5418 33.3438C23.4622 33.1852 23.3779 33.0313 23.2843 32.8914C23.1813 32.7376 23.0737 32.607 22.9613 32.4951C22.8443 32.3832 22.7273 32.3179 22.6196 32.2992C22.5213 32.2899 22.3902 32.2759 22.2404 32.2713C22.0859 32.2666 21.9408 32.2619 21.8097 32.2619H21.5242V37.8202C21.5242 37.9275 21.5429 38.0254 21.5944 38.114C21.6365 38.2026 21.7161 38.2725 21.8331 38.3238C21.894 38.3471 22.0157 38.3751 22.203 38.4171C22.3902 38.4544 22.54 38.4777 22.643 38.4777V38.8274H19.3521V38.4777C19.441 38.473 19.5814 38.4591 19.7687 38.4404C19.9606 38.4217 20.0917 38.3938 20.1619 38.3658C20.2696 38.3238 20.3492 38.2632 20.4007 38.1839C20.4522 38.1047 20.4756 37.9974 20.4756 37.8622V32.2619H20.19C20.0917 32.2619 19.9653 32.2619 19.8108 32.2666C19.661 32.2759 19.5159 32.2853 19.3802 32.2992C19.2725 32.3132 19.1601 32.3785 19.0431 32.4951C18.9261 32.6117 18.8184 32.7422 18.7201 32.8914C18.6218 33.036 18.5375 33.1899 18.4626 33.3531C18.383 33.5209 18.3316 33.6562 18.3035 33.7634H17.9617V31.8796H24.038" fill="#696D79"/>
<path d="M27.8907 38.8274H24.7496V38.4777C24.8385 38.473 24.9696 38.4637 25.1334 38.4497C25.302 38.4357 25.419 38.4171 25.4892 38.3891C25.5969 38.3518 25.6765 38.2912 25.7233 38.2166C25.7748 38.142 25.7982 38.044 25.7982 37.9135V32.8775C25.7982 32.7655 25.7794 32.6676 25.7467 32.593C25.7092 32.5137 25.625 32.4531 25.4892 32.3972C25.3909 32.3599 25.2692 32.3226 25.1194 32.2899C24.9696 32.2526 24.8479 32.234 24.7496 32.2246V31.8796H27.8907V32.2246C27.7924 32.2293 27.6707 32.2433 27.5302 32.2619C27.3898 32.2853 27.2681 32.3132 27.1604 32.3459C27.0387 32.3832 26.9544 32.4485 26.9123 32.5371C26.8702 32.6257 26.8468 32.7236 26.8468 32.8308V37.8575C26.8468 37.9648 26.8702 38.0627 26.917 38.142C26.9638 38.2259 27.0481 38.2912 27.1604 38.3425C27.2306 38.3705 27.343 38.3984 27.4975 38.4264C27.652 38.4591 27.7877 38.4777 27.8907 38.4777" fill="#696D79"/>
<path d="M32.717 35.9877L31.6591 33.2925L30.6198 35.9877H32.717ZM35.5211 38.8274H32.6234V38.4777C32.8809 38.4637 33.0915 38.4311 33.2601 38.3798C33.4286 38.3331 33.5129 38.2725 33.5129 38.2026C33.5129 38.1699 33.5082 38.1326 33.5035 38.0907C33.4988 38.0487 33.4895 38.0114 33.4754 37.9788L32.8949 36.4213H30.4466C30.3577 36.6498 30.2828 36.8503 30.2219 37.0182C30.1658 37.1907 30.1143 37.3446 30.0675 37.4891C30.0253 37.629 29.9972 37.7456 29.9785 37.8342C29.9645 37.9228 29.9551 37.9927 29.9551 38.0487C29.9551 38.1793 30.0581 38.2818 30.2641 38.3518C30.47 38.4217 30.7041 38.4684 30.9616 38.4777V38.8274H28.3354V38.4777C28.4243 38.473 28.5273 38.4544 28.6537 38.4217C28.7848 38.3938 28.8878 38.3518 28.972 38.3005C29.1031 38.2072 29.2014 38.1186 29.2763 38.0207C29.3465 37.9275 29.4168 37.7922 29.487 37.6197C29.8381 36.7524 30.2219 35.7732 30.6479 34.6867C31.0692 33.5955 31.4484 32.6303 31.7761 31.7816H32.1693L34.4959 37.7736C34.5427 37.9041 34.5989 38.0021 34.6644 38.0813C34.7253 38.1606 34.8096 38.2399 34.9219 38.3145C34.9968 38.3565 35.0951 38.3984 35.2168 38.4264C35.3385 38.459 35.4415 38.4777 35.5211 38.4777" fill="#696D79"/>
<path d="M39.7202 35.9877L38.6669 33.2925L37.623 35.9877H39.7202ZM42.5242 38.8274H39.6266V38.4777C39.884 38.4637 40.0947 38.4311 40.2632 38.3798C40.4317 38.3331 40.516 38.2725 40.516 38.2026C40.516 38.1699 40.516 38.1326 40.5066 38.0907C40.5019 38.0487 40.4926 38.0114 40.4785 37.9788L39.9027 36.4213H37.4544C37.3608 36.6498 37.2859 36.8503 37.2297 37.0182C37.1736 37.1907 37.1174 37.3446 37.0753 37.4891C37.0285 37.629 37.0004 37.7456 36.9863 37.8342C36.9676 37.9228 36.9582 37.9927 36.9582 38.0487C36.9582 38.1793 37.0612 38.2818 37.2719 38.3518C37.4779 38.4217 37.7072 38.4684 37.9694 38.4777V38.8274H35.3432V38.4777C35.4275 38.473 35.5305 38.4544 35.6615 38.4217C35.7879 38.3938 35.8956 38.3518 35.9752 38.3005C36.1062 38.2072 36.2092 38.1186 36.2795 38.0207C36.3497 37.9275 36.4246 37.7922 36.4901 37.6197C36.8412 36.7524 37.2297 35.7732 37.6511 34.6867C38.0724 33.5955 38.4516 32.6303 38.7792 31.7816H39.1772L41.4991 37.7736C41.5505 37.9041 41.602 38.0021 41.6676 38.0813C41.7284 38.1606 41.8174 38.2399 41.925 38.3145C42.0046 38.3565 42.1029 38.3984 42.22 38.4264C42.3417 38.459 42.4447 38.4777 42.5242 38.4777" fill="#696D79"/>
<path d="M48.7785 38.9906C48.3618 38.9906 47.9639 38.9114 47.5847 38.7482C47.2009 38.585 46.8638 38.3518 46.5689 38.0441C46.2787 37.7363 46.0446 37.3586 45.8714 36.9203C45.6982 36.4773 45.6093 35.9784 45.6093 35.4235C45.6093 34.8686 45.6982 34.3603 45.8667 33.908C46.0352 33.4603 46.274 33.0686 46.5736 32.7422C46.8732 32.4205 47.2243 32.1687 47.6316 31.9915C48.0341 31.8143 48.4695 31.7257 48.9283 31.7257C49.2747 31.7257 49.5836 31.7677 49.8645 31.8563C50.1407 31.9402 50.4075 32.0614 50.6603 32.2107L50.8616 31.8796H51.2549L51.297 34.3556H50.8944C50.8429 34.1178 50.7633 33.852 50.6603 33.5723C50.5527 33.2878 50.4309 33.05 50.2905 32.8542C50.136 32.6303 49.9488 32.4578 49.7334 32.3319C49.5181 32.206 49.27 32.1454 48.9891 32.1454C48.6755 32.1454 48.3759 32.2153 48.1044 32.3552C47.8282 32.4951 47.5941 32.7003 47.3928 32.9754C47.2056 33.2412 47.0558 33.5769 46.9481 33.9873C46.8404 34.3929 46.7842 34.8499 46.7842 35.3535C46.7842 35.7965 46.8404 36.2022 46.9575 36.5752C47.0698 36.9483 47.229 37.2747 47.4396 37.5544C47.6503 37.8296 47.8984 38.0487 48.1839 38.2073C48.4695 38.3611 48.7878 38.4404 49.1436 38.4404C49.4058 38.4404 49.6492 38.3984 49.8739 38.3145C50.0986 38.2306 50.2905 38.1233 50.4544 37.9834C50.6182 37.8389 50.7586 37.6757 50.885 37.4938C51.0067 37.312 51.1097 37.1115 51.1893 36.897L51.5591 37.0742C51.2736 37.7643 50.9038 38.2539 50.4403 38.5523C49.9722 38.8461 49.4198 38.9906 48.7785 38.9906Z" fill="#696D79"/>
<path d="M56.2403 36.3747C56.2403 36.1276 56.2169 35.8711 56.1654 35.596C56.1186 35.3255 56.0437 35.0924 55.9454 34.9059C55.8378 34.7054 55.702 34.5422 55.5288 34.4163C55.3603 34.295 55.1543 34.2344 54.9062 34.2344C54.6534 34.2344 54.4381 34.295 54.2602 34.4209C54.0776 34.5422 53.9325 34.7147 53.8201 34.9292C53.7171 35.1297 53.6422 35.3535 53.6001 35.61C53.558 35.8664 53.5346 36.1089 53.5346 36.3514C53.5346 36.6638 53.5627 36.9529 53.6142 37.2187C53.6656 37.4845 53.7452 37.7223 53.8576 37.9321C53.9699 38.142 54.1104 38.3052 54.2789 38.4218C54.4474 38.543 54.6581 38.599 54.9062 38.599C55.3181 38.599 55.6411 38.4031 55.8799 38.0114C56.1186 37.6151 56.2403 37.0695 56.2403 36.3747ZM57.2562 36.3654C57.2562 36.7058 57.2047 37.0369 57.097 37.3633C56.9893 37.6943 56.8302 37.9694 56.6336 38.1979C56.4042 38.4591 56.142 38.6549 55.8424 38.7855C55.5475 38.9114 55.2105 38.972 54.8406 38.972C54.5364 38.972 54.2414 38.916 53.9606 38.7995C53.6797 38.6829 53.4363 38.515 53.2162 38.2912C53.0056 38.0767 52.8371 37.8062 52.7107 37.4938C52.5843 37.1767 52.5187 36.8224 52.5187 36.4307C52.5187 35.6799 52.7388 35.0597 53.1788 34.5841C53.6235 34.1038 54.1993 33.8614 54.9155 33.8614C55.5943 33.8614 56.1561 34.0898 56.5961 34.5468C57.0362 34.9991 57.2562 35.6053 57.2562 36.3654Z" fill="#696D79"/>
<path d="M66.4268 38.8274H64.0674V38.5057C64.1423 38.4963 64.2172 38.4917 64.2968 38.4824C64.3717 38.4777 64.4419 38.4637 64.4981 38.4451C64.5917 38.4171 64.662 38.3658 64.7041 38.2912C64.7462 38.2166 64.7696 38.1233 64.7696 38.0067V35.512C64.7696 35.1716 64.69 34.9105 64.5356 34.724C64.3811 34.5421 64.1845 34.4489 63.9551 34.4489C63.7912 34.4489 63.6414 34.4768 63.501 34.5235C63.3606 34.5748 63.2295 34.6401 63.1125 34.7286C63.0188 34.8033 62.9393 34.8779 62.8737 34.9618C62.8082 35.0457 62.7614 35.1157 62.7286 35.1716V37.9554C62.7286 38.0673 62.7473 38.1606 62.7895 38.2352C62.8269 38.3098 62.8971 38.3658 62.9907 38.4031C63.0656 38.4357 63.1312 38.4544 63.1967 38.473C63.2529 38.487 63.3325 38.4963 63.4308 38.5057V38.8274H61.1229V38.5057C61.1978 38.4963 61.2727 38.4917 61.3429 38.4824C61.4132 38.4777 61.4787 38.4637 61.5349 38.4451C61.6285 38.4171 61.694 38.3658 61.7409 38.2912C61.783 38.2166 61.8064 38.1233 61.8064 38.0067V35.512C61.8064 35.1716 61.7268 34.9105 61.5723 34.724C61.4178 34.5421 61.2212 34.4489 60.9872 34.4489C60.828 34.4489 60.6782 34.4768 60.5331 34.5235C60.3926 34.5748 60.2616 34.6447 60.1445 34.7333C60.0509 34.8033 59.9713 34.8872 59.9058 34.9758C59.8403 35.069 59.7888 35.1343 59.756 35.181V37.9461C59.756 38.058 59.7794 38.1513 59.8262 38.2259C59.873 38.3005 59.9386 38.3565 60.0322 38.3938C60.1024 38.4264 60.1726 38.4544 60.2428 38.4684C60.3177 38.487 60.3973 38.4963 60.4863 38.5057V38.8274H58.1316V38.5057C58.2065 38.4963 58.2814 38.4917 58.361 38.4824C58.4406 38.4777 58.5155 38.4637 58.5716 38.4451C58.6653 38.4171 58.7308 38.3658 58.7776 38.2912C58.8197 38.2166 58.8432 38.1233 58.8432 38.0067V35.0084C58.8432 34.9012 58.8197 34.8079 58.7683 34.724C58.7214 34.6447 58.6559 34.5748 58.5716 34.5142C58.5108 34.4768 58.4312 34.4442 58.3423 34.4162C58.2486 34.3929 58.155 34.3789 58.0567 34.3743V34.0479L59.6764 33.9406L59.7466 34.0105V34.7007H59.7794C59.8637 34.6214 59.962 34.5235 60.079 34.4116C60.2007 34.2997 60.3084 34.2111 60.4114 34.1411C60.5237 34.0618 60.6688 33.9966 60.8374 33.9453C61.0106 33.894 61.1978 33.866 61.3991 33.866C61.7128 33.866 61.9843 33.9499 62.209 34.1178C62.4337 34.2857 62.5975 34.4908 62.6958 34.7286C62.8129 34.6167 62.9158 34.5142 63.0095 34.4256C63.0984 34.3416 63.2154 34.2484 63.3652 34.1504C63.487 34.0665 63.6321 33.9966 63.8006 33.9453C63.9691 33.894 64.1564 33.866 64.3624 33.866C64.7743 33.866 65.0973 34.0012 65.3361 34.267C65.5748 34.5375 65.6965 34.9478 65.6965 35.5027V37.9554C65.6965 38.0673 65.7152 38.1606 65.7527 38.2352C65.7901 38.3098 65.8604 38.3658 65.954 38.4031C66.0289 38.4357 66.1038 38.4544 66.1787 38.473C66.2489 38.487 66.3332 38.4963 66.4268 38.5057" fill="#696D79"/>
<path d="M70.7569 38.044C70.888 37.8389 70.9863 37.6057 71.0472 37.3399C71.1127 37.0695 71.1408 36.7757 71.1408 36.4446C71.1408 36.2022 71.1174 35.955 71.0612 35.7032C71.0097 35.4514 70.9301 35.2323 70.8178 35.0457C70.7054 34.8592 70.5603 34.7053 70.3824 34.5888C70.1999 34.4675 69.9845 34.4116 69.7317 34.4116C69.4883 34.4116 69.2823 34.4629 69.1138 34.5701C68.9406 34.6774 68.7955 34.8033 68.6691 34.9478V37.8016C68.7019 37.8902 68.7487 37.9834 68.8142 38.0767C68.8844 38.1746 68.9547 38.2539 69.0389 38.3238C69.1419 38.4031 69.2496 38.4684 69.3666 38.5197C69.4883 38.5709 69.6288 38.5989 69.802 38.5989C69.9845 38.5989 70.1624 38.5476 70.3309 38.4544C70.5041 38.3565 70.6446 38.2212 70.7569 38.044ZM71.5574 34.5748C71.754 34.8033 71.9038 35.0644 72.0068 35.3675C72.1145 35.6706 72.1707 36.0156 72.1707 36.4027C72.1707 36.785 72.1051 37.1348 71.9787 37.4472C71.8523 37.7643 71.6838 38.03 71.4732 38.2539C71.2531 38.4777 71.0097 38.6502 70.7382 38.7715C70.4714 38.8927 70.1858 38.9533 69.8862 38.9533C69.5913 38.9533 69.3526 38.9207 69.1653 38.8554C68.9781 38.7901 68.8283 38.7155 68.7112 38.6269H68.6691V40.0771C68.6691 40.1983 68.6925 40.2963 68.7393 40.3755C68.7861 40.4501 68.8563 40.5061 68.95 40.5434C69.0296 40.5714 69.1419 40.604 69.287 40.632C69.4321 40.66 69.5539 40.674 69.6475 40.6786V41.0004H66.9417V40.6786C67.04 40.6693 67.1383 40.6646 67.2366 40.6553C67.3303 40.6413 67.4145 40.6273 67.4894 40.604C67.5877 40.5714 67.6579 40.5154 67.6954 40.4315C67.7375 40.3522 67.7562 40.2543 67.7562 40.1424V35.0084C67.7562 34.9105 67.7328 34.8172 67.6813 34.724C67.6345 34.6307 67.569 34.5608 67.4894 34.5048C67.4332 34.4629 67.349 34.4349 67.246 34.4116C67.1383 34.3929 67.04 34.3789 66.9417 34.3696V34.0479L68.5895 33.9406L68.6597 34.0012V34.5421L68.7019 34.5515C68.8704 34.3556 69.081 34.1924 69.3338 34.0618C69.5866 33.9313 69.8347 33.866 70.0875 33.866C70.3871 33.866 70.6633 33.9313 70.9114 34.0572C71.1642 34.1831 71.3795 34.3556 71.5574 34.5748Z" fill="#696D79"/>
<path d="M76.0374 36.1555C75.7612 36.2348 75.5178 36.3141 75.3071 36.3934C75.0965 36.4726 74.9046 36.5706 74.722 36.6871C74.5581 36.799 74.4271 36.9296 74.3334 37.0835C74.2398 37.2374 74.193 37.4146 74.193 37.6244C74.193 37.8995 74.2632 38.0953 74.4037 38.2259C74.5488 38.3518 74.7314 38.4171 74.9467 38.4171C75.1808 38.4171 75.3867 38.3565 75.5646 38.2446C75.7378 38.1327 75.8876 37.9974 76.0093 37.8482L76.0374 36.1555ZM77.7554 38.7388C77.601 38.7948 77.4652 38.8368 77.3482 38.8741C77.2311 38.9067 77.1001 38.9254 76.955 38.9254C76.6975 38.9254 76.4962 38.8647 76.3417 38.7435C76.1919 38.6269 76.0936 38.4544 76.0515 38.2259H76.0187C75.808 38.4591 75.5787 38.6409 75.3352 38.7622C75.0918 38.8881 74.7969 38.9487 74.4505 38.9487C74.09 38.9487 73.7904 38.8368 73.5564 38.6176C73.3223 38.3938 73.2053 38.1047 73.2053 37.7456C73.2053 37.5591 73.2287 37.3912 73.2848 37.2467C73.3363 37.0975 73.4159 36.9669 73.5189 36.8503C73.5985 36.7524 73.7108 36.6638 73.8419 36.5845C73.9777 36.5099 74.1041 36.4493 74.2211 36.4027C74.3709 36.3467 74.6658 36.2441 75.1199 36.0949C75.5693 35.9457 75.8736 35.8291 76.0281 35.7405V35.2556C76.0281 35.2136 76.0187 35.1344 76.0047 35.0131C75.9859 34.8919 75.9438 34.78 75.8876 34.6727C75.8221 34.5515 75.7285 34.4442 75.6114 34.3556C75.4897 34.2624 75.3212 34.2204 75.1012 34.2204C74.9514 34.2204 74.8109 34.2437 74.6799 34.295C74.5488 34.3463 74.4598 34.3976 74.4083 34.4536C74.4083 34.5188 74.4224 34.6168 74.4552 34.7427C74.4879 34.8686 74.502 34.9898 74.502 35.097C74.502 35.209 74.4505 35.3162 74.3475 35.4095C74.2445 35.5027 74.0994 35.5494 73.9168 35.5494C73.753 35.5494 73.6313 35.4934 73.5564 35.3768C73.4768 35.2603 73.4393 35.1344 73.4393 34.9898C73.4393 34.8359 73.4908 34.696 73.5985 34.5561C73.7062 34.4209 73.8419 34.2997 74.0151 34.1924C74.1649 34.0992 74.3428 34.0199 74.5488 33.9593C74.7594 33.894 74.9654 33.8614 75.162 33.8614C75.4382 33.8614 75.6816 33.88 75.8829 33.9173C76.0889 33.9546 76.2762 34.0386 76.4447 34.1598C76.6085 34.281 76.7349 34.4442 76.8239 34.6541C76.9128 34.8592 76.955 35.125 76.955 35.4514C76.955 35.9224 76.9503 36.3327 76.9409 36.6918C76.9315 37.0555 76.9222 37.4472 76.9222 37.8762C76.9222 38.0021 76.9456 38.1047 76.9924 38.1793C77.0345 38.2539 77.1048 38.3192 77.1937 38.3705C77.2452 38.4031 77.3201 38.4171 77.4278 38.4218C77.5354 38.4218 77.6431 38.4264 77.7554 38.4264" fill="#696D79"/>
<path d="M84.0658 38.8274H81.6924V38.5057C81.7719 38.4963 81.8515 38.4917 81.9451 38.4824C82.0341 38.4777 82.109 38.4637 82.1652 38.4451C82.2588 38.4171 82.329 38.3658 82.3711 38.2912C82.418 38.2166 82.4367 38.1233 82.4367 38.0067V35.5214C82.4367 35.181 82.3571 34.9152 82.1933 34.7286C82.0341 34.5421 81.8328 34.4489 81.5987 34.4489C81.4255 34.4489 81.2664 34.4768 81.1212 34.5281C80.9761 34.5841 80.8497 34.6494 80.7374 34.7286C80.6297 34.8033 80.5408 34.8825 80.4799 34.9711C80.4144 35.0597 80.3676 35.125 80.3395 35.181V37.9554C80.3395 38.0673 80.3629 38.1559 80.405 38.2306C80.4518 38.3005 80.522 38.3565 80.6157 38.3938C80.6859 38.4264 80.7561 38.4544 80.8404 38.4684C80.9153 38.487 80.9995 38.4963 81.0838 38.5057V38.8274H78.7104V38.5057C78.79 38.4963 78.8649 38.4917 78.9445 38.4824C79.024 38.4777 79.0943 38.4637 79.1551 38.4451C79.2441 38.4171 79.3143 38.3658 79.3564 38.2912C79.4032 38.2166 79.422 38.1233 79.422 38.0067V35.0271C79.422 34.9152 79.3985 34.8126 79.3517 34.724C79.3049 34.6261 79.2394 34.5515 79.1551 34.4955C79.0943 34.4535 79.0194 34.4256 78.9304 34.4069C78.8462 34.3929 78.7525 34.3789 78.6589 34.3743V34.0479L80.2693 33.9406L80.3395 34.0105V34.6913H80.3629C80.4425 34.6121 80.5408 34.5188 80.6578 34.4069C80.7748 34.2997 80.8872 34.2111 80.9902 34.1411C81.1119 34.0618 81.257 33.9966 81.4255 33.9453C81.5894 33.894 81.7813 33.866 81.992 33.866C82.4554 33.866 82.7971 34.0106 83.0265 34.2997C83.2465 34.5888 83.3636 34.9758 83.3636 35.4514V37.9648C83.3636 38.0767 83.3823 38.1699 83.4197 38.2399C83.4619 38.3098 83.5274 38.3658 83.621 38.4031C83.7006 38.4357 83.7662 38.459 83.827 38.473C83.8832 38.487 83.9628 38.4963 84.0658 38.5057" fill="#696D79"/>
<path d="M84.4964 40.4035C84.4964 40.2403 84.5433 40.1051 84.6322 40.0025C84.7211 39.8999 84.8335 39.8486 84.9692 39.8486C85.0722 39.8486 85.1659 39.872 85.2408 39.9093C85.3157 39.9466 85.3812 39.9979 85.4421 40.0585C85.4889 40.1051 85.545 40.175 85.5965 40.259C85.6527 40.3429 85.6995 40.4129 85.7323 40.4688C85.8961 40.3802 86.0928 40.1471 86.3175 39.7787C86.5468 39.4057 86.7107 39.0839 86.8137 38.7995C86.5 38.0301 86.2191 37.3353 85.9664 36.7244C85.7136 36.1136 85.4514 35.4841 85.1752 34.8313C85.1144 34.682 85.0067 34.5655 84.8616 34.4815C84.7165 34.3976 84.5667 34.3463 84.4215 34.323V34.0013H86.6311V34.3416C86.5328 34.3463 86.4158 34.365 86.28 34.4023C86.1396 34.4396 86.0693 34.4862 86.0693 34.5328C86.0693 34.5515 86.0787 34.5841 86.0928 34.6308C86.1068 34.6774 86.1255 34.724 86.1442 34.7706C86.2706 35.0971 86.4579 35.5634 86.7154 36.1695C86.9681 36.7757 87.1648 37.2653 87.3052 37.6291C87.455 37.2793 87.6095 36.9203 87.7686 36.5472C87.9278 36.1742 88.1057 35.7312 88.3023 35.223C88.3257 35.1623 88.3585 35.0737 88.4006 34.9665C88.4427 34.8592 88.4662 34.7613 88.4662 34.6867C88.4662 34.5981 88.3913 34.5188 88.2415 34.4489C88.0916 34.3743 87.9465 34.3277 87.8155 34.3137V34.0013H89.6131V34.3043C89.5148 34.3183 89.3884 34.3743 89.2245 34.4722C89.0654 34.5701 88.9483 34.7054 88.8641 34.8826C88.4755 35.7825 88.1291 36.6032 87.8248 37.3446C87.5205 38.086 87.2958 38.6316 87.1367 38.9767C86.9307 39.4336 86.7481 39.7927 86.5843 40.0491C86.4204 40.3056 86.2613 40.5061 86.1115 40.6507C85.957 40.7906 85.8212 40.8792 85.6995 40.9304C85.5731 40.9771 85.4514 41.0004 85.3203 41.0004C85.0629 41.0004 84.8616 40.9398 84.7165 40.8185C84.5713 40.6973 84.4964 40.5574 84.4964 40.4035Z" fill="#696D79"/>
</g>
<defs>
<clipPath id="clip0_4_497">
<rect width="144" height="35" fill="white" transform="translate(8 6)"/>
</clipPath>
</defs>
</svg>
