<svg width="160" height="48" viewBox="0 0 160 48" fill="none" xmlns="http://www.w3.org/2000/svg">
<path fill-rule="evenodd" clip-rule="evenodd" d="M25.343 23.1066C25.343 25.102 24.6574 26.7766 23.1067 28.6539V17.6118C24.4483 18.8314 25.343 20.9846 25.343 23.1066ZM27.2817 23.0129C27.2817 20.2368 25.7596 17.1619 23.4634 15.4037C22.7786 14.8635 22.3916 14.6254 21.1697 14V34.8358H23.1067V31.2553C26.2394 28.0605 27.2817 26.0288 27.2817 23.0129" fill="#98002E"/>
<path fill-rule="evenodd" clip-rule="evenodd" d="M34.5383 23.1066C34.5383 25.102 33.8502 26.7766 32.2986 28.6538V17.6117C33.6436 18.8314 34.5383 20.9846 34.5383 23.1066ZM36.9231 34.8982V32.956C35.2829 32.5956 34.1479 31.7034 33.3442 30.1208C35.8201 27.3717 36.4787 25.8498 36.4787 23.0458C36.4787 20.2368 34.9549 17.1939 32.6586 15.4036C31.9722 14.8634 31.5852 14.6254 30.3616 13.9999V34.8358H32.2986V31.7912C33.3442 33.7013 34.8646 34.7159 36.9231 34.8982" fill="#98002E"/>
<path fill-rule="evenodd" clip-rule="evenodd" d="M44.5983 34.8355V32.8924H41.3787V30.5966H44.5983V28.6544H41.3787V16.8636H44.5983V14.9247H39.4383V34.8355H44.5983Z" fill="#98002E"/>
<path fill-rule="evenodd" clip-rule="evenodd" d="M53.782 16.8636V14.9247H47.191V16.8636H49.5193V34.8355H51.4563V16.8636H53.782Z" fill="#98002E"/>
<path fill-rule="evenodd" clip-rule="evenodd" d="M65.8875 29.0721H63.8038L64.8469 23.5308L65.8875 29.0721ZM68.7142 34.7915L64.8469 14.0291L60.9763 34.7915H62.7615L63.4463 31.0084H66.2451L66.9281 34.7915H68.7142V34.7915Z" fill="#98002E"/>
<path fill-rule="evenodd" clip-rule="evenodd" d="M85.9696 34.7917V14.3265L82.0121 19.8973L78.0226 14.3265V34.7917H79.9579V21.0883L82.0121 23.8585L84.036 21.0883V34.7917H85.9696Z" fill="#98002E"/>
<path fill-rule="evenodd" clip-rule="evenodd" d="M94.6477 29.0721H92.564L93.6071 23.5308L94.6477 29.0721ZM97.476 34.7915L93.6071 14.0291L89.7382 34.7915H91.5234L92.2081 31.0084H95.0052L95.69 34.7915H97.476Z" fill="#98002E"/>
<path fill-rule="evenodd" clip-rule="evenodd" d="M107.802 34.7917V14.9224H105.869V21.2369L101.255 14.535V34.7917H103.191V20.9988L105.869 24.901V34.7917H107.802Z" fill="#98002E"/>
<path fill-rule="evenodd" clip-rule="evenodd" d="M118.874 31.4262V28.5345H115.184V30.4716H116.938V31.3359C116.938 32.4678 116.464 33.0637 115.542 33.0637C114.618 33.0637 114.142 32.4678 114.142 31.3359V18.4065C114.142 17.2746 114.618 16.6787 115.542 16.6787C116.464 16.6787 116.938 17.2746 116.938 18.4065V19.5097H118.874V18.3179C118.874 16.233 117.475 14.7432 115.542 14.7432C113.606 14.7432 112.207 16.233 112.207 18.3179V31.4262C112.207 33.4824 113.606 35 115.542 35C117.475 35 118.874 33.4824 118.874 31.4262Z" fill="#98002E"/>
<path fill-rule="evenodd" clip-rule="evenodd" d="M128.217 34.7917V32.8563H125.002V30.5613H128.217V28.625H125.002V16.8587H128.217V14.9224H123.069V34.7917H128.217Z" fill="#98002E"/>
<path fill-rule="evenodd" clip-rule="evenodd" d="M136.969 23.0993C136.969 25.0719 136.292 26.7212 134.764 28.5773V17.6787C136.088 18.8874 136.969 21.0077 136.969 23.0993ZM139.325 34.7339V32.8188C137.707 32.4651 136.587 31.5814 135.793 30.0207C138.236 27.3104 138.884 25.8096 138.884 23.0402C138.884 20.2708 137.382 17.2676 135.117 15.4993C134.439 14.9701 134.057 14.7354 132.85 14.115V34.6749H134.764V31.67C135.793 33.5556 137.294 34.5575 139.325 34.7339" fill="#98002E"/>
<path fill-rule="evenodd" clip-rule="evenodd" d="M150.969 18.5855L152.586 23.3325H157L153.468 25.82L154.843 30.14L150.969 27.6204L147.124 30.107L148.498 25.82L144.902 23.3325H149.35L150.969 18.5855Z" fill="#98002E"/>
<path fill-rule="evenodd" clip-rule="evenodd" d="M9.06564 18.7165L10.683 23.4619H15.095L11.5659 25.9511L12.9379 30.2702L9.06564 27.7506L5.22117 30.2372L6.59486 25.9511L3 23.4619H7.44488L9.06564 18.7165Z" fill="#98002E"/>
</svg>
