<svg width="160" height="48" viewBox="0 0 160 48" fill="none" xmlns="http://www.w3.org/2000/svg">
<path d="M112 20.6106H89.0847V14.7228H112V20.6106Z" fill="#E669A2"/>
<path d="M109.024 20.6106H89.0847V5.8847H109.024V20.6106Z" fill="#F3BE26"/>
<path d="M100.786 20.6106H89.0847V0H100.786V20.6106Z" fill="#EE9C34"/>
<path d="M103.088 20.6106H89.0847V2.29983H103.088V20.6106V20.6106Z" fill="#F3BC87"/>
<path d="M89.0814 2.3033V20.6087H100.785V2.3033H89.0814V2.3033Z" fill="#E3721C"/>
<path d="M77.351 20.6106H89.0847V23.5548H77.351V20.6106Z" fill="#AD1B02"/>
<path d="M89.0814 5.88146V20.6087H103.095V5.88146H89.0814V5.88146Z" fill="#E88D14"/>
<path d="M89.0814 5.88146V20.6087H100.785V5.88146H89.0814V5.88146Z" fill="#D85604"/>
<path d="M96.402 20.6106H89.0847V11.7719H96.402V20.6106Z" fill="#C14303"/>
<path d="M89.0814 14.727V20.6087H109.03V14.727H89.0814Z" fill="#DB4E18"/>
<path d="M89.0814 14.727V20.6087H103.095V14.727H89.0814Z" fill="#D1390D"/>
<path d="M89.0814 14.727V20.6087H100.785V14.727H89.0814Z" fill="#C22303"/>
<path d="M89.0814 14.727V20.6087H96.4093V14.727H89.0814Z" fill="#AD1B02"/>
<path d="M91.6359 31.6997C89.6394 32.056 88.5747 33.5702 88.5747 36.1979C88.5747 38.8701 89.9944 40.6515 92.0796 40.6515C93.1 40.6515 93.9873 40.2952 95.8507 39.36C95.8507 41.5422 95.8507 41.5422 95.8507 41.5422C93.588 42.6111 92.2571 42.8783 90.4824 42.8783C88.4859 42.8783 87.0662 42.3884 85.9571 41.1859C84.8035 40.028 84.1824 38.5138 84.1824 36.7768C84.1824 32.9913 87.0218 30.3636 91.1479 30.3636C93.8542 30.3636 95.762 31.6552 95.762 33.4812C95.762 34.6836 94.8747 35.5298 93.588 35.5298C92.9225 35.5298 92.3901 35.3071 91.6359 34.9063" fill="black"/>
<path d="M81.6535 36.7768C83.4725 34.5055 84.138 33.5702 84.138 32.4568C84.138 31.3434 83.2507 30.3636 82.0085 30.3636C81.2986 30.3636 80.6331 30.7644 80.3225 31.1207C80.3225 35.797 80.3225 35.797 80.3225 35.797C77.35 39.8053 77.35 39.8053 77.35 39.8053C77.35 30.7199 77.35 30.7199 77.35 30.7199C74.5106 30.7199 74.5106 30.7199 74.5106 30.7199C69.8077 38.5138 69.8077 38.5138 69.8077 38.5138C69.8077 30.7199 69.8077 30.7199 69.8077 30.7199C68.2106 30.7199 68.2106 30.7199 68.2106 30.7199C63.907 31.6997 63.907 31.6997 63.907 31.6997C63.907 32.8131 63.907 32.8131 63.907 32.8131C66.2585 33.0358 66.2585 33.0358 66.2585 33.0358C66.2585 42.7002 66.2585 42.7002 66.2585 42.7002C69.231 42.7002 69.231 42.7002 69.231 42.7002C73.7563 35.2181 73.7563 35.2181 73.7563 35.2181C73.7563 42.7002 73.7563 42.7002 73.7563 42.7002C77.0838 42.7002 77.0838 42.7002 77.0838 42.7002" fill="black"/>
<path d="M54.9007 41.1859C55.2556 41.1859 55.3444 41.1859 55.5662 41.1859C57.962 41.1859 59.293 39.7162 59.293 36.7769C59.293 34.3274 58.2282 32.9913 56.2317 32.9913C55.9655 32.9913 55.5662 33.0358 54.9007 33.1694V41.1859ZM54.9007 46.4412C56.8528 46.8866 56.8528 46.8866 56.8528 46.8866C56.8528 48 56.8528 48 56.8528 48C49.1775 48 49.1775 48 49.1775 48C49.1775 46.8866 49.1775 46.8866 49.1775 46.8866C50.9521 46.4412 50.9521 46.4412 50.9521 46.4412C50.9521 32.9913 50.9521 32.9913 50.9521 32.9913C49 32.9913 49 32.9913 49 32.9913C49 31.8779 49 31.8779 49 31.8779C53.6585 30.4527 53.6585 30.4527 53.6585 30.4527C54.9007 30.4527 54.9007 30.4527 54.9007 30.4527C54.9007 32.056 54.9007 32.056 54.9007 32.056C57.0746 30.7199 57.8289 30.4972 58.9824 30.4972C61.5556 30.4972 63.5077 32.9022 63.5077 36.2424C63.5077 40.0725 60.8901 42.7002 56.8972 42.7002C56.4535 42.7002 55.6993 42.6556 54.9007 42.6111" fill="black"/>
</svg>
