<svg width="160" height="48" viewBox="0 0 160 48" fill="none" xmlns="http://www.w3.org/2000/svg">
<g clip-path="url(#clip0_3_349)">
<path d="M79.9448 47.0982C80.046 47.0982 80.1564 47.0982 80.2577 47.0982C80.3589 47.0982 80.4693 47.089 80.5705 47.089C82.8528 47.0337 85.0889 46.6472 87.2515 45.9295C91.6043 44.4755 95.2485 41.9816 98.1288 38.411C101.644 34.0491 103.374 29.043 103.347 23.4387C103.337 21.6258 103.126 19.8313 102.702 18.0644C101.709 13.9509 99.7393 10.362 96.7945 7.32516C94.6319 5.08897 92.1104 3.35891 89.2669 2.08897C88.3282 1.66565 87.3804 1.26995 86.3497 1.12271C85.862 1.05829 85.3742 1.0767 84.9233 1.30676C83.865 1.86811 83.8006 3.46013 84.8221 4.15952C85.1718 4.39878 85.5583 4.60124 85.954 4.76688C87.2147 5.31903 88.5031 5.81596 89.7178 6.47854C93.5368 8.5675 96.4724 11.5123 98.4325 15.4049C100.365 19.2515 100.982 23.3282 100.383 27.5798C100.071 29.816 99.408 31.9417 98.3773 33.9479C96.2423 38.1074 93.0675 41.2454 88.8528 43.2883C85.1074 45.1012 81.1503 45.681 77.0368 45.1104C74.8006 44.8068 72.6656 44.135 70.6503 43.1043C66.638 41.0522 63.6012 38.0153 61.5399 34.0123C59.9294 30.8834 59.2024 27.543 59.2945 24.0276C59.3313 22.7301 59.4785 21.4601 59.7546 20.1994C60.8681 15.2669 63.454 11.273 67.4662 8.2086C69.2055 6.87424 71.1564 5.90799 73.181 5.08897C73.8159 4.8313 74.4509 4.52762 75.0399 4.16872C75.6472 3.80062 75.8957 3.03682 75.7301 2.33743C75.5552 1.60124 74.9294 1.12271 74.1196 1.0951C73.365 1.0675 72.6564 1.26995 71.957 1.52762C68.3865 2.87118 65.2853 4.91412 62.6994 7.72087C59.2393 11.4663 57.2423 15.9018 56.6626 20.954C56.3865 23.3558 56.4601 25.7577 56.9386 28.1319C58.0245 33.5614 60.6748 38.0798 64.908 41.6319C69.2515 45.2669 74.2945 47.043 79.9448 47.0982ZM61.2086 24.1288C61.2086 24.2669 61.1902 24.4141 61.2178 24.543C61.2362 24.6258 61.3098 24.7546 61.3834 24.7638C61.457 24.7822 61.5675 24.6994 61.6411 24.635C61.6779 24.5982 61.6871 24.5153 61.7147 24.4509C61.8067 24.1196 61.8988 23.7791 62 23.4479C63.0859 19.7577 65.0736 16.6565 68.1104 14.2546C69.5276 13.1319 71.1012 12.2577 72.7485 11.5031C73.1994 11.3006 73.5491 10.9969 73.7883 10.5644C74.3681 9.51535 73.8343 8.03375 72.3159 8.02455C71.7822 8.02455 71.2945 8.2086 70.8343 8.46627C67.3098 10.4356 64.7147 13.2699 62.9662 16.8865C61.862 19.1779 61.2822 21.589 61.2086 24.1288ZM98.6626 24.1012C98.635 22.9693 98.4969 21.8558 98.2485 20.7515C97.5675 17.7699 96.2239 15.1196 94.2546 12.7822C92.7914 11.043 91.0705 9.58897 89.0644 8.49387C88.5583 8.2178 88.0337 8.02455 87.4448 8.04296C86.5705 8.07056 85.8896 8.72394 85.862 9.59817C85.8343 10.5 86.3037 11.0982 87.0767 11.4939C87.5552 11.7331 88.0429 11.954 88.5123 12.2025C90.2331 13.0859 91.8159 14.181 93.2055 15.543C95.4325 17.7331 96.9325 20.3466 97.8251 23.319C97.954 23.7331 98.0644 24.1565 98.184 24.5706C98.2208 24.7178 98.3221 24.8098 98.4693 24.7914C98.6258 24.773 98.6534 24.6442 98.6534 24.5061C98.6626 24.3681 98.6626 24.2301 98.6626 24.1012ZM72.8221 26.0522C72.8129 27.5614 73.319 28.5736 74.2669 29.2086C75.0215 29.7147 75.8681 29.8712 76.7607 29.816C77.635 29.7607 78.4172 29.4755 79.0429 28.8497C79.8804 28.0307 80.1472 27 80.0552 25.8589C79.9816 25.0675 79.7055 24.3589 79.1626 23.7699C78.0215 22.5276 75.6932 22.408 74.3497 23.3098C73.2822 24.0276 72.8497 25.0675 72.8221 26.0522ZM81.6288 29.6687C82.3742 29.6687 83.1012 29.6779 83.8282 29.6687C84.1687 29.6595 84.5184 29.6411 84.8589 29.5951C86.8834 29.2914 88.1074 27.5245 87.7024 25.5184C87.3896 23.9632 86.2393 22.9785 84.6012 22.9049C83.6442 22.8681 82.6871 22.8865 81.7301 22.8865C81.7024 22.8865 81.6656 22.8957 81.6288 22.9049V29.6687V29.6687ZM66.638 29.6595C66.6748 29.6687 66.7116 29.6687 66.7393 29.6687C67.5491 29.6687 68.3497 29.6779 69.1595 29.6687C69.6656 29.6595 70.1534 29.5859 70.6227 29.365C71.7362 28.8405 72.0031 27.3589 71.1196 26.5307C70.8528 26.2822 70.5215 26.1718 70.135 26.089C70.2454 26.043 70.319 26.0153 70.3834 25.9785C71.3589 25.546 71.6442 24.2853 70.9356 23.5123C70.5491 23.089 70.0429 22.9141 69.5 22.8957C68.5797 22.8681 67.6687 22.8773 66.7485 22.8773C66.7116 22.8773 66.6748 22.8957 66.638 22.9049V29.6595V29.6595ZM83.4785 38.0245C83.5613 38.0153 83.635 38.0153 83.7178 38.0061C85.3834 37.9233 86.7178 36.8282 86.9018 35.1166C87.0123 34.0583 86.8006 33.0736 86.0368 32.2822C85.3926 31.6012 84.5736 31.3252 83.6534 31.2976C82.5215 31.2607 81.5368 31.5828 80.8098 32.4939C80.3221 33.1012 80.1104 33.8006 80.092 34.5736C80.0644 35.6227 80.3681 36.543 81.1779 37.2423C81.8497 37.7945 82.6319 38.0061 83.4785 38.0245ZM73.6227 31.454V37.8497H74.7546V35.0522H77.7362V37.8497H78.8681V31.454H77.727V33.9755H74.7546V31.454H73.6227ZM88.2546 31.4172V37.8589H89.3865V35.3834C89.6258 35.3834 89.8466 35.3926 90.0767 35.3834C90.4724 35.3558 90.8681 35.3282 91.2546 35.2546C91.7975 35.1534 92.2761 34.9141 92.5337 34.3896C92.819 33.8098 92.8558 33.2025 92.6166 32.6043C92.3405 31.9233 91.7607 31.5828 91.0797 31.5184C90.1411 31.4264 89.2024 31.4448 88.2546 31.4172ZM68.1196 36.3957C68.1196 36.7546 68.1104 37.0859 68.1288 37.408C68.1288 37.4816 68.1932 37.592 68.2577 37.6196C69.1871 38.0706 70.1534 38.1718 71.1196 37.7577C71.8006 37.4632 72.2055 36.9295 72.2515 36.1657C72.2975 35.3742 71.9386 34.8037 71.2393 34.454C70.9724 34.3252 70.6963 34.2239 70.4202 34.1043C70.1442 33.9847 69.8589 33.8834 69.5828 33.7546C69.3343 33.6258 69.1595 33.4325 69.1779 33.1288C69.1963 32.8252 69.3896 32.6411 69.6472 32.5215C69.9417 32.3834 70.2546 32.3466 70.5767 32.3926C70.9816 32.4479 71.3865 32.5491 71.7914 32.6227V31.5828C71.138 31.3344 70.4755 31.2331 69.7945 31.362C69.2607 31.4632 68.8006 31.6841 68.4325 32.1074C67.8251 32.816 67.8251 34.1319 68.911 34.6749C69.1871 34.8129 69.4816 34.9141 69.7669 35.0337C70.0982 35.1718 70.4478 35.2914 70.7515 35.4755C71.2116 35.7607 71.2301 36.3589 70.7975 36.6994C70.6595 36.8098 70.4755 36.8926 70.3006 36.9295C69.5828 37.0767 68.9294 36.8834 68.3129 36.5153C68.2577 36.4785 68.2024 36.4417 68.1196 36.3957ZM78.4172 18.6166H81.1135V21.1472H82.1166V15.4325H81.1043V17.6963H78.408V15.4233C78.1319 15.4233 77.8834 15.4325 77.635 15.4141C77.4509 15.4049 77.4049 15.4693 77.4049 15.6442C77.4141 17.4111 77.4049 19.1687 77.4141 20.9356C77.4141 21.0092 77.4233 21.0736 77.4233 21.1472H78.4172V18.6166V18.6166ZM84.638 18.6442H87.2423C87.2423 18.4049 87.2331 18.1749 87.2423 17.954C87.2515 17.8068 87.1963 17.7607 87.0491 17.7699C86.3221 17.7791 85.5951 17.7699 84.8681 17.7699H84.6472V16.3436H87.3804V15.4325H83.6166V21.1472H87.5368V20.2086H84.638V18.6442V18.6442ZM92 29.6595V29.4387C92 28.6104 91.9908 27.773 92 26.9448C92 26.8252 92.046 26.6871 92.1104 26.5859C92.865 25.4172 93.6288 24.2577 94.3926 23.089C94.4294 23.0338 94.4663 22.9785 94.5123 22.8865C94.0982 22.8865 93.7209 22.8957 93.3436 22.8865C93.1963 22.8773 93.1043 22.9233 93.0307 23.0614C92.5521 23.862 92.0644 24.6442 91.5767 25.4356C91.5399 25.5 91.4939 25.5552 91.4478 25.6288C91.3926 25.546 91.3558 25.5 91.319 25.4356C90.8589 24.6994 90.3712 23.9724 89.9294 23.227C89.773 22.9693 89.6074 22.8589 89.3037 22.8865C88.9724 22.9141 88.6411 22.8957 88.273 22.8957C88.3282 22.9877 88.3558 23.043 88.3926 23.0982C89.1564 24.2669 89.9294 25.4356 90.684 26.6135C90.7485 26.7147 90.7853 26.8528 90.7853 26.9816C90.7945 27.8006 90.7945 28.6196 90.7945 29.4387V29.6779H92V29.6595ZM74.7178 16.3436H76.4755V15.4233H71.9202V16.362H73.6963V21.1472H74.7086V16.3436H74.7178ZM102.758 44.6043C102.758 43.2607 101.672 42.1749 100.328 42.1749C98.9755 42.1657 97.8896 43.2607 97.8804 44.6135C97.8712 45.9571 98.9755 47.0522 100.319 47.0522C101.672 47.043 102.758 45.9571 102.758 44.6043Z" fill="white"/>
<path d="M79.9448 47.0982C74.2945 47.0429 69.2515 45.2669 64.9172 41.6319C60.6748 38.0798 58.0245 33.5614 56.9386 28.1319C56.4601 25.7577 56.3865 23.3558 56.6626 20.954C57.2423 15.8926 59.2393 11.4663 62.6994 7.72086C65.2853 4.91411 68.3957 2.87117 71.957 1.52761C72.6472 1.26074 73.365 1.06748 74.1104 1.09509C74.9202 1.1227 75.546 1.60123 75.7208 2.33742C75.8865 3.02761 75.638 3.79141 75.0307 4.16871C74.4417 4.52761 73.8159 4.83129 73.1718 5.08896C71.1472 5.91718 69.2055 6.87423 67.457 8.20859C63.4448 11.273 60.8589 15.2669 59.7362 20.1994C59.4509 21.4509 59.3129 22.7301 59.2761 24.0276C59.184 27.5521 59.911 30.8834 61.5215 34.0123C63.5736 38.0153 66.6196 41.0521 70.6227 43.1043C72.638 44.135 74.773 44.8068 77.0092 45.1104C81.1227 45.6718 85.0797 45.092 88.8251 43.2883C93.0399 41.2454 96.2147 38.1166 98.3497 33.9479C99.3804 31.9417 100.043 29.816 100.356 27.5798C100.954 23.319 100.328 19.2515 98.4049 15.4049C96.454 11.5123 93.5092 8.55828 89.6902 6.47853C88.4754 5.81595 87.1871 5.31902 85.9264 4.76687C85.5307 4.59202 85.1442 4.39877 84.7945 4.15951C83.773 3.45092 83.8374 1.8589 84.8957 1.30675C85.3466 1.06748 85.8343 1.04908 86.3221 1.1227C87.3528 1.26074 88.3006 1.66564 89.2485 2.07975C92.0828 3.34969 94.6135 5.07976 96.7761 7.32515C99.7208 10.3712 101.69 13.9509 102.684 18.0644C103.107 19.8313 103.319 21.6166 103.328 23.4386C103.356 29.0429 101.626 34.0491 98.1104 38.411C95.23 41.9816 91.5859 44.4755 87.2331 45.9294C85.0613 46.6472 82.8343 47.0337 80.5521 47.089C80.4509 47.089 80.3405 47.0982 80.2393 47.1074C80.1564 47.0982 80.046 47.0982 79.9448 47.0982Z" fill="black"/>
<path d="M61.2086 24.1289C61.273 21.5982 61.862 19.1779 62.9571 16.8957C64.7055 13.2792 67.3098 10.4448 70.8252 8.47547C71.2853 8.2178 71.773 8.03375 72.3067 8.03375C73.8252 8.04295 74.3589 9.52455 73.7791 10.5736C73.5399 11.0061 73.181 11.3098 72.7393 11.5123C71.1012 12.2669 69.5276 13.1411 68.1012 14.2638C65.0644 16.6657 63.0767 19.7577 61.9908 23.4479C61.8896 23.7884 61.7975 24.1197 61.7055 24.4601C61.6871 24.5246 61.6779 24.5982 61.6319 24.6442C61.5583 24.7086 61.4479 24.7914 61.3742 24.773C61.3006 24.7546 61.227 24.635 61.2086 24.5522C61.1902 24.4141 61.2086 24.2669 61.2086 24.1289Z" fill="black"/>
<path d="M98.6626 24.1012V24.4969C98.6626 24.6258 98.6258 24.7638 98.4785 24.7822C98.3313 24.8006 98.2301 24.7086 98.1932 24.5613C98.0736 24.1472 97.954 23.7239 97.8343 23.3098C96.9325 20.3374 95.4325 17.7239 93.2055 15.5429C91.8159 14.181 90.2423 13.0951 88.5215 12.2024C88.0429 11.9632 87.5552 11.7331 87.0859 11.4939C86.3129 11.0982 85.8435 10.5 85.8711 9.59815C85.8988 8.72392 86.5797 8.07055 87.454 8.04294C88.0429 8.02454 88.5675 8.22699 89.0736 8.49386C91.0797 9.58895 92.8006 11.0429 94.2638 12.7822C96.2331 15.1196 97.5767 17.7699 98.2577 20.7515C98.4969 21.8558 98.6258 22.9693 98.6626 24.1012Z" fill="black"/>
<path d="M72.8221 26.0521C72.8497 25.0675 73.2822 24.0276 74.3405 23.319C75.684 22.408 78.0123 22.5368 79.1534 23.7791C79.7055 24.3681 79.9816 25.0767 80.046 25.8681C80.1472 27.0092 79.8804 28.0399 79.0337 28.8589C78.408 29.4755 77.6166 29.7607 76.7515 29.8252C75.8589 29.8804 75.0123 29.7239 74.2577 29.2178C73.319 28.5736 72.8129 27.5521 72.8221 26.0521ZM74.0644 26.2362C74.092 26.4294 74.092 26.6319 74.1288 26.8252C74.5706 28.9877 76.8252 29.1442 77.8742 28.316C78.5276 27.8006 78.7945 27.092 78.8129 26.2822C78.8589 24.6626 77.5982 23.5491 75.9969 23.8067C74.8558 23.9908 74.0736 24.9755 74.0644 26.2362Z" fill="black"/>
<path d="M81.6288 29.6687V22.8957C81.6657 22.8865 81.7025 22.8773 81.7301 22.8773C82.6871 22.8773 83.6442 22.8589 84.6012 22.8957C86.2301 22.9601 87.3804 23.954 87.6933 25.5092C88.0982 27.5153 86.865 29.2822 84.8497 29.5859C84.5092 29.6411 84.1687 29.6595 83.8282 29.6687C83.1012 29.6779 82.3742 29.6687 81.6288 29.6687ZM82.8252 23.8896V28.5828C83.4785 28.7209 84.7117 28.592 85.2822 28.3252C85.908 28.0307 86.3405 27.5706 86.4785 26.8712C86.5337 26.5767 86.5522 26.2822 86.5337 25.9877C86.4601 24.9111 85.8252 24.1841 84.7669 24.0092C84.1319 23.908 83.4877 23.9264 82.8252 23.8896Z" fill="black"/>
<path d="M66.638 29.6595V22.9141C66.6748 22.9049 66.7117 22.8865 66.7485 22.8865C67.6687 22.8865 68.5797 22.8773 69.5 22.9049C70.0521 22.9233 70.5583 23.0982 70.9356 23.5123C71.6442 24.2945 71.3589 25.5552 70.3834 25.9785C70.3098 26.0061 70.2362 26.043 70.135 26.0798C70.5215 26.1626 70.8528 26.2638 71.1196 26.5215C71.9939 27.3405 71.727 28.8221 70.6135 29.3558C70.1534 29.5767 69.6564 29.6503 69.1503 29.6595C68.3405 29.6687 67.5399 29.6595 66.7301 29.6595C66.7117 29.6687 66.684 29.6595 66.638 29.6595ZM67.7883 28.6564C68.2853 28.6564 68.773 28.6749 69.2607 28.6472C69.4908 28.638 69.7301 28.5736 69.9417 28.4816C70.3374 28.316 70.5123 27.9571 70.4755 27.5153C70.4386 27.1104 70.2178 26.8436 69.7945 26.7423C69.1319 26.5951 68.4601 26.6871 67.7791 26.6595V28.6564H67.7883ZM67.7883 25.6657C68.2393 25.6657 68.6626 25.6749 69.0951 25.6657C69.2147 25.6657 69.3436 25.638 69.4632 25.6012C69.9049 25.4724 70.135 25.1595 70.1258 24.7362C70.1074 24.3129 69.8773 24 69.408 23.9448C68.8742 23.8804 68.3313 23.8804 67.7883 23.862V25.6657V25.6657Z" fill="black"/>
<path d="M83.4785 38.0245C82.6319 38.0153 81.8497 37.7945 81.1871 37.2331C80.3773 36.5245 80.0736 35.6043 80.1012 34.5552C80.1196 33.7914 80.3221 33.0828 80.819 32.4755C81.546 31.5736 82.5399 31.2515 83.6626 31.2791C84.5828 31.3068 85.4018 31.592 86.046 32.2638C86.8098 33.0644 87.0215 34.0399 86.911 35.1074C86.727 36.819 85.3926 37.9233 83.727 37.9969C83.6442 38.0153 83.5614 38.0153 83.4785 38.0245ZM83.4877 36.9663C83.9479 36.9663 84.3528 36.8558 84.7117 36.6258C85.5215 36.1012 85.9172 35.0522 85.6595 34.0307C85.4571 33.2025 84.9417 32.6411 84.1135 32.411C83.2761 32.181 82.5123 32.3558 81.9049 33.0092C81.362 33.5982 81.2239 34.316 81.3436 35.089C81.5 36.2117 82.3742 36.9663 83.4877 36.9663Z" fill="black"/>
<path d="M73.6227 31.454H74.7546V33.9847H77.727V31.454H78.8681V37.8497H77.7362V35.0521H74.7546V37.8589H73.6227V31.454Z" fill="black"/>
<path d="M88.2454 31.4172C89.2024 31.4448 90.1411 31.4264 91.0705 31.5184C91.7515 31.5828 92.3313 31.9233 92.6074 32.6043C92.8466 33.2025 92.8098 33.8098 92.5245 34.3896C92.2669 34.9141 91.7883 35.1534 91.2454 35.2546C90.8589 35.3282 90.4632 35.3466 90.0675 35.3742C89.8466 35.3926 89.6258 35.3742 89.3773 35.3742V37.8497H88.2454V31.4172ZM89.3957 32.4386V34.4356C89.681 34.4356 89.9571 34.454 90.2331 34.4264C90.4816 34.408 90.7485 34.3804 90.9877 34.2975C91.4202 34.1411 91.6411 33.6902 91.5583 33.2117C91.4847 32.7515 91.2086 32.4663 90.7209 32.4386C90.2883 32.4202 89.8558 32.4386 89.3957 32.4386Z" fill="black"/>
<path d="M68.1196 36.3957C68.2024 36.4509 68.2577 36.4785 68.3129 36.5153C68.9294 36.8834 69.5828 37.0675 70.3006 36.9294C70.4754 36.8926 70.6595 36.8098 70.7975 36.6994C71.2208 36.3681 71.2116 35.7607 70.7515 35.4755C70.4478 35.2914 70.0889 35.181 69.7669 35.0337C69.4816 34.9141 69.1871 34.8129 68.911 34.6748C67.8251 34.1319 67.8343 32.8159 68.4417 32.1074C68.8006 31.684 69.2699 31.4632 69.8037 31.362C70.4938 31.2331 71.1564 31.3344 71.8006 31.5828V32.6227C71.3957 32.5399 70.9908 32.4479 70.5859 32.3926C70.273 32.3466 69.9509 32.3834 69.6564 32.5215C69.3988 32.6503 69.2055 32.8252 69.1871 33.1288C69.1687 33.4325 69.3435 33.635 69.592 33.7546C69.8589 33.8926 70.1442 33.9939 70.4294 34.1043C70.7055 34.2239 70.9816 34.3159 71.2484 34.454C71.9478 34.8037 72.3067 35.365 72.2607 36.1656C72.2147 36.9294 71.8098 37.4632 71.138 37.7577C70.1718 38.1718 69.2055 38.0705 68.2669 37.6196C68.2024 37.592 68.1472 37.4816 68.138 37.408C68.1104 37.0859 68.1196 36.7546 68.1196 36.3957Z" fill="black"/>
<path d="M78.408 18.6166V21.1381H77.4141C77.4049 21.0644 77.4049 21 77.4049 20.9264C77.4049 19.1595 77.4049 17.4019 77.3957 15.635C77.3957 15.4509 77.4417 15.3957 77.6258 15.4049C77.8742 15.4233 78.1227 15.4141 78.3988 15.4141V17.6871H81.1043V15.4233H82.1073V21.1473H81.1043V18.6166H78.408Z" fill="black"/>
<path d="M84.638 18.6442V20.1994H87.5368V21.138H83.6165V15.4233H87.3804V16.3436H84.638V17.7699H84.8681C85.5951 17.7699 86.3221 17.7699 87.0491 17.7699C87.1963 17.7699 87.2515 17.8067 87.2423 17.954C87.2331 18.1748 87.2423 18.4049 87.2423 18.6442H84.638V18.6442Z" fill="black"/>
<path d="M92 29.6595H90.8037V29.4202C90.8037 28.6012 90.8129 27.7822 90.8037 26.9632C90.8037 26.8435 90.7669 26.7055 90.6933 26.5951C89.9295 25.4264 89.1656 24.2577 88.4018 23.0797C88.365 23.0245 88.3282 22.9693 88.273 22.8773C88.6411 22.8773 88.9724 22.9049 89.3037 22.8681C89.6074 22.8405 89.773 22.9509 89.9295 23.2086C90.3712 23.954 90.8497 24.681 91.319 25.4172C91.3558 25.4724 91.4018 25.5368 91.4479 25.6104C91.5031 25.5276 91.5399 25.4724 91.5767 25.4172C92.0644 24.6258 92.5522 23.8343 93.0307 23.0337C93.1135 22.9049 93.1963 22.8589 93.3436 22.8589C93.7209 22.8681 94.0982 22.8589 94.5123 22.8589C94.4571 22.9417 94.4295 23.0061 94.3834 23.0613C93.6196 24.23 92.8558 25.3896 92.1012 26.5583C92.0368 26.6595 91.9908 26.7975 91.9908 26.9172C91.9816 27.7454 91.9816 28.5828 91.9816 29.411V29.6595H92Z" fill="black"/>
<path d="M74.7178 16.3436V21.1381H73.7055V16.362H71.9202V15.4325H76.4754V16.3436H74.7178Z" fill="black"/>
<path d="M102.758 44.6043C102.758 45.9571 101.672 47.043 100.319 47.0522C98.9663 47.0522 97.8712 45.9479 97.8804 44.6135C97.8896 43.2608 98.9847 42.1749 100.328 42.1749C101.672 42.1749 102.758 43.2608 102.758 44.6043ZM102.316 44.6135C102.316 43.4816 101.433 42.5706 100.337 42.5614C99.2239 42.5522 98.3221 43.4632 98.3221 44.5951C98.3129 45.727 99.2147 46.6381 100.319 46.6381C101.423 46.6473 102.316 45.7362 102.316 44.6135Z" fill="black"/>
<path d="M74.0644 26.2362C74.0828 24.9755 74.8558 23.9908 75.9969 23.8068C77.5981 23.5491 78.8681 24.6626 78.8129 26.2822C78.7852 27.092 78.5276 27.7914 77.8742 28.316C76.8251 29.1442 74.5705 28.9969 74.1288 26.8252C74.092 26.6319 74.0828 26.4387 74.0644 26.2362Z" fill="white"/>
<path d="M82.8252 23.8896C83.4877 23.9264 84.1319 23.9172 84.7577 24.0184C85.8252 24.1933 86.4509 24.9203 86.5245 25.997C86.5429 26.2914 86.5245 26.5951 86.4693 26.8804C86.3405 27.5706 85.908 28.0399 85.273 28.3344C84.7025 28.6013 83.4693 28.7301 82.8159 28.592V23.8896H82.8252Z" fill="white"/>
<path d="M67.7883 28.6564V26.6595C68.4693 26.6871 69.1411 26.5859 69.8037 26.7423C70.2178 26.8344 70.4386 27.1104 70.4755 27.5153C70.5123 27.9571 70.3282 28.3159 69.9417 28.4816C69.7301 28.5736 69.4908 28.638 69.2607 28.6472C68.773 28.6748 68.2853 28.6564 67.7883 28.6564Z" fill="white"/>
<path d="M67.7883 25.6656V23.8528C68.3405 23.8804 68.8742 23.8712 69.408 23.9356C69.8681 23.9908 70.1073 24.3037 70.1258 24.727C70.1442 25.1503 69.9049 25.4632 69.4632 25.592C69.3435 25.6288 69.2147 25.6564 69.0951 25.6564C68.6626 25.6748 68.2393 25.6656 67.7883 25.6656Z" fill="white"/>
<path d="M83.4877 36.9663C82.365 36.9663 81.5 36.2117 81.3343 35.089C81.2239 34.316 81.3528 33.5982 81.8957 33.0092C82.5031 32.3558 83.2669 32.181 84.1043 32.411C84.9325 32.6411 85.4478 33.2025 85.6503 34.0307C85.908 35.0522 85.5123 36.1012 84.7024 36.6258C84.3527 36.8558 83.957 36.9663 83.4877 36.9663Z" fill="white"/>
<path d="M89.3957 32.4387C89.8558 32.4387 90.2883 32.4203 90.7208 32.4479C91.2086 32.4755 91.4938 32.7607 91.5583 33.2209C91.6319 33.6994 91.411 34.1503 90.9877 34.3068C90.7484 34.3896 90.4908 34.4172 90.2331 34.4356C89.957 34.4632 89.681 34.4448 89.3957 34.4448V32.4387Z" fill="white"/>
<path d="M102.316 44.6135C102.316 45.7362 101.423 46.6472 100.319 46.6472C99.2055 46.6472 98.3037 45.727 98.3129 44.6043C98.3221 43.4724 99.2239 42.5706 100.328 42.5706C101.433 42.5706 102.316 43.4908 102.316 44.6135ZM99.7853 44.8712C100.098 44.7883 100.301 44.8528 100.448 45.138C100.567 45.3773 100.733 45.589 100.88 45.8006C101.064 46.0767 101.101 46.0951 101.451 46.0123C101.193 45.6166 100.936 45.2301 100.678 44.8344C100.761 44.8068 100.825 44.7976 100.89 44.7791C101.258 44.6687 101.451 44.3926 101.433 43.9877C101.414 43.5828 101.212 43.2791 100.825 43.2423C100.347 43.2055 99.8497 43.2331 99.362 43.2331V46.0307H99.7853V44.8712V44.8712Z" fill="white"/>
<path d="M99.7853 44.8711V46.0307H99.362V43.2331C99.8589 43.2331 100.337 43.2055 100.825 43.2423C101.212 43.2791 101.414 43.5736 101.433 43.9785C101.451 44.3834 101.258 44.6595 100.89 44.7699C100.825 44.7883 100.761 44.8067 100.678 44.8251C100.945 45.2208 101.193 45.6073 101.451 46.003C101.092 46.0859 101.055 46.0767 100.88 45.7914C100.733 45.5705 100.567 45.3589 100.448 45.1288C100.301 44.8527 100.089 44.7975 99.7853 44.8711ZM99.7945 44.4754C100.098 44.457 100.393 44.4478 100.678 44.411C100.89 44.3834 100.982 44.227 100.991 44.0153C100.991 43.8129 100.88 43.6564 100.669 43.6288C100.383 43.592 100.098 43.592 99.7945 43.5736V44.4754Z" fill="black"/>
<path d="M99.7945 44.4754V43.5736C100.098 43.592 100.383 43.592 100.669 43.6288C100.88 43.6564 100.991 43.8129 100.991 44.0153C100.991 44.227 100.89 44.3834 100.678 44.411C100.393 44.4478 100.107 44.457 99.7945 44.4754Z" fill="white"/>
</g>
<defs>
<clipPath id="clip0_3_349">
<rect width="160" height="48" fill="white"/>
</clipPath>
</defs>
</svg>
