<svg width="160" height="48" viewBox="0 0 160 48" fill="none" xmlns="http://www.w3.org/2000/svg">
<path fill-rule="evenodd" clip-rule="evenodd" d="M23.3799 42.7597C33.5305 42.7597 41.7564 34.5305 41.7564 24.3798C41.7564 14.2292 33.5305 6 23.3799 6C13.2292 6 5 14.2292 5 24.3798C5 34.5305 13.2292 42.7597 23.3799 42.7597ZM13.1988 23.4142C13.2225 30.3366 18.4767 34.6456 23.525 34.6284L23.5249 34.6284C29.7585 34.6081 33.4459 29.4889 33.4324 24.8154C33.4155 20.1453 30.8762 16.7685 25.2809 15.4043C25.2674 15.3469 25.2573 15.2219 25.2573 15.1038C25.2472 11.575 27.9081 8.46165 31.2511 7.76941C30.9371 7.66134 30.4204 7.62089 29.9274 7.62089C26.1049 7.63439 21.8873 9.27215 18.8077 11.8183C15.6537 14.4319 13.1819 18.8386 13.1988 23.4142Z" fill="#EE3023"/>
<path d="M53.6258 31.9911L48.0068 18.5819H51.6773L55.1825 27.4865L58.5795 18.5819H62.0846L56.6311 31.9911H53.6258Z" fill="#EE3023"/>
<path d="M71.8638 25.2174C71.8638 24.6602 71.7997 24.1301 71.6679 23.6269C71.5396 23.1238 71.3437 22.6916 71.0837 22.3302C70.8237 21.9655 70.5097 21.6785 70.1382 21.4658C69.7668 21.2496 69.3312 21.1416 68.8314 21.1416C68.3317 21.1416 67.8927 21.2497 67.5246 21.4658C67.1532 21.6785 66.8357 21.9655 66.5791 22.3302C66.3191 22.6916 66.1232 23.1238 65.9949 23.6269C65.8632 24.1301 65.799 24.6602 65.799 25.2174C65.799 25.7948 65.8632 26.3317 65.9949 26.8247C66.1232 27.3177 66.3123 27.75 66.5622 28.1214C66.8121 28.4929 67.1295 28.7866 67.5111 29.0027C67.8893 29.2154 68.3317 29.3236 68.8314 29.3236C69.3312 29.3236 69.7668 29.2155 70.1382 29.0027C70.5097 28.7866 70.8237 28.4929 71.0837 28.1214C71.3437 27.75 71.5396 27.3177 71.6679 26.8247C71.7996 26.3317 71.8638 25.7948 71.8638 25.2174ZM75.2575 25.2321C75.2575 26.1067 75.1224 26.9644 74.8556 27.8086C74.5855 28.6528 74.187 29.4058 73.6569 30.0744C73.1301 30.743 72.4615 31.2799 71.6544 31.6885C70.8474 32.0971 69.9052 32.2997 68.8314 32.2997C67.7542 32.2997 66.8121 32.097 66.0084 31.6885C65.2014 31.2799 64.5328 30.743 64.0026 30.0744C63.4758 29.4058 63.0774 28.6528 62.8072 27.8086C62.5405 26.9644 62.4054 26.1067 62.4054 25.2321C62.4054 24.3609 62.5405 23.5099 62.8072 22.6725C63.0774 21.8384 63.4758 21.0922 64.0026 20.4337C64.5328 19.7752 65.2014 19.2484 66.0084 18.85C66.8121 18.4515 67.7542 18.2489 68.8314 18.2489C69.9052 18.2489 70.844 18.4515 71.6409 18.85C72.4378 19.2484 73.1064 19.7752 73.6434 20.4337C74.1836 21.0922 74.5855 21.8384 74.8556 22.6725C75.1224 23.5099 75.2575 24.3609 75.2575 25.2321Z" fill="#EE3023"/>
<path d="M85.6208 21.5332C84.9556 21.2732 84.3376 21.1415 83.7636 21.1415C83.176 21.1415 82.6661 21.2564 82.244 21.4792C81.8185 21.7019 81.4674 22.0026 81.1905 22.3842C80.9136 22.7657 80.7076 23.1946 80.5691 23.6707C80.4307 24.1435 80.3598 24.6331 80.3598 25.1363C80.3598 25.6934 80.4205 26.2269 80.5421 26.7402C80.6603 27.2501 80.846 27.6992 81.0959 28.0808C81.3424 28.4624 81.6565 28.7697 82.0347 29.0027C82.4129 29.2323 82.862 29.3505 83.3786 29.3505C83.8041 29.3505 84.2363 29.2324 84.6787 29.0027C85.1211 28.7696 85.4351 28.4928 85.6208 28.1787L85.6208 21.5332ZM85.8977 31.9911L85.7593 30.9646C85.4452 31.3158 85.0299 31.6264 84.5099 31.8932C83.9932 32.1633 83.382 32.2984 82.6796 32.2984C81.7578 32.2984 80.9406 32.1026 80.2416 31.7142C79.5358 31.3259 78.9449 30.8059 78.4654 30.1576C77.9859 29.5092 77.6178 28.7562 77.3679 27.9019C77.1214 27.0509 76.9965 26.1594 76.9965 25.2308C76.9965 24.3596 77.1248 23.5053 77.3815 22.6712C77.6415 21.8371 78.0332 21.0909 78.56 20.4324C79.0901 19.7739 79.7486 19.2472 80.5455 18.8487C81.3391 18.4502 82.2744 18.2476 83.3449 18.2476C84.0472 18.2476 84.807 18.3792 85.6208 18.6359V13.4357H89.0685V31.9911H85.8977Z" fill="#EE3023"/>
<path d="M98.7801 25.7036C98.4087 25.7232 98.0237 25.7577 97.632 25.8016C97.2403 25.8489 96.8689 25.9097 96.5143 25.9839C95.7647 26.1324 95.248 26.3858 94.9576 26.7471C94.6706 27.1118 94.5254 27.5035 94.5254 27.9323C94.5254 28.3747 94.6875 28.7327 95.015 29.0028C95.3426 29.2695 95.8018 29.4046 96.3995 29.4046C96.8486 29.4046 97.2842 29.3134 97.703 29.1277C98.1217 28.942 98.483 28.709 98.7801 28.4321V25.7036ZM99.057 31.9811L98.922 30.9781C98.5472 31.3901 98.0744 31.7143 97.497 31.9473C96.9196 32.1803 96.2881 32.2985 95.5992 32.2985C95.0218 32.2985 94.4646 32.2004 93.9378 32.0047C93.4043 31.8123 92.9349 31.5319 92.5264 31.1706C92.1178 30.8093 91.7868 30.367 91.537 29.8368C91.2837 29.3066 91.1588 28.709 91.1588 28.0404C91.1588 27.3751 91.2871 26.7842 91.5505 26.2743C91.8105 25.7644 92.1616 25.3355 92.6108 24.981C93.0565 24.6298 93.5698 24.3428 94.1472 24.1199C94.7213 23.8972 95.3291 23.7282 95.9605 23.6167C96.4063 23.5256 96.8959 23.4579 97.4261 23.4106C97.9562 23.3634 98.3986 23.3229 98.7531 23.2857V23.0899C98.7531 22.347 98.564 21.8202 98.1791 21.5028C97.7975 21.1887 97.2707 21.0301 96.6021 21.0301C96.2104 21.0301 95.8356 21.0773 95.481 21.1719C95.1265 21.2631 94.8124 21.378 94.5322 21.5164C94.2519 21.6582 94.0054 21.7966 93.7893 21.9351C93.5765 22.0735 93.4043 22.1985 93.2726 22.3099L92.1313 19.8921C92.2798 19.7605 92.5061 19.6051 92.8134 19.4194C93.1207 19.2336 93.4887 19.0513 93.9277 18.8757C94.3633 18.7 94.8529 18.5515 95.4 18.43C95.947 18.3084 96.538 18.2476 97.166 18.2476C97.9089 18.2476 98.5877 18.3457 99.1989 18.5415C99.8101 18.7372 100.34 19.0412 100.786 19.4599C101.228 19.8753 101.576 20.4021 101.829 21.0436C102.079 21.6818 102.204 22.4551 102.204 23.3635V31.9811H99.057Z" fill="#EE3023"/>
<path d="M112.861 16.4951C112.75 16.4412 112.534 16.3601 112.21 16.2586C111.882 16.1574 111.453 16.1067 110.913 16.1067C110.433 16.1067 110.028 16.252 109.704 16.5389C109.38 16.826 109.218 17.2953 109.218 17.9437V18.5819H112.112V21.3644H109.245V31.9911H105.794V21.3644H104.014V18.5819H105.794V17.8592C105.794 16.988 105.905 16.2519 106.128 15.6475C106.351 15.0464 106.662 14.5534 107.06 14.1752C107.459 13.7936 107.928 13.5133 108.465 13.3377C109.005 13.1621 109.589 13.0743 110.221 13.0743C111.055 13.0743 111.744 13.152 112.291 13.3108C112.838 13.4696 113.159 13.5742 113.25 13.6316L112.861 16.4951Z" fill="#EE3023"/>
<path d="M122.266 25.2174C122.266 24.6602 122.198 24.1301 122.07 23.6269C121.942 23.1238 121.746 22.6916 121.486 22.3302C121.226 21.9655 120.912 21.6785 120.54 21.4658C120.169 21.2496 119.733 21.1416 119.233 21.1416C118.734 21.1416 118.295 21.2497 117.927 21.4658C117.555 21.6785 117.238 21.9655 116.978 22.3302C116.721 22.6916 116.525 23.1238 116.393 23.6269C116.265 24.1301 116.201 24.6602 116.201 25.2174C116.201 25.7948 116.265 26.3317 116.393 26.8247C116.525 27.3177 116.714 27.75 116.964 28.1214C117.214 28.4929 117.531 28.7866 117.91 29.0027C118.291 29.2154 118.734 29.3236 119.233 29.3236C119.733 29.3236 120.169 29.2155 120.54 29.0027C120.912 28.7866 121.226 28.4929 121.486 28.1214C121.746 27.75 121.942 27.3177 122.07 26.8247C122.198 26.3317 122.266 25.7948 122.266 25.2174ZM125.659 25.2321C125.659 26.1067 125.524 26.9644 125.254 27.8086C124.987 28.6528 124.589 29.4058 124.059 30.0744C123.532 30.743 122.863 31.2799 122.056 31.6885C121.249 32.0971 120.307 32.2997 119.233 32.2997C118.156 32.2997 117.214 32.097 116.41 31.6885C115.603 31.2799 114.935 30.743 114.405 30.0744C113.878 29.4058 113.479 28.6528 113.209 27.8086C112.939 26.9644 112.807 26.1067 112.807 25.2321C112.807 24.3609 112.939 23.5099 113.209 22.6725C113.479 21.8384 113.878 21.0922 114.405 20.4337C114.935 19.7752 115.603 19.2484 116.41 18.85C117.214 18.4515 118.156 18.2489 119.233 18.2489C120.307 18.2489 121.246 18.4515 122.043 18.85C122.84 19.2484 123.508 19.7752 124.045 20.4337C124.586 21.0922 124.987 21.8384 125.254 22.6725C125.524 23.5099 125.659 24.3609 125.659 25.2321Z" fill="#EE3023"/>
<path d="M136.367 31.9912V24.3428C136.367 23.323 136.154 22.5328 135.729 21.9757C135.3 21.4219 134.709 21.1416 133.946 21.1416C133.409 21.1416 132.913 21.28 132.46 21.5603C132.004 21.8372 131.609 22.1445 131.275 22.4788V31.9912H127.827V18.582H130.971L131.137 19.6389C131.677 19.1966 132.281 18.8521 132.96 18.6124C133.635 18.3693 134.317 18.2511 135.003 18.2511C135.709 18.2511 136.357 18.3557 136.951 18.5685C137.546 18.7846 138.056 19.1222 138.481 19.5849C138.91 20.0475 139.237 20.652 139.47 21.3915C139.7 22.1344 139.818 23.0258 139.818 24.0625V31.9912H136.367Z" fill="#EE3023"/>
<path d="M150.55 23.6742C150.513 23.2115 150.415 22.8063 150.256 22.4652C150.097 22.1208 149.901 21.8439 149.668 21.6312C149.435 21.415 149.186 21.2597 148.915 21.155C148.642 21.0538 148.368 21.0031 148.088 21.0031C147.49 21.0031 146.923 21.2259 146.383 21.6717C145.842 22.1175 145.525 22.7827 145.431 23.6742H150.55ZM145.349 26.1493C145.424 27.2805 145.775 28.0977 146.41 28.5975C147.041 29.0973 147.862 29.3505 148.865 29.3505C149.331 29.3505 149.77 29.3066 150.178 29.2255C150.587 29.1412 150.952 29.0364 151.269 28.9048C151.586 28.7764 151.857 28.6448 152.079 28.5164C152.302 28.3848 152.468 28.2632 152.583 28.1518L153.501 30.9646C153.369 31.0557 153.16 31.1807 152.873 31.3394C152.586 31.4982 152.228 31.6433 151.802 31.7851C151.377 31.9236 150.874 32.0418 150.3 32.1465C149.726 32.2477 149.094 32.2984 148.409 32.2984C147.534 32.2984 146.707 32.1599 145.917 31.883C145.13 31.6028 144.438 31.1706 143.847 30.5864C143.252 30.0022 142.78 29.2762 142.429 28.405C142.074 27.5337 141.898 26.4937 141.898 25.2882C141.898 24.1569 142.06 23.1541 142.385 22.2828C142.709 21.4116 143.155 20.6788 143.718 20.0845C144.286 19.4936 144.944 19.0377 145.694 18.7203C146.447 18.4063 147.247 18.2476 148.102 18.2476C148.956 18.2476 149.743 18.3894 150.469 18.6663C151.191 18.9432 151.816 19.3754 152.346 19.9596C152.873 20.5438 153.292 21.3002 153.596 22.2288C153.903 23.154 154.055 24.2583 154.055 25.5381V26.1493L145.349 26.1493Z" fill="#EE3023"/>
</svg>
