<svg width="160" height="48" viewBox="0 0 160 48" fill="none" xmlns="http://www.w3.org/2000/svg">
<g clip-path="url(#clip0_3_303)">
<path d="M19.2577 22.9343C20.1493 22.9343 20.9274 22.9653 21.617 23.0908C22.5987 23.2629 23.4296 24.6284 23.4296 25.2949C23.4296 25.6359 23.4296 26.0141 23.2805 26.5659C23.0382 27.4122 21.3732 30.4564 20.6805 31.6019C19.8464 30.2518 17.8832 26.4388 17.2044 24.9539C16.9093 24.3308 16.7602 23.8131 16.7602 23.5589C16.7602 23.0908 17.6921 22.9343 19.2577 22.9343V22.9343ZM8.13224 22.9343C8.96475 23.1404 9.45245 23.3125 10.1359 24.5339C12.5417 28.9405 14.9507 33.7982 17.2945 38.5769C17.5896 38.8249 17.9344 38.8807 18.433 38.8807C18.9145 38.8807 19.2562 38.8249 19.5637 38.5784C20.6805 36.4751 23.6269 30.83 24.8974 28.6383C26.376 31.3477 28.9217 36.2922 29.9546 38.5784C30.2404 38.8264 30.5945 38.8807 31.0775 38.8807C31.5668 38.8807 31.9194 38.8249 32.2036 38.5784C34.2832 34.0381 36.4755 29.55 38.7783 25.1182C39.5642 23.5589 39.9043 23.1404 41.5243 22.8397L42.2108 22.7188C42.6022 22.3267 42.5013 21.4075 42.0664 21.2308C40.9869 21.3161 39.7133 21.3595 38.2828 21.3595C37.0589 21.3595 35.8909 21.3161 34.2662 21.2308C33.7754 21.4075 33.7754 22.4166 34.0752 22.7188L34.9015 22.8785C35.7449 23.0505 36.1301 23.2629 36.1301 23.4783C36.1301 23.7744 35.981 24.3665 35.6765 25.1182C34.9015 27.0759 34.1327 29.1513 32.9414 31.6019C31.8666 29.5652 30.4966 26.8217 29.6082 24.7881C29.3193 24.0735 29.2199 23.8116 29.2199 23.4783C29.2199 23.2629 29.8987 23.0505 31.034 22.8397L31.764 22.7188C32.1182 22.5468 32.1555 21.282 31.618 21.2308C28.7258 21.316 25.8324 21.3589 22.9388 21.3595H13.0341C10.9746 21.3595 9.40896 21.3161 7.39913 21.2308C6.89745 21.4432 6.89745 22.3732 7.2376 22.7188L8.13224 22.9343V22.9343Z" fill="black"/>
<path d="M49.093 22.663C50.7534 22.663 51.6915 23.5852 51.6915 24.9849C51.6915 25.4096 51.5937 25.8374 51.3498 25.9583C50.8015 26.2559 50.0187 26.3349 49.3338 26.3349H47.5227C45.9447 26.3349 45.2675 26.3039 45.2675 25.7041C45.2675 24.3463 47.0335 22.6614 49.0946 22.6614L49.093 22.663ZM49.0418 38.8233C51.982 38.8233 55.6211 37.5941 57.6263 33.9997C57.6263 33.2789 56.8823 32.9379 56.3495 33.017C55.0247 34.9715 53.1546 35.218 51.7862 35.218C47.2292 35.218 44.8683 32.135 44.8683 28.9622C44.8683 28.2864 44.9708 28.2027 46.1016 28.2027H55.5061C57.0376 28.2027 57.2768 27.6106 57.2768 26.8077C57.2768 23.5449 54.5276 20.7115 49.427 20.7115C43.3074 20.7115 38.8435 24.8609 38.8435 30.1944C38.8435 34.8057 42.4236 38.8233 49.0418 38.8233V38.8233ZM69.8033 22.9342C70.6995 22.9342 71.4776 22.9652 72.1672 23.0908C73.1488 23.2628 73.9814 24.6284 73.9814 25.2949C73.9814 25.6359 73.9814 26.0141 73.8354 26.5659C73.5837 27.4122 71.9203 30.4564 71.2369 31.6018C70.3935 30.2518 68.4411 26.4388 67.7546 24.9539C67.4657 24.3308 67.312 23.8131 67.312 23.5589C67.312 23.0908 68.2377 22.9342 69.8033 22.9342V22.9342ZM58.6793 22.9342C59.5196 23.1404 60.0026 23.3124 60.6891 24.5338C63.0873 28.9405 65.5025 33.7982 67.8494 38.5768C68.1476 38.8248 68.4893 38.8806 68.9801 38.8806C69.4662 38.8806 69.8033 38.8248 70.1046 38.5784C71.2384 36.475 74.1739 30.8299 75.4522 28.6382C76.9278 31.3476 79.4657 36.2921 80.4985 38.5784C80.7937 38.8264 81.1354 38.8806 81.6231 38.8806C82.1185 38.8806 82.4633 38.8248 82.7538 38.5784C84.8359 34.0387 87.0291 29.5506 89.3315 25.1182C90.1159 23.5589 90.4545 23.1404 92.0714 22.8397L92.7641 22.7188C93.1508 22.3266 93.0483 21.4075 92.6134 21.2308C91.5293 21.316 90.2619 21.3594 88.833 21.3594C87.4932 21.3531 86.1538 21.3102 84.8164 21.2308C84.3194 21.4075 84.3194 22.4165 84.6207 22.7188L85.4532 22.8784C86.2888 23.0505 86.6771 23.2628 86.6771 23.4783C86.6771 23.7743 86.5296 24.3664 86.2407 25.1182C85.4532 27.0758 84.6673 29.1513 83.4869 31.6018C82.4121 29.5651 81.0422 26.8216 80.16 24.788C79.8617 24.0735 79.7639 23.8115 79.7639 23.4783C79.7639 23.2628 80.4457 23.0505 81.5811 22.8397L82.3111 22.7188C82.6559 22.5467 82.7072 21.2819 82.1651 21.2308C79.0308 21.316 76.5705 21.3594 73.4859 21.3594H63.5796C61.7006 21.3597 59.8217 21.3168 57.9447 21.2308C57.4585 21.4431 57.4585 22.3731 57.8002 22.7188L58.6793 22.9342V22.9342Z" fill="black"/>
<path d="M100.661 22.663C103.445 22.663 104.82 26.2094 104.874 30.32C104.916 34.1299 103.98 36.878 101.182 36.878C98.351 36.878 96.7248 33.6137 96.7248 29.1776C96.7248 24.571 98.5001 22.6614 100.661 22.6614V22.663ZM100.661 38.8233C106.684 38.8233 111.935 35.9062 111.935 29.7201C111.935 23.7557 106.729 20.7115 100.948 20.7115C95.1591 20.7115 89.6174 24.0518 89.664 30.1076C89.7214 35.9418 94.8143 38.8233 100.661 38.8233V38.8233Z" fill="black"/>
<path d="M120.29 24.2967C120.593 24.2967 121.028 24.3432 122.15 25.143C122.78 25.6545 123.37 25.9087 124.061 25.9087C125.627 25.9087 127.203 25.1058 127.203 23.1575C127.203 21.5594 125.83 20.662 124.496 20.662C122.444 20.662 121.028 22.057 119.695 22.7731C119.307 22.6956 119.204 22.5669 119.204 22.2678C119.204 21.8896 119.305 21.3021 119.395 20.4481C119.204 20.197 118.903 20.0621 118.525 20.0621C116.999 20.9208 113.617 22.057 111.354 22.6134C111.013 22.8614 111.013 23.624 111.354 23.8798L112.053 24.2611C112.98 24.7695 112.98 25.2748 112.98 26.9705V33.3565C112.98 36.317 112.783 36.6967 111.163 36.83L110.23 36.9075C109.835 37.1617 109.835 38.1413 110.281 38.3955C112.209 38.3018 114.139 38.2583 116.07 38.2653C118.368 38.2653 120.335 38.3025 122.691 38.394C123.132 38.1413 123.132 37.1617 122.736 36.9075L121.167 36.7897C119.549 36.6549 119.35 36.3154 119.35 33.3565V26.8418C119.35 25.236 119.599 24.2967 120.291 24.2967" fill="black"/>
<path d="M139.531 36.768L138.895 36.8998C138.498 37.2795 138.594 38.163 139.087 38.3723C140.46 38.2886 142.219 38.2483 145.125 38.2483C147.968 38.2483 149.779 38.2886 151.295 38.3723C151.787 38.2095 151.888 37.1927 151.489 36.8998L150.76 36.7665C149.488 36.5572 148.558 36.3387 147.871 35.7977C146.638 34.8259 142.322 29.0676 141.452 27.7145C141.199 27.3766 141.095 27.1255 141.095 26.9937C141.095 26.8697 141.146 26.7023 141.387 26.4419C142.076 25.8576 142.825 25.2112 144.681 23.9852C146 23.1048 147.039 22.6832 147.969 22.5096L149.532 22.212C149.883 21.8818 149.835 20.9363 149.333 20.7317C146.447 21.1161 142.375 21.3238 140.067 21.3238H138.895C138.406 21.5005 138.352 22.4243 138.793 22.8041L140.023 22.9808C140.46 23.0149 140.949 23.1823 140.949 23.3993C140.949 23.6535 140.713 24.1154 139.775 25.0826L137.721 27.1689C136.737 28.1376 135.707 28.35 134.873 28.35C134.34 28.35 134.182 28.2229 134.182 27.7563V14.4744C134.182 11.8053 134.244 10.0259 134.34 8.2945C134.147 8.0775 133.793 8 133.501 8C130.994 8.92225 128.011 9.94835 126.002 10.3607C125.655 10.6211 125.655 11.3852 126.002 11.6255L126.835 12.0595C127.812 12.5694 127.812 13.0328 127.812 14.7347V33.341C127.812 36.3015 127.615 36.6409 125.842 36.8161L124.911 36.8998C124.524 37.1478 124.524 38.1243 124.96 38.3723C126.954 38.2836 128.95 38.2422 130.946 38.2483C133.205 38.2483 135.261 38.2886 136.837 38.3723C137.272 38.1243 137.272 37.1478 136.884 36.8998L136.104 36.8161C134.38 36.6409 134.182 36.2999 134.182 33.341V30.892C134.182 30.0813 134.43 29.8752 134.769 29.8752C135.261 29.8752 135.656 30.0457 136.005 30.4983L139.481 35.0785C139.874 35.5807 140.312 36.2565 140.312 36.4394C140.312 36.596 140.023 36.675 139.531 36.7665" fill="black"/>
</g>
<defs>
<clipPath id="clip0_3_303">
<rect width="146" height="31" fill="white" transform="translate(7 8)"/>
</clipPath>
</defs>
</svg>
