<svg id="svg" version="1.1" width="400" height="400" viewBox="0 0 400 400" xmlns="http://www.w3.org/2000/svg" xmlns:xlink="http://www.w3.org/1999/xlink" ><g id="svgg"><path id="path0" d="M261.879 45.311 C 262.306 45.364,263.062 45.365,263.560 45.313 C 264.058 45.261,263.709 45.218,262.785 45.217 C 261.861 45.216,261.453 45.258,261.879 45.311 M266.931 45.312 C 267.363 45.365,268.011 45.364,268.372 45.310 C 268.732 45.255,268.379 45.211,267.587 45.212 C 266.795 45.214,266.500 45.259,266.931 45.312 M275.410 46.891 C 275.465 46.931,275.834 47.154,276.230 47.386 L 276.951 47.808 276.384 47.313 C 276.072 47.041,275.703 46.819,275.564 46.819 C 275.424 46.819,275.355 46.851,275.410 46.891 M251.122 48.679 L 250.540 49.340 251.261 48.739 C 251.657 48.409,252.026 48.112,252.081 48.079 C 252.136 48.046,252.074 48.019,251.943 48.019 C 251.812 48.019,251.442 48.316,251.122 48.679 M248.481 50.120 L 247.899 50.780 248.619 50.180 C 249.016 49.850,249.385 49.553,249.440 49.520 C 249.495 49.487,249.433 49.460,249.302 49.460 C 249.171 49.460,248.801 49.757,248.481 50.120 M242.139 55.460 C 241.761 55.854,241.498 56.216,241.554 56.263 C 241.611 56.310,241.964 55.987,242.341 55.545 C 243.190 54.548,243.064 54.494,242.139 55.460 M295.095 69.508 C 295.095 69.640,295.249 70.018,295.438 70.348 C 295.627 70.678,295.781 70.840,295.781 70.708 C 295.781 70.576,295.627 70.198,295.438 69.868 C 295.249 69.538,295.095 69.376,295.095 69.508 M133.373 90.276 C 132.762 90.539,133.393 90.539,134.214 90.276 C 134.696 90.122,134.720 90.082,134.334 90.077 C 134.070 90.073,133.637 90.163,133.373 90.276 M112.760 99.268 C 112.411 99.592,112.125 99.925,112.125 100.009 C 112.125 100.092,112.449 99.855,112.845 99.481 C 113.241 99.107,113.565 98.774,113.565 98.740 C 113.565 98.582,113.344 98.727,112.760 99.268 M159.904 102.888 C 159.904 102.978,160.174 103.373,160.504 103.765 C 160.834 104.158,161.104 104.405,161.104 104.315 C 161.104 104.225,160.834 103.830,160.504 103.438 C 160.174 103.045,159.904 102.798,159.904 102.888 M66.807 113.497 C 67.170 113.552,67.764 113.552,68.127 113.497 C 68.490 113.442,68.193 113.397,67.467 113.397 C 66.741 113.397,66.444 113.442,66.807 113.497 M71.369 113.497 C 71.732 113.552,72.326 113.552,72.689 113.497 C 73.052 113.442,72.755 113.397,72.029 113.397 C 71.303 113.397,71.005 113.442,71.369 113.497 M327.311 113.497 C 327.674 113.552,328.268 113.552,328.631 113.497 C 328.995 113.442,328.697 113.397,327.971 113.397 C 327.245 113.397,326.948 113.442,327.311 113.497 M331.873 113.497 C 332.236 113.552,332.830 113.552,333.193 113.497 C 333.556 113.442,333.259 113.397,332.533 113.397 C 331.807 113.397,331.510 113.442,331.873 113.497 M64.046 113.943 C 63.682 114.140,63.385 114.354,63.385 114.420 C 63.385 114.485,63.682 114.388,64.046 114.205 C 64.409 114.021,64.868 113.811,65.066 113.737 C 65.386 113.618,65.386 113.602,65.066 113.594 C 64.868 113.589,64.409 113.746,64.046 113.943 M334.934 113.737 C 335.132 113.811,335.591 114.021,335.954 114.205 C 336.318 114.388,336.615 114.484,336.615 114.418 C 336.615 114.230,335.233 113.563,334.886 113.584 C 334.676 113.597,334.692 113.647,334.934 113.737 M75.630 114.166 C 75.960 114.354,76.339 114.509,76.471 114.509 C 76.603 114.509,76.441 114.354,76.110 114.166 C 75.780 113.977,75.402 113.823,75.270 113.823 C 75.138 113.823,75.300 113.977,75.630 114.166 M59.510 115.260 L 58.944 115.755 59.664 115.333 C 60.612 114.778,60.626 114.766,60.331 114.766 C 60.191 114.766,59.822 114.988,59.510 115.260 M165.541 139.136 C 165.541 151.417,165.571 156.405,165.606 150.222 C 165.642 144.038,165.642 133.990,165.606 127.893 C 165.570 121.796,165.541 126.855,165.541 139.136 M51.694 119.470 L 51.020 120.092 51.801 119.573 C 52.516 119.098,52.748 118.848,52.474 118.848 C 52.416 118.848,52.065 119.128,51.694 119.470 M89.248 120.773 C 89.673 121.219,90.061 121.536,90.111 121.476 C 90.161 121.417,89.813 121.052,89.338 120.666 L 88.475 119.963 89.248 120.773 M310.549 120.828 L 309.844 121.609 310.624 120.903 C 311.352 120.246,311.515 120.048,311.329 120.048 C 311.288 120.048,310.937 120.399,310.549 120.828 M350.300 121.096 C 350.300 121.162,350.624 121.447,351.020 121.729 C 351.417 122.011,351.741 122.188,351.741 122.122 C 351.741 122.056,351.417 121.771,351.020 121.489 C 350.624 121.207,350.300 121.030,350.300 121.096 M91.357 122.449 C 91.872 122.977,92.348 123.409,92.414 123.409 C 92.480 123.409,92.112 122.977,91.597 122.449 C 91.081 121.921,90.605 121.489,90.539 121.489 C 90.473 121.489,90.841 121.921,91.357 122.449 M307.324 123.528 C 307.014 123.858,306.806 124.168,306.862 124.217 C 306.917 124.266,307.214 123.997,307.521 123.618 C 308.209 122.770,308.088 122.715,307.324 123.528 M352.913 123.529 C 353.058 123.794,353.514 124.388,353.926 124.850 C 354.338 125.312,354.556 125.474,354.410 125.210 C 354.265 124.946,353.809 124.352,353.397 123.890 C 352.985 123.427,352.767 123.265,352.913 123.529 M40.607 134.098 C 40.300 134.546,40.105 135.052,40.174 135.223 C 40.259 135.436,40.304 135.411,40.317 135.146 C 40.328 134.933,40.565 134.468,40.844 134.113 C 41.123 133.758,41.310 133.426,41.258 133.375 C 41.207 133.324,40.914 133.649,40.607 134.098 M99.313 135.774 C 99.868 136.722,99.880 136.736,99.880 136.441 C 99.880 136.302,99.657 135.933,99.386 135.621 L 98.891 135.054 99.313 135.774 M360.205 138.175 C 360.207 138.703,360.256 138.891,360.314 138.593 C 360.371 138.294,360.369 137.862,360.309 137.632 C 360.249 137.403,360.202 137.647,360.205 138.175 M100.199 140.336 C 100.200 141.261,100.243 141.609,100.295 141.111 C 100.347 140.613,100.346 139.857,100.293 139.430 C 100.240 139.004,100.198 139.412,100.199 140.336 M39.708 144.418 C 39.708 146.002,39.747 146.619,39.794 145.789 C 39.841 144.958,39.840 143.662,39.793 142.908 C 39.746 142.154,39.707 142.833,39.708 144.418 M299.705 144.538 C 299.705 145.132,299.752 145.375,299.809 145.078 C 299.867 144.781,299.867 144.295,299.809 143.998 C 299.752 143.700,299.705 143.944,299.705 144.538 M100.199 148.259 C 100.200 149.184,100.243 149.532,100.295 149.034 C 100.347 148.536,100.346 147.780,100.293 147.354 C 100.240 146.927,100.198 147.335,100.199 148.259 M360.205 150.420 C 360.207 150.948,360.256 151.136,360.314 150.838 C 360.371 150.539,360.369 150.107,360.309 149.877 C 360.249 149.648,360.202 149.892,360.205 150.420 M358.040 157.157 C 357.745 157.608,357.503 158.057,357.503 158.156 C 357.503 158.254,357.783 157.923,358.125 157.420 C 358.466 156.917,358.708 156.467,358.662 156.421 C 358.616 156.375,358.336 156.706,358.040 157.157 M42.737 159.102 C 42.737 159.233,43.034 159.602,43.397 159.922 L 44.058 160.504 43.457 159.784 C 43.127 159.388,42.830 159.019,42.797 158.964 C 42.764 158.909,42.737 158.971,42.737 159.102 M96.492 159.604 C 95.766 160.498,95.025 161.646,95.273 161.493 C 95.416 161.404,95.859 160.849,96.258 160.258 C 96.995 159.166,97.111 158.842,96.492 159.604 M355.206 162.156 C 354.933 162.436,354.521 162.989,354.291 163.385 L 353.873 164.106 354.365 163.505 C 354.636 163.175,355.095 162.665,355.387 162.372 C 355.678 162.079,355.869 161.796,355.810 161.743 C 355.751 161.690,355.479 161.876,355.206 162.156 M306.597 164.218 C 306.877 164.611,307.228 165.007,307.378 165.100 C 307.528 165.192,307.348 164.872,306.978 164.387 C 306.175 163.335,305.873 163.201,306.597 164.218 M91.717 165.906 C 91.435 166.303,91.258 166.627,91.324 166.627 C 91.390 166.627,91.675 166.303,91.957 165.906 C 92.239 165.510,92.416 165.186,92.350 165.186 C 92.284 165.186,91.999 165.510,91.717 165.906 M48.240 166.234 C 48.559 166.627,49.460 167.223,49.460 167.040 C 49.460 166.995,49.109 166.700,48.679 166.386 C 48.197 166.032,48.029 165.974,48.240 166.234 M90.141 167.407 L 89.436 168.187 90.216 167.482 C 90.943 166.825,91.107 166.627,90.921 166.627 C 90.880 166.627,90.529 166.978,90.141 167.407 M88.475 168.697 C 88.044 169.065,87.955 169.211,88.255 169.062 C 88.695 168.843,89.521 168.053,89.285 168.076 C 89.236 168.081,88.872 168.360,88.475 168.697 M52.821 169.988 C 53.283 170.377,53.757 170.698,53.875 170.702 C 53.992 170.705,53.680 170.384,53.181 169.988 C 52.013 169.060,51.718 169.060,52.821 169.988 M346.819 170.138 C 346.387 170.505,346.299 170.651,346.598 170.503 C 347.038 170.284,347.864 169.494,347.628 169.516 C 347.579 169.521,347.215 169.801,346.819 170.138 M83.800 171.560 C 83.342 171.884,83.072 172.148,83.200 172.148 C 83.328 172.147,83.758 171.881,84.154 171.556 C 85.079 170.798,84.877 170.800,83.800 171.560 M81.273 172.869 C 80.876 173.132,80.675 173.347,80.826 173.348 C 81.088 173.349,82.359 172.412,82.113 172.399 C 82.047 172.395,81.669 172.607,81.273 172.869 M62.065 174.070 C 62.461 174.332,62.893 174.547,63.025 174.547 C 63.157 174.548,62.912 174.332,62.479 174.069 C 61.460 173.447,61.126 173.448,62.065 174.070 M322.329 174.070 C 322.725 174.332,323.157 174.547,323.289 174.547 C 323.421 174.548,323.176 174.332,322.743 174.069 C 321.724 173.447,321.390 173.448,322.329 174.070 M290.516 174.491 C 290.516 174.635,290.223 175.113,289.864 175.552 C 289.328 176.209,289.311 176.266,289.767 175.873 C 290.414 175.315,290.855 174.569,290.656 174.369 C 290.579 174.292,290.516 174.347,290.516 174.491 M65.486 174.959 C 65.783 175.017,66.270 175.017,66.567 174.959 C 66.864 174.902,66.621 174.855,66.026 174.855 C 65.432 174.855,65.189 174.902,65.486 174.959 M73.053 174.962 C 73.417 175.017,73.958 175.016,74.253 174.959 C 74.548 174.902,74.250 174.857,73.589 174.859 C 72.929 174.860,72.688 174.907,73.053 174.962 M325.990 174.959 C 326.288 175.017,326.774 175.017,327.071 174.959 C 327.368 174.902,327.125 174.855,326.531 174.855 C 325.936 174.855,325.693 174.902,325.990 174.959 M333.433 174.959 C 333.730 175.017,334.217 175.017,334.514 174.959 C 334.811 174.902,334.568 174.855,333.974 174.855 C 333.379 174.855,333.136 174.902,333.433 174.959 M110.434 176.170 C 110.880 176.732,111.288 177.191,111.341 177.191 C 111.511 177.191,110.482 175.840,110.045 175.489 C 109.813 175.303,109.988 175.609,110.434 176.170 M157.487 177.971 C 156.909 178.664,156.626 179.080,156.858 178.895 C 157.325 178.522,158.804 176.711,158.641 176.711 C 158.585 176.711,158.065 177.278,157.487 177.971 M242.977 178.707 C 242.977 178.748,243.328 179.099,243.758 179.487 L 244.538 180.192 243.833 179.412 C 243.175 178.684,242.977 178.521,242.977 178.707 M117.667 182.773 C 117.722 182.806,118.091 183.103,118.487 183.433 L 119.208 184.034 118.626 183.373 C 118.305 183.010,117.936 182.713,117.805 182.713 C 117.674 182.713,117.612 182.740,117.667 182.773 " stroke="none" fill="#0000ff" fill-rule="evenodd"></path><path id="path1" d="M90.461 122.104 C 90.290 122.275,91.133 123.169,91.465 123.169 C 91.590 123.169,91.798 123.357,91.927 123.587 C 92.056 123.817,92.221 123.945,92.295 123.872 C 92.368 123.798,92.018 123.338,91.517 122.849 C 91.016 122.359,90.541 122.024,90.461 122.104 M299.936 144.538 C 299.936 145.000,299.985 145.189,300.045 144.958 C 300.106 144.727,300.106 144.349,300.045 144.118 C 299.985 143.887,299.936 144.076,299.936 144.538 M77.211 173.529 C 77.112 173.628,76.914 173.709,76.771 173.709 C 76.628 173.709,76.463 173.854,76.404 174.030 C 76.323 174.273,76.475 174.258,77.044 173.963 C 77.778 173.584,77.987 173.349,77.591 173.349 C 77.481 173.349,77.310 173.430,77.211 173.529 M337.106 173.817 C 336.915 173.939,336.655 173.974,336.529 173.897 C 336.403 173.819,336.378 173.880,336.472 174.033 C 336.626 174.282,337.315 174.097,337.795 173.677 C 338.007 173.492,337.437 173.608,337.106 173.817 " stroke="none" fill="#5555aa" fill-rule="evenodd"></path><path id="path2" d="M261.167 45.548 C 261.466 45.605,261.898 45.603,262.128 45.543 C 262.357 45.483,262.113 45.436,261.585 45.439 C 261.056 45.441,260.869 45.491,261.167 45.548 M268.247 45.544 C 268.478 45.604,268.857 45.604,269.088 45.544 C 269.319 45.483,269.130 45.434,268.667 45.434 C 268.205 45.434,268.016 45.483,268.247 45.544 M278.579 48.640 C 278.958 48.846,279.175 49.117,279.082 49.268 C 278.975 49.440,279.029 49.465,279.234 49.339 C 279.578 49.125,278.720 48.250,278.185 48.269 C 278.034 48.274,278.211 48.441,278.579 48.640 M294.997 70.454 C 294.907 70.689,294.941 70.793,295.081 70.707 C 295.418 70.498,295.376 71.155,295.030 71.501 C 294.825 71.706,294.820 71.789,295.014 71.789 C 295.398 71.789,295.630 70.913,295.369 70.447 C 295.167 70.087,295.137 70.087,294.997 70.454 M234.691 116.687 C 234.691 140.258,234.719 149.901,234.754 138.115 C 234.788 126.330,234.788 107.044,234.754 95.258 C 234.719 83.472,234.691 93.115,234.691 116.687 M295.916 116.567 C 295.916 139.940,295.944 149.466,295.978 137.736 C 296.013 126.006,296.013 106.882,295.978 95.239 C 295.944 83.596,295.916 93.193,295.916 116.567 M133.974 90.368 C 133.974 90.572,135.117 90.661,135.551 90.491 C 135.879 90.363,135.716 90.305,134.994 90.293 C 134.433 90.284,133.974 90.318,133.974 90.368 M131.876 90.688 C 132.241 90.744,132.781 90.742,133.077 90.685 C 133.372 90.628,133.073 90.583,132.413 90.585 C 131.753 90.587,131.511 90.633,131.876 90.688 M136.918 90.688 C 137.283 90.744,137.823 90.742,138.119 90.685 C 138.414 90.628,138.115 90.583,137.455 90.585 C 136.795 90.587,136.553 90.633,136.918 90.688 M126.437 91.520 C 126.552 91.705,126.478 91.748,126.218 91.648 C 126.002 91.565,125.768 91.591,125.697 91.706 C 125.626 91.821,125.842 91.885,126.177 91.848 C 126.950 91.763,127.140 91.578,126.649 91.389 C 126.396 91.292,126.324 91.337,126.437 91.520 M119.583 94.219 C 119.418 94.418,119.396 94.612,119.529 94.694 C 119.652 94.770,119.879 94.681,120.032 94.497 C 120.197 94.298,120.220 94.104,120.087 94.022 C 119.963 93.945,119.737 94.034,119.583 94.219 M153.552 96.742 C 153.476 96.865,153.523 97.033,153.658 97.116 C 153.792 97.199,153.902 97.190,153.902 97.096 C 153.902 97.002,154.145 97.129,154.442 97.380 C 154.928 97.790,154.924 97.770,154.400 97.177 C 153.745 96.436,153.742 96.434,153.552 96.742 M112.771 99.589 C 112.408 99.990,112.418 100.021,112.914 100.045 C 113.206 100.059,113.306 100.018,113.135 99.952 C 112.897 99.861,112.890 99.755,113.105 99.496 C 113.513 99.005,113.228 99.084,112.771 99.589 M111.541 101.063 C 111.170 101.450,111.015 101.737,111.196 101.700 C 111.965 101.544,112.330 101.253,112.297 100.821 C 112.255 100.257,112.340 100.229,111.541 101.063 M161.732 106.497 C 161.541 106.997,161.623 107.116,161.999 106.883 C 162.161 106.783,162.198 106.578,162.086 106.396 C 161.935 106.152,161.856 106.175,161.732 106.497 M66.689 113.735 C 66.988 113.793,67.420 113.790,67.650 113.730 C 67.879 113.670,67.635 113.623,67.107 113.626 C 66.579 113.629,66.391 113.678,66.689 113.735 M72.089 113.731 C 72.320 113.791,72.698 113.791,72.929 113.731 C 73.160 113.671,72.971 113.621,72.509 113.621 C 72.047 113.621,71.858 113.671,72.089 113.731 M327.194 113.735 C 327.492 113.793,327.925 113.790,328.154 113.730 C 328.384 113.670,328.139 113.623,327.611 113.626 C 327.083 113.629,326.895 113.678,327.194 113.735 M332.476 113.735 C 332.774 113.793,333.207 113.790,333.436 113.730 C 333.666 113.670,333.421 113.623,332.893 113.626 C 332.365 113.629,332.177 113.678,332.476 113.735 M64.466 114.157 C 64.070 114.338,63.887 114.496,64.060 114.506 C 64.233 114.517,64.307 114.634,64.226 114.766 C 64.144 114.898,64.203 115.006,64.357 115.006 C 64.511 115.006,64.575 114.844,64.499 114.646 C 64.413 114.423,64.500 114.286,64.728 114.286 C 64.929 114.286,65.028 114.394,64.946 114.526 C 64.864 114.658,64.924 114.766,65.078 114.766 C 65.232 114.766,65.298 114.611,65.225 114.421 C 65.148 114.220,65.263 114.031,65.500 113.968 C 65.798 113.890,65.810 113.857,65.546 113.844 C 65.348 113.835,64.862 113.976,64.466 114.157 M68.316 114.027 C 68.039 114.133,68.667 114.216,69.838 114.228 C 70.935 114.240,71.771 114.187,71.695 114.112 C 71.478 113.895,68.835 113.828,68.316 114.027 M325.149 113.965 C 324.983 114.032,324.919 114.204,325.008 114.347 C 325.110 114.513,325.023 114.552,324.770 114.454 C 324.111 114.202,323.385 114.575,323.795 114.955 C 324.070 115.210,324.130 115.199,324.130 114.895 C 324.130 114.453,324.528 114.401,324.671 114.826 C 324.750 115.060,324.859 115.054,325.168 114.799 C 325.386 114.619,325.511 114.384,325.445 114.277 C 325.378 114.170,325.515 114.032,325.747 113.972 C 326.028 113.898,326.049 113.858,325.810 113.852 C 325.612 113.847,325.314 113.898,325.149 113.965 M328.932 114.045 C 328.932 114.146,329.519 114.221,330.237 114.211 C 330.956 114.201,331.497 114.118,331.441 114.027 C 331.300 113.799,328.932 113.816,328.932 114.045 M334.814 114.046 C 335.078 114.159,335.146 114.260,334.965 114.269 C 334.699 114.282,334.693 114.356,334.934 114.646 C 335.263 115.043,336.012 115.150,335.774 114.766 C 335.693 114.634,335.767 114.522,335.940 114.517 C 336.113 114.513,335.984 114.354,335.654 114.166 C 335.324 113.977,334.892 113.826,334.694 113.831 C 334.460 113.836,334.502 113.912,334.814 114.046 M72.557 114.173 C 72.795 114.412,73.723 114.502,73.582 114.273 C 73.504 114.148,73.213 114.046,72.935 114.046 C 72.657 114.046,72.486 114.103,72.557 114.173 M75.055 114.327 C 75.172 114.515,75.098 114.557,74.829 114.454 C 74.260 114.236,74.335 114.458,74.939 114.781 C 75.297 114.973,75.400 114.975,75.285 114.790 C 75.189 114.635,75.302 114.524,75.556 114.522 C 75.924 114.519,75.936 114.483,75.630 114.286 C 75.136 113.967,74.845 113.987,75.055 114.327 M105.008 114.685 C 105.095 114.839,105.029 115.013,104.863 115.073 C 104.698 115.132,104.645 115.269,104.746 115.377 C 104.847 115.486,105.058 115.446,105.214 115.290 C 105.433 115.071,105.424 114.937,105.175 114.706 C 104.967 114.513,104.908 114.506,105.008 114.685 M339.736 115.246 C 339.998 115.415,340.010 115.480,339.782 115.483 C 339.609 115.485,339.541 115.606,339.632 115.752 C 339.747 115.939,339.854 115.924,339.990 115.703 C 340.219 115.333,340.064 115.005,339.662 115.010 C 339.490 115.012,339.519 115.106,339.736 115.246 M59.846 115.780 C 59.816 116.178,59.868 116.199,60.218 115.932 C 60.441 115.762,60.656 115.605,60.694 115.585 C 60.732 115.564,60.565 115.495,60.322 115.432 C 60.013 115.351,59.870 115.455,59.846 115.780 M319.568 115.606 C 319.238 115.795,319.076 115.961,319.208 115.976 C 319.340 115.991,319.637 116.039,319.868 116.084 C 320.099 116.128,320.288 116.059,320.288 115.931 C 320.288 115.803,320.423 115.779,320.588 115.878 C 320.792 116.001,320.783 115.928,320.559 115.652 C 320.378 115.429,320.216 115.250,320.199 115.255 C 320.182 115.259,319.898 115.418,319.568 115.606 M340.370 115.653 C 340.141 115.882,340.184 116.447,340.430 116.447 C 340.725 116.447,340.962 115.770,340.719 115.620 C 340.611 115.554,340.454 115.568,340.370 115.653 M57.124 116.267 C 56.938 116.875,56.998 117.115,57.307 116.997 C 57.569 116.896,57.587 116.813,57.376 116.682 C 57.160 116.549,57.170 116.472,57.416 116.375 C 57.648 116.282,57.656 116.239,57.443 116.225 C 57.278 116.215,57.135 116.233,57.124 116.267 M81.983 116.463 C 81.896 116.603,81.890 116.783,81.969 116.863 C 82.048 116.942,82.113 116.881,82.113 116.727 C 82.113 116.341,82.415 116.376,82.967 116.826 C 83.427 117.201,83.427 117.204,82.953 117.052 C 82.568 116.929,82.532 116.958,82.773 117.201 C 82.989 117.418,83.147 117.430,83.334 117.243 C 83.521 117.056,83.438 116.873,83.040 116.594 C 82.390 116.139,82.198 116.115,81.983 116.463 M165.242 116.927 C 165.242 117.389,165.291 117.578,165.352 117.347 C 165.412 117.116,165.412 116.738,165.352 116.507 C 165.291 116.276,165.242 116.465,165.242 116.927 M317.167 116.447 C 316.847 116.653,316.847 116.680,317.167 116.687 C 317.482 116.693,317.483 116.722,317.174 116.917 C 316.980 117.040,316.891 117.211,316.978 117.298 C 317.229 117.549,317.692 117.150,317.557 116.798 C 317.489 116.622,317.563 116.425,317.721 116.361 C 317.878 116.297,317.899 116.238,317.767 116.229 C 317.635 116.221,317.365 116.319,317.167 116.447 M343.233 116.712 C 343.345 116.893,343.214 116.928,342.827 116.821 C 342.340 116.687,342.319 116.702,342.682 116.930 C 343.543 117.469,344.182 117.462,343.690 116.919 C 343.224 116.404,342.972 116.290,343.233 116.712 M85.361 118.117 C 85.283 118.243,85.033 118.287,84.806 118.214 C 84.465 118.105,84.454 118.125,84.746 118.331 C 84.990 118.504,85.192 118.502,85.406 118.324 C 85.680 118.097,85.802 118.203,85.756 118.627 C 85.748 118.704,85.897 118.768,86.089 118.768 C 86.374 118.768,86.365 118.688,86.038 118.327 C 85.578 117.818,85.550 117.810,85.361 118.117 M345.720 117.947 C 345.528 118.573,345.574 118.843,345.835 118.627 C 346.043 118.454,346.236 118.468,346.470 118.673 C 346.655 118.835,346.603 118.724,346.355 118.427 C 345.937 117.927,345.766 117.797,345.720 117.947 M52.030 119.513 C 51.644 119.940,51.866 120.843,52.261 120.448 C 52.363 120.346,52.288 120.150,52.094 120.012 C 51.800 119.805,51.811 119.785,52.153 119.895 C 52.380 119.968,52.630 119.924,52.708 119.797 C 52.786 119.671,52.729 119.568,52.581 119.568 C 52.433 119.568,52.379 119.460,52.461 119.328 C 52.699 118.943,52.449 119.051,52.030 119.513 M87.262 119.307 C 87.337 119.428,87.268 119.570,87.108 119.623 C 86.883 119.698,86.883 119.760,87.107 119.898 C 87.265 119.996,87.395 119.956,87.395 119.808 C 87.395 119.657,87.526 119.618,87.695 119.720 C 87.899 119.842,87.890 119.770,87.666 119.494 C 87.318 119.066,87.031 118.933,87.262 119.307 M347.288 119.345 C 347.198 119.490,347.231 119.716,347.360 119.845 C 347.514 119.999,347.644 119.952,347.737 119.712 C 347.905 119.274,347.524 118.963,347.288 119.345 M88.755 120.588 C 88.858 120.753,88.964 121.033,88.991 121.210 C 89.056 121.643,89.316 121.885,89.316 121.514 C 89.316 121.347,89.445 121.295,89.616 121.393 C 89.781 121.488,89.654 121.278,89.334 120.927 C 88.717 120.250,88.443 120.089,88.755 120.588 M350.606 121.969 C 350.588 122.216,350.754 122.559,350.977 122.733 C 351.337 123.015,351.346 123.005,351.060 122.640 C 350.883 122.414,350.804 122.125,350.884 121.996 C 350.963 121.867,350.941 121.708,350.834 121.642 C 350.727 121.576,350.625 121.723,350.606 121.969 M308.548 122.784 C 307.978 123.365,307.513 123.932,307.514 124.045 C 307.514 124.157,307.399 124.217,307.258 124.176 C 307.116 124.135,307.141 124.270,307.314 124.479 C 307.596 124.819,307.656 124.814,307.934 124.434 C 308.115 124.187,308.149 123.955,308.017 123.873 C 307.893 123.797,308.010 123.536,308.278 123.294 C 308.582 123.019,308.764 122.965,308.764 123.149 C 308.764 123.347,308.888 123.319,309.141 123.066 C 309.348 122.859,309.632 122.689,309.770 122.689 C 309.939 122.689,309.934 122.583,309.755 122.367 C 309.608 122.190,309.559 121.974,309.646 121.887 C 309.733 121.800,309.754 121.729,309.694 121.729 C 309.633 121.729,309.118 122.204,308.548 122.784 M90.394 122.714 C 90.656 123.030,90.899 123.334,90.934 123.389 C 90.968 123.444,90.996 123.313,90.996 123.098 C 90.996 122.882,90.753 122.578,90.456 122.422 L 89.916 122.139 90.394 122.714 M351.581 122.796 C 351.581 122.987,351.644 123.136,351.721 123.127 C 352.135 123.083,352.308 123.197,352.063 123.354 C 351.865 123.479,351.927 123.705,352.275 124.130 L 352.765 124.730 352.578 124.132 C 352.404 123.573,352.422 123.557,352.847 123.881 C 353.097 124.072,352.929 123.828,352.474 123.339 C 351.518 122.311,351.581 122.349,351.581 122.796 M92.055 123.386 C 92.298 123.654,92.371 123.902,92.233 123.987 C 92.104 124.067,91.943 123.997,91.876 123.831 C 91.793 123.624,91.749 123.643,91.736 123.892 C 91.708 124.426,92.659 124.966,93.005 124.612 C 93.209 124.406,93.194 124.355,92.947 124.413 C 92.766 124.455,92.563 124.340,92.496 124.156 C 92.412 123.927,92.478 123.883,92.706 124.015 C 92.888 124.121,92.775 123.920,92.455 123.568 C 92.135 123.217,91.821 122.929,91.758 122.929 C 91.694 122.929,91.828 123.135,92.055 123.386 M46.362 124.705 C 45.965 125.127,45.900 125.328,46.117 125.462 C 46.307 125.579,46.351 125.545,46.241 125.367 C 46.147 125.215,46.185 125.090,46.324 125.090 C 46.464 125.090,46.579 125.216,46.579 125.370 C 46.579 125.876,46.881 125.360,46.950 124.738 C 47.031 123.994,47.030 123.994,46.362 124.705 M44.682 127.106 C 44.262 127.552,44.212 127.721,44.460 127.864 C 44.635 127.965,44.696 127.958,44.596 127.847 C 44.495 127.737,44.649 127.396,44.938 127.089 C 45.226 126.782,45.408 126.531,45.342 126.531 C 45.276 126.531,44.979 126.789,44.682 127.106 M96.127 129.112 C 96.226 129.277,96.192 129.412,96.053 129.412 C 95.913 129.412,95.798 129.520,95.798 129.652 C 95.798 129.949,96.442 129.970,96.622 129.679 C 96.694 129.562,96.572 129.319,96.350 129.139 C 96.072 128.914,96.003 128.905,96.127 129.112 M357.583 132.155 C 357.734 132.476,357.896 132.700,357.943 132.654 C 358.092 132.505,357.718 131.573,357.509 131.573 C 357.399 131.573,357.432 131.835,357.583 132.155 M40.580 134.687 C 40.220 135.360,40.284 135.576,40.684 135.040 C 41.017 134.595,41.028 134.601,40.922 135.174 C 40.861 135.504,40.881 135.612,40.966 135.414 C 41.051 135.216,41.217 134.932,41.335 134.782 C 41.471 134.609,41.417 134.459,41.186 134.371 C 40.972 134.288,40.724 134.418,40.580 134.687 M358.610 134.412 C 358.427 134.707,358.847 135.022,359.163 134.827 C 359.284 134.752,359.438 134.802,359.505 134.938 C 359.581 135.092,359.610 135.086,359.580 134.922 C 359.553 134.777,359.439 134.675,359.325 134.696 C 359.211 134.718,359.038 134.606,358.940 134.449 C 358.823 134.258,358.712 134.246,358.610 134.412 M98.575 135.148 C 98.485 135.295,98.552 135.416,98.725 135.418 C 98.979 135.421,98.978 135.460,98.719 135.625 C 98.325 135.875,98.359 136.128,98.862 136.684 C 99.206 137.063,99.274 137.070,99.458 136.742 C 99.710 136.292,99.469 135.823,99.102 136.050 C 98.938 136.152,98.890 136.077,98.977 135.852 C 99.156 135.384,98.808 134.773,98.575 135.148 M301.236 135.540 C 301.345 135.825,301.312 135.917,301.138 135.810 C 300.992 135.720,300.806 135.756,300.723 135.890 C 300.640 136.025,300.676 136.134,300.804 136.134 C 300.931 136.134,300.976 136.378,300.902 136.675 C 300.752 137.287,300.821 137.238,301.384 136.337 C 301.736 135.774,301.741 135.663,301.426 135.402 C 301.128 135.155,301.097 135.177,301.236 135.540 M39.856 138.655 C 39.856 138.986,39.949 139.256,40.063 139.256 C 40.176 139.256,40.218 138.986,40.155 138.655 C 40.092 138.325,39.999 138.055,39.948 138.055 C 39.897 138.055,39.856 138.325,39.856 138.655 M99.821 138.896 C 99.758 139.226,99.800 139.496,99.913 139.496 C 100.027 139.496,100.120 139.226,100.120 138.896 C 100.120 138.565,100.079 138.295,100.028 138.295 C 99.977 138.295,99.884 138.565,99.821 138.896 M299.880 141.056 C 299.880 141.695,299.958 142.139,300.053 142.044 C 300.225 141.872,300.163 140.186,299.978 139.996 C 299.924 139.941,299.880 140.418,299.880 141.056 M299.880 147.419 C 299.880 148.123,299.928 148.651,299.987 148.592 C 300.172 148.408,300.222 146.480,300.047 146.305 C 299.955 146.213,299.880 146.715,299.880 147.419 M99.821 149.700 C 99.884 150.030,99.977 150.300,100.028 150.300 C 100.079 150.300,100.120 150.030,100.120 149.700 C 100.120 149.370,100.027 149.100,99.913 149.100 C 99.800 149.100,99.758 149.370,99.821 149.700 M300.620 152.497 C 300.742 152.727,300.977 152.992,301.142 153.086 C 301.306 153.181,301.361 153.171,301.264 153.063 C 301.167 152.956,301.275 152.715,301.504 152.527 C 301.733 152.339,301.786 152.254,301.621 152.337 C 301.456 152.421,301.321 152.382,301.321 152.250 C 301.321 152.118,301.113 152.026,300.859 152.045 C 300.497 152.073,300.445 152.171,300.620 152.497 M98.693 152.598 C 98.848 152.784,99.077 152.872,99.203 152.794 C 99.482 152.622,99.275 152.386,98.779 152.313 C 98.490 152.271,98.472 152.331,98.693 152.598 M358.881 153.419 C 358.446 153.927,359.140 154.053,359.598 153.549 C 359.700 153.437,359.630 153.433,359.443 153.542 C 359.189 153.690,359.141 153.638,359.255 153.341 C 359.455 152.821,359.380 152.837,358.881 153.419 M40.743 153.915 C 40.967 154.296,41.199 154.559,41.258 154.500 C 41.317 154.441,41.228 154.229,41.061 154.027 C 40.816 153.732,40.817 153.661,41.067 153.661 C 41.466 153.661,41.154 153.344,40.688 153.275 C 40.392 153.232,40.400 153.336,40.743 153.915 M97.379 155.737 C 97.296 155.954,97.284 156.188,97.353 156.257 C 97.422 156.326,97.479 156.257,97.479 156.102 C 97.479 155.948,97.599 155.822,97.745 155.822 C 97.894 155.822,97.946 156.007,97.864 156.242 C 97.742 156.593,97.778 156.585,98.079 156.197 C 98.277 155.940,98.438 155.616,98.436 155.476 C 98.434 155.336,98.327 155.384,98.199 155.582 C 98.044 155.822,97.965 155.842,97.963 155.642 C 97.958 155.209,97.557 155.273,97.379 155.737 M301.954 156.116 C 302.020 156.223,302.193 156.237,302.338 156.147 C 302.507 156.043,302.549 156.124,302.454 156.371 C 302.352 156.637,302.410 156.718,302.638 156.631 C 303.107 156.451,302.815 155.848,302.278 155.889 C 302.034 155.907,301.888 156.009,301.954 156.116 M357.522 156.857 C 357.512 157.096,357.406 157.231,357.288 157.158 C 356.879 156.905,356.813 157.709,357.217 158.026 C 357.590 158.317,357.593 158.305,357.263 157.878 C 356.940 157.462,356.942 157.428,357.280 157.554 C 357.509 157.640,357.776 157.505,357.958 157.214 C 358.123 156.949,358.152 156.798,358.021 156.879 C 357.891 156.960,357.729 156.890,357.663 156.724 C 357.591 156.547,357.533 156.602,357.522 156.857 M42.323 157.519 C 42.477 157.766,42.736 157.875,42.960 157.786 C 43.286 157.658,43.279 157.626,42.914 157.552 C 42.682 157.505,42.542 157.385,42.604 157.285 C 42.665 157.185,42.569 157.103,42.389 157.103 C 42.140 157.103,42.124 157.201,42.323 157.519 M165.242 161.104 C 165.242 161.567,165.291 161.756,165.352 161.525 C 165.412 161.294,165.412 160.915,165.352 160.684 C 165.291 160.453,165.242 160.642,165.242 161.104 M94.425 161.230 C 94.217 161.457,94.209 161.575,94.399 161.638 C 94.593 161.703,94.589 161.873,94.384 162.256 C 93.922 163.119,94.268 162.858,94.815 161.930 C 95.092 161.460,95.220 161.137,95.099 161.212 C 94.978 161.286,94.843 161.249,94.798 161.130 C 94.754 161.010,94.586 161.055,94.425 161.230 M354.631 161.694 C 354.171 162.249,354.586 162.651,355.120 162.168 C 355.368 161.944,355.513 161.667,355.442 161.553 C 355.253 161.247,354.959 161.298,354.631 161.694 M93.706 162.845 C 93.766 163.010,93.640 163.361,93.426 163.625 C 93.043 164.099,93.045 164.099,93.561 163.663 C 93.849 163.419,94.027 163.068,93.956 162.883 C 93.796 162.465,93.556 162.429,93.706 162.845 M46.163 163.248 C 46.185 163.532,46.420 163.950,46.686 164.175 C 47.150 164.568,47.156 164.567,46.825 164.141 C 46.635 163.897,46.456 163.536,46.427 163.339 C 46.342 162.760,46.121 162.683,46.163 163.248 M294.886 163.087 C 294.705 163.306,294.701 163.509,294.874 163.754 C 295.082 164.047,295.102 164.039,294.994 163.701 C 294.923 163.478,294.994 163.250,295.152 163.194 C 295.309 163.137,295.373 163.020,295.292 162.932 C 295.212 162.845,295.029 162.915,294.886 163.087 M92.465 164.060 C 92.450 164.299,92.329 164.427,92.197 164.346 C 92.065 164.264,91.957 164.312,91.957 164.452 C 91.957 164.591,92.082 164.706,92.234 164.706 C 92.395 164.706,92.334 164.901,92.091 165.170 C 91.861 165.425,91.537 165.582,91.372 165.519 C 90.964 165.362,90.373 166.099,90.669 166.395 C 90.813 166.540,91.335 166.171,92.087 165.390 C 92.742 164.712,93.150 164.228,92.995 164.314 C 92.837 164.403,92.665 164.286,92.603 164.049 C 92.500 163.654,92.491 163.655,92.465 164.060 M89.533 166.947 C 89.149 167.231,88.984 168.152,89.360 167.920 C 89.472 167.851,89.490 167.675,89.400 167.530 C 89.296 167.361,89.378 167.320,89.629 167.416 C 90.079 167.589,90.322 167.329,90.079 166.936 C 89.957 166.740,89.811 166.743,89.533 166.947 M311.792 168.111 C 311.909 168.301,311.826 168.336,311.530 168.223 C 311.171 168.085,311.146 168.116,311.388 168.408 C 311.549 168.601,311.834 168.700,312.022 168.628 C 312.472 168.455,312.458 168.154,311.992 167.976 C 311.749 167.882,311.679 167.929,311.792 168.111 M163.007 168.367 C 162.801 169.039,162.856 169.268,163.162 169.014 C 163.348 168.859,163.441 168.637,163.369 168.520 C 163.244 168.319,163.047 168.236,163.007 168.367 M346.699 169.148 C 346.476 169.416,346.472 169.508,346.683 169.508 C 346.839 169.508,346.899 169.618,346.816 169.752 C 346.733 169.886,346.548 169.923,346.405 169.835 C 346.243 169.735,346.214 169.786,346.329 169.972 C 346.569 170.361,347.014 169.938,347.063 169.271 C 347.106 168.692,347.083 168.684,346.699 169.148 M52.101 169.151 C 52.101 169.166,52.440 169.428,52.855 169.735 C 53.270 170.042,53.525 170.156,53.422 169.989 C 53.297 169.788,53.346 169.726,53.568 169.807 C 53.751 169.873,53.867 170.077,53.824 170.258 C 53.760 170.535,53.799 170.536,54.064 170.265 C 54.328 169.997,54.283 169.875,53.795 169.545 C 53.355 169.246,52.101 168.955,52.101 169.151 M86.561 169.497 C 86.483 169.624,86.234 169.667,86.007 169.595 C 85.656 169.482,85.649 169.502,85.954 169.722 C 86.283 169.958,86.131 170.096,85.636 170.010 C 85.528 169.992,85.512 170.095,85.602 170.240 C 85.738 170.461,86.915 169.660,86.915 169.346 C 86.915 169.184,86.698 169.277,86.561 169.497 M55.702 170.963 C 55.702 171.102,55.567 171.136,55.402 171.037 C 55.204 170.917,55.215 170.996,55.436 171.268 C 55.620 171.495,55.830 171.621,55.904 171.547 C 56.136 171.315,56.149 170.708,55.921 170.708 C 55.801 170.708,55.702 170.823,55.702 170.963 M343.720 171.163 C 343.252 171.681,343.650 172.174,344.139 171.682 C 344.352 171.467,344.304 171.437,343.938 171.554 C 343.466 171.705,343.465 171.701,343.920 171.331 C 344.175 171.123,344.327 170.898,344.259 170.829 C 344.191 170.761,343.948 170.911,343.720 171.163 M318.785 172.192 C 318.949 172.391,319.020 172.617,318.942 172.695 C 318.864 172.773,319.031 172.776,319.314 172.702 C 319.894 172.550,319.900 172.564,319.088 172.142 C 318.560 171.868,318.523 171.874,318.785 172.192 M62.241 173.401 C 62.045 173.638,62.121 173.709,62.565 173.709 C 62.884 173.709,63.111 173.608,63.070 173.484 C 62.947 173.115,62.515 173.072,62.241 173.401 M76.771 173.275 C 76.540 173.335,76.351 173.467,76.351 173.567 C 76.351 173.667,76.188 173.768,75.990 173.790 C 75.792 173.812,75.473 173.848,75.281 173.870 C 75.088 173.892,74.987 174.000,75.055 174.110 C 75.123 174.221,75.389 174.199,75.645 174.062 C 75.901 173.925,76.110 173.884,76.110 173.971 C 76.110 174.057,76.263 174.002,76.449 173.847 C 76.658 173.674,76.843 173.655,76.931 173.797 C 77.010 173.925,76.938 174.083,76.772 174.150 C 76.606 174.217,76.585 174.280,76.725 174.291 C 76.865 174.301,77.189 174.147,77.445 173.949 C 77.904 173.594,77.904 173.591,77.431 173.754 C 77.005 173.901,76.988 173.874,77.280 173.514 C 77.612 173.107,77.541 173.073,76.771 173.275 M322.370 173.450 C 322.298 173.637,322.400 173.852,322.597 173.927 C 322.827 174.015,322.893 173.965,322.782 173.786 C 322.667 173.600,322.743 173.559,323.010 173.661 C 323.271 173.761,323.409 173.692,323.409 173.462 C 323.409 173.010,322.542 173.000,322.370 173.450 M336.899 173.435 C 336.412 173.705,336.388 173.782,336.706 174.046 C 337.141 174.407,337.869 174.087,337.956 173.496 C 338.024 173.035,337.658 173.013,336.899 173.435 M109.503 174.204 C 109.492 174.344,109.619 174.642,109.784 174.868 C 110.053 175.235,110.088 175.211,110.121 174.637 C 110.144 174.241,110.086 174.112,109.970 174.300 C 109.821 174.541,109.755 174.536,109.652 174.277 C 109.580 174.097,109.513 174.064,109.503 174.204 M157.974 177.082 C 157.730 177.376,157.626 177.389,157.475 177.145 C 157.349 176.941,157.298 177.017,157.324 177.368 L 157.364 177.900 157.914 177.383 C 158.216 177.099,158.463 176.832,158.463 176.789 C 158.463 176.613,158.264 176.732,157.974 177.082 M249.144 183.045 C 249.065 183.250,249.096 183.477,249.214 183.550 C 249.520 183.739,249.702 183.346,249.477 182.982 C 249.328 182.740,249.255 182.754,249.144 183.045 M254.117 185.654 C 254.022 185.819,254.032 185.875,254.139 185.778 C 254.247 185.681,254.459 185.772,254.611 185.980 C 254.859 186.320,254.922 186.313,255.235 185.916 C 255.553 185.511,255.547 185.502,255.162 185.804 C 254.799 186.088,254.742 186.080,254.742 185.744 C 254.742 185.282,254.363 185.228,254.117 185.654 M259.394 187.082 C 259.300 187.234,259.338 187.282,259.482 187.193 C 259.620 187.108,259.796 187.199,259.871 187.396 C 259.947 187.594,260.147 187.747,260.317 187.736 C 260.559 187.721,260.561 187.692,260.323 187.596 C 260.157 187.529,260.075 187.386,260.141 187.280 C 260.207 187.173,260.103 187.025,259.910 186.950 C 259.717 186.876,259.485 186.936,259.394 187.082 " stroke="none" fill="#008080" fill-rule="evenodd"></path><path id="path3" d="M196.925 38.595 C 198.600 38.636,201.410 38.636,203.167 38.595 C 204.925 38.554,203.553 38.520,200.120 38.520 C 196.687 38.520,195.249 38.553,196.925 38.595 M191.837 38.813 C 191.639 38.878,191.044 39.134,190.516 39.381 C 189.988 39.628,189.340 39.877,189.076 39.935 C 188.692 40.019,188.717 40.046,189.199 40.068 C 189.531 40.084,190.221 39.872,190.733 39.598 C 191.244 39.324,192.107 39.011,192.650 38.904 C 193.465 38.742,193.512 38.707,192.917 38.701 C 192.521 38.697,192.035 38.747,191.837 38.813 M207.203 38.832 C 207.533 38.893,208.421 39.202,209.176 39.519 C 209.932 39.836,210.742 40.091,210.977 40.085 C 211.212 40.080,210.999 39.918,210.504 39.725 C 210.009 39.533,209.199 39.218,208.703 39.026 C 208.208 38.834,207.533 38.687,207.203 38.699 L 206.603 38.721 207.203 38.832 M187.201 40.704 C 186.831 41.030,186.634 41.297,186.764 41.297 C 186.894 41.297,187.143 41.154,187.318 40.981 C 187.492 40.807,187.851 40.540,188.115 40.388 C 188.449 40.195,188.486 40.111,188.235 40.111 C 188.037 40.111,187.572 40.378,187.201 40.704 M212.360 40.708 C 212.856 41.045,213.309 41.273,213.367 41.215 C 213.515 41.067,212.116 40.096,211.754 40.096 C 211.591 40.096,211.863 40.371,212.360 40.708 M185.234 41.523 C 184.970 41.632,184.548 41.949,184.297 42.229 C 184.045 42.508,183.760 42.737,183.664 42.737 C 182.796 42.737,177.383 47.534,175.572 49.906 C 174.953 50.718,174.511 51.787,175.070 51.119 C 175.246 50.910,175.515 50.780,175.668 50.832 C 175.821 50.884,176.028 50.794,176.128 50.632 C 176.253 50.429,176.186 50.386,175.910 50.492 C 175.183 50.771,175.195 50.754,177.791 47.821 C 179.206 46.223,180.720 44.978,181.110 45.092 C 181.219 45.124,181.243 45.044,181.162 44.914 C 181.008 44.664,182.306 43.879,182.563 44.067 C 182.645 44.128,182.659 44.105,182.593 44.017 C 182.431 43.802,183.193 42.977,183.554 42.977 C 183.711 42.977,184.100 42.748,184.417 42.467 C 184.734 42.186,185.318 41.812,185.714 41.636 C 186.482 41.294,186.044 41.192,185.234 41.523 M214.257 41.545 C 214.637 41.659,215.211 41.998,215.531 42.299 C 215.884 42.630,216.058 42.701,215.972 42.479 C 215.791 42.006,214.582 41.290,214.009 41.317 C 213.736 41.330,213.832 41.418,214.257 41.545 M217.408 43.585 C 219.416 45.006,219.917 45.430,221.759 47.271 C 222.735 48.247,223.967 49.705,224.496 50.513 C 225.648 52.268,226.651 53.427,226.651 53.003 C 226.651 52.834,226.436 52.562,226.174 52.399 C 225.911 52.235,225.528 51.696,225.322 51.200 C 225.116 50.705,224.744 50.084,224.496 49.820 C 224.248 49.556,223.361 48.601,222.526 47.698 C 221.692 46.795,220.866 45.931,220.691 45.777 C 220.517 45.624,220.189 45.332,219.962 45.129 C 219.227 44.471,216.672 42.737,216.437 42.737 C 216.311 42.737,216.748 43.119,217.408 43.585 M173.980 52.342 C 173.600 52.705,173.349 53.151,173.421 53.332 C 173.526 53.598,173.555 53.594,173.570 53.310 C 173.581 53.117,173.887 52.722,174.250 52.432 C 174.613 52.141,174.856 51.854,174.790 51.792 C 174.724 51.731,174.359 51.978,173.980 52.342 M226.723 54.189 C 226.754 54.691,226.916 54.995,227.190 55.067 C 227.421 55.127,227.711 55.430,227.835 55.740 C 227.982 56.105,228.066 56.166,228.076 55.912 C 228.084 55.697,227.913 55.373,227.694 55.192 C 227.476 55.010,227.157 54.538,226.986 54.142 L 226.675 53.421 226.723 54.189 M173.128 54.006 C 173.118 54.196,172.901 54.574,172.647 54.846 C 172.393 55.119,172.122 55.666,172.045 56.062 C 171.969 56.459,171.973 56.621,172.054 56.423 C 172.136 56.224,172.471 55.663,172.800 55.174 C 173.129 54.686,173.341 54.146,173.272 53.974 C 173.177 53.737,173.143 53.745,173.128 54.006 M228.124 56.887 C 228.106 57.209,228.324 57.720,228.608 58.023 C 228.893 58.325,229.213 58.981,229.321 59.479 C 229.512 60.366,229.514 60.363,229.419 59.306 C 229.356 58.610,229.154 58.093,228.848 57.845 C 228.588 57.634,228.326 57.201,228.266 56.882 L 228.157 56.303 228.124 56.887 M171.198 57.908 C 170.929 58.197,170.717 58.603,170.727 58.809 C 170.744 59.132,170.764 59.134,170.878 58.824 C 170.950 58.625,171.231 58.220,171.501 57.923 C 171.771 57.626,171.924 57.383,171.840 57.383 C 171.756 57.383,171.467 57.619,171.198 57.908 M170.468 60.017 C 170.468 60.409,170.239 61.168,169.960 61.705 C 169.630 62.338,169.424 63.246,169.372 64.293 L 169.293 65.906 169.498 64.312 C 169.704 62.707,170.109 61.603,170.420 61.794 C 170.513 61.851,170.620 61.313,170.660 60.600 C 170.699 59.887,170.672 59.304,170.599 59.304 C 170.527 59.304,170.468 59.625,170.468 60.017 M229.588 61.388 C 229.612 61.808,229.735 62.087,229.863 62.009 C 229.996 61.926,230.027 62.039,229.936 62.278 C 229.844 62.516,229.875 62.630,230.008 62.548 C 230.228 62.412,230.365 62.790,230.572 64.106 C 230.629 64.465,230.676 64.321,230.689 63.745 C 230.702 63.150,230.489 62.374,230.127 61.705 C 229.551 60.636,229.545 60.633,229.588 61.388 M230.850 120.168 C 230.850 150.408,230.878 162.743,230.912 147.580 C 230.946 132.416,230.946 107.674,230.912 92.598 C 230.878 77.521,230.850 89.928,230.850 120.168 M169.146 120.168 C 169.146 149.352,169.173 161.326,169.208 146.778 C 169.242 132.230,169.242 108.352,169.208 93.717 C 169.174 79.081,169.146 90.984,169.146 120.168 M169.368 175.897 C 169.412 176.947,169.604 177.916,169.867 178.418 C 170.103 178.865,170.383 179.664,170.491 180.192 C 170.667 181.058,170.674 181.035,170.562 179.952 C 170.495 179.292,170.422 178.570,170.402 178.349 C 170.382 178.128,170.288 177.994,170.194 178.052 C 169.958 178.198,169.705 177.337,169.484 175.630 L 169.297 174.190 169.368 175.897 M230.533 176.271 C 230.483 177.359,230.270 177.950,229.990 177.777 C 229.873 177.705,229.849 177.832,229.936 178.058 C 230.023 178.286,229.995 178.409,229.873 178.334 C 229.751 178.259,229.635 178.539,229.615 178.955 C 229.581 179.645,229.629 179.602,230.169 178.454 C 230.573 177.596,230.732 176.909,230.667 176.293 L 230.573 175.390 230.533 176.271 M229.292 180.803 C 229.292 181.267,229.068 181.759,228.678 182.148 C 228.286 182.540,228.101 182.948,228.165 183.278 L 228.266 183.794 228.299 183.267 C 228.317 182.977,228.556 182.583,228.831 182.390 C 229.296 182.065,229.822 180.072,229.443 180.072 C 229.360 180.072,229.292 180.401,229.292 180.803 M170.724 181.531 C 170.715 181.739,170.978 182.163,171.309 182.473 C 171.639 182.783,171.909 182.922,171.909 182.781 C 171.909 182.640,171.744 182.461,171.543 182.384 C 171.342 182.307,171.078 181.998,170.958 181.698 C 170.820 181.355,170.733 181.293,170.724 181.531 M171.909 183.842 C 171.909 184.176,172.430 185.417,172.645 185.594 C 172.725 185.660,172.906 185.926,173.047 186.185 C 173.283 186.615,173.302 186.601,173.267 186.028 C 173.246 185.683,173.159 185.443,173.074 185.496 C 172.988 185.549,172.691 185.133,172.414 184.573 C 172.136 184.012,171.909 183.683,171.909 183.842 M227.650 184.633 C 227.474 185.031,227.253 185.310,227.160 185.252 C 227.067 185.194,226.975 185.358,226.955 185.616 C 226.936 185.874,227.022 186.022,227.147 185.944 C 227.470 185.745,228.135 184.405,228.045 184.136 C 228.004 184.011,227.826 184.235,227.650 184.633 M226.508 186.920 C 226.424 187.254,226.168 187.659,225.939 187.821 C 225.709 187.983,225.339 188.470,225.116 188.903 C 224.892 189.337,224.613 189.632,224.496 189.560 C 224.379 189.487,224.205 189.554,224.109 189.709 C 224.001 189.885,224.039 189.926,224.213 189.819 C 224.365 189.725,224.490 189.762,224.490 189.902 C 224.490 190.042,224.385 190.156,224.256 190.156 C 224.127 190.156,223.868 190.453,223.679 190.816 C 223.243 191.657,221.198 193.659,220.865 193.571 C 220.726 193.535,220.678 193.611,220.757 193.739 C 220.901 193.973,219.605 195.078,219.188 195.078 C 219.067 195.078,218.944 195.186,218.915 195.318 C 218.796 195.856,215.029 198.456,214.000 198.709 C 213.629 198.801,213.001 199.118,212.605 199.413 C 212.209 199.709,211.669 200.004,211.405 200.068 C 210.957 200.176,210.960 200.186,211.446 200.212 C 211.733 200.228,212.273 199.984,212.647 199.671 C 213.020 199.358,213.668 199.027,214.086 198.936 C 214.504 198.845,215.206 198.504,215.647 198.178 C 216.087 197.852,217.135 197.139,217.976 196.593 C 220.146 195.184,224.336 190.895,225.203 189.196 C 225.371 188.866,225.754 188.325,226.053 187.995 C 226.577 187.416,227.062 186.315,226.791 186.315 C 226.719 186.315,226.591 186.587,226.508 186.920 M173.349 187.141 C 173.349 187.341,173.611 187.676,173.932 187.885 C 174.252 188.095,174.617 188.563,174.743 188.924 C 174.869 189.286,175.545 190.278,176.245 191.129 C 177.852 193.082,179.155 194.307,182.086 196.622 C 183.086 197.412,183.923 197.651,183.003 196.884 C 182.700 196.631,182.460 196.344,182.469 196.247 C 182.478 196.149,182.316 196.044,182.108 196.013 C 181.486 195.922,180.065 194.749,178.087 192.694 C 175.748 190.263,175.625 190.115,175.130 189.148 C 174.572 188.060,173.349 186.681,173.349 187.141 M184.329 198.054 C 184.729 198.436,185.421 198.828,185.866 198.925 C 186.311 199.022,186.980 199.358,187.353 199.671 C 187.727 199.984,188.267 200.236,188.554 200.231 C 188.959 200.223,188.890 200.141,188.242 199.860 C 187.784 199.661,187.244 199.353,187.042 199.176 C 186.840 198.998,186.337 198.781,185.925 198.694 C 185.512 198.606,184.926 198.270,184.622 197.947 C 184.318 197.623,183.965 197.359,183.836 197.359 C 183.707 197.359,183.929 197.672,184.329 198.054 M189.530 200.412 C 189.779 200.476,190.320 200.733,190.730 200.984 C 191.141 201.234,191.747 201.430,192.077 201.419 L 192.677 201.399 192.075 201.216 C 191.744 201.116,191.128 200.855,190.707 200.637 C 190.285 200.419,189.745 200.253,189.508 200.268 C 189.114 200.293,189.116 200.306,189.530 200.412 M209.724 200.535 C 209.460 200.689,208.866 200.951,208.403 201.117 C 207.889 201.302,207.749 201.421,208.043 201.423 C 208.307 201.424,209.064 201.160,209.724 200.835 C 210.384 200.510,210.762 200.247,210.564 200.250 C 210.366 200.252,209.988 200.381,209.724 200.535 M193.462 201.615 C 193.893 201.668,194.541 201.667,194.902 201.612 C 195.263 201.557,194.910 201.514,194.118 201.515 C 193.325 201.516,193.030 201.561,193.462 201.615 M205.466 201.615 C 205.898 201.668,206.546 201.667,206.907 201.612 C 207.268 201.557,206.915 201.514,206.122 201.515 C 205.330 201.516,205.035 201.561,205.466 201.615 " stroke="none" fill="#ff0000" fill-rule="evenodd"></path><path id="path4" d="M39.875 140.396 C 39.896 141.651,40.012 141.550,40.150 140.156 C 40.200 139.661,40.153 139.256,40.048 139.256 C 39.942 139.256,39.864 139.769,39.875 140.396 M300.040 142.057 C 299.952 142.145,299.892 142.604,299.908 143.077 L 299.935 143.938 300.122 142.977 C 300.319 141.968,300.303 141.793,300.040 142.057 M299.901 145.618 C 299.893 145.882,299.992 146.261,300.120 146.459 C 300.428 146.936,300.428 146.336,300.120 145.618 L 299.914 145.138 299.901 145.618 M39.856 148.459 C 39.856 149.076,39.954 149.580,40.073 149.580 C 40.269 149.580,40.153 147.681,39.943 147.439 C 39.895 147.384,39.856 147.843,39.856 148.459 " stroke="none" fill="#8080ff" fill-rule="evenodd"></path><path id="path5" d="M261.734 45.612 C 259.814 45.734,259.174 45.862,258.949 46.170 C 258.762 46.426,258.050 46.656,256.974 46.809 C 254.918 47.100,254.502 47.250,254.502 47.699 C 254.502 47.891,254.405 47.988,254.287 47.915 C 254.015 47.747,252.179 48.388,251.384 48.929 C 251.052 49.155,250.348 49.510,249.820 49.718 C 249.292 49.926,248.887 50.224,248.920 50.379 C 248.953 50.533,248.899 50.636,248.800 50.607 C 248.446 50.502,247.306 51.438,247.460 51.707 C 247.546 51.858,247.531 51.904,247.428 51.811 C 247.178 51.586,245.584 52.812,245.758 53.094 C 245.833 53.215,245.805 53.298,245.696 53.279 C 245.287 53.208,245.001 53.326,244.418 53.808 C 244.088 54.080,243.969 54.223,244.155 54.125 C 244.377 54.008,244.434 54.042,244.321 54.225 C 244.226 54.377,244.001 54.502,243.820 54.502 C 243.430 54.502,242.442 55.808,242.664 56.030 C 242.748 56.114,242.640 56.182,242.423 56.182 C 242.206 56.182,241.864 56.501,241.663 56.891 C 241.461 57.280,241.161 57.686,240.996 57.791 C 240.426 58.156,239.210 59.907,238.924 60.775 C 238.767 61.255,238.427 61.837,238.171 62.069 C 237.914 62.301,237.637 62.848,237.556 63.284 C 237.474 63.721,237.152 64.423,236.840 64.845 C 236.529 65.268,236.201 66.111,236.113 66.720 C 236.024 67.329,235.722 68.259,235.443 68.788 L 234.934 69.748 234.934 116.687 C 234.934 165.136,234.933 165.106,235.823 164.555 C 235.976 164.461,236.021 164.501,235.930 164.648 C 235.843 164.789,235.907 164.960,236.073 165.027 C 236.258 165.101,236.270 165.156,236.105 165.167 C 235.614 165.202,236.494 168.788,236.995 168.788 C 237.106 168.788,237.319 169.243,237.469 169.799 C 237.619 170.356,237.950 171.077,238.205 171.401 C 238.461 171.726,238.880 172.467,239.137 173.048 C 239.402 173.648,239.713 174.038,239.856 173.949 C 239.995 173.864,240.092 173.883,240.074 173.992 C 239.994 174.450,240.127 174.754,240.664 175.332 C 240.976 175.669,241.474 176.286,241.771 176.703 C 242.113 177.183,242.443 177.411,242.671 177.323 C 242.913 177.231,242.988 177.297,242.900 177.526 C 242.828 177.713,242.978 178.055,243.233 178.286 C 243.489 178.517,243.698 178.608,243.698 178.489 C 243.699 178.369,243.913 178.622,244.175 179.052 C 244.437 179.481,244.733 179.834,244.834 179.836 C 244.935 179.838,245.571 180.352,246.247 180.977 C 248.077 182.667,248.876 183.201,249.156 182.921 C 249.316 182.761,249.446 182.811,249.545 183.070 C 249.632 183.296,249.595 183.397,249.457 183.312 C 249.326 183.231,249.220 183.216,249.220 183.278 C 249.220 183.406,252.216 184.888,253.610 185.451 C 254.110 185.652,254.455 185.713,254.376 185.586 C 254.298 185.458,254.335 185.354,254.460 185.354 C 254.584 185.354,254.740 185.560,254.805 185.811 C 254.933 186.301,256.273 186.661,258.824 186.893 C 259.550 186.959,260.177 187.018,260.218 187.024 C 260.259 187.030,260.233 187.132,260.160 187.250 C 259.908 187.657,260.875 187.820,264.230 187.936 C 267.502 188.049,270.348 187.743,270.348 187.279 C 270.348 187.079,270.924 186.964,273.448 186.657 C 274.292 186.554,274.930 186.319,275.269 185.987 C 275.556 185.705,276.106 185.441,276.491 185.401 C 277.320 185.313,279.276 184.419,279.135 184.192 C 279.082 184.105,279.292 184.018,279.604 184.000 C 280.211 183.963,281.450 183.117,281.264 182.865 C 281.203 182.781,281.222 182.764,281.306 182.827 C 281.534 182.995,282.833 182.173,282.833 181.861 C 282.833 181.713,282.972 181.593,283.141 181.593 C 283.657 181.593,284.760 180.756,284.595 180.489 C 284.509 180.351,284.546 180.304,284.677 180.385 C 284.982 180.573,286.987 178.544,286.740 178.297 C 286.638 178.195,286.682 178.147,286.838 178.191 C 287.300 178.322,289.606 175.728,289.474 175.225 C 289.412 174.985,289.458 174.850,289.578 174.924 C 289.698 174.998,289.796 174.938,289.796 174.790 C 289.796 174.642,289.895 174.583,290.017 174.658 C 290.138 174.733,290.355 174.439,290.498 174.004 C 290.642 173.569,290.972 173.032,291.231 172.809 C 291.491 172.587,291.777 172.104,291.867 171.737 C 291.956 171.369,292.279 170.768,292.584 170.401 C 292.889 170.034,293.207 169.332,293.290 168.840 C 293.374 168.349,293.655 167.645,293.915 167.276 C 294.388 166.605,294.967 163.908,294.723 163.513 C 294.652 163.398,294.753 163.145,294.947 162.950 C 295.141 162.756,295.256 162.366,295.202 162.084 C 295.148 161.802,295.191 161.626,295.298 161.692 C 295.745 161.968,295.793 157.358,295.775 116.447 C 295.760 81.097,295.643 68.751,295.350 71.489 C 295.333 71.654,295.206 71.789,295.070 71.789 C 294.898 71.789,294.898 71.644,295.070 71.324 C 295.376 70.752,295.387 70.517,295.100 70.694 C 294.981 70.768,294.939 70.613,295.008 70.348 C 295.081 70.069,295.016 69.868,294.852 69.868 C 294.697 69.868,294.627 69.775,294.698 69.661 C 294.925 69.293,294.326 66.498,294.055 66.665 C 293.916 66.751,293.874 66.707,293.961 66.565 C 294.164 66.238,293.891 65.510,293.627 65.673 C 293.517 65.741,293.442 65.596,293.460 65.352 C 293.503 64.785,292.700 62.665,292.443 62.665 C 292.336 62.665,292.183 62.403,292.103 62.083 C 292.023 61.763,291.711 61.196,291.411 60.823 C 291.111 60.450,290.678 59.733,290.449 59.231 C 290.176 58.633,289.929 58.377,289.734 58.489 C 289.570 58.583,289.514 58.574,289.609 58.469 C 290.248 57.761,282.324 50.218,281.542 50.791 C 281.460 50.851,281.441 50.833,281.501 50.752 C 281.772 50.381,279.605 49.109,279.165 49.381 C 279.020 49.470,278.990 49.417,279.092 49.251 C 279.287 48.936,277.482 48.036,276.395 47.906 C 276.041 47.863,275.773 47.722,275.801 47.592 C 275.865 47.290,274.160 46.828,272.711 46.755 C 272.096 46.724,271.636 46.654,271.689 46.600 C 272.064 46.217,270.454 45.768,268.099 45.598 C 265.160 45.387,265.279 45.386,261.734 45.612 M130.612 90.767 C 128.962 90.864,127.314 91.061,126.951 91.204 C 126.236 91.486,126.019 91.799,126.711 91.551 C 126.942 91.468,127.050 91.489,126.951 91.599 C 126.852 91.708,126.581 91.815,126.350 91.837 C 125.171 91.951,123.130 92.510,122.842 92.799 C 122.662 92.979,121.958 93.308,121.278 93.531 C 120.597 93.753,119.983 94.029,119.912 94.144 C 119.841 94.258,119.978 94.285,120.216 94.203 C 120.585 94.075,120.579 94.107,120.171 94.424 C 119.908 94.628,119.614 94.746,119.517 94.687 C 119.248 94.520,118.113 95.341,118.267 95.590 C 118.342 95.711,118.314 95.787,118.205 95.759 C 117.829 95.662,116.208 96.807,116.364 97.059 C 116.456 97.208,116.406 97.242,116.244 97.142 C 116.091 97.048,115.966 97.059,115.966 97.166 C 115.966 97.274,115.654 97.500,115.273 97.669 C 114.198 98.145,112.095 100.482,112.288 100.986 C 112.409 101.302,112.354 101.368,112.064 101.256 C 111.786 101.150,111.388 101.515,110.641 102.559 C 110.071 103.357,109.358 104.315,109.057 104.688 C 108.757 105.061,108.391 105.725,108.244 106.165 C 108.097 106.604,107.767 107.195,107.510 107.480 C 107.253 107.764,106.957 108.358,106.852 108.800 C 106.748 109.242,106.622 109.766,106.572 109.963 C 106.523 110.161,106.349 110.431,106.185 110.563 C 105.866 110.822,105.403 112.913,105.362 114.286 C 105.348 114.748,105.192 115.294,105.015 115.499 C 103.749 116.966,103.807 160.986,105.078 162.926 C 105.276 163.228,105.479 164.115,105.529 164.897 C 105.588 165.818,105.835 166.723,106.231 167.469 C 106.568 168.101,106.843 168.795,106.843 169.010 C 106.843 169.533,107.543 170.509,107.803 170.348 C 107.917 170.278,108.088 170.347,108.184 170.501 C 108.298 170.685,108.253 170.718,108.055 170.595 C 107.827 170.455,107.796 170.551,107.930 170.978 C 108.355 172.344,108.533 172.652,108.800 172.486 C 108.966 172.384,109.013 172.420,108.917 172.576 C 108.828 172.719,108.973 172.988,109.238 173.174 C 109.504 173.360,109.663 173.570,109.593 173.640 C 109.394 173.840,110.010 175.030,110.239 174.888 C 110.352 174.819,110.564 174.835,110.710 174.926 C 110.900 175.043,110.893 175.141,110.685 175.270 C 110.382 175.457,111.711 177.062,114.165 179.472 C 116.141 181.412,120.021 184.154,120.791 184.154 C 121.015 184.154,121.253 184.299,121.321 184.476 C 121.389 184.654,121.968 184.938,122.607 185.108 C 123.246 185.278,124.148 185.669,124.610 185.976 C 125.506 186.571,128.976 187.167,129.135 186.752 C 129.181 186.633,129.463 186.799,129.763 187.122 C 130.789 188.230,138.136 188.364,140.092 187.310 C 140.619 187.027,141.462 186.795,141.967 186.795 C 143.173 186.795,145.047 186.316,144.883 186.049 C 144.811 185.934,144.921 185.904,145.126 185.983 C 145.331 186.061,145.498 186.020,145.498 185.891 C 145.498 185.762,146.011 185.517,146.639 185.346 C 147.949 184.988,148.696 184.551,148.438 184.292 C 148.340 184.194,148.367 184.145,148.499 184.183 C 148.873 184.291,150.540 183.663,150.540 183.415 C 150.540 183.293,150.675 183.220,150.840 183.253 C 151.005 183.286,151.104 183.151,151.060 182.953 C 151.016 182.755,151.057 182.670,151.151 182.764 C 151.414 183.027,152.741 182.252,152.552 181.945 C 152.454 181.786,152.496 181.746,152.656 181.845 C 152.804 181.937,153.063 181.791,153.231 181.522 C 153.399 181.253,153.661 181.032,153.814 181.032 C 153.966 181.032,154.151 180.875,154.225 180.683 C 154.298 180.490,154.800 180.054,155.340 179.714 C 155.917 179.349,156.252 178.984,156.154 178.826 C 156.057 178.669,156.096 178.624,156.247 178.717 C 156.578 178.922,157.468 177.668,157.330 177.191 C 157.248 176.907,157.274 176.898,157.450 177.149 C 157.686 177.484,160.132 174.684,160.239 173.956 C 160.267 173.762,160.383 173.519,160.496 173.416 C 160.609 173.313,160.622 173.391,160.525 173.589 C 160.428 173.788,160.519 173.740,160.726 173.484 C 160.934 173.227,161.104 172.897,161.104 172.750 C 161.104 172.603,161.373 172.119,161.700 171.675 C 162.157 171.056,162.233 170.791,162.026 170.542 C 161.816 170.288,161.838 170.248,162.128 170.360 C 162.455 170.485,162.808 169.740,162.892 168.747 C 162.899 168.659,163.004 168.497,163.124 168.387 C 163.251 168.271,163.270 168.313,163.170 168.487 C 163.075 168.652,163.053 168.788,163.123 168.788 C 163.504 168.788,164.285 165.958,164.263 164.651 C 164.259 164.423,164.372 164.261,164.514 164.291 C 165.190 164.435,165.268 162.387,165.364 141.735 C 165.471 118.647,165.285 112.939,164.441 113.461 C 164.322 113.534,164.218 113.506,164.209 113.400 C 163.979 110.693,163.491 109.262,162.787 109.225 C 162.588 109.214,162.545 109.156,162.692 109.096 C 163.083 108.935,162.280 106.801,161.886 106.952 C 161.706 107.021,161.585 106.873,161.585 106.586 C 161.585 105.900,160.651 104.157,160.375 104.327 C 160.248 104.406,160.144 104.300,160.144 104.091 C 160.144 103.226,155.926 98.222,155.330 98.379 C 155.205 98.412,155.129 98.346,155.162 98.231 C 155.290 97.787,152.439 95.687,152.206 96.054 C 152.055 96.293,151.987 96.307,151.984 96.098 C 151.982 95.933,151.976 95.717,151.971 95.618 C 151.965 95.519,151.560 95.237,151.070 94.990 C 150.581 94.744,149.964 94.353,149.700 94.121 C 149.436 93.890,148.925 93.631,148.566 93.546 C 148.206 93.461,147.535 93.135,147.074 92.823 C 146.369 92.344,145.625 92.129,143.938 91.915 C 143.806 91.898,143.589 91.740,143.457 91.563 C 143.000 90.950,136.505 90.350,135.703 90.846 C 135.544 90.945,135.414 90.917,135.414 90.784 C 135.414 90.543,134.659 90.601,134.213 90.877 C 134.081 90.958,133.974 90.910,133.974 90.770 C 133.974 90.631,133.893 90.533,133.794 90.553 C 133.694 90.573,132.263 90.670,130.612 90.767 M67.707 113.728 C 65.662 113.878,65.079 114.039,65.223 114.415 C 65.388 114.845,65.032 114.875,64.620 114.466 C 64.377 114.225,64.349 114.249,64.477 114.586 C 64.588 114.878,64.520 115.006,64.251 115.006 C 64.039 115.006,63.866 114.881,63.866 114.729 C 63.866 114.574,63.634 114.654,63.344 114.909 C 63.057 115.160,62.902 115.231,62.998 115.066 C 63.120 114.858,62.984 114.766,62.559 114.766 C 62.221 114.766,61.945 114.864,61.945 114.984 C 61.945 115.103,61.739 115.147,61.487 115.082 C 60.942 114.939,59.252 115.688,59.438 115.990 C 59.510 116.106,59.401 116.137,59.196 116.058 C 58.991 115.979,58.824 116.024,58.824 116.158 C 58.824 116.292,58.605 116.345,58.338 116.275 C 57.894 116.159,55.954 117.230,55.742 117.709 C 55.698 117.808,55.565 117.830,55.447 117.757 C 55.135 117.565,54.222 118.109,54.393 118.385 C 54.472 118.514,54.448 118.597,54.340 118.570 C 53.999 118.486,52.326 119.410,52.559 119.554 C 52.682 119.631,52.626 119.902,52.431 120.168 C 52.149 120.554,52.043 120.582,51.877 120.315 C 51.707 120.039,51.581 120.049,51.113 120.376 C 50.737 120.640,50.669 120.775,50.907 120.788 C 51.101 120.799,50.990 120.934,50.660 121.088 C 49.549 121.607,48.743 122.260,48.899 122.512 C 48.984 122.650,48.945 122.696,48.813 122.614 C 48.491 122.415,47.597 123.465,47.736 123.879 C 47.805 124.088,47.718 124.158,47.495 124.072 C 47.295 123.995,47.015 124.145,46.844 124.419 C 46.606 124.800,46.605 124.862,46.842 124.716 C 47.054 124.585,47.094 124.653,46.980 124.950 C 46.891 125.181,46.817 125.442,46.815 125.530 C 46.813 125.618,46.703 125.528,46.570 125.330 C 46.305 124.934,46.203 125.025,45.318 126.453 C 45.087 126.826,44.629 127.495,44.302 127.941 C 43.974 128.386,43.760 128.838,43.825 128.944 C 43.891 129.051,43.819 129.217,43.664 129.312 C 43.478 129.427,43.442 129.372,43.558 129.149 C 43.654 128.963,43.563 129.021,43.355 129.278 C 43.147 129.534,42.977 129.931,42.977 130.160 C 42.977 130.388,42.711 130.891,42.386 131.278 C 41.832 131.937,41.204 133.870,41.428 134.232 C 41.525 134.388,40.867 135.894,40.701 135.894 C 40.657 135.894,40.668 135.651,40.726 135.354 C 40.819 134.869,40.804 134.874,40.570 135.411 C 40.427 135.739,40.360 136.198,40.421 136.431 C 40.481 136.664,40.440 136.855,40.328 136.855 C 39.820 136.855,39.935 151.763,40.452 153.000 C 40.548 153.230,40.716 153.363,40.825 153.296 C 40.934 153.229,41.091 153.283,41.174 153.417 C 41.257 153.552,41.221 153.661,41.093 153.661 C 40.957 153.661,40.975 153.907,41.139 154.260 C 41.292 154.589,41.487 154.859,41.574 154.860 C 41.661 154.861,41.676 155.074,41.609 155.333 C 41.541 155.591,41.722 156.186,42.011 156.653 C 42.581 157.576,42.806 157.747,42.577 157.083 C 42.460 156.744,42.504 156.755,42.804 157.141 C 43.080 157.496,43.104 157.672,42.897 157.820 C 42.685 157.971,42.687 158.048,42.904 158.137 C 43.061 158.202,43.139 158.389,43.076 158.553 C 43.013 158.717,43.190 159.115,43.471 159.438 C 43.751 159.760,44.127 160.375,44.307 160.804 C 44.486 161.233,44.801 161.585,45.006 161.585 C 45.211 161.585,45.378 161.786,45.378 162.031 C 45.378 162.736,50.261 167.954,50.679 167.696 C 50.772 167.638,51.023 167.858,51.237 168.184 C 51.607 168.749,53.289 169.830,52.953 169.288 C 52.726 168.919,52.983 168.965,53.670 169.415 C 53.995 169.629,54.262 169.912,54.262 170.045 C 54.262 170.191,54.138 170.204,53.950 170.077 C 53.779 169.962,53.851 170.062,54.110 170.299 C 54.369 170.535,54.706 170.681,54.859 170.623 C 55.012 170.564,55.267 170.726,55.427 170.982 C 55.587 171.238,55.822 171.383,55.950 171.304 C 56.078 171.225,56.182 171.266,56.182 171.396 C 56.182 171.525,56.588 171.762,57.083 171.921 C 57.578 172.081,58.110 172.312,58.264 172.434 C 58.467 172.594,58.517 172.501,58.442 172.103 C 58.358 171.656,58.388 171.674,58.597 172.198 C 58.861 172.859,59.584 173.261,60.022 172.991 C 60.155 172.908,60.264 172.967,60.264 173.122 C 60.264 173.298,60.533 173.364,60.979 173.299 C 61.371 173.241,61.732 173.310,61.780 173.452 C 61.837 173.622,61.999 173.600,62.255 173.389 C 62.653 173.061,63.145 173.187,63.145 173.618 C 63.145 173.750,63.021 173.781,62.868 173.687 C 62.692 173.578,62.656 173.621,62.769 173.804 C 62.907 174.027,63.036 174.021,63.332 173.781 C 63.659 173.515,63.693 173.530,63.563 173.877 C 63.399 174.314,65.144 174.756,65.896 174.467 C 66.091 174.392,66.315 174.434,66.393 174.560 C 66.596 174.888,73.229 174.862,73.229 174.534 C 73.229 174.383,73.436 174.343,73.733 174.437 C 74.401 174.649,76.398 174.341,76.221 174.054 C 76.135 173.915,75.908 173.921,75.630 174.070 C 75.382 174.202,75.123 174.221,75.055 174.110 C 74.987 174.000,75.088 173.892,75.281 173.870 C 75.473 173.848,75.792 173.812,75.990 173.790 C 76.188 173.768,76.351 173.672,76.351 173.577 C 76.351 173.268,77.398 173.123,77.719 173.389 C 77.894 173.534,78.031 173.548,78.031 173.420 C 78.031 173.295,78.355 173.240,78.752 173.298 C 79.150 173.357,79.472 173.294,79.472 173.159 C 79.472 173.024,79.705 172.975,79.990 173.049 C 80.342 173.142,80.453 173.097,80.337 172.910 C 80.227 172.731,80.298 172.685,80.540 172.778 C 80.774 172.868,80.912 172.787,80.912 172.560 C 80.912 172.362,81.083 172.135,81.292 172.054 C 81.814 171.854,81.924 171.871,81.765 172.129 C 81.468 172.609,83.193 171.744,83.878 171.068 C 84.280 170.672,84.527 170.482,84.429 170.646 C 84.306 170.848,84.368 170.897,84.621 170.800 C 84.826 170.721,84.994 170.554,84.994 170.428 C 84.994 170.303,85.107 170.269,85.245 170.355 C 85.652 170.607,86.290 169.962,85.906 169.686 C 85.674 169.520,85.695 169.494,85.988 169.588 C 86.205 169.656,86.608 169.502,86.884 169.245 C 87.160 168.988,87.442 168.780,87.510 168.783 C 88.006 168.802,88.115 168.757,88.115 168.533 C 88.115 168.393,88.007 168.346,87.875 168.427 C 87.743 168.509,87.635 168.473,87.635 168.347 C 87.635 168.044,88.273 167.811,88.677 167.966 C 88.854 168.034,89.151 167.901,89.337 167.672 C 89.556 167.402,89.570 167.319,89.376 167.435 C 89.211 167.534,89.076 167.540,89.076 167.448 C 89.076 167.177,89.882 166.643,90.303 166.634 C 91.171 166.617,94.971 161.967,94.407 161.613 C 94.267 161.525,94.325 161.322,94.550 161.112 C 94.887 160.799,94.910 160.809,94.758 161.206 C 94.442 162.029,95.306 161.108,95.850 160.042 C 96.292 159.176,96.299 159.108,95.914 159.426 C 95.529 159.743,95.493 159.743,95.598 159.424 C 95.663 159.226,95.941 159.030,96.217 158.990 C 96.811 158.902,97.548 157.278,97.359 156.473 C 97.191 155.759,97.625 155.076,97.938 155.562 C 98.099 155.812,98.229 155.621,98.432 154.841 C 98.583 154.258,98.797 153.493,98.906 153.139 C 99.061 152.638,99.032 152.525,98.772 152.625 C 98.589 152.695,98.439 152.615,98.439 152.447 C 98.439 152.278,98.508 152.209,98.591 152.292 C 98.833 152.534,99.640 152.000,99.640 151.598 C 99.640 151.383,99.526 151.303,99.363 151.403 C 99.190 151.510,99.151 151.469,99.259 151.294 C 99.355 151.139,99.540 151.079,99.672 151.160 C 99.930 151.320,99.934 151.213,99.930 144.298 C 99.925 137.903,99.842 136.702,99.420 136.962 C 99.217 137.088,98.502 136.418,98.436 136.041 C 98.415 135.924,98.543 135.737,98.719 135.625 C 98.924 135.495,98.939 135.420,98.762 135.418 C 98.606 135.416,98.538 135.210,98.606 134.950 C 98.768 134.330,98.262 132.849,97.761 132.474 C 97.540 132.308,97.321 131.849,97.274 131.453 C 97.179 130.641,96.831 129.884,96.571 129.923 C 96.120 129.991,95.798 129.867,95.798 129.626 C 95.798 129.480,95.953 129.420,96.142 129.492 C 96.667 129.694,95.650 127.993,94.747 127.159 C 94.335 126.779,94.160 126.557,94.358 126.666 C 94.556 126.775,94.394 126.482,93.998 126.014 C 93.601 125.547,93.138 124.958,92.968 124.707 C 92.798 124.455,92.724 124.385,92.802 124.550 C 92.989 124.941,92.670 124.920,92.121 124.504 C 91.882 124.323,91.720 123.975,91.761 123.732 C 91.814 123.424,91.690 123.289,91.357 123.289 C 90.838 123.289,89.954 122.408,90.273 122.210 C 90.522 122.054,88.406 120.208,87.979 120.208 C 87.801 120.208,87.704 120.130,87.763 120.035 C 87.892 119.827,87.408 119.398,86.920 119.287 C 86.725 119.244,86.364 118.961,86.116 118.658 C 85.804 118.278,85.578 118.182,85.382 118.345 C 85.205 118.491,84.965 118.496,84.746 118.357 C 84.454 118.173,84.468 118.134,84.828 118.131 C 85.067 118.129,85.204 118.033,85.133 117.918 C 84.994 117.693,83.613 117.318,83.151 117.381 C 82.996 117.402,82.802 117.310,82.719 117.176 C 82.630 117.033,82.722 116.991,82.941 117.075 C 83.572 117.318,83.352 116.959,82.645 116.593 C 81.642 116.075,80.071 115.817,80.315 116.210 C 80.442 116.416,80.412 116.462,80.225 116.347 C 80.071 116.251,80.018 116.054,80.107 115.909 C 80.212 115.740,80.130 115.699,79.879 115.795 C 79.663 115.878,79.423 115.842,79.345 115.716 C 79.267 115.590,79.345 115.479,79.518 115.471 C 79.691 115.463,79.563 115.349,79.235 115.218 C 78.907 115.087,78.448 115.029,78.215 115.090 C 77.982 115.151,77.791 115.115,77.791 115.009 C 77.791 114.903,77.359 114.775,76.831 114.725 C 76.303 114.674,75.870 114.730,75.870 114.849 C 75.870 114.968,75.688 114.917,75.464 114.735 C 75.132 114.466,75.093 114.465,75.253 114.730 C 75.412 114.993,75.351 115.002,74.932 114.778 C 74.648 114.626,74.472 114.412,74.539 114.303 C 74.700 114.042,73.455 113.801,72.059 113.822 C 71.240 113.835,71.075 113.891,71.429 114.036 C 71.730 114.160,71.157 114.228,69.885 114.220 C 68.419 114.211,68.021 114.149,68.439 113.994 C 68.756 113.877,69.235 113.830,69.502 113.890 C 69.769 113.951,70.204 113.910,70.468 113.800 C 70.970 113.590,69.955 113.564,67.707 113.728 M329.532 113.778 C 329.796 113.900,330.228 113.955,330.492 113.900 C 330.756 113.844,331.297 113.892,331.693 114.005 C 332.230 114.158,331.864 114.213,330.252 114.220 C 328.921 114.225,328.276 114.154,328.571 114.034 C 328.902 113.900,328.612 113.834,327.645 113.822 C 326.490 113.809,326.264 113.870,326.377 114.166 C 326.453 114.364,326.411 114.526,326.283 114.526 C 326.155 114.526,326.050 114.418,326.050 114.286 C 326.050 114.154,325.882 114.046,325.676 114.046 C 325.470 114.046,325.361 114.141,325.433 114.259 C 325.703 114.696,324.882 115.091,324.444 114.735 C 324.212 114.548,324.111 114.528,324.208 114.689 C 324.301 114.845,324.268 115.041,324.134 115.124 C 323.999 115.207,323.890 115.148,323.890 114.993 C 323.890 114.790,323.507 114.758,322.531 114.880 C 320.779 115.099,320.470 115.228,320.640 115.671 C 320.756 115.974,320.717 115.983,320.408 115.726 C 320.100 115.470,320.060 115.478,320.173 115.772 C 320.255 115.987,320.167 116.126,319.949 116.126 C 319.751 116.126,319.644 116.038,319.711 115.929 C 319.778 115.821,319.665 115.796,319.460 115.875 C 319.255 115.953,319.087 116.087,319.087 116.172 C 319.087 116.257,318.756 116.338,318.353 116.353 C 317.949 116.367,317.490 116.518,317.333 116.688 C 317.110 116.928,317.114 116.960,317.347 116.828 C 317.512 116.735,317.647 116.766,317.647 116.898 C 317.647 117.239,317.091 117.541,316.995 117.252 C 316.949 117.114,316.457 117.224,315.839 117.509 C 315.172 117.817,314.807 118.126,314.881 118.320 C 314.947 118.492,314.894 118.566,314.763 118.486 C 314.633 118.405,314.524 118.534,314.522 118.773 C 314.519 119.127,314.478 119.144,314.300 118.863 C 314.112 118.566,314.022 118.565,313.644 118.857 C 312.256 119.929,311.532 120.655,311.591 120.916 C 311.628 121.079,311.548 121.280,311.414 121.363 C 311.270 121.451,311.229 121.360,311.313 121.141 C 311.526 120.587,311.215 120.689,310.570 121.385 C 310.256 121.724,309.937 121.994,309.861 121.985 C 309.477 121.940,309.448 121.996,309.701 122.301 C 309.987 122.646,309.424 123.069,309.014 122.816 C 308.791 122.678,308.003 123.500,308.071 123.799 C 308.157 124.175,307.759 124.851,307.534 124.712 C 307.414 124.638,307.375 124.449,307.448 124.293 C 307.521 124.137,307.442 124.213,307.272 124.462 C 307.102 124.711,306.720 125.213,306.423 125.577 C 306.125 125.942,305.882 126.359,305.882 126.505 C 305.882 126.651,305.768 126.771,305.628 126.771 C 305.488 126.771,305.451 126.895,305.545 127.048 C 305.647 127.213,305.611 127.260,305.458 127.165 C 305.197 127.004,304.514 127.822,303.982 128.932 C 303.729 129.460,303.735 129.482,304.032 129.115 C 304.218 128.886,304.440 128.769,304.526 128.855 C 304.740 129.069,304.723 129.423,304.502 129.361 C 303.783 129.157,302.544 130.900,302.846 131.688 C 302.923 131.889,302.908 132.054,302.814 132.054 C 302.475 132.058,301.508 133.730,301.643 134.081 C 301.718 134.278,301.689 134.494,301.579 134.562 C 301.337 134.712,301.065 135.660,301.285 135.586 C 301.537 135.502,301.515 135.972,301.239 136.577 C 301.007 137.086,300.968 137.098,300.829 136.702 C 300.388 135.446,300.121 138.951,300.194 145.018 C 300.272 151.453,300.366 152.296,300.980 152.060 C 301.167 151.988,301.321 152.055,301.321 152.209 C 301.321 152.363,301.456 152.421,301.621 152.337 C 301.786 152.254,301.749 152.328,301.540 152.503 C 301.179 152.804,301.172 153.057,301.498 153.902 C 301.574 154.100,301.614 154.360,301.586 154.481 C 301.480 154.934,302.095 156.026,302.392 155.912 C 302.561 155.848,302.764 155.963,302.843 156.169 C 302.922 156.374,302.881 156.543,302.754 156.543 C 302.626 156.543,302.521 156.657,302.521 156.797 C 302.521 156.937,302.628 156.985,302.758 156.904 C 302.889 156.824,302.939 156.907,302.869 157.089 C 302.639 157.687,303.253 158.924,303.491 158.343 C 303.680 157.883,303.688 157.885,303.705 158.391 C 303.714 158.682,303.911 159.041,304.142 159.190 C 304.539 159.445,304.539 159.453,304.143 159.330 C 303.788 159.220,303.810 159.335,304.290 160.092 C 304.600 160.583,304.995 160.984,305.168 160.984 C 305.341 160.984,305.526 161.146,305.581 161.345 C 305.668 161.665,305.651 161.665,305.424 161.345 C 304.976 160.711,305.144 161.287,305.666 162.171 C 305.943 162.640,306.259 162.969,306.369 162.901 C 306.479 162.833,306.637 162.887,306.720 163.021 C 306.803 163.156,306.730 163.269,306.557 163.273 C 306.379 163.278,306.488 163.486,306.809 163.753 C 307.121 164.013,307.286 164.226,307.176 164.226 C 307.066 164.226,307.661 164.872,308.499 165.662 C 309.337 166.452,310.117 167.041,310.232 166.970 C 310.346 166.899,310.630 166.951,310.862 167.087 C 311.258 167.317,311.256 167.333,310.832 167.340 C 310.439 167.346,310.460 167.411,310.990 167.827 C 311.645 168.343,312.004 168.455,311.766 168.070 C 311.682 167.933,311.780 167.894,311.997 167.977 C 312.204 168.057,312.345 168.263,312.309 168.436 C 312.274 168.608,312.623 169.024,313.085 169.359 C 314.226 170.186,315.813 171.044,315.617 170.726 C 315.528 170.582,315.634 170.468,315.858 170.468 C 316.105 170.468,316.208 170.599,316.127 170.810 C 315.944 171.286,317.064 171.967,318.127 172.027 C 319.167 172.085,320.271 172.597,319.448 172.639 C 319.150 172.654,319.332 172.796,319.928 173.015 C 320.456 173.209,321.104 173.339,321.369 173.306 C 321.633 173.272,321.984 173.328,322.149 173.431 C 322.318 173.536,322.449 173.507,322.449 173.364 C 322.449 173.224,322.678 173.109,322.957 173.109 C 323.341 173.109,323.436 173.223,323.344 173.571 C 323.255 173.915,323.319 173.997,323.596 173.891 C 323.831 173.801,323.908 173.846,323.804 174.013 C 323.603 174.339,325.530 174.671,326.267 174.437 C 326.564 174.343,326.771 174.383,326.771 174.534 C 326.771 174.703,327.945 174.790,330.252 174.790 C 332.456 174.790,333.733 174.700,333.733 174.545 C 333.733 174.404,333.988 174.364,334.335 174.452 C 335.330 174.701,336.620 174.363,336.442 173.899 C 336.327 173.600,336.391 173.544,336.705 173.665 C 336.933 173.752,337.061 173.729,336.989 173.612 C 336.917 173.495,337.028 173.334,337.236 173.254 C 337.801 173.038,338.102 173.079,337.935 173.349 C 337.854 173.481,337.901 173.589,338.041 173.589 C 338.181 173.589,338.295 173.479,338.295 173.345 C 338.295 173.205,338.547 173.163,338.883 173.248 C 339.643 173.438,341.176 172.932,341.176 172.490 C 341.176 172.146,341.429 172.058,342.197 172.136 C 342.428 172.160,342.617 172.068,342.617 171.931 C 342.617 171.795,342.773 171.743,342.963 171.816 C 343.153 171.889,343.504 171.824,343.743 171.671 C 344.150 171.410,344.148 171.402,343.711 171.541 C 343.254 171.686,343.254 171.679,343.693 171.193 C 343.972 170.885,344.201 170.793,344.298 170.949 C 344.398 171.110,344.859 170.975,345.574 170.575 C 346.738 169.925,347.171 169.508,346.683 169.508 C 346.480 169.508,346.489 169.400,346.718 169.124 C 347.002 168.782,347.050 168.781,347.168 169.111 C 347.282 169.433,347.377 169.422,347.899 169.024 L 348.499 168.567 347.899 168.680 C 347.569 168.742,347.461 168.725,347.659 168.643 C 347.857 168.560,348.154 168.322,348.319 168.114 C 348.590 167.773,348.619 167.777,348.619 168.151 C 348.619 168.522,348.675 168.514,349.145 168.077 C 349.434 167.807,349.752 167.587,349.852 167.587 C 349.951 167.587,350.221 167.269,350.451 166.880 C 350.680 166.491,350.934 166.213,351.015 166.263 C 351.096 166.313,351.595 165.902,352.125 165.350 C 353.512 163.904,355.558 161.378,354.883 161.945 C 354.470 162.292,354.343 162.325,354.424 162.065 C 354.486 161.867,354.826 161.564,355.180 161.391 C 355.533 161.219,355.822 160.943,355.822 160.778 C 355.822 160.614,356.133 160.052,356.512 159.531 C 356.892 159.010,357.277 158.313,357.368 157.983 C 357.481 157.577,357.461 157.488,357.309 157.709 C 357.174 157.903,357.024 157.940,356.938 157.800 C 356.858 157.671,357.007 157.318,357.268 157.017 C 357.529 156.716,357.743 156.600,357.743 156.760 C 357.743 156.920,357.846 156.987,357.973 156.909 C 358.099 156.831,358.135 156.591,358.052 156.375 C 357.943 156.092,357.990 156.038,358.220 156.181 C 358.458 156.328,358.506 156.249,358.407 155.871 C 358.334 155.593,358.354 155.333,358.452 155.294 C 358.743 155.176,358.979 153.902,358.710 153.902 C 358.577 153.902,358.648 153.691,358.869 153.434 C 359.089 153.176,359.353 153.017,359.454 153.080 C 359.699 153.231,359.993 151.628,359.834 151.018 C 359.765 150.755,359.807 150.480,359.927 150.406 C 360.205 150.234,360.214 138.367,359.936 138.195 C 359.822 138.125,359.781 137.791,359.845 137.454 C 360.013 136.578,359.448 134.700,359.062 134.848 C 358.695 134.988,358.356 134.549,358.677 134.350 C 358.931 134.193,358.744 133.253,358.458 133.253 C 358.354 133.253,358.317 133.064,358.377 132.833 C 358.437 132.602,358.329 132.199,358.137 131.937 C 357.807 131.487,357.794 131.500,357.891 132.177 C 357.993 132.887,357.991 132.888,357.720 132.293 C 357.570 131.963,357.417 131.387,357.381 131.014 C 357.345 130.640,357.088 130.175,356.809 129.979 C 356.531 129.784,356.303 129.385,356.303 129.091 C 356.303 128.570,355.782 127.610,355.240 127.131 C 355.091 126.999,354.730 126.513,354.439 126.050 C 354.148 125.588,353.908 125.342,353.906 125.503 C 353.900 125.887,353.257 125.634,353.083 125.179 C 353.006 124.980,353.051 124.889,353.184 124.972 C 353.315 125.052,353.421 125.008,353.421 124.872 C 353.421 124.470,351.951 122.919,351.711 123.068 C 351.589 123.143,351.518 123.075,351.555 122.917 C 351.591 122.759,351.471 122.575,351.287 122.508 C 351.055 122.424,351.014 122.488,351.153 122.718 C 351.322 122.999,351.291 122.999,350.946 122.720 C 350.723 122.538,350.542 122.268,350.544 122.119 C 350.546 121.971,350.652 122.011,350.780 122.209 C 350.908 122.407,351.015 122.454,351.017 122.314 C 351.024 121.825,347.286 118.900,347.009 119.178 C 346.941 119.246,346.624 118.990,346.304 118.610 C 345.767 117.971,344.882 117.538,343.618 117.295 C 343.067 117.189,342.131 116.706,342.453 116.694 C 342.560 116.690,342.885 116.812,343.173 116.966 C 343.644 117.217,343.665 117.206,343.373 116.852 C 343.195 116.636,342.655 116.390,342.173 116.306 C 341.691 116.222,341.059 116.004,340.769 115.822 C 340.431 115.611,340.187 115.579,340.092 115.733 C 340.010 115.866,339.831 115.905,339.694 115.820 C 339.532 115.720,339.554 115.599,339.758 115.473 C 340.153 115.229,338.949 114.888,338.416 115.093 C 338.218 115.169,338.055 115.114,338.055 114.971 C 338.055 114.795,337.622 114.765,336.722 114.877 C 335.321 115.052,334.299 114.684,334.983 114.251 C 335.218 114.101,335.196 114.052,334.894 114.049 C 334.674 114.047,334.439 114.181,334.373 114.346 C 334.300 114.525,334.244 114.477,334.233 114.226 C 334.218 113.904,334.003 113.805,333.313 113.804 C 332.818 113.803,331.657 113.747,330.732 113.679 C 329.606 113.597,329.210 113.630,329.532 113.778 M73.580 114.271 C 73.660 114.400,73.438 114.445,73.060 114.376 C 72.171 114.215,72.046 114.046,72.815 114.046 C 73.159 114.046,73.504 114.147,73.580 114.271 M60.370 115.827 C 59.868 116.194,59.640 116.154,59.894 115.742 C 59.981 115.601,60.229 115.486,60.444 115.486 C 60.772 115.486,60.760 115.542,60.370 115.827 M352.454 123.761 C 352.615 123.955,352.709 124.215,352.664 124.339 C 352.618 124.464,352.387 124.305,352.150 123.987 C 351.690 123.371,351.962 123.169,352.454 123.761 M92.594 164.335 C 92.434 164.754,91.957 164.841,91.957 164.452 C 91.957 164.312,92.065 164.264,92.197 164.346 C 92.329 164.427,92.437 164.308,92.437 164.080 C 92.437 163.852,92.504 163.733,92.587 163.815 C 92.669 163.898,92.672 164.132,92.594 164.335 " stroke="none" fill="#46a8c6" fill-rule="evenodd"></path><path id="path6" d="M192.615 38.900 C 192.052 39.016,191.296 39.283,190.934 39.493 C 190.572 39.703,189.736 40.007,189.076 40.170 C 188.103 40.409,187.885 40.555,187.928 40.941 C 187.957 41.202,187.925 41.294,187.857 41.144 C 187.691 40.777,185.502 41.609,184.571 42.393 C 184.189 42.714,183.740 42.977,183.572 42.977 C 183.198 42.977,182.426 43.796,182.593 44.017 C 182.659 44.105,182.645 44.128,182.563 44.067 C 182.306 43.879,181.008 44.664,181.162 44.914 C 181.243 45.044,181.219 45.124,181.110 45.092 C 180.356 44.871,174.802 50.731,174.792 51.757 C 174.791 51.899,174.525 52.244,174.202 52.525 C 173.879 52.806,173.500 53.461,173.360 53.981 C 173.220 54.501,172.945 55.059,172.749 55.222 C 172.553 55.385,172.279 55.940,172.140 56.455 C 172.001 56.971,171.622 57.784,171.298 58.262 C 170.772 59.037,170.622 59.760,170.623 61.510 C 170.623 61.734,170.513 61.896,170.379 61.871 C 169.370 61.682,169.388 60.621,169.388 119.928 C 169.388 176.719,169.413 178.535,170.188 178.056 C 170.285 177.996,170.380 178.128,170.397 178.349 C 170.562 180.444,171.179 182.473,171.650 182.473 C 171.763 182.473,171.931 182.878,172.024 183.373 C 172.232 184.485,172.877 185.618,173.190 185.424 C 173.319 185.345,173.349 185.400,173.259 185.547 C 173.047 185.889,173.630 187.292,174.170 187.739 C 174.398 187.928,174.797 188.499,175.057 189.008 C 175.356 189.594,175.635 189.872,175.820 189.766 C 175.980 189.674,176.033 189.685,175.937 189.790 C 175.403 190.382,181.540 196.466,182.237 196.036 C 182.348 195.967,182.518 196.037,182.614 196.192 C 182.730 196.380,182.676 196.412,182.450 196.289 C 182.265 196.188,182.437 196.384,182.833 196.724 C 183.229 197.064,183.670 197.346,183.812 197.350 C 183.954 197.355,184.318 197.623,184.622 197.947 C 184.926 198.270,185.512 198.604,185.925 198.690 C 186.337 198.775,187.053 199.094,187.515 199.400 C 187.977 199.705,188.733 200.032,189.196 200.127 C 189.658 200.221,190.465 200.516,190.989 200.781 C 193.113 201.857,205.725 201.977,208.589 200.949 C 209.345 200.677,210.396 200.338,210.924 200.194 C 211.453 200.050,212.210 199.692,212.607 199.398 C 213.005 199.104,213.666 198.789,214.076 198.699 C 214.486 198.609,215.025 198.349,215.274 198.120 C 215.523 197.892,216.212 197.413,216.807 197.056 C 217.855 196.425,219.692 194.959,218.968 195.330 C 218.755 195.439,218.689 195.426,218.808 195.297 C 218.918 195.176,219.098 195.078,219.208 195.078 C 219.610 195.078,220.897 193.966,220.757 193.739 C 220.678 193.611,220.726 193.535,220.865 193.571 C 221.398 193.711,224.069 190.678,224.120 189.876 C 224.125 189.788,224.228 189.626,224.348 189.516 C 224.478 189.397,224.487 189.453,224.371 189.653 C 224.239 189.881,224.266 189.934,224.456 189.817 C 224.610 189.721,224.953 189.218,225.218 188.699 C 225.483 188.180,225.789 187.755,225.899 187.755 C 226.132 187.755,226.971 185.973,226.971 185.477 C 226.971 185.289,227.049 185.183,227.145 185.243 C 227.374 185.384,228.091 183.857,228.091 183.228 C 228.091 182.957,228.344 182.483,228.652 182.174 C 229.155 181.671,229.479 180.456,229.607 178.589 C 229.622 178.368,229.738 178.250,229.864 178.328 C 229.996 178.410,230.026 178.295,229.936 178.058 C 229.844 177.820,229.875 177.706,230.008 177.788 C 230.565 178.133,230.612 173.631,230.612 120.168 C 230.612 66.705,230.565 62.203,230.008 62.548 C 229.875 62.630,229.844 62.516,229.936 62.278 C 230.044 61.995,230.004 61.921,229.807 62.043 C 229.649 62.141,229.540 62.132,229.564 62.023 C 229.741 61.232,229.155 58.698,228.658 58.107 C 228.346 57.737,228.091 57.201,228.091 56.916 C 228.091 56.196,227.426 54.982,227.031 54.982 C 226.851 54.982,226.709 54.847,226.715 54.682 C 226.750 53.740,226.588 53.240,226.055 52.645 C 225.727 52.280,225.030 51.333,224.506 50.540 C 222.860 48.053,219.598 44.889,218.890 45.093 C 218.781 45.124,218.756 45.047,218.833 44.921 C 218.911 44.795,218.371 44.279,217.633 43.774 C 216.895 43.270,215.921 42.572,215.469 42.224 C 215.017 41.875,214.280 41.521,213.830 41.437 C 213.381 41.353,212.880 41.124,212.718 40.928 C 212.555 40.732,211.832 40.400,211.110 40.190 C 210.388 39.980,209.295 39.576,208.680 39.292 C 207.457 38.727,194.936 38.421,192.615 38.900 " stroke="none" fill="#ff671b" fill-rule="evenodd"></path><path id="path7" d="M264.766 45.307 C 265.063 45.365,265.549 45.365,265.846 45.307 C 266.143 45.250,265.900 45.203,265.306 45.203 C 264.712 45.203,264.469 45.250,264.766 45.307 M254.228 47.313 L 253.661 47.808 254.382 47.386 C 255.330 46.831,255.344 46.819,255.049 46.819 C 254.909 46.819,254.540 47.041,254.228 47.313 M282.841 51.078 C 282.845 51.179,283.113 51.453,283.436 51.688 C 283.807 51.958,283.980 52.001,283.904 51.803 C 283.766 51.443,282.829 50.805,282.841 51.078 M245.360 52.761 L 244.778 53.421 245.498 52.821 C 245.894 52.491,246.264 52.194,246.319 52.161 C 246.374 52.128,246.311 52.101,246.180 52.101 C 246.049 52.101,245.680 52.398,245.360 52.761 M243.750 53.962 C 243.175 54.523,243.166 54.550,243.686 54.145 C 244.711 53.347,244.760 53.301,244.590 53.301 C 244.499 53.301,244.121 53.598,243.750 53.962 M242.239 55.614 C 241.684 56.216,241.681 56.230,242.192 55.919 C 242.487 55.739,242.781 55.455,242.845 55.287 C 243.017 54.839,242.889 54.908,242.239 55.614 M239.377 59.183 C 239.067 59.512,238.859 59.822,238.915 59.871 C 238.970 59.921,239.267 59.651,239.574 59.272 C 240.261 58.424,240.140 58.370,239.377 59.183 M290.756 59.873 C 290.756 59.968,291.026 60.316,291.357 60.646 C 291.687 60.976,291.957 61.152,291.957 61.037 C 291.957 60.922,291.687 60.574,291.357 60.264 C 291.026 59.954,290.756 59.778,290.756 59.873 M237.977 61.780 C 237.690 62.086,237.455 62.418,237.455 62.518 C 237.455 62.706,237.817 62.366,238.385 61.644 C 238.861 61.038,238.589 61.129,237.977 61.780 M234.653 72.389 C 234.654 73.313,234.697 73.662,234.749 73.164 C 234.801 72.666,234.800 71.909,234.747 71.483 C 234.694 71.057,234.652 71.465,234.653 72.389 M295.854 73.469 C 295.854 73.932,295.903 74.121,295.964 73.890 C 296.024 73.658,296.024 73.280,295.964 73.049 C 295.903 72.818,295.854 73.007,295.854 73.469 M129.356 90.690 C 129.788 90.744,130.436 90.743,130.797 90.688 C 131.157 90.633,130.804 90.589,130.012 90.591 C 129.220 90.592,128.925 90.637,129.356 90.690 M139.200 90.690 C 139.632 90.744,140.280 90.743,140.641 90.688 C 141.001 90.633,140.648 90.589,139.856 90.591 C 139.064 90.592,138.768 90.637,139.200 90.690 M117.307 95.688 C 116.079 96.772,116.347 96.765,117.647 95.678 C 118.200 95.216,118.562 94.842,118.450 94.848 C 118.339 94.853,117.824 95.232,117.307 95.688 M151.621 95.125 C 151.885 95.275,152.180 95.514,152.277 95.658 C 152.399 95.837,152.455 95.828,152.457 95.627 C 152.459 95.466,152.252 95.223,151.997 95.086 C 151.365 94.748,151.019 94.784,151.621 95.125 M114.119 98.097 L 113.445 98.715 114.226 98.172 C 114.655 97.873,115.006 97.595,115.006 97.554 C 115.006 97.364,114.740 97.527,114.119 98.097 M111.510 100.900 L 110.804 101.681 111.585 100.975 C 112.312 100.318,112.475 100.120,112.290 100.120 C 112.248 100.120,111.897 100.471,111.510 100.900 M108.804 104.518 C 108.072 105.298,108.152 105.511,108.898 104.766 C 109.236 104.427,109.471 104.109,109.419 104.057 C 109.368 104.006,109.091 104.213,108.804 104.518 M107.324 107.202 C 107.014 107.532,106.806 107.841,106.862 107.891 C 106.917 107.940,107.214 107.670,107.521 107.291 C 108.209 106.444,108.088 106.389,107.324 107.202 M69.211 113.498 C 69.576 113.553,70.116 113.551,70.411 113.494 C 70.707 113.437,70.408 113.392,69.748 113.394 C 69.088 113.396,68.846 113.442,69.211 113.498 M329.715 113.498 C 330.080 113.553,330.620 113.551,330.916 113.494 C 331.211 113.437,330.912 113.392,330.252 113.394 C 329.592 113.396,329.350 113.442,329.715 113.498 M165.242 115.486 C 165.242 115.948,165.291 116.137,165.352 115.906 C 165.412 115.675,165.412 115.297,165.352 115.066 C 165.291 114.835,165.242 115.024,165.242 115.486 M104.076 139.016 C 104.076 150.438,104.106 155.111,104.142 149.400 C 104.177 143.688,104.177 134.343,104.142 128.631 C 104.106 122.920,104.076 127.593,104.076 139.016 M311.885 119.858 C 310.759 120.888,311.185 120.669,312.553 119.514 C 312.987 119.147,313.257 118.852,313.154 118.858 C 313.050 118.863,312.479 119.313,311.885 119.858 M308.154 122.989 L 306.963 124.250 308.223 123.058 C 308.917 122.403,309.484 121.836,309.484 121.798 C 309.484 121.619,309.261 121.818,308.154 122.989 M299.945 139.016 C 299.945 139.610,299.992 139.853,300.049 139.556 C 300.107 139.259,300.107 138.773,300.049 138.475 C 299.992 138.178,299.945 138.421,299.945 139.016 M360.247 144.298 C 360.247 147.269,360.281 148.484,360.323 146.999 C 360.365 145.513,360.365 143.082,360.323 141.597 C 360.281 140.111,360.247 141.327,360.247 144.298 M100.209 144.298 C 100.209 145.684,100.249 146.252,100.297 145.558 C 100.346 144.865,100.346 143.730,100.297 143.037 C 100.249 142.344,100.209 142.911,100.209 144.298 M299.945 149.580 C 299.945 150.174,299.992 150.417,300.049 150.120 C 300.107 149.823,300.107 149.337,300.049 149.040 C 299.992 148.742,299.945 148.986,299.945 149.580 M295.859 159.784 C 295.862 160.312,295.911 160.500,295.968 160.201 C 296.026 159.903,296.023 159.470,295.963 159.241 C 295.903 159.011,295.856 159.256,295.859 159.784 M234.651 160.864 C 234.651 161.723,234.694 162.074,234.748 161.645 C 234.801 161.215,234.801 160.513,234.748 160.084 C 234.694 159.655,234.651 160.006,234.651 160.864 M104.205 161.405 C 104.208 161.935,104.275 162.080,104.416 161.858 C 104.605 161.560,104.512 160.624,104.294 160.624 C 104.243 160.624,104.203 160.975,104.205 161.405 M295.570 161.585 C 295.359 162.154,295.374 163.093,295.587 162.718 C 295.721 162.482,295.782 162.104,295.722 161.877 C 295.663 161.650,295.594 161.519,295.570 161.585 M165.247 162.665 C 165.249 163.193,165.298 163.381,165.356 163.082 C 165.413 162.784,165.411 162.352,165.351 162.122 C 165.291 161.892,165.244 162.137,165.247 162.665 M93.658 163.597 L 93.079 164.346 93.765 163.693 C 94.143 163.334,94.404 162.997,94.345 162.944 C 94.286 162.891,93.977 163.185,93.658 163.597 M234.833 163.760 C 234.822 163.965,234.982 164.344,235.187 164.600 C 235.555 165.059,235.557 165.058,235.340 164.586 C 235.218 164.322,235.059 163.944,234.985 163.745 C 234.870 163.434,234.849 163.436,234.833 163.760 M309.004 166.462 C 309.004 166.503,309.355 166.854,309.784 167.242 L 310.564 167.947 309.859 167.167 C 309.202 166.440,309.004 166.276,309.004 166.462 M49.460 167.178 C 49.460 167.239,49.968 167.706,50.589 168.214 C 51.210 168.723,51.641 169.014,51.546 168.861 C 51.344 168.535,49.460 167.014,49.460 167.178 M236.255 168.488 C 236.255 168.589,236.471 168.807,236.735 168.972 C 236.999 169.137,237.215 169.189,237.215 169.087 C 237.215 168.986,236.999 168.768,236.735 168.603 C 236.471 168.438,236.255 168.386,236.255 168.488 M106.843 169.914 C 106.843 170.046,107.059 170.349,107.323 170.588 C 107.587 170.827,107.803 170.969,107.803 170.902 C 107.803 170.836,107.587 170.533,107.323 170.228 C 107.059 169.924,106.843 169.782,106.843 169.914 M291.263 172.883 C 290.947 173.146,290.739 173.412,290.801 173.474 C 290.864 173.537,291.168 173.318,291.477 172.988 C 292.151 172.271,292.054 172.224,291.263 172.883 M68.377 174.968 C 69.207 175.015,70.504 175.015,71.258 174.967 C 72.012 174.920,71.333 174.881,69.748 174.882 C 68.163 174.882,67.546 174.921,68.377 174.968 M159.506 175.392 C 159.354 175.722,159.326 175.931,159.445 175.857 C 159.762 175.662,160.193 174.790,159.972 174.792 C 159.869 174.793,159.659 175.063,159.506 175.392 M328.881 174.968 C 329.711 175.015,331.008 175.015,331.762 174.967 C 332.516 174.920,331.837 174.881,330.252 174.882 C 328.667 174.882,328.050 174.921,328.881 174.968 M242.037 177.339 C 242.356 177.751,242.665 178.045,242.724 177.992 C 242.783 177.940,242.523 177.603,242.145 177.244 L 241.458 176.591 242.037 177.339 M243.749 179.235 C 244.240 179.748,244.681 180.119,244.728 180.060 C 244.776 180.001,244.374 179.581,243.836 179.127 L 242.857 178.302 243.749 179.235 M114.286 179.907 C 114.286 179.948,114.637 180.300,115.066 180.687 L 115.846 181.393 115.141 180.612 C 114.484 179.885,114.286 179.722,114.286 179.907 M116.739 182.053 C 117.111 182.416,117.548 182.710,117.711 182.706 C 117.874 182.702,117.791 182.579,117.527 182.433 C 117.263 182.287,116.826 181.993,116.555 181.780 C 116.285 181.567,116.367 181.690,116.739 182.053 M246.721 181.779 C 246.973 182.057,247.503 182.508,247.899 182.780 C 248.362 183.098,248.241 182.917,247.559 182.274 C 246.437 181.214,245.953 180.928,246.721 181.779 M251.587 184.860 C 251.899 185.132,252.268 185.354,252.408 185.354 C 252.703 185.354,252.689 185.342,251.741 184.787 L 251.020 184.365 251.587 184.860 M254.262 186.053 C 254.592 186.323,254.970 186.545,255.102 186.546 C 255.359 186.547,254.925 186.215,254.142 185.810 C 253.823 185.645,253.863 185.727,254.262 186.053 M127.071 186.960 C 127.302 187.021,127.680 187.021,127.911 186.960 C 128.142 186.900,127.953 186.850,127.491 186.850 C 127.029 186.850,126.840 186.900,127.071 186.960 M141.840 186.965 C 142.138 187.022,142.570 187.020,142.800 186.960 C 143.029 186.900,142.785 186.853,142.257 186.855 C 141.729 186.858,141.541 186.907,141.840 186.965 M257.326 186.965 C 257.624 187.022,258.057 187.020,258.286 186.960 C 258.516 186.900,258.271 186.853,257.743 186.855 C 257.215 186.858,257.027 186.907,257.326 186.965 M272.212 186.965 C 272.510 187.022,272.943 187.020,273.172 186.960 C 273.402 186.900,273.157 186.853,272.629 186.855 C 272.101 186.858,271.913 186.907,272.212 186.965 M131.333 188.053 C 131.333 188.153,132.008 188.223,132.833 188.207 C 134.455 188.177,134.297 188.063,132.473 187.945 C 131.846 187.905,131.333 187.954,131.333 188.053 M136.855 187.995 L 135.294 188.152 136.915 188.194 C 137.863 188.218,138.535 188.136,138.535 187.995 C 138.535 187.863,138.508 187.774,138.475 187.797 C 138.442 187.819,137.713 187.909,136.855 187.995 M262.119 188.168 C 262.546 188.222,263.302 188.222,263.800 188.170 C 264.298 188.118,263.950 188.075,263.025 188.074 C 262.101 188.073,261.693 188.115,262.119 188.168 M266.447 188.169 C 266.876 188.222,267.578 188.222,268.007 188.169 C 268.436 188.116,268.085 188.072,267.227 188.072 C 266.369 188.072,266.017 188.116,266.447 188.169 " stroke="none" fill="#00ffff" fill-rule="evenodd"></path><path id="path8" d="" stroke="none" fill="#80ffff" fill-rule="evenodd"></path><path id="path9" d="" stroke="none" fill="#ffff00" fill-rule="evenodd"></path></g></svg>