<svg id="Layer_1" data-name="Layer 1" xmlns="http://www.w3.org/2000/svg" viewBox="0 0 400 400">
  <defs>
    <style>
      .cls-1 {
        fill: #00e0ff;
      }

      .cls-2 {
        fill: #ff4e54;
      }

      .cls-3 {
        fill: #fffad4;
      }

      .cls-4 {
        fill: #00f085;
      }

      .cls-5 {
        fill: #ffe300;
      }
    </style>
  </defs>
  <title>2</title>
  <path class="cls-1" d="M28.4,400.6H25c-5.3-1.2-8.2-5-10.3-9.5a25.2,25.2,0,0,1-2.1-9.1,21.7,21.7,0,0,0-.2-3.6q0-177.6,0-355.2c0-1.2.3-2.4.2-3.6C13,10.9,18.2,3.5,25.7,1.1a4,4,0,0,1,2-.3,4.4,4.4,0,0,1,1.7,1.4c24,24.1,48.3,47.8,72.3,71.9q61.8,62,123.7,123.8c.7.7,1.7,1.3,1.9,2.5a1.8,1.8,0,0,1-.6,1.2l-1,1.1q-56.3,56.2-112.2,112.7c-16.9,17-34,33.9-50.8,51.1C57,372.2,51,378.1,45,384S35.5,394,30.5,398.9A9.2,9.2,0,0,1,28.4,400.6Z"/>
  <path class="cls-2" d="M289.6,262.5c-2.6,1.7-5.4,3.1-8.2,4.6l-36,19.7c-31.1,16.8-62,33.9-93,50.8L60.3,387.9l-16,8.7a46.9,46.9,0,0,1-8.8,3.7c-.2.2-.6.1-.8.4H28.4c.1-.7.7-1,1.1-1.4,9.4-9.5,18.7-19,28.1-28.4,30.7-30.6,61.1-61.6,91.8-92.3,25.6-25.6,51-51.4,76.6-77l1.3-1.4h.5a8.3,8.3,0,0,1,1.8,1.6L288,260.3C288.7,260.9,289.5,261.4,289.6,262.5Z"/>
  <path class="cls-3" d="M388.3,198h.3v2.6h-.3A1.8,1.8,0,0,1,388.3,198Z"/>
  <path class="cls-4" d="M29.8.6H34A30.8,30.8,0,0,1,45.3,4.4L148.8,60.8l92.7,50.4,46.3,25.2,1.9,1.1c.2.8-.4,1.1-.8,1.6l-2.1,2.1c-13.8,13.5-27,27.7-40.9,41.2-5.6,5.4-10.7,11.1-16.4,16.4-.6.5-1,1.3-1.9,1.4h-.3a7.9,7.9,0,0,0-1.5-1.7l-73.4-73.4Q106.5,79.4,60.6,33.6L29.4,2.6,27.9,1.1A5.1,5.1,0,0,1,29.8.6Z"/>
  <path class="cls-5" d="M227.5,200.2l1-1.1c4.4-4.5,8.8-9,13.3-13.4,15.7-15.4,30.9-31.1,46.4-46.6l1.4-1.5a5.8,5.8,0,0,1,2,.9L332.9,161l42.9,23.3a36.1,36.1,0,0,1,7.4,5c2.6,2.4,4.7,5,5,8.7v2.7c-.3,3.7-2.3,6.6-4.7,9.2a26.9,26.9,0,0,1-7,5.3L336.7,237,291,261.9a3.5,3.5,0,0,1-1.3.6l-1.4-1.5-43.5-43.5-15.8-15.7Z"/>
</svg>
