<svg width="331" height="310" viewBox="0 0 331 310" xmlns="http://www.w3.org/2000/svg"><title>Combined Shape</title><defs><linearGradient x1="50%" y1="100%" x2="50%" y2="0%" id="a"><stop stop-color="#443EC2" offset="0%"/><stop stop-color="#5951FF" offset="100%"/></linearGradient></defs><path d="M800.258.907c50.511 0 126.826 15.454 162.348 50.9 9.01 8.99 20.784 26.582 20.784 52.36 0 45.84-37.012 116.16-77.883 156.944-21.126 21.08-54.738 48.637-99.95 48.637-44.19 0-77.945-29.958-87.718-39.71-37.429-37.348-64.238-94.04-64.238-146.905 0-33.338 9.525-62.509 33.834-86.76C709.952 13.908 748.755.908 800.258.908zm62.521 182.78c17.053-17.02 21.647-37.983 21.647-49.518 0-8.367-2.212-20.634-12.695-31.09-16.088-16.051-33.892-20.58-53.269-20.58-24.544 0-41.031 7.737-52.022 18.703-8.613 8.594-16.063 21.808-16.063 40.577 0 18.761 10.033 36.884 20.962 47.788 10.087 10.06 25.947 17.526 41.923 17.526 15.98 0 32.464-6.387 49.517-23.406z" transform="translate(-653)" fill="url(#a)" fill-rule="evenodd"/></svg>