<svg id="Layer_1" data-name="Layer 1" xmlns="http://www.w3.org/2000/svg" viewBox="0 0 400 400">
  <defs>
    <style>
      .cls-1 {
        fill: #f79a3e;
      }

      .cls-2 {
        fill: #00363d;
      }
    </style>
  </defs>
  <title>1</title>
  <path class="cls-1" d="M150.5,32.1l.7.3a159.9,159.9,0,0,1,.2,225.9L37.8,144.7Z"/>
  <path class="cls-2" d="M279.5,161.3l-.3-.5A113.7,113.7,0,0,1,279.2,0L360,80.8Z"/>
  <g>
    <path class="cls-2" d="M263.2,295.8c-.8-5.7-4.3-9.8-11-9.8s-10.6,3.6-11.8,9.8Zm-10,16.9a16.2,16.2,0,0,0,11.5-4.5l5.7,6.2c-3.8,3.9-9,6.7-17.1,6.7-13.9,0-22.9-9.2-22.9-21.7a21.3,21.3,0,0,1,21.7-21.7c13.8,0,21.7,10.5,21,25.1H240.4c1.2,6.1,5.4,9.9,12.9,9.9Z"/>
    <polygon class="cls-2" points="38.6 312.3 63.8 286.7 39.2 286.7 39.2 278.7 75.5 278.7 75.5 286.9 50.3 312.4 75.8 312.4 75.8 320.5 38.6 320.5 38.6 312.3"/>
    <path class="cls-2" d="M114,295.8c-.8-5.7-4.3-9.8-11-9.8s-10.6,3.6-11.8,9.8Zm-10,16.9a16.2,16.2,0,0,0,11.5-4.5l5.7,6.2c-3.8,3.9-9,6.7-17.1,6.7-13.9,0-22.9-9.2-22.9-21.7a21.3,21.3,0,0,1,21.7-21.7c13.8,0,21.7,10.5,21,25.1H91.2c1.2,6.1,5.4,9.9,12.9,9.9Z"/>
    <path class="cls-2" d="M213.6,299.4a13.3,13.3,0,1,0-13.2,13.6c7.6,0,13.3-6.1,13.3-13.6m-35.4.1c0-13.4,10-21.7,21-21.7A18.1,18.1,0,0,1,213,284V259.4h8.9v61h-8.9v-5.8a17.9,17.9,0,0,1-14,6.6c-10.6,0-20.9-8.4-20.9-21.7"/>
    <path class="cls-2" d="M278.9,311.5l8.1-4.2a11.9,11.9,0,0,0,10.7,6.1c5,0,7.6-2.6,7.6-5.5s-4.9-4.1-10.1-5.2c-7.1-1.5-14.5-3.8-14.5-12.4,0-6.6,6.3-12.7,16.2-12.6,7.8,0,13.6,3.1,16.9,8.1l-7.5,4.1a10.8,10.8,0,0,0-9.4-4.8c-4.8,0-7.2,2.3-7.2,5s3.9,3.8,9.9,5.2,14.7,3.8,14.7,12.4c0,5.8-5,13.5-16.9,13.4-8.7,0-14.8-3.5-18.4-9.7"/>
    <polygon class="cls-2" points="338.3 301.8 331.3 309.5 331.3 320.3 322.4 320.3 322.4 259.4 331.3 259.4 331.3 299.3 350.1 278.6 360.9 278.6 344.6 296.4 361.4 320.3 351.3 320.3 338.3 301.8"/>
    <path class="cls-2" d="M151.3,277.7c-10.6,0-19.4,6.8-19.4,18.2v24.4H141V297.1c0-6.8,3.9-10.9,10.6-10.9s10.1,4.1,10.1,10.9v23.3h9.1V296c0-11.4-8.8-18.2-19.4-18.2"/>
    <path class="cls-2" d="M38.6,378a21.7,21.7,0,0,1,22.1-22,21.3,21.3,0,0,1,20,12.9l-8.1,3.5a12.6,12.6,0,0,0-11.9-7.9A13.2,13.2,0,0,0,47.5,378a13.3,13.3,0,0,0,13.4,13.5,12.7,12.7,0,0,0,11.9-8.3l8.2,3.5A21.3,21.3,0,0,1,60.7,400a21.8,21.8,0,0,1-22.1-22Z"/>
    <path class="cls-2" d="M88,337.5h9v24.8a16.2,16.2,0,0,1,13-6.2c10.6,0,17.2,6.9,17.2,18.4v24.7h-9.2V375.3c0-7-3.4-11.4-10.2-11.4S97,368.5,97,375.9v23.2H88Z"/>
    <path class="cls-2" d="M170.5,377.9a13.4,13.4,0,1,0-13.3,13.8C164.8,391.7,170.5,385.5,170.5,377.9Zm-35.7.1c0-13.5,10.1-22,21.1-22a18.2,18.2,0,0,1,14,6.3v-5.5h9v42.2h-9v-5.8a18,18,0,0,1-14.1,6.7C145.1,400,134.8,391.4,134.8,378Z"/>
    <path class="cls-2" d="M185.3,356.9h7.2v-10l9.1-5v15h9V365h-9v16.8c0,7.6,1.2,8.8,9,8.8v8.5h-1.4c-12.8,0-16.7-4.1-16.7-17.2V365h-7.2Z"/>
  </g>
</svg>
