<svg xmlns="http://www.w3.org/2000/svg" xmlns:xlink="http://www.w3.org/1999/xlink" viewBox="0 0 1000 1000"><defs><style>.cls-1{fill:none;}.cls-2{isolation:isolate;}.cls-3{fill:#a2cbfc;}.cls-4{fill:#c0d9fd;}.cls-5{fill:#deebfe;}.cls-6{fill:#fdfdfd;}.cls-7{fill:url(#linear-gradient);}.cls-19,.cls-41,.cls-8{fill:#fff;}.cls-9{fill:#d5e5fd;}.cls-10{fill:#d10070;}.cls-11{fill:#2550f5;}.cls-12{fill:#0db145;}.cls-13{fill:#5f85ff;}.cls-14,.cls-19,.cls-20,.cls-24,.cls-28,.cls-49{opacity:0.5;}.cls-14,.cls-20,.cls-24,.cls-28,.cls-49,.cls-51,.cls-57{mix-blend-mode:multiply;}.cls-14{fill:url(#linear-gradient-2);}.cls-15,.cls-48,.cls-50{mix-blend-mode:screen;}.cls-15{fill:url(#linear-gradient-3);}.cls-16{fill:url(#linear-gradient-4);}.cls-17{fill:url(#linear-gradient-5);}.cls-18{fill:url(#linear-gradient-6);}.cls-20{fill:url(#linear-gradient-7);}.cls-21{fill:url(#linear-gradient-8);}.cls-22{fill:url(#linear-gradient-9);}.cls-23{fill:url(#linear-gradient-10);}.cls-24{fill:url(#linear-gradient-11);}.cls-25{fill:url(#linear-gradient-12);}.cls-26{fill:url(#linear-gradient-13);}.cls-27{fill:url(#linear-gradient-14);}.cls-28{fill:url(#linear-gradient-15);}.cls-29{fill:#26bf4e;}.cls-30{fill:#109b3a;}.cls-31{fill:#30c653;}.cls-32{fill:#25af45;}.cls-33{clip-path:url(#clip-path);}.cls-34{fill:#2ba33c;}.cls-35{fill:#41d85e;}.cls-36{fill:#1f9b36;}.cls-37{clip-path:url(#clip-path-2);}.cls-38{fill:url(#linear-gradient-16);}.cls-39{fill:url(#linear-gradient-17);}.cls-40{fill:url(#linear-gradient-18);}.cls-41{mix-blend-mode:overlay;}.cls-42{fill:url(#linear-gradient-19);}.cls-43{fill:url(#linear-gradient-20);}.cls-44{fill:url(#linear-gradient-21);}.cls-45{clip-path:url(#clip-path-3);}.cls-46{fill:url(#linear-gradient-22);}.cls-47{fill:url(#linear-gradient-23);}.cls-48{opacity:0.4;fill:url(#linear-gradient-24);}.cls-49{fill:url(#linear-gradient-25);}.cls-50{opacity:0.3;fill:url(#linear-gradient-26);}.cls-51{fill:url(#linear-gradient-27);}.cls-52{fill:#111827;}.cls-53{fill:#e1ecf4;}.cls-54{fill:#f4acc8;}.cls-55{fill:#ebf6ff;}.cls-56{fill:#f5fbff;}.cls-57{fill:url(#linear-gradient-28);}.cls-58{fill:#2451e0;}.cls-59{fill:#3ad65b;}.cls-60{fill:#27c950;}</style><linearGradient id="linear-gradient" x1="327.06" y1="278.07" x2="781.86" y2="278.07" gradientUnits="userSpaceOnUse"><stop offset="0" stop-color="#3a80f8"/><stop offset="1" stop-color="#0e1e75"/></linearGradient><linearGradient id="linear-gradient-2" x1="443.09" y1="661.39" x2="323.98" y2="661.39" gradientUnits="userSpaceOnUse"><stop offset="0" stop-color="#004fcc"/><stop offset="1" stop-color="#fff"/></linearGradient><linearGradient id="linear-gradient-3" x1="484.79" y1="757.19" x2="484.79" y2="686.51" gradientUnits="userSpaceOnUse"><stop offset="0"/><stop offset="1" stop-color="#1495f8"/></linearGradient><linearGradient id="linear-gradient-4" x1="452.58" y1="628.26" x2="452.58" y2="564.24" gradientUnits="userSpaceOnUse"><stop offset="0" stop-color="#c5dcfd"/><stop offset="1" stop-color="#86aff0"/></linearGradient><linearGradient id="linear-gradient-5" x1="484.58" y1="692.26" x2="484.58" y2="596.25" gradientUnits="userSpaceOnUse"><stop offset="0" stop-color="#99bcf2"/><stop offset="1" stop-color="#6597e6"/></linearGradient><linearGradient id="linear-gradient-6" x1="420.58" y1="692.26" x2="420.58" y2="596.25" gradientUnits="userSpaceOnUse"><stop offset="0" stop-color="#77a3e7"/><stop offset="1" stop-color="#3975d4"/></linearGradient><linearGradient id="linear-gradient-7" x1="303.58" y1="731.1" x2="184.46" y2="731.1" xlink:href="#linear-gradient-2"/><linearGradient id="linear-gradient-8" x1="249.06" y1="665.96" x2="377.07" y2="665.96" gradientUnits="userSpaceOnUse"><stop offset="0" stop-color="#02b3ff"/><stop offset="1" stop-color="#0c5fe7"/></linearGradient><linearGradient id="linear-gradient-9" x1="313.06" y1="713.97" x2="377.07" y2="713.97" gradientUnits="userSpaceOnUse"><stop offset="0" stop-color="#0c5fe7"/><stop offset="1" stop-color="#0299ed"/></linearGradient><linearGradient id="linear-gradient-10" x1="312.22" y1="699.05" x2="249.42" y2="729.11" gradientUnits="userSpaceOnUse"><stop offset="0" stop-color="#073685"/><stop offset="1" stop-color="#004ab8"/></linearGradient><linearGradient id="linear-gradient-11" x1="637.22" y1="758.8" x2="518.11" y2="758.8" xlink:href="#linear-gradient-2"/><linearGradient id="linear-gradient-12" x1="646.71" y1="724.38" x2="646.71" y2="660.43" xlink:href="#linear-gradient-8"/><linearGradient id="linear-gradient-13" x1="678.71" y1="789.67" x2="678.71" y2="693.66" xlink:href="#linear-gradient-9"/><linearGradient id="linear-gradient-14" x1="614.7" y1="789.67" x2="614.7" y2="693.66" xlink:href="#linear-gradient-10"/><linearGradient id="linear-gradient-15" x1="507.6" y1="828.31" x2="230.06" y2="828.31" gradientUnits="userSpaceOnUse"><stop offset="0" stop-color="#0db145"/><stop offset="0.54" stop-color="#fff"/></linearGradient><clipPath id="clip-path"><polygon class="cls-1" points="555.61 819.17 523.6 835.18 523.6 803.18 555.61 787.17 555.61 819.17"/></clipPath><clipPath id="clip-path-2"><polygon class="cls-1" points="459.6 819.17 491.6 835.18 491.6 803.18 459.6 787.17 459.6 819.17"/></clipPath><linearGradient id="linear-gradient-16" x1="443.6" y1="680.69" x2="571.61" y2="680.69" xlink:href="#linear-gradient-8"/><linearGradient id="linear-gradient-17" x1="539.6" y1="776.71" x2="539.6" y2="680.69" xlink:href="#linear-gradient-9"/><linearGradient id="linear-gradient-18" x1="475.6" y1="776.71" x2="475.6" y2="680.69" xlink:href="#linear-gradient-10"/><linearGradient id="linear-gradient-19" x1="443.6" y1="598.22" x2="571.61" y2="598.22" xlink:href="#linear-gradient-8"/><linearGradient id="linear-gradient-20" x1="539.6" y1="694.23" x2="539.6" y2="598.22" xlink:href="#linear-gradient-9"/><linearGradient id="linear-gradient-21" x1="475.6" y1="694.23" x2="475.6" y2="598.22" xlink:href="#linear-gradient-10"/><clipPath id="clip-path-3"><polygon class="cls-1" points="507.6 604.81 484.21 617.85 507.6 652.49 531 617.85 507.6 604.81"/></clipPath><linearGradient id="linear-gradient-22" x1="519.3" y1="652.94" x2="519.3" y2="617.85" xlink:href="#linear-gradient-4"/><linearGradient id="linear-gradient-23" x1="476.45" y1="654.85" x2="503.01" y2="628.29" xlink:href="#linear-gradient-4"/><linearGradient id="linear-gradient-24" x1="539.6" y1="606.99" x2="539.6" y2="845.08" gradientUnits="userSpaceOnUse"><stop offset="0" stop-color="#abcdff"/><stop offset="1"/></linearGradient><linearGradient id="linear-gradient-25" x1="475.6" y1="845.88" x2="475.6" y2="605.7" gradientUnits="userSpaceOnUse"><stop offset="0" stop-color="#fff"/><stop offset="1" stop-color="#002d6e"/></linearGradient><linearGradient id="linear-gradient-26" x1="314.79" y1="666.79" x2="314.79" y2="718.53" gradientUnits="userSpaceOnUse"><stop offset="0" stop-color="aqua"/><stop offset="1"/></linearGradient><linearGradient id="linear-gradient-27" x1="273.52" y1="660.75" x2="310.52" y2="688.94" gradientUnits="userSpaceOnUse"><stop offset="0" stop-color="#fff"/><stop offset="1" stop-color="#004fcc"/></linearGradient><linearGradient id="linear-gradient-28" x1="585.28" y1="688.65" x2="652.05" y2="688.65" xlink:href="#linear-gradient-27"/></defs><title>Social Tiles (Blogs 2)</title><g class="cls-2"><g id="Layer_1" data-name="Layer 1"><path class="cls-3" d="M775.07,359.2,352.32,147.78c-4.15-2.08-7.93-2.37-10.78-1.2l-9.92,4.92,4.68,5.75V426.94c0,8.85,7.17,19.61,16,24L767.11,658.42l9.65,9.76,9.5-4.75c3-1.41,4.84-4.54,4.84-9V383.24C791.1,374.39,783.92,363.63,775.07,359.2Z"/><path class="cls-4" d="M765.84,667,343.09,455.6c-8.85-4.43-16-15.19-16-24V160.41c0-8.85,7.18-12.44,16-8L765.84,363.82c8.85,4.43,16,15.19,16,24V659C781.86,667.86,774.69,671.45,765.84,667Z"/><path class="cls-5" d="M600.65,333.48V565.94l162.74,81.39V414.87ZM345.53,438.35,582.18,556.7V324.25L345.53,205.9Z"/><path class="cls-6" d="M744.92,424.11l-125.8-62.92V430l125.8,62.91ZM619.12,556.7l125.8,62.92V550.85l-125.8-62.91Zm59.19-86.79L619.12,440.3v37.29l59.19,29.61Zm7.42,3.71v37.29l59.19,29.6V503.22ZM434.24,268.73,364,233.61v68.76l70.24,35.13Zm18.47,78,111,55.51V333.48L452.71,278ZM364,429.12,563.71,529V417.31L364,317.44Z"/><path class="cls-7" d="M781.86,405.64,327.06,178.19V160.41c0-8.85,7.18-12.44,16-8L765.84,363.82c8.85,4.43,16,15.19,16,24Z"/><path class="cls-8" d="M708.5,346.38c-3.13-1.56-5.67-.3-5.67,2.83s2.54,6.94,5.67,8.5,5.66.3,5.66-2.83S711.63,348,708.5,346.38Zm24.61,12.31c-3.13-1.56-5.66-.3-5.66,2.83s2.53,6.94,5.66,8.5,5.67.3,5.67-2.83S736.24,360.26,733.11,358.69ZM757.73,371c-3.13-1.56-5.67-.3-5.67,2.83s2.54,6.94,5.67,8.5,5.66.3,5.66-2.83S760.86,372.57,757.73,371Z"/><path class="cls-9" d="M627.25,452.44v2l42.92,21.46v-2Zm0,6.81,42.92,21.46v-2l-42.92-21.47Zm0,4.78,42.92,21.46v-2L627.25,462Zm0,4.78,42.92,21.47v-2l-42.92-21.47Zm0,4.78L661,490.46v-2l-33.74-16.88Z"/><path class="cls-9" d="M693.87,485.76v2l42.92,21.47v-2Zm0,6.8L736.79,514v-2l-42.92-21.46Zm0,4.78,42.92,21.47v-2l-42.92-21.46Zm0,4.78,42.92,21.47v-2L693.87,500.1Zm0,4.78,33.73,16.88v-2l-33.73-16.87Z"/><path class="cls-9" d="M377.66,281.08l42.92,21.46v-2l-42.92-21.46Zm0,14.34,42.92,21.46v-2l-42.92-21.47Zm0-4.78,42.92,21.46v-2l-42.92-21.46Zm0-4.78,42.92,21.46v-2l-42.92-21.46Zm0,14.34,33.74,16.87v-2l-33.74-16.87Zm0-50.76v21.15l42.92,21.47V270.91Z"/><path class="cls-10" d="M390.82,422.88,406,415.32c3.76-1.88,9.85,1.17,13.61,6.81s9.85,8.68,13.61,6.8l26.56-13.27c3.76-1.88,9.86,1.17,13.61,6.8L483,436.89c3.76,5.64,9.86,8.69,13.62,6.81l40.31-20.15v72.38Z"/><rect class="cls-5" x="389.9" y="345.79" width="1.85" height="77.09"/><rect class="cls-5" x="419.11" y="360.4" width="1.85" height="77.09"/><rect class="cls-5" x="448.32" y="375.01" width="1.85" height="77.09"/><rect class="cls-5" x="477.54" y="389.62" width="1.85" height="77.09"/><rect class="cls-5" x="506.75" y="404.23" width="1.85" height="77.09"/><rect class="cls-5" x="535.97" y="418.84" width="1.85" height="77.09"/><path class="cls-11" d="M505.41,365.74l5.6,2.8v-19l-5.6-2.8ZM516,371l5.61,2.8V335.1L516,332.3Zm10.6,5.3,5.6,2.8v-30.7l-5.6-2.8Zm10.6,5.3,5.6,2.8V342.06l-5.6-2.81Zm10.59-48.77v54.07l5.61,2.8V335.68ZM463,344.54l5.61,2.8V343.1L463,340.3Zm10.6,5.3,5.6,2.8v-11l-5.6-2.8Zm10.6,5.3,5.6,2.8v-30.7l-5.6-2.8Zm10.59,5.3,5.61,2.8V320.86l-5.61-2.8Z"/><path class="cls-11" d="M679.08,549.26c0-12.49-10.13-27.68-22.62-33.92V538l16,24c4.42-2.21,6.63-6.89,6.63-12.68Z"/><path class="cls-10" d="M656.46,515.34V538l16-8A43.13,43.13,0,0,0,656.46,515.34Z"/><path class="cls-12" d="M654.06,539.15V516.53c-12.49-6.24-22.61-1.18-22.61,11.31s10.12,27.68,22.61,33.92c6.25,3.13,11.9,3.42,16,1.38Z"/><path class="cls-13" d="M678.44,369.64l-46.06-23c-3-1.49-5.68-1.66-7.67-.74l-.11,0-.11.06-8.72,4.38,5.53,11v19.77c0,6.12,5,13.56,11.08,16.62l17.49,8.75,6.56,28.31,9.23-4.62v-15.8l12.62,6.32-1.17,5.34,8.94-4.5c2.13-.95,3.46-3.14,3.46-6.31v-29C689.51,380.14,684.55,372.7,678.44,369.64Z"/><path class="cls-11" d="M669.2,374.26l-46.06-23c-6.12-3.06-11.08-.58-11.08,5.54v29c0,6.12,5,13.56,11.08,16.62l17.49,8.74,15.8,23.7V419l12.77,6.39c6.12,3.06,11.08.58,11.08-5.54v-29C680.28,384.76,675.32,377.32,669.2,374.26Z"/><path class="cls-6" d="M631.52,377.23c-2.36-1.18-4.27-.22-4.27,2.14a8,8,0,0,0,4.27,6.41c2.36,1.18,4.27.22,4.27-2.14A8,8,0,0,0,631.52,377.23Zm14.65,7.33c-2.36-1.18-4.27-.22-4.27,2.14a8,8,0,0,0,4.27,6.41c2.36,1.18,4.28.22,4.28-2.14A8,8,0,0,0,646.17,384.56Zm14.65,7.33c-2.36-1.18-4.27-.23-4.27,2.13a8,8,0,0,0,4.27,6.41c2.36,1.18,4.27.23,4.27-2.13A8,8,0,0,0,660.82,391.89Z"/><path class="cls-13" d="M405.15,457.76,313.59,412c-2.78-1.39-5.29-1.53-7.11-.62L297.26,416l6.25,9.43v34.93c0,5.57,4.51,12.34,10.08,15.12l90.67,45.35-1.2,5.67,9.19-4.6c1.84-.9,3-2.86,3-5.66V472.88C415.23,467.31,410.72,460.54,405.15,457.76Z"/><path class="cls-11" d="M395.92,525.85l-91.57-45.79c-5.56-2.78-10.08-9.55-10.08-15.12V421.62c0-5.56,4.52-7.82,10.08-5l91.57,45.8c5.57,2.78,10.08,9.55,10.08,15.12v43.32C406,526.38,401.49,528.64,395.92,525.85Z"/><path class="cls-6" d="M375,465.93l-57.3-28.66v3.58L375,469.51Zm-36.94,6.84L317.7,462.59v3.58l20.36,10.18ZM317.7,445.71v3.58l75.77,37.89v-3.57Zm0,28.9,41.08,20.55v-3.58L317.7,471Zm0-16.88L375,486.39v-3.58l-57.3-28.66Zm-9.11-25c-1-.5-1.79-.09-1.79.89a3.38,3.38,0,0,0,1.79,2.69c1,.49,1.79.09,1.79-.9A3.35,3.35,0,0,0,308.59,432.72Zm0,8.44c-1-.5-1.79-.1-1.79.89a3.38,3.38,0,0,0,1.79,2.69c1,.49,1.79.09,1.79-.9A3.35,3.35,0,0,0,308.59,441.16Zm0,8.44c-1-.5-1.79-.1-1.79.89a3.38,3.38,0,0,0,1.79,2.69c1,.49,1.79.09,1.79-.9A3.35,3.35,0,0,0,308.59,449.6Zm0,8.44c-1-.5-1.79-.1-1.79.89a3.35,3.35,0,0,0,1.79,2.68c1,.5,1.79.1,1.79-.89A3.35,3.35,0,0,0,308.59,458Zm0,8.44c-1-.5-1.79-.1-1.79.89a3.35,3.35,0,0,0,1.79,2.68c1,.5,1.79.1,1.79-.89A3.35,3.35,0,0,0,308.59,466.48Z"/><rect class="cls-14" x="313.65" y="630.51" width="138.93" height="61.75"/><polygon class="cls-15" points="452.58 762.34 517 729.09 517 660.8 452.58 660.8 452.58 762.34"/><polygon class="cls-16" points="516.59 596.25 452.58 628.26 388.57 596.25 452.58 564.24 516.59 596.25"/><polygon class="cls-17" points="516.59 660.25 452.58 692.26 452.58 628.26 516.59 596.25 516.59 660.25"/><polygon class="cls-18" points="452.58 692.26 388.57 660.25 388.57 596.25 452.58 628.26 452.58 692.26"/><path class="cls-8" d="M465.63,634.78c-3.94,5.91-3.94,12.29,0,14.26s10.32-1.22,14.26-7.13,3.94-12.29,0-14.26S469.57,628.88,465.63,634.78Zm23.64,11.82c-3.93,5.91-3.93,12.29,0,14.26s10.33-1.22,14.26-7.13,3.94-12.29,0-14.26S493.21,640.69,489.27,646.6Zm14.26-16.51c3.94-5.91,3.94-12.29,0-14.26s-10.32,1.22-14.26,7.13-3.93,12.29,0,14.26S499.6,636,503.53,630.09Zm-37.9,28.33c-3.94,5.91-3.94,12.3,0,14.26s10.32-1.22,14.26-7.13,3.94-12.29,0-14.26S469.57,652.52,465.63,658.42Z"/><path class="cls-19" d="M425.27,627.65c-3.94,2-3.94,8.35,0,14.26s10.32,9.1,14.26,7.13,3.94-8.35,0-14.26S429.21,625.68,425.27,627.65Zm-23.64,11.82c-3.94,2-3.94,8.35,0,14.26s10.32,9.1,14.26,7.13,3.93-8.35,0-14.26S405.56,637.5,401.63,639.47Zm14.26-2.25c3.93-2,3.93-8.35,0-14.26s-10.33-9.1-14.26-7.13-3.94,8.35,0,14.26S412,639.19,415.89,637.22Zm9.38,14.07c-3.94,2-3.94,8.36,0,14.26s10.32,9.1,14.26,7.13,3.94-8.35,0-14.26S429.21,649.32,425.27,651.29Z"/><rect class="cls-20" x="174.13" y="700.23" width="138.93" height="61.75"/><polygon class="cls-21" points="377.07 665.96 313.06 697.97 249.06 665.96 313.06 633.95 377.07 665.96"/><polygon class="cls-22" points="377.07 729.97 313.06 761.98 313.06 697.97 377.07 665.96 377.07 729.97"/><polygon class="cls-23" points="313.06 761.98 249.06 729.97 249.06 665.96 313.06 697.97 313.06 761.98"/><path class="cls-8" d="M259.07,685.22a1.74,1.74,0,0,1-.38-.63c-.11-.32,0-.5.19-.39l6.37,3.19a1.49,1.49,0,0,1,.59.77c.1.32,0,.5-.2.39l-6.37-3.19A1.05,1.05,0,0,1,259.07,685.22Z"/><path class="cls-8" d="M259.07,688.86a1.74,1.74,0,0,1-.38-.63c-.11-.32,0-.5.19-.39l6.37,3.18a1.56,1.56,0,0,1,.59.78c.1.32,0,.5-.2.39L259.27,689A1.05,1.05,0,0,1,259.07,688.86Z"/><path class="cls-8" d="M259.07,692.49a1.79,1.79,0,0,1-.38-.62c-.11-.33,0-.5.19-.39l6.37,3.18a1.56,1.56,0,0,1,.59.78c.1.32,0,.5-.2.39l-6.37-3.19A.8.8,0,0,1,259.07,692.49Z"/><path class="cls-8" d="M259.07,696.13a1.79,1.79,0,0,1-.38-.62c-.11-.33,0-.5.19-.39l6.37,3.18a1.56,1.56,0,0,1,.59.78c.1.32,0,.5-.2.39l-6.37-3.19A.8.8,0,0,1,259.07,696.13Z"/><path class="cls-8" d="M259.07,699.77a1.74,1.74,0,0,1-.38-.63c-.11-.32,0-.49.19-.39l6.37,3.19a1.56,1.56,0,0,1,.59.78c.1.32,0,.49-.2.39l-6.37-3.19A.8.8,0,0,1,259.07,699.77Z"/><path class="cls-8" d="M259.07,703.41a1.74,1.74,0,0,1-.38-.63c-.11-.32,0-.5.19-.39l6.37,3.19a1.53,1.53,0,0,1,.59.77c.1.33,0,.5-.2.39l-6.37-3.18A1.15,1.15,0,0,1,259.07,703.41Z"/><path class="cls-8" d="M259.07,707.05a1.74,1.74,0,0,1-.38-.63c-.11-.32,0-.5.19-.39l6.37,3.19a1.49,1.49,0,0,1,.59.77c.1.33,0,.5-.2.39l-6.37-3.18Z"/><path class="cls-8" d="M259.07,710.68a1.7,1.7,0,0,1-.38-.62c-.11-.32,0-.5.19-.39l6.37,3.18a1.56,1.56,0,0,1,.59.78c.1.32,0,.5-.2.39l-6.37-3.19A.8.8,0,0,1,259.07,710.68Z"/><path class="cls-8" d="M259.07,714.32a1.79,1.79,0,0,1-.38-.62c-.11-.33,0-.5.19-.39l6.37,3.18a1.56,1.56,0,0,1,.59.78c.1.32,0,.5-.2.39l-6.37-3.19A.8.8,0,0,1,259.07,714.32Z"/><path class="cls-8" d="M259.07,718a1.74,1.74,0,0,1-.38-.63c-.11-.32,0-.49.19-.39l6.37,3.19a1.56,1.56,0,0,1,.59.78c.1.32,0,.49-.2.39l-6.37-3.19A.8.8,0,0,1,259.07,718Z"/><path class="cls-8" d="M259.07,721.6a1.74,1.74,0,0,1-.38-.63c-.11-.32,0-.49.19-.39l6.37,3.19a1.52,1.52,0,0,1,.59.78c.1.32,0,.49-.2.39l-6.37-3.19A.8.8,0,0,1,259.07,721.6Z"/><path class="cls-8" d="M271.2,691.28a1.76,1.76,0,0,1-.39-.63c-.1-.32,0-.49.2-.39l8.8,4.41a1.53,1.53,0,0,1,.58.77c.11.32,0,.5-.19.39l-8.8-4.4A.65.65,0,0,1,271.2,691.28Z"/><path class="cls-8" d="M271.2,694.92a1.76,1.76,0,0,1-.39-.63c-.1-.32,0-.49.2-.39l8.8,4.4a1.61,1.61,0,0,1,.58.78c.11.32,0,.5-.19.39l-8.8-4.4A.65.65,0,0,1,271.2,694.92Z"/><path class="cls-8" d="M271.2,698.56a1.76,1.76,0,0,1-.39-.63c-.1-.32,0-.5.2-.39l6.37,3.19a1.47,1.47,0,0,1,.58.77c.11.33,0,.5-.19.39l-6.37-3.18A1.3,1.3,0,0,1,271.2,698.56Z"/><path class="cls-8" d="M271.2,702.2a1.76,1.76,0,0,1-.39-.63c-.1-.32,0-.5.2-.39l2.73,1.37a1.49,1.49,0,0,1,.59.77c.1.33,0,.5-.2.39l-2.73-1.36A1.3,1.3,0,0,1,271.2,702.2Z"/><path class="cls-8" d="M271.2,705.84a1.76,1.76,0,0,1-.39-.63c-.1-.32,0-.5.2-.39l6.37,3.18a1.49,1.49,0,0,1,.58.78c.11.32,0,.5-.19.39L271.4,706A1.3,1.3,0,0,1,271.2,705.84Z"/><path class="cls-8" d="M271.2,709.47a1.81,1.81,0,0,1-.39-.62c-.1-.33,0-.5.2-.39l2.73,1.36a1.56,1.56,0,0,1,.59.78c.1.32,0,.5-.2.39l-2.73-1.37A.65.65,0,0,1,271.2,709.47Z"/><path class="cls-8" d="M271.2,713.11a1.81,1.81,0,0,1-.39-.62c-.1-.33,0-.5.2-.39l2.73,1.36a1.52,1.52,0,0,1,.59.78c.1.32,0,.49-.2.39l-2.73-1.37A.65.65,0,0,1,271.2,713.11Z"/><path class="cls-8" d="M271.2,716.75a1.76,1.76,0,0,1-.39-.63c-.1-.32,0-.49.2-.39l11.22,5.62a1.49,1.49,0,0,1,.59.77c.1.32,0,.5-.2.39L271.4,716.9A.65.65,0,0,1,271.2,716.75Z"/><path class="cls-8" d="M271.2,720.39a1.76,1.76,0,0,1-.39-.63c-.1-.32,0-.5.2-.39L282.23,725a1.56,1.56,0,0,1,.59.78c.1.32,0,.5-.2.39l-11.22-5.61A.87.87,0,0,1,271.2,720.39Z"/><path class="cls-8" d="M271.2,724a1.76,1.76,0,0,1-.39-.63c-.1-.32,0-.5.2-.39l7.58,3.79a1.56,1.56,0,0,1,.59.78c.1.32,0,.5-.2.39l-7.58-3.79A1.3,1.3,0,0,1,271.2,724Z"/><path class="cls-8" d="M271.2,727.66a1.72,1.72,0,0,1-.39-.62c-.1-.32,0-.5.2-.39l14.86,7.43a1.55,1.55,0,0,1,.58.78c.11.32,0,.49-.19.39l-14.86-7.44A.65.65,0,0,1,271.2,727.66Z"/><path class="cls-8" d="M282.12,696.74a1.76,1.76,0,0,1-.39-.63c-.11-.32,0-.49.19-.38l3.95,2a1.52,1.52,0,0,1,.58.78c.11.32,0,.49-.19.38l-3.95-2A.62.62,0,0,1,282.12,696.74Z"/><path class="cls-8" d="M282.12,700.38a1.76,1.76,0,0,1-.39-.63c-.11-.32,0-.5.19-.39l3.95,2a1.53,1.53,0,0,1,.58.77c.11.32,0,.5-.19.39l-3.95-2A.83.83,0,0,1,282.12,700.38Z"/><path class="cls-8" d="M279.69,702.8a1.72,1.72,0,0,1-.39-.62c-.1-.32,0-.5.2-.39l10,5a1.55,1.55,0,0,1,.58.78c.11.32,0,.5-.19.39l-10-5A.65.65,0,0,1,279.69,702.8Z"/><path class="cls-8" d="M276.05,704.62a1.65,1.65,0,0,1-.38-.62c-.11-.33,0-.5.19-.39l8.8,4.4a1.52,1.52,0,0,1,.58.77c.11.33,0,.5-.19.39l-8.8-4.4A.8.8,0,0,1,276.05,704.62Z"/><path class="cls-8" d="M279.69,710.08a1.76,1.76,0,0,1-.39-.63c-.1-.32,0-.49.2-.39l10,5a1.51,1.51,0,0,1,.58.78c.11.32,0,.49-.19.39l-10-5A.65.65,0,0,1,279.69,710.08Z"/><path class="cls-8" d="M276.05,711.9a1.61,1.61,0,0,1-.38-.63c-.11-.32,0-.49.19-.39l10,5a1.51,1.51,0,0,1,.58.78c.11.32,0,.49-.19.39l-10-5A.8.8,0,0,1,276.05,711.9Z"/><path class="cls-8" d="M276.05,715.54a1.61,1.61,0,0,1-.38-.63c-.11-.32,0-.5.19-.39l10,5a1.48,1.48,0,0,1,.58.77c.11.33,0,.5-.19.39l-10-5Z"/><path class="cls-8" d="M284.54,723.42a1.65,1.65,0,0,1-.38-.62c-.11-.33,0-.5.19-.39l6.37,3.18a1.46,1.46,0,0,1,.58.78c.11.32,0,.5-.19.39l-6.37-3.19A.8.8,0,0,1,284.54,723.42Z"/><path class="cls-8" d="M284.54,727.06a1.61,1.61,0,0,1-.38-.63c-.11-.32,0-.49.19-.39l6.37,3.19a1.46,1.46,0,0,1,.58.78c.11.32,0,.49-.19.39l-6.37-3.19A.8.8,0,0,1,284.54,727.06Z"/><path class="cls-8" d="M280.9,728.88a1.61,1.61,0,0,1-.38-.63c-.11-.32,0-.5.19-.39l10,5a1.51,1.51,0,0,1,.58.78c.11.32,0,.49-.19.38l-10-5A1.15,1.15,0,0,1,280.9,728.88Z"/><path class="cls-8" d="M288.18,736.16a1.76,1.76,0,0,1-.39-.63c-.1-.32,0-.5.2-.39l2.73,1.37a1.47,1.47,0,0,1,.58.78c.11.32,0,.49-.19.38l-2.73-1.37A.81.81,0,0,1,288.18,736.16Z"/><path class="cls-8" d="M288.18,699.77a1.76,1.76,0,0,1-.39-.63c-.1-.32,0-.49.2-.38l3.95,2a1.56,1.56,0,0,1,.58.78c.11.32,0,.49-.2.39l-3.94-2A.65.65,0,0,1,288.18,699.77Z"/><path class="cls-8" d="M288.18,703.41a1.76,1.76,0,0,1-.39-.63c-.1-.32,0-.49.2-.38l3.95,2a1.56,1.56,0,0,1,.58.78c.11.32,0,.49-.2.38l-3.94-2A.65.65,0,0,1,288.18,703.41Z"/><path class="cls-8" d="M291.82,708.87a1.76,1.76,0,0,1-.39-.63c-.1-.32,0-.49.2-.39L298,711a1.48,1.48,0,0,1,.58.77c.11.33,0,.5-.19.39L292,709A.65.65,0,0,1,291.82,708.87Z"/><path class="cls-8" d="M287,710.08a1.76,1.76,0,0,1-.39-.63c-.11-.32,0-.49.2-.38L298,714.68a1.52,1.52,0,0,1,.58.78c.11.32,0,.49-.19.38l-11.23-5.61A.62.62,0,0,1,287,710.08Z"/><path class="cls-8" d="M291.82,716.15a1.76,1.76,0,0,1-.39-.63c-.1-.32,0-.5.2-.39l6.37,3.19a1.48,1.48,0,0,1,.58.77c.11.32,0,.5-.19.39L292,716.3A1.3,1.3,0,0,1,291.82,716.15Z"/><path class="cls-8" d="M288.18,718a1.76,1.76,0,0,1-.39-.63c-.1-.32,0-.5.2-.39l6.37,3.19a1.53,1.53,0,0,1,.58.77c.11.32,0,.5-.19.39l-6.37-3.19A.81.81,0,0,1,288.18,718Z"/><path class="cls-8" d="M288.18,721.6a1.81,1.81,0,0,1-.39-.62c-.1-.33,0-.5.2-.39l6.37,3.18a1.56,1.56,0,0,1,.58.78c.11.32,0,.5-.19.39l-6.37-3.19A.65.65,0,0,1,288.18,721.6Z"/><path class="cls-8" d="M293,727.67a1.61,1.61,0,0,1-.38-.63c-.11-.32,0-.5.19-.39l6.37,3.19a1.43,1.43,0,0,1,.58.77c.11.33,0,.5-.19.39l-6.37-3.18Z"/><path class="cls-8" d="M293,731.31a1.61,1.61,0,0,1-.38-.63c-.11-.32,0-.5.19-.39l6.37,3.19a1.43,1.43,0,0,1,.58.77c.11.32,0,.5-.19.39l-6.37-3.18Z"/><path class="cls-8" d="M293,734.94a1.65,1.65,0,0,1-.38-.62c-.11-.33,0-.5.19-.39l4,2a1.56,1.56,0,0,1,.58.78c.11.32,0,.49-.2.39l-3.94-2A.8.8,0,0,1,293,734.94Z"/><path class="cls-8" d="M293,738.58a1.65,1.65,0,0,1-.38-.62c-.11-.33,0-.5.19-.39l4,2a1.52,1.52,0,0,1,.58.78c.11.32,0,.49-.19.39l-3.95-2A.8.8,0,0,1,293,738.58Z"/><path class="cls-8" d="M294.24,702.81a1.74,1.74,0,0,1-.38-.63c-.11-.32,0-.5.19-.39l8.8,4.4a1.49,1.49,0,0,1,.58.78c.11.32,0,.49-.19.39l-8.8-4.41A1.05,1.05,0,0,1,294.24,702.81Z"/><path class="cls-8" d="M294.24,706.44a1.79,1.79,0,0,1-.38-.62c-.11-.32,0-.5.19-.39l8.8,4.4a1.47,1.47,0,0,1,.58.77c.11.33,0,.5-.19.39l-8.8-4.4A.8.8,0,0,1,294.24,706.44Z"/><path class="cls-8" d="M300.31,713.12a1.86,1.86,0,0,1-.39-.63c-.11-.32,0-.5.2-.39l2.73,1.37a1.44,1.44,0,0,1,.58.77c.11.32,0,.5-.19.39l-2.74-1.37A1,1,0,0,1,300.31,713.12Z"/><path class="cls-8" d="M300.31,716.75a1.76,1.76,0,0,1-.39-.63c-.11-.32,0-.49.2-.38l2.73,1.37a1.44,1.44,0,0,1,.58.77c.11.32,0,.5-.19.39l-2.74-1.37A.77.77,0,0,1,300.31,716.75Z"/><path class="cls-8" d="M300.31,720.39a1.76,1.76,0,0,1-.39-.63c-.11-.32,0-.49.2-.38l2.73,1.36a1.51,1.51,0,0,1,.58.78c.11.32,0,.5-.19.39l-2.74-1.37A.77.77,0,0,1,300.31,720.39Z"/><path class="cls-8" d="M296.67,722.21a1.76,1.76,0,0,1-.39-.63c-.1-.32,0-.49.2-.39l6.37,3.19a1.49,1.49,0,0,1,.58.78c.11.32,0,.49-.19.39l-6.37-3.19A.65.65,0,0,1,296.67,722.21Z"/><path class="cls-8" d="M296.67,725.85a1.76,1.76,0,0,1-.39-.63c-.1-.32,0-.49.2-.39l6.37,3.19a1.42,1.42,0,0,1,.58.78c.11.32,0,.49-.19.38L296.87,726A.87.87,0,0,1,296.67,725.85Z"/><path class="cls-8" d="M301.52,731.91a1.81,1.81,0,0,1-.39-.62c-.1-.33,0-.5.2-.39l1.52.76a1.43,1.43,0,0,1,.58.77c.11.33,0,.5-.19.39l-1.52-.76A.65.65,0,0,1,301.52,731.91Z"/><path class="cls-8" d="M301.52,735.55a1.76,1.76,0,0,1-.39-.63c-.1-.32,0-.49.2-.39l1.52.77a1.43,1.43,0,0,1,.58.77c.11.32,0,.5-.19.39l-1.52-.76A.65.65,0,0,1,301.52,735.55Z"/><path class="cls-8" d="M299.1,738a1.64,1.64,0,0,1-.39-.63c-.11-.32,0-.5.19-.39l4,2a1.49,1.49,0,0,1,.58.78c.11.32,0,.5-.19.39l-3.95-2A1.25,1.25,0,0,1,299.1,738Z"/><path class="cls-8" d="M299.1,741.61a1.53,1.53,0,0,1-.39-.62c-.11-.32,0-.5.19-.39l4,2a1.44,1.44,0,0,1,.58.77c.11.32,0,.5-.19.39l-3.95-2A.62.62,0,0,1,299.1,741.61Z"/><rect class="cls-24" x="507.78" y="727.92" width="138.93" height="61.75"/><polygon class="cls-25" points="710.71 693.66 646.71 725.67 582.7 693.66 646.71 661.65 710.71 693.66"/><polygon class="cls-26" points="710.71 757.66 646.71 789.67 646.71 725.67 710.71 693.66 710.71 757.66"/><polygon class="cls-27" points="646.71 789.67 582.7 757.66 582.7 693.66 646.71 725.67 646.71 789.67"/><path class="cls-8" d="M656.72,734.9a.43.43,0,0,1-.38-.24.43.43,0,0,1,.19-.58l6.37-3.19a.45.45,0,0,1,.59.19.45.45,0,0,1-.2.59l-6.37,3.18A.35.35,0,0,1,656.72,734.9Z"/><path class="cls-8" d="M656.72,738.54a.43.43,0,0,1-.19-.82l6.37-3.19a.45.45,0,0,1,.59.19.45.45,0,0,1-.2.59l-6.37,3.18A.46.46,0,0,1,656.72,738.54Z"/><path class="cls-8" d="M656.72,742.18a.43.43,0,0,1-.19-.82l6.37-3.19a.44.44,0,0,1,.59.19.43.43,0,0,1-.2.58l-6.37,3.19A.46.46,0,0,1,656.72,742.18Z"/><path class="cls-8" d="M656.72,745.82a.43.43,0,0,1-.38-.24.44.44,0,0,1,.19-.59l6.37-3.18a.44.44,0,0,1,.59.19.43.43,0,0,1-.2.58l-6.37,3.19A.46.46,0,0,1,656.72,745.82Z"/><path class="cls-8" d="M656.72,749.46a.43.43,0,0,1-.38-.24.44.44,0,0,1,.19-.59l6.37-3.19a.45.45,0,0,1,.59.2.44.44,0,0,1-.2.58l-6.37,3.19A.46.46,0,0,1,656.72,749.46Z"/><path class="cls-8" d="M656.72,753.09a.41.41,0,0,1-.38-.24.43.43,0,0,1,.19-.58l6.37-3.19a.45.45,0,0,1,.59.2.44.44,0,0,1-.2.58l-6.37,3.19A.45.45,0,0,1,656.72,753.09Z"/><path class="cls-8" d="M656.72,756.73a.43.43,0,0,1-.38-.24.43.43,0,0,1,.19-.58l6.37-3.19a.45.45,0,0,1,.59.2.44.44,0,0,1-.2.58l-6.37,3.19A.45.45,0,0,1,656.72,756.73Z"/><path class="cls-8" d="M656.72,760.37a.43.43,0,0,1-.19-.82l6.37-3.19a.45.45,0,0,1,.59.19.45.45,0,0,1-.2.59l-6.37,3.18A.46.46,0,0,1,656.72,760.37Z"/><path class="cls-8" d="M656.72,764a.43.43,0,0,1-.19-.82L662.9,760a.45.45,0,0,1,.59.19.43.43,0,0,1-.2.58L656.92,764A.46.46,0,0,1,656.72,764Z"/><path class="cls-8" d="M656.72,767.65a.43.43,0,0,1-.38-.24.44.44,0,0,1,.19-.59l6.37-3.18a.44.44,0,0,1,.59.19.43.43,0,0,1-.2.58l-6.37,3.19A.46.46,0,0,1,656.72,767.65Z"/><path class="cls-8" d="M656.72,771.28a.42.42,0,0,1-.38-.23.44.44,0,0,1,.19-.59l6.37-3.19a.45.45,0,0,1,.59.2.44.44,0,0,1-.2.58l-6.37,3.19A.45.45,0,0,1,656.72,771.28Z"/><path class="cls-8" d="M668.85,728.84a.44.44,0,0,1-.19-.83l8.8-4.4a.44.44,0,0,1,.58.2.43.43,0,0,1-.2.58l-8.79,4.4A.49.49,0,0,1,668.85,728.84Z"/><path class="cls-8" d="M668.85,732.47a.43.43,0,0,1-.39-.23.45.45,0,0,1,.2-.59l8.8-4.4a.44.44,0,0,1,.58.19.44.44,0,0,1-.2.59l-8.79,4.4A.48.48,0,0,1,668.85,732.47Z"/><path class="cls-8" d="M668.85,736.11a.44.44,0,0,1-.39-.24.44.44,0,0,1,.2-.58L675,732.1a.44.44,0,0,1,.39.78l-6.37,3.19A.48.48,0,0,1,668.85,736.11Z"/><path class="cls-8" d="M668.85,739.75a.44.44,0,0,1-.39-.24.44.44,0,0,1,.2-.58l2.73-1.37a.45.45,0,0,1,.59.2.44.44,0,0,1-.2.58l-2.73,1.36A.37.37,0,0,1,668.85,739.75Z"/><path class="cls-8" d="M668.85,743.39a.44.44,0,0,1-.39-.24.43.43,0,0,1,.2-.58l6.37-3.19a.44.44,0,0,1,.58.19.44.44,0,0,1-.19.59l-6.37,3.18A.49.49,0,0,1,668.85,743.39Z"/><path class="cls-8" d="M668.85,747a.44.44,0,0,1-.19-.83l2.73-1.36a.44.44,0,0,1,.59.19.43.43,0,0,1-.2.58L669.05,747A.49.49,0,0,1,668.85,747Z"/><path class="cls-8" d="M668.85,750.67a.44.44,0,0,1-.19-.83l2.73-1.36a.44.44,0,0,1,.59.19.44.44,0,0,1-.2.58l-2.73,1.37A.49.49,0,0,1,668.85,750.67Z"/><path class="cls-8" d="M668.85,754.3a.43.43,0,0,1-.39-.23.45.45,0,0,1,.2-.59l11.22-5.61a.44.44,0,0,1,.58.19.42.42,0,0,1-.19.58l-11.22,5.62A.48.48,0,0,1,668.85,754.3Z"/><path class="cls-8" d="M668.85,757.94a.44.44,0,0,1-.39-.24.44.44,0,0,1,.2-.58l11.22-5.61a.44.44,0,0,1,.58.19.42.42,0,0,1-.19.58l-11.22,5.62A.48.48,0,0,1,668.85,757.94Z"/><path class="cls-8" d="M668.85,761.58a.44.44,0,0,1-.39-.24.44.44,0,0,1,.2-.58l7.58-3.79a.44.44,0,0,1,.59.19.44.44,0,0,1-.2.58l-7.58,3.8A.48.48,0,0,1,668.85,761.58Z"/><path class="cls-8" d="M668.85,765.22a.44.44,0,0,1-.39-.24.43.43,0,0,1,.2-.58L683.52,757a.44.44,0,0,1,.39.78l-14.86,7.43A.49.49,0,0,1,668.85,765.22Z"/><path class="cls-8" d="M679.77,723.38a.43.43,0,0,1-.39-.24.43.43,0,0,1,.19-.58l3.95-2a.44.44,0,0,1,.58.19.44.44,0,0,1-.19.59l-3.95,2A.45.45,0,0,1,679.77,723.38Z"/><path class="cls-8" d="M679.77,727a.43.43,0,0,1-.39-.24.44.44,0,0,1,.19-.59l3.95-2a.44.44,0,0,1,.58.19.43.43,0,0,1-.19.58L680,727A.45.45,0,0,1,679.77,727Z"/><path class="cls-8" d="M677.34,731.87a.44.44,0,0,1-.39-.24.43.43,0,0,1,.2-.58l10-5a.43.43,0,0,1,.58.19.43.43,0,0,1-.19.58l-10,5A.49.49,0,0,1,677.34,731.87Z"/><path class="cls-8" d="M673.7,737.33a.44.44,0,0,1-.19-.83l8.8-4.4a.44.44,0,0,1,.39.78l-8.8,4.4A.49.49,0,0,1,673.7,737.33Z"/><path class="cls-8" d="M677.34,739.14a.43.43,0,0,1-.39-.24.44.44,0,0,1,.2-.58l10-5a.44.44,0,0,1,.39.78l-10,5A.48.48,0,0,1,677.34,739.14Z"/><path class="cls-8" d="M673.7,744.6a.44.44,0,0,1-.39-.24.44.44,0,0,1,.2-.58l10-5a.44.44,0,0,1,.39.78l-10,5A.48.48,0,0,1,673.7,744.6Z"/><path class="cls-8" d="M673.7,748.24a.44.44,0,0,1-.39-.24.43.43,0,0,1,.2-.58l10-5a.44.44,0,0,1,.58.19.44.44,0,0,1-.19.59l-10,5A.49.49,0,0,1,673.7,748.24Z"/><path class="cls-8" d="M682.19,747.63a.44.44,0,0,1-.39-.24.44.44,0,0,1,.2-.58l6.37-3.19a.44.44,0,0,1,.39.78l-6.38,3.19A.41.41,0,0,1,682.19,747.63Z"/><path class="cls-8" d="M682.19,751.27a.44.44,0,0,1-.39-.24.44.44,0,0,1,.2-.58l6.37-3.19a.44.44,0,0,1,.58.19.44.44,0,0,1-.19.59l-6.37,3.19A.48.48,0,0,1,682.19,751.27Z"/><path class="cls-8" d="M678.55,756.73a.42.42,0,0,1-.38-.24.43.43,0,0,1,.19-.58l10-5a.44.44,0,0,1,.39.78l-10,5A.46.46,0,0,1,678.55,756.73Z"/><path class="cls-8" d="M685.83,756.73a.44.44,0,0,1-.39-.24.42.42,0,0,1,.2-.58l2.73-1.37a.44.44,0,0,1,.58.19.43.43,0,0,1-.19.58L686,756.68A.41.41,0,0,1,685.83,756.73Z"/><path class="cls-8" d="M685.83,720.34a.43.43,0,0,1-.19-.82l3.94-2a.45.45,0,0,1,.59.19.43.43,0,0,1-.2.58l-4,2A.41.41,0,0,1,685.83,720.34Z"/><path class="cls-8" d="M685.83,724a.44.44,0,0,1-.39-.24.43.43,0,0,1,.2-.58l3.94-2a.44.44,0,0,1,.59.19.43.43,0,0,1-.2.58l-4,2A.41.41,0,0,1,685.83,724Z"/><path class="cls-8" d="M689.47,725.8a.44.44,0,0,1-.39-.24.43.43,0,0,1,.19-.58l6.38-3.19a.44.44,0,0,1,.39.78l-6.38,3.19A.41.41,0,0,1,689.47,725.8Z"/><path class="cls-8" d="M684.62,731.87a.44.44,0,0,1-.2-.83l11.23-5.61a.44.44,0,0,1,.39.78l-11.23,5.61A.45.45,0,0,1,684.62,731.87Z"/><path class="cls-8" d="M689.47,733.08a.44.44,0,0,1-.39-.24.43.43,0,0,1,.19-.58l6.38-3.19a.44.44,0,0,1,.58.19.43.43,0,0,1-.19.58L689.66,733A.41.41,0,0,1,689.47,733.08Z"/><path class="cls-8" d="M685.83,738.54a.44.44,0,0,1-.39-.25.43.43,0,0,1,.2-.58l6.37-3.18a.43.43,0,1,1,.39.77L686,738.49A.41.41,0,0,1,685.83,738.54Z"/><path class="cls-8" d="M685.83,742.18a.44.44,0,0,1-.2-.83l6.38-3.19a.44.44,0,0,1,.58.2.43.43,0,0,1-.19.58L686,742.13A.41.41,0,0,1,685.83,742.18Z"/><path class="cls-8" d="M690.68,743.39a.44.44,0,0,1-.39-.24.43.43,0,0,1,.2-.58l6.37-3.19a.44.44,0,0,1,.58.19.43.43,0,0,1-.19.58l-6.38,3.19A.41.41,0,0,1,690.68,743.39Z"/><path class="cls-8" d="M690.68,747a.43.43,0,0,1-.39-.24.44.44,0,0,1,.2-.58l6.37-3.18a.43.43,0,0,1,.39.77L690.87,747A.41.41,0,0,1,690.68,747Z"/><path class="cls-8" d="M690.68,750.66a.43.43,0,0,1-.39-.24.44.44,0,0,1,.2-.58l4-2a.43.43,0,1,1,.38.77l-4,2A.41.41,0,0,1,690.68,750.66Z"/><path class="cls-8" d="M690.68,754.3a.44.44,0,0,1-.39-.24.44.44,0,0,1,.2-.58l4-2a.43.43,0,1,1,.38.77l-4,2A.41.41,0,0,1,690.68,754.3Z"/><path class="cls-8" d="M691.89,717.31a.43.43,0,0,1-.38-.24.43.43,0,0,1,.19-.58l8.8-4.4a.44.44,0,0,1,.58.19.43.43,0,0,1-.19.58l-8.8,4.41A.45.45,0,0,1,691.89,717.31Z"/><path class="cls-8" d="M691.89,721a.43.43,0,0,1-.19-.82l8.8-4.4a.44.44,0,0,1,.58.19.43.43,0,0,1-.19.58l-8.8,4.4A.46.46,0,0,1,691.89,721Z"/><path class="cls-8" d="M698,721.56a.44.44,0,0,1-.2-.83l2.74-1.36a.43.43,0,1,1,.39.77l-2.74,1.37A.45.45,0,0,1,698,721.56Z"/><path class="cls-8" d="M698,725.19a.43.43,0,0,1-.39-.24.43.43,0,0,1,.19-.58L700.5,723a.42.42,0,0,1,.58.19.43.43,0,0,1-.19.58l-2.74,1.37A.43.43,0,0,1,698,725.19Z"/><path class="cls-8" d="M698,728.83a.44.44,0,0,1-.39-.24.43.43,0,0,1,.19-.58l2.74-1.37a.44.44,0,0,1,.39.78l-2.74,1.37A.43.43,0,0,1,698,728.83Z"/><path class="cls-8" d="M694.32,734.29a.44.44,0,0,1-.39-.24.43.43,0,0,1,.2-.58l6.37-3.19a.44.44,0,0,1,.39.78l-6.38,3.18A.32.32,0,0,1,694.32,734.29Z"/><path class="cls-8" d="M694.32,737.93a.44.44,0,0,1-.39-.24.42.42,0,0,1,.2-.58l6.37-3.19a.44.44,0,0,1,.39.78l-6.38,3.18A.41.41,0,0,1,694.32,737.93Z"/><path class="cls-8" d="M699.17,739.14a.44.44,0,0,1-.39-.24.44.44,0,0,1,.2-.58l1.52-.76a.44.44,0,0,1,.58.19.43.43,0,0,1-.19.58l-1.53.76A.32.32,0,0,1,699.17,739.14Z"/><path class="cls-8" d="M699.17,742.78a.44.44,0,0,1-.39-.24.44.44,0,0,1,.2-.58l1.52-.76a.43.43,0,1,1,.39.77l-1.52.76A.49.49,0,0,1,699.17,742.78Z"/><path class="cls-8" d="M696.75,747.63a.43.43,0,0,1-.2-.82l4-2a.44.44,0,0,1,.39.78l-3.95,2A.43.43,0,0,1,696.75,747.63Z"/><path class="cls-8" d="M696.75,751.27a.43.43,0,0,1-.2-.82l4-2a.44.44,0,0,1,.39.78l-3.95,2A.45.45,0,0,1,696.75,751.27Z"/><rect class="cls-28" x="230.06" y="797.43" width="277.54" height="61.75"/><polygon class="cls-29" points="571.61 763.17 507.6 795.18 443.6 763.17 507.6 731.16 571.61 763.17"/><polygon class="cls-12" points="571.61 827.17 507.6 859.18 507.6 795.18 571.61 763.17 571.61 827.17"/><polygon class="cls-29" points="555.61 819.17 523.6 835.18 523.6 803.18 555.61 787.17 555.61 819.17"/><polygon class="cls-30" points="507.6 859.18 443.6 827.17 443.6 763.17 507.6 795.18 507.6 859.18"/><polygon class="cls-31" points="555.61 819.17 555.61 787.17 523.61 803.17 555.61 819.17"/><polygon class="cls-29" points="459.6 819.17 491.6 835.18 491.6 803.18 459.6 787.17 459.6 819.17"/><polygon class="cls-32" points="459.6 819.17 459.6 787.17 491.59 803.17 459.6 819.17"/><g class="cls-33"><polygon class="cls-34" points="547.61 799.21 531.64 807.19 515.67 799.21 531.64 791.22 547.61 799.21"/><polygon class="cls-35" points="547.61 815.17 531.64 823.16 531.64 807.19 547.61 799.21 547.61 815.17"/><polygon class="cls-36" points="531.64 823.16 515.67 815.17 515.67 799.21 531.64 807.19 531.64 823.16"/></g><g class="cls-37"><polygon class="cls-34" points="467.6 799.21 483.57 807.19 499.54 799.21 483.57 791.22 467.6 799.21"/><polygon class="cls-36" points="467.6 815.17 483.57 823.16 483.57 807.19 467.6 799.21 467.6 815.17"/><polygon class="cls-35" points="483.57 823.16 499.54 815.17 499.54 799.21 483.57 807.19 483.57 823.16"/></g><polygon class="cls-38" points="571.61 680.69 507.6 712.7 443.6 680.69 507.6 648.68 571.61 680.69"/><polygon class="cls-39" points="571.61 744.7 507.6 776.71 507.6 712.7 571.61 680.69 571.61 744.7"/><polygon class="cls-40" points="507.6 776.71 443.6 744.7 443.6 680.69 507.6 712.7 507.6 776.71"/><path class="cls-8" d="M519.45,713.93c-2.59,1.29-4.7,4.45-4.7,7.05s2.11,3.65,4.7,2.35,4.7-4.46,4.7-7.05S522.05,712.63,519.45,713.93Zm0,13.43c-2.59,1.3-4.7,4.46-4.7,7s2.11,3.65,4.7,2.35,4.7-4.45,4.7-7S522.05,726.06,519.45,727.36Zm0,26.87c-2.59,1.3-4.7,4.45-4.7,7s2.11,3.65,4.7,2.35,4.7-4.46,4.7-7S522.05,752.93,519.45,754.23Zm0-13.44c-2.59,1.3-4.7,4.46-4.7,7.06s2.11,3.64,4.7,2.35,4.7-4.46,4.7-7.06S522.05,739.49,519.45,740.79Zm13.44-20.15c-2.6,1.3-4.7,4.46-4.7,7.05s2.1,3.65,4.7,2.35,4.7-4.45,4.7-7S535.48,719.34,532.89,720.64Zm0,26.87c-2.6,1.3-4.7,4.45-4.7,7s2.1,3.65,4.7,2.35,4.7-4.45,4.7-7S535.48,746.21,532.89,747.51Zm0-13.44c-2.6,1.3-4.7,4.46-4.7,7.06s2.1,3.65,4.7,2.35,4.7-4.46,4.7-7.06S535.48,732.78,532.89,734.07Zm0-26.86c-2.6,1.3-4.7,4.45-4.7,7s2.1,3.65,4.7,2.35,4.7-4.46,4.7-7.05S535.48,705.91,532.89,707.21Zm13.43-6.72c-2.6,1.3-4.7,4.45-4.7,7s2.1,3.65,4.7,2.35,4.7-4.45,4.7-7S548.92,699.19,546.32,700.49Zm0,13.43c-2.6,1.3-4.7,4.46-4.7,7.06s2.1,3.64,4.7,2.35,4.7-4.46,4.7-7.06S548.92,712.62,546.32,713.92Zm0,26.87c-2.6,1.3-4.7,4.46-4.7,7.05s2.1,3.65,4.7,2.35,4.7-4.45,4.7-7.05S548.92,739.49,546.32,740.79Zm0-13.43c-2.6,1.29-4.7,4.45-4.7,7s2.1,3.65,4.7,2.35,4.7-4.46,4.7-7S548.92,726.06,546.32,727.36Zm13.44-20.16c-2.6,1.3-4.71,4.46-4.71,7.06s2.11,3.65,4.71,2.35,4.7-4.46,4.7-7.06S562.35,705.9,559.76,707.2Zm0-4c2.59-1.3,4.7-4.45,4.7-7s-2.11-3.65-4.7-2.35-4.71,4.46-4.71,7.05S557.16,704.47,559.76,703.17Zm0,17.47c-2.6,1.3-4.71,4.45-4.71,7.05s2.11,3.65,4.71,2.35,4.7-4.46,4.7-7S562.35,719.34,559.76,720.64Zm0,13.43c-2.6,1.3-4.71,4.46-4.71,7s2.11,3.65,4.71,2.35,4.7-4.45,4.7-7.05S562.35,732.77,559.76,734.07Z"/><path class="cls-41" d="M491.05,716.28c0,2.59,2.1,5.75,4.7,7.05s4.7.24,4.7-2.35-2.1-5.76-4.7-7.05S491.05,713.68,491.05,716.28Zm0,13.43c0,2.6,2.1,5.75,4.7,7s4.7.25,4.7-2.35-2.1-5.75-4.7-7S491.05,727.11,491.05,729.71Zm0,26.87c0,2.59,2.1,5.75,4.7,7s4.7.25,4.7-2.35-2.1-5.75-4.7-7S491.05,754,491.05,756.58Zm0-13.44c0,2.6,2.1,5.76,4.7,7.06s4.7.24,4.7-2.35-2.1-5.76-4.7-7.06S491.05,740.55,491.05,743.14ZM477.61,723c0,2.6,2.11,5.76,4.71,7s4.7.25,4.7-2.35-2.11-5.75-4.7-7.05S477.61,720.39,477.61,723Zm0,26.87c0,2.6,2.11,5.75,4.71,7s4.7.25,4.7-2.35-2.11-5.75-4.7-7S477.61,747.26,477.61,749.86Zm0-13.44c0,2.6,2.11,5.76,4.71,7.06s4.7.24,4.7-2.35-2.11-5.76-4.7-7.06S477.61,733.83,477.61,736.42Zm0-26.86c0,2.59,2.11,5.75,4.71,7.05s4.7.25,4.7-2.35-2.11-5.75-4.7-7S477.61,707,477.61,709.56Zm-13.43-6.72c0,2.6,2.11,5.75,4.7,7s4.7.25,4.7-2.35-2.1-5.75-4.7-7S464.18,700.24,464.18,702.84Zm0,13.43c0,2.6,2.11,5.76,4.7,7.06s4.7.24,4.7-2.35-2.1-5.76-4.7-7.06S464.18,713.68,464.18,716.27Zm0,26.87c0,2.6,2.11,5.75,4.7,7.05s4.7.25,4.7-2.35-2.1-5.75-4.7-7.05S464.18,740.54,464.18,743.14Zm0-13.43c0,2.59,2.11,5.75,4.7,7s4.7.25,4.7-2.35-2.1-5.76-4.7-7S464.18,727.11,464.18,729.71Zm-13.43-20.16c0,2.6,2.1,5.76,4.7,7.06s4.7.24,4.7-2.35-2.11-5.76-4.7-7.06S450.75,707,450.75,709.55Zm9.4-8.73c0-2.59-2.11-5.75-4.7-7.05s-4.7-.25-4.7,2.35,2.1,5.75,4.7,7S460.15,703.42,460.15,700.82ZM450.75,723c0,2.59,2.1,5.75,4.7,7s4.7.25,4.7-2.35-2.11-5.75-4.7-7.05S450.75,720.39,450.75,723Zm0,13.43c0,2.6,2.1,5.76,4.7,7.05s4.7.25,4.7-2.35-2.11-5.75-4.7-7S450.75,733.83,450.75,736.42Z"/><polygon class="cls-42" points="571.61 598.22 507.6 630.23 443.6 598.22 507.6 566.21 571.61 598.22"/><polygon class="cls-43" points="571.61 662.22 507.6 694.23 507.6 630.23 571.61 598.22 571.61 662.22"/><polygon class="cls-44" points="507.6 694.23 443.6 662.22 443.6 598.22 507.6 630.23 507.6 694.23"/><polygon class="cls-12" points="507.6 591.71 471 612.11 507.6 666.3 544.2 612.11 507.6 591.71"/><g class="cls-45"><polygon class="cls-8" points="531 617.85 507.6 629.55 484.21 617.85 507.6 606.15 531 617.85"/><polygon class="cls-46" points="531 641.24 507.6 652.95 507.6 629.55 531 617.85 531 641.24"/><polygon class="cls-47" points="507.6 652.95 484.21 641.24 484.21 617.85 507.6 629.55 507.6 652.95"/></g><polygon class="cls-48" points="507.6 859.32 571.61 827.31 571.61 763.3 553.14 754.07 571.61 744.83 571.61 680.83 553.14 671.59 571.61 662.36 571.61 598.35 507.6 629.66 507.6 859.32"/><polygon class="cls-49" points="507.6 629.65 443.59 598.35 443.59 662.35 462.06 671.59 443.59 680.82 443.59 744.83 462.06 754.06 443.59 763.29 443.59 827.3 507.6 859.31 507.6 629.65"/><path class="cls-50" d="M325.52,693.05a5.22,5.22,0,0,0-2.21-1.21c-1.28-6.61-3.69-14-5.77-21.28a.67.67,0,0,0,.59-.8l-.39-1.81a.68.68,0,0,0-.8-.52l-4.05.88c0-1.38,0-2.74,0-4.09a1.11,1.11,0,0,0,.09-.37l.07-1.85a.69.69,0,0,0-.65-.7l-7.36-.26a.67.67,0,0,0-.7.65.69.69,0,0,0,.48.67l6.17,1.78a1.2,1.2,0,0,0-.13.28L309.76,669a.67.67,0,0,0-.54.8.74.74,0,0,0,.25.39l-7.58,30.92c.33,7.74.44,13.72,1.46,21h23.56C329.42,714.23,325,702,325.52,693.05Zm-13.41,1.42c.92-6.94.81-15.54.78-24.05l2.39.08.3,22.4A35.63,35.63,0,0,0,312.11,694.47Z"/><polygon class="cls-51" points="309.88 669.64 247.06 669.68 277.75 653.67 306.24 661.06 312.42 661.3 302.98 664.61 310.25 668.05 309.88 669.64"/><path class="cls-52" d="M312.33,661.38l-7.21.26a.66.66,0,0,1-.68-.63.67.67,0,0,1,.48-.66l7.14-2.07a.66.66,0,0,1,.84.61l.06,1.81A.65.65,0,0,1,312.33,661.38Z"/><path class="cls-52" d="M317.07,667.94l-7,1.68a.65.65,0,0,1-.79-.48.67.67,0,0,1,.33-.74l6.59-3.45a.65.65,0,0,1,.94.43l.43,1.76A.67.67,0,0,1,317.07,667.94Z"/><path class="cls-53" d="M300,585l3.29,1s6.45-12.49,8.93-19L307,564.64l-7.48,18.6Z"/><path class="cls-54" d="M302,622.45l8.79,35.89c.27,1,2,1.17,2,.19-.14-13.84.76-29.2-2.7-37.6Z"/><path class="cls-54" d="M315.52,635.48l-.4,29.84c.13,1,1.67,1.42,1.94.47,3.59-12.86,8.49-26,6.25-34.83Z"/><path class="cls-54" d="M323.56,632.09c1.38-9.84,1.94-22.83.41-31.65l-12,.95,2.9,31.82.68,2.27Z"/><path class="cls-10" d="M302,622.45c.42-10.06.47-17.09,2.74-28.2l19.2,3.34c7,6.8.61,22.13,1.17,32.73C319.05,636.1,302,622.45,302,622.45Z"/><path class="cls-55" d="M320.66,586.94,324,597.59c-2,4.32-18.82,1-19.25-3.11l1.55-8.7Z"/><path class="cls-55" d="M306.22,586c0-5.43-.64-19.47,1-22,4.76-1.94,14.85,1.42,19.74,7.18l-6.32,15.69Z"/><path class="cls-53" d="M299.48,583.24l-16.89,11.53.53,2c4.5-.58,16.37-6.22,20.2-10.85C303.43,584.43,302,583.34,299.48,583.24Z"/><path class="cls-54" d="M283.12,596.8v-2.38l-3-.53c-1.91-.17-2.71,1.32-3.23,3.25l2.33-.69Z"/><path class="cls-56" d="M323,595.23l2.56-3.94s1.43-13,1.42-20c-3,.27-5.68,1.12-7.3,3.47l1.13,16.92Z"/><path class="cls-56" d="M325.56,591.29l-12.63-16.77-1.56,1c.76,4.47,6.85,16.11,11.63,19.75C324.44,594.75,325.23,593.92,325.56,591.29Z"/><path class="cls-54" d="M311.48,576l-.76-.37a2.08,2.08,0,0,1-1.81-2.06v-1.26l-2.4-1.75v-.78l5.08,2.32,1.34,2.4Z"/><polygon class="cls-54" points="314.15 559.67 313.34 566.31 318.49 565.55 317.96 555.99 314.15 559.67"/><path class="cls-54" d="M311.19,559.77c.1,1,1.24,1.84,3.09.86l2.16-1.84,1.67-5.17-2.2-3.58-5.74,1.06Z"/><path class="cls-52" d="M310.05,549.82l5.58-.67a5.52,5.52,0,0,1,3.82,1.47l1.42,1.83a3,3,0,0,1,.6,2.18,2.82,2.82,0,0,1,.85.59l.35.38a2.71,2.71,0,0,1,.71,2.21l-.17,1.25a2.72,2.72,0,0,0,1.29,2.68l2.58,1.54a2.72,2.72,0,0,1,1.23,3c-.36,1.36-1.55,3.31-2.95,3.31-4.22,0-9.09-2.58-9.09-14-1.94,1-7.4-4.45-7.69-5.89Z"/><polygon class="cls-57" points="651.67 694.36 585.28 694.05 607.74 682.93 643.55 685.32 636.95 689.44 623.72 688.25 633.05 691.15 652.04 692.77 651.67 694.36"/><path class="cls-52" d="M636.26,687.58a1.36,1.36,0,0,1,.84-1.12l5.59-1.71a.69.69,0,0,1,.77.31.67.67,0,0,1-.24.92l-4.59,3c-.76.47-2.27.61-2.27.06Z"/><path class="cls-52" d="M651.68,694.48l7.15-1.84a.68.68,0,0,0-.17-1.33l-7.61.05a.67.67,0,0,0-.65.84l.46,1.8A.68.68,0,0,0,651.68,694.48Z"/><path class="cls-54" d="M645.37,580.14c.21,1-2.34,2.57-4.35,1.8l-2.42-1.61-2.33-5.05,1.8-3.9,6,.37Z"/><polygon class="cls-54" points="641.75 581.24 642.57 588.03 637.11 587.63 637.85 579.33 641.75 581.24"/><path class="cls-52" d="M644.66,571.63,643,574a3.06,3.06,0,0,0-.52,2.22l.12.8a3.13,3.13,0,0,1-.5,2.19l-.15.21a3.08,3.08,0,0,1-5.48-.81l-.66-2.13a3,3,0,0,1,.3-2.5l1.22-2a3.06,3.06,0,0,1,2.64-1.5h4l1.49-.29Z"/><path class="cls-58" d="M640.37,653l-2.14,33.73c-.11,1-1.8,1.53-2,.55-2.27-14-5.89-27.07-3.87-36.14Z"/><path class="cls-55" d="M627.45,606.93l-3.54-1.48s2.34-14.67,4.31-21.55l7.76,3.33-7.3,18.8Z"/><path class="cls-55" d="M628.68,606l4.9,20.93-1.78.59c-3-3.54-8.17-16-7.89-22.1Z"/><path class="cls-54" d="M633.58,627l2,2.58,2.1,1.33-1.17.66a2.14,2.14,0,0,1-2.2,0l-1.2-.74-1.29-3.19Z"/><path class="cls-58" d="M632.42,652c-1.41-10.07-3.11-21.83-1.54-30.86l12.3,1-3,32.57-.7,2.32Z"/><path class="cls-11" d="M654,653.69l-1.61,37.56c-.08,1-1.75,1.58-2,.6-2.65-13.91-6.66-31-4.89-40.12Z"/><path class="cls-11" d="M645.72,652.54c-4.26-8.86-9-19.75-8.16-29.39l12.08-2.27,4.27,32.59-.18,2.42Z"/><path class="cls-55" d="M648.9,611.74l1.12,12c-2.07,4.42-18.7,1.59-19.14-2.63l1.85-15.18Z"/><path class="cls-55" d="M632.45,608.29c-2.15-6.1-5.93-21.84-4.23-24.39,4.88-2,17.52,2.23,23.9,7.35l-3.22,20.49Z"/><path class="cls-55" d="M654.21,614.08l-3.83.11s-3-12.73-4-19.82l5.73-3.12L655,612.76Z"/><path class="cls-54" d="M670.89,607l.54-.68a2.1,2.1,0,0,0,.76-2.68l-.54-1.15,1.44-2.66-.34-.71-3.66,4.34,0,2.85Z"/><path class="cls-55" d="M650.38,614.19l18.7-8.18,1.84,1c-2.9,3.63-10.77,9.06-16.86,10Z"/><path class="cls-59" d="M425.07,160.57l12.41-4a2.26,2.26,0,0,1,1.69.12L485,178.75a2.37,2.37,0,0,1,.94.81l28,41.73a2.35,2.35,0,0,1,.4,1.26l-.42,66.66a2.15,2.15,0,0,1-1.3,2l-10.41,4.67a2.3,2.3,0,0,1-2.89-1L423.9,163.79A2.19,2.19,0,0,1,425.07,160.57Z"/><path class="cls-12" d="M503.72,225.8v66.45c0,3.66-3,5.16-6.63,3.35l-67.5-33.36c-3.66-1.81-6.63-6.25-6.63-9.91v-88c0-3.66,3-5.16,6.63-3.35l46,22.72Z"/><polygon class="cls-60" points="475.56 213.31 503.72 225.8 475.56 183.72 475.56 213.31"/><path class="cls-8" d="M480.48,272.9,442,253.9a2.24,2.24,0,0,1-1.19-1.79V213.68c0-.66.53-.93,1.19-.6l38.44,19a2.23,2.23,0,0,1,1.19,1.78v38.43C481.67,273,481.13,273.22,480.48,272.9Zm-37.24-20.8,36,17.82V233.87l-36-17.82Z"/><polygon class="cls-8" points="462.37 262.91 459.99 261.73 459.99 223.14 462.37 224.32 462.37 262.91"/><polygon class="cls-8" points="480.48 253.76 441.89 234.68 441.89 232.3 480.48 251.37 480.48 253.76"/></g></g></svg>