<svg width="701" height="561" viewBox="0 0 701 561" fill="none" xmlns="http://www.w3.org/2000/svg">
<path fill-rule="evenodd" clip-rule="evenodd" d="M350.379 53.459C339.454 26.181 312.839 -3.27901 262.991 0.76799C199.492 7.67099 179.704 68.524 189.302 104.827C164.011 87.702 121.008 80.172 83.473 112.324C35.009 160.905 60.932 226.605 87.574 242.364C58.212 239.646 11.806 259.486 1.54002 311.386C-9.38098 375.824 39.741 413.389 87.574 413.389H617.987C673.299 413.389 703.987 365.538 700.545 320.41C695.119 261.514 641.224 238.917 611.825 243.759C636.387 230.055 669.19 165.683 619.31 115.077C579.715 77.415 529.24 91.119 511.492 107.545C521.059 76.083 505.37 11.047 441.151 0.760986C436.711 0.263986 432.437 -0.00201416 428.364 -0.00201416C379.341 0.00498584 357.297 35.841 350.379 53.459ZM92.306 122.578C64.303 147.928 54.111 205.368 104.592 238.946L305.983 377.115L208.335 153.402C187.873 100.611 131.895 89.099 92.306 122.578ZM205.649 112.987C183.773 53.459 232.93 14.476 265.666 13.809C303.236 9.66098 350.345 38.397 342.133 100.647L306.644 351.173L205.649 112.987ZM357.893 91.092H376.99C376.99 91.092 387.188 91.092 388.576 95.903C386.98 97.2059 384.802 98.2669 382.385 99.4436C373.42 103.809 361.183 109.769 363.322 135.59L395.425 351.139L495.73 112.328C516.247 59.006 473.182 14.474 434.981 13.113C433.197 12.985 431.406 12.881 429.552 12.881C395.265 12.88 355.973 37.799 357.893 91.092ZM396.82 376.46L491.692 155.431C507.218 117.569 534.001 104.295 559.027 104.3C580.21 104.3 600.207 113.758 611.098 126.002C637.077 152.016 644.562 204.644 598.152 237.562L396.82 376.46ZM575.61 269.011L386.535 401.078H619.341C667.104 401.078 697.798 351.832 684.153 306.64C675.014 278.234 647.976 255.936 616.593 255.904C603.383 255.909 589.374 259.888 575.61 269.011ZM316.252 401.078H86.881C39.076 401.078 1.53902 357.277 16.573 303.95C34.309 257.365 83.437 240.939 127.129 269.011L316.252 401.078Z" fill="#9CA3AF"/>
<path d="M0.740021 496.658C0.740021 519.15 19.127 560.091 89.335 560.091C154.065 560.091 174.509 530.389 174.509 516.77H124.396C124.396 516.77 122.016 534.763 93.747 534.763C65.46 534.763 57.81 511.152 57.81 497.499C57.81 483.898 65.46 461.562 93.747 461.562C122.016 461.562 124.396 477.227 124.396 477.227H174.509C174.509 463.592 159.509 434.309 89.335 434.309C19.127 434.309 0.740021 477.911 0.740021 496.658Z" fill="#9CA3AF"/>
<path d="M526.296 496.658C526.296 519.15 544.702 560.091 614.891 560.091C679.615 560.091 700.067 530.389 700.067 516.77H649.989C649.989 516.77 647.598 534.763 619.322 534.763C591.032 534.763 583.374 511.152 583.374 497.499C583.374 483.898 591.032 461.562 619.322 461.562C647.598 461.562 649.989 477.227 649.989 477.227H700.067C700.067 463.592 685.083 434.309 614.891 434.309C544.703 434.309 526.296 477.911 526.296 496.658Z" fill="#9CA3AF"/>
<path d="M311.468 436.409V512.55L253.147 436.409H187.541V557.01H232.518V479.994L289.818 557.01H356.448V436.409H311.468Z" fill="#9CA3AF"/>
<path d="M455.595 528.198V528.357H418.119V506.213H455.595V506.285C463.597 506.285 470.064 511.203 470.064 517.259C470.064 523.3 463.597 528.198 455.595 528.198ZM418.463 459.865H454.573V459.916C460.691 459.916 465.652 463.941 465.652 468.895C465.652 473.868 460.691 477.858 454.573 477.858V477.912H418.463V459.865ZM492.402 492.894C500.59 492.894 517.71 483.389 517.71 464.975C517.71 438.754 468.883 436.409 461.393 436.409H371.431V557.01H461.393C504.661 557.01 522.042 543.341 522.042 520.515C522.042 497.689 492.402 492.894 492.402 492.894Z" fill="#9CA3AF"/>
</svg>
