<svg width="225" height="225" viewBox="0 0 225 225" fill="none" xmlns="http://www.w3.org/2000/svg">
<path fill-rule="evenodd" clip-rule="evenodd" d="M225 0H0V225H225V0ZM21 58H203.5V88.5H201C201 78.5 198.5 61 165.5 62.5C163.701 62.5818 164.331 140.389 164.474 158.04C164.49 159.987 164.5 161.202 164.5 161.5C164.5 164.5 182 165 182 165V167H130.5V165C130.5 165 148 164.5 148 161.5V62.5C111.5 60.5 114 87.5 114 87.5H110.5C110.5 87.5 113 62.5 88.5 62.5H60.5C55.5 62.5 54 65.5 54 65.5L53 107H79.5C90.5 107 89.5 89.5 89.5 89.5H93V131H89.5C89.5 131 91 113 79.5 113H53V158.5C53 158.5 53.5 161.5 58.5 161.5C63.5 161.5 88 162 88 162C110.5 160 110.5 138 110.5 138H114V167H21V165C21 165 36 165 36 161.5V64C36 60 21 60.5 21 60.5V58Z" fill="#9CA3AF"/>
</svg>
