<svg width="224" height="224" viewBox="0 0 224 224" fill="none" xmlns="http://www.w3.org/2000/svg">
<path fill-rule="evenodd" clip-rule="evenodd" d="M0 223.663H223.675V0H0V223.663ZM72.0613 128.91C60.0263 128.46 57.2088 127.285 57.2088 116.722H57.2081V83.7475H64.7469C77.8231 83.7475 83.7706 86.71 85.8456 98.5975H89.7081V62.935H85.8456C83.9169 73.485 80.4981 76.3225 64.7469 76.3225H57.2081V44.3725C57.2081 40.21 58.2481 39.1725 62.8419 39.1725H78.1519C97.9106 39.1725 101.778 42.735 105.342 54.0225H109.503L108.903 31.7475H24.5225V35.61C34.1763 36.0475 36.9988 37.235 36.9988 47.7975V116.722C36.9988 127.285 34.1763 128.46 24.225 128.91V132.772H72.0613V128.91ZM115.909 31.7475H204.459L206.51 54.035H201.436C198.2 43.1225 193.429 39.1725 182.765 39.1725H170.29V116.722C170.29 127.285 173.111 128.46 184.553 128.91V132.772H135.821V128.91C147.258 128.46 150.08 127.285 150.08 116.722V39.1725H137.599C126.94 39.1725 122.174 43.1225 118.933 54.035H113.853L115.909 31.7475Z" fill="#9CA3AF"/>
</svg>
