<?xml version="1.0" encoding="utf-8"?>
<!-- Generator: Adobe Illustrator 23.0.5, SVG Export Plug-In . SVG Version: 6.00 Build 0)  -->
<svg version="1.1" id="Ñëîé_1" xmlns="http://www.w3.org/2000/svg" xmlns:xlink="http://www.w3.org/1999/xlink" x="0px" y="0px"
	 viewBox="0 0 974.4 696.4" style="enable-background:new 0 0 974.4 696.4;" xml:space="preserve">
<style type="text/css">
	.st0{opacity:0.5;fill:#333333;enable-background:new    ;}
	.st1{fill:none;stroke:#C6C6C6;stroke-width:1.3119;stroke-miterlimit:10;}
	.st2{fill:url(#SVGID_1_);}
	.st3{fill:url(#SVGID_2_);}
	.st4{fill:#3535D3;}
	.st5{fill:#4F46E5;}
	.st6{fill:url(#SVGID_3_);}
	.st7{fill:url(#SVGID_4_);}
	.st8{fill:url(#SVGID_5_);}
	.st9{fill:#42FFFF;}
	.st10{opacity:0.36;fill:#4F46E5;enable-background:new    ;}
	.st11{fill:url(#SVGID_6_);}
	.st12{fill:url(#SVGID_7_);}
	.st13{fill:url(#SVGID_8_);}
	.st14{fill:url(#SVGID_9_);}
	.st15{fill:#333333;}
	.st16{fill:url(#SVGID_10_);}
	.st17{fill:url(#SVGID_11_);}
	.st18{fill:#575757;}
	.st19{fill:#C6C6C6;}
	.st20{fill:#AFAFAF;}
	.st21{fill:url(#SVGID_12_);}
	.st22{fill:#91AFFF;}
	.st23{opacity:0.11;}
	.st24{clip-path:url(#SVGID_14_);}
	.st25{fill:url(#SVGID_15_);}
	.st26{fill:url(#SVGID_16_);}
	.st27{fill:#ADC8FF;}
	.st28{fill:#242993;}
	.st29{opacity:0.42;fill:url(#SVGID_17_);enable-background:new    ;}
	.st30{opacity:0.42;fill:url(#SVGID_18_);enable-background:new    ;}
	.st31{opacity:0.5;fill:#A5B4FC;enable-background:new    ;}
	.st32{fill:#A5B4FC;}
	.st33{fill:url(#SVGID_19_);}
	.st34{fill:url(#SVGID_20_);}
	.st35{opacity:0.6;fill:#333333;enable-background:new    ;}
	.st36{fill:#3D3DD8;}
	.st37{opacity:0.96;fill:url(#SVGID_21_);enable-background:new    ;}
	.st38{opacity:0.8;fill:#5C5C5C;enable-background:new    ;}
	.st39{fill:#F6F8F9;}
	.st40{fill:#D1D2D3;}
	.st41{fill:#41319F;}
	.st42{fill:#FF5500;}
	.st43{fill:#D10070;}
	.st44{fill:#2550F5;stroke:#2550F5;stroke-width:1.2111;stroke-miterlimit:10;}
	.st45{fill:#0DB145;}
	.st46{opacity:0.96;}
	.st47{fill:none;stroke:url(#SVGID_22_);stroke-width:1.2111;stroke-miterlimit:10;}
	.st48{fill:none;stroke:url(#SVGID_23_);stroke-width:1.2111;stroke-miterlimit:10;}
	.st49{fill:none;stroke:url(#SVGID_24_);stroke-width:1.2111;stroke-miterlimit:10;}
	.st50{fill:none;stroke:url(#SVGID_25_);stroke-width:1.2111;stroke-miterlimit:10;}
	.st51{fill:none;stroke:url(#SVGID_26_);stroke-width:1.2111;stroke-miterlimit:10;}
	.st52{fill:none;stroke:url(#SVGID_27_);stroke-width:1.2111;stroke-miterlimit:10;}
	.st53{fill:none;stroke:url(#SVGID_28_);stroke-width:1.2111;stroke-miterlimit:10;}
	.st54{fill:none;stroke:url(#SVGID_29_);stroke-width:1.2111;stroke-miterlimit:10;}
	.st55{fill:none;stroke:url(#SVGID_30_);stroke-width:1.2111;stroke-miterlimit:10;}
	.st56{fill:none;stroke:url(#SVGID_31_);stroke-width:1.2111;stroke-miterlimit:10;}
	.st57{fill:none;stroke:url(#SVGID_32_);stroke-width:1.2111;stroke-miterlimit:10;}
	.st58{fill:none;stroke:url(#SVGID_33_);stroke-width:1.2111;stroke-miterlimit:10;}
	.st59{fill:#2550F5;}
</style>
<path class="st0" d="M233.1,432.3l-57.2-32.4c-1-0.6-0.9-1.5,0.3-2.2l56.6-32.1c1.1-0.6,2.8-0.7,3.8-0.2l57.2,32.4
	c1,0.6,0.9,1.5-0.3,2.2l-56.6,32.1C235.7,432.8,234,432.8,233.1,432.3z"/>
<path class="st1" d="M234.7,448.9c-1,0-2-0.2-2.7-0.6l-83.6-47.5c-0.8-0.5-1.3-1.1-1.3-1.9c0-0.9,0.6-1.7,1.7-2.3l82.8-47
	c1.9-1,4.6-1.1,6.2-0.2l83.6,47.5c0.8,0.5,1.3,1.1,1.3,1.9c0,0.9-0.6,1.7-1.7,2.3l-82.8,47C237.1,448.6,235.9,448.9,234.7,448.9z
	 M232.5,447.2c1.2,0.7,3.5,0.6,5-0.2l82.8-47c0.7-0.4,1.1-0.8,1.1-1.3c0-0.4-0.4-0.7-0.7-0.8l-83.6-47.5c-1.2-0.7-3.5-0.6-5,0.2
	l-82.8,47c-0.7,0.4-1.1,0.8-1.1,1.3c0,0.4,0.4,0.7,0.7,0.8L232.5,447.2z"/>
<g>
	
		<linearGradient id="SVGID_1_" gradientUnits="userSpaceOnUse" x1="268.8962" y1="352.52" x2="176.1613" y2="278.1569" gradientTransform="matrix(1 0 0 -1 0 695.8898)">
		<stop  offset="0" style="stop-color:#A5B4FC"/>
		<stop  offset="1.574600e-02" style="stop-color:#A3B2FC"/>
		<stop  offset="0.289" style="stop-color:#8299FD"/>
		<stop  offset="0.5506" style="stop-color:#6A87FE"/>
		<stop  offset="0.7938" style="stop-color:#5C7CFF"/>
		<stop  offset="1" style="stop-color:#5778FF"/>
	</linearGradient>
	<path class="st2" d="M294.4,375.8V365h-18l-39.8-22.6c-1-0.6-2.7-0.5-3.8,0.2l-39.7,22.5h-17.9V376l0,0c0,0.3,0.2,0.7,0.6,0.9
		l57.2,32.4c1,0.6,2.7,0.5,3.8-0.2l56.6-32.1C294.1,376.7,294.4,376.3,294.4,375.8z"/>
	
		<linearGradient id="SVGID_2_" gradientUnits="userSpaceOnUse" x1="383.7802" y1="-139.2758" x2="299.3801" y2="-206.9551" gradientTransform="matrix(0.866 0.5 1 -0.5774 93.4146 93.835)">
		<stop  offset="0" style="stop-color:#C0D6FF"/>
		<stop  offset="0.2978" style="stop-color:#C5DBFF"/>
		<stop  offset="0.6488" style="stop-color:#D3E9FF"/>
		<stop  offset="1" style="stop-color:#E9FFFF"/>
	</linearGradient>
	<path class="st3" d="M233.1,398.5L175.9,366c-1-0.6-0.9-1.5,0.3-2.2l56.6-32.1c1.1-0.6,2.8-0.7,3.8-0.2l57.2,32.4
		c1,0.6,0.9,1.5-0.3,2.2l-56.6,32.1C235.7,398.9,234,399,233.1,398.5z"/>
	<path class="st4" d="M233.3,394.7l-50.7-28.8c-0.9-0.5-0.8-1.4,0.2-1.9l50.2-28.5c1-0.6,2.5-0.6,3.4-0.1l50.7,28.8
		c0.9,0.5,0.8,1.4-0.2,1.9l-50.2,28.5C235.6,395.1,234.1,395.1,233.3,394.7z"/>
	<path class="st5" d="M233.4,392.2l-46.5-26.4c-0.8-0.5-0.7-1.2,0.2-1.8l46.1-26.2c0.9-0.5,2.3-0.6,3.1-0.1l46.5,26.4
		c0.8,0.5,0.7,1.2-0.2,1.8l-46.1,26.2C235.6,392.6,234.2,392.7,233.4,392.2z"/>
</g>
<path class="st0" d="M754.4,495.1l-57.2-32.4c-1-0.6-0.9-1.5,0.3-2.2l56.6-32.1c1.1-0.6,2.8-0.7,3.8-0.2l57.2,32.4
	c1,0.6,0.9,1.5-0.3,2.2L758.2,495C757.1,495.6,755.4,495.7,754.4,495.1z"/>
<path class="st1" d="M756,509.7c-1,0-1.9-0.2-2.6-0.6l-80.1-45.5c-0.8-0.5-1.2-1.1-1.2-1.8c0-0.8,0.6-1.7,1.6-2.2l79.3-45
	c1.8-1,4.4-1.1,6-0.2l80.1,45.5c0.8,0.5,1.2,1.1,1.2,1.8c0,0.8-0.6,1.7-1.6,2.2l-79.3,45C758.4,509.4,757.2,509.7,756,509.7z
	 M756.3,414.9c-0.9,0-2,0.2-2.7,0.7l-79.3,45c-0.6,0.4-1,0.8-1,1.2c0,0.4,0.3,0.6,0.6,0.8L754,508c1.2,0.7,3.3,0.6,4.7-0.2l79.3-45
	c0.6-0.4,1-0.8,1-1.2c0-0.4-0.3-0.6-0.6-0.8l-80.1-45.5C757.8,415,757.1,414.9,756.3,414.9z"/>
<linearGradient id="SVGID_3_" gradientUnits="userSpaceOnUse" x1="790.2451" y1="288.1901" x2="697.51" y2="213.827" gradientTransform="matrix(1 0 0 -1 0 695.8898)">
	<stop  offset="0" style="stop-color:#A5B4FC"/>
	<stop  offset="1.574600e-02" style="stop-color:#A3B2FC"/>
	<stop  offset="0.289" style="stop-color:#8299FD"/>
	<stop  offset="0.5506" style="stop-color:#6A87FE"/>
	<stop  offset="0.7938" style="stop-color:#5C7CFF"/>
	<stop  offset="1" style="stop-color:#5778FF"/>
</linearGradient>
<path class="st6" d="M815.7,440.2v-10.8h-18l-39.8-22.6c-1-0.6-2.7-0.5-3.8,0.2l-39.7,22.5h-17.9v10.9l0,0c0,0.3,0.2,0.7,0.6,0.9
	l57.2,32.4c1,0.6,2.7,0.5,3.8-0.2l56.6-32.1C815.4,441,815.7,440.6,815.7,440.2z"/>
<linearGradient id="SVGID_4_" gradientUnits="userSpaceOnUse" x1="749.1324" y1="65.6486" x2="664.7324" y2="-2.0308" gradientTransform="matrix(0.866 0.5 1 -0.5774 93.4146 93.835)">
	<stop  offset="0" style="stop-color:#C0D6FF"/>
	<stop  offset="0.2978" style="stop-color:#C5DBFF"/>
	<stop  offset="0.6488" style="stop-color:#D3E9FF"/>
	<stop  offset="1" style="stop-color:#E9FFFF"/>
</linearGradient>
<path class="st7" d="M754.4,462.8l-57.2-32.4c-1-0.6-0.9-1.5,0.3-2.2l56.6-32.1c1.1-0.6,2.8-0.7,3.8-0.2l57.2,32.4
	c1,0.6,0.9,1.5-0.3,2.2l-56.6,32.1C757.1,463.2,755.4,463.3,754.4,462.8z"/>
<linearGradient id="SVGID_5_" gradientUnits="userSpaceOnUse" x1="749.1324" y1="65.6486" x2="664.7324" y2="-2.0308" gradientTransform="matrix(0.866 0.5 1 -0.5774 93.4146 93.835)">
	<stop  offset="0" style="stop-color:#C0D6FF"/>
	<stop  offset="0.2978" style="stop-color:#C5DBFF"/>
	<stop  offset="0.6488" style="stop-color:#D3E9FF"/>
	<stop  offset="1" style="stop-color:#E9FFFF"/>
</linearGradient>
<path class="st8" d="M754.4,462.8l-57.2-32.4c-1-0.6-0.9-1.5,0.3-2.2l56.6-32.1c1.1-0.6,2.8-0.7,3.8-0.2l57.2,32.4
	c1,0.6,0.9,1.5-0.3,2.2l-56.6,32.1C757.1,463.2,755.4,463.3,754.4,462.8z"/>
<path class="st4" d="M754.6,459l-50.7-28.8c-0.9-0.5-0.8-1.4,0.2-1.9l50.2-28.5c1-0.6,2.5-0.6,3.4-0.1l50.7,28.8
	c0.9,0.5,0.8,1.4-0.2,1.9L758,458.8C757,459.4,755.5,459.5,754.6,459z"/>
<path class="st5" d="M754.7,456.6l-46.5-26.4c-0.8-0.5-0.7-1.2,0.2-1.8l46.1-26.2c0.9-0.5,2.3-0.6,3.1-0.1l46.5,26.4
	c0.8,0.5,0.7,1.2-0.2,1.8l-46.1,26.2C756.9,457,755.5,457,754.7,456.6z"/>
<g>
	<polygon class="st9" points="755.1,427.6 749.6,424.5 752.6,422.8 758.1,425.9 	"/>
	<polygon class="st9" points="765.2,427.2 759.8,430.2 756.8,428.6 762.2,425.5 	"/>
	<polygon class="st9" points="753.9,428.3 750.9,430 747.9,428.3 750.9,426.6 	"/>
	<polygon class="st9" points="764.1,434.1 761.2,435.8 752.6,431 755.6,429.3 	"/>
</g>
<path class="st10" d="M815.7,414.7l-24.3,0.1l-33.5-19c-1-0.6-2.7-0.5-3.8,0.2l-34,19.3l-23.6,0.1v14.1l0,0c0.1,0.3,0.3,0.6,0.6,0.8
	l57.2,32.4c1,0.6,2.7,0.5,3.8-0.2l56.6-32.1c0.5-0.3,0.8-0.7,0.9-1l0,0L815.7,414.7L815.7,414.7z"/>
<linearGradient id="SVGID_6_" gradientUnits="userSpaceOnUse" x1="790.2158" y1="312.245" x2="697.4807" y2="237.8819" gradientTransform="matrix(1 0 0 -1 0 695.8898)">
	<stop  offset="0" style="stop-color:#A5B4FC"/>
	<stop  offset="1.574600e-02" style="stop-color:#A3B2FC"/>
	<stop  offset="0.289" style="stop-color:#8299FD"/>
	<stop  offset="0.5506" style="stop-color:#6A87FE"/>
	<stop  offset="0.7938" style="stop-color:#5C7CFF"/>
	<stop  offset="1" style="stop-color:#5778FF"/>
</linearGradient>
<path class="st11" d="M815.7,416.1v-10.8h-18l-39.8-22.6c-1-0.6-2.7-0.5-3.8,0.2l-39.7,22.5h-17.9v10.9l0,0c0,0.3,0.2,0.7,0.6,0.9
	l57.2,32.4c1,0.6,2.7,0.5,3.8-0.2l56.6-32.1C815.4,417,815.7,416.5,815.7,416.1z"/>
<linearGradient id="SVGID_7_" gradientUnits="userSpaceOnUse" x1="725.0779" y1="86.4939" x2="640.6779" y2="18.8144" gradientTransform="matrix(0.866 0.5 1 -0.5774 93.4146 93.835)">
	<stop  offset="0" style="stop-color:#C0D6FF"/>
	<stop  offset="0.2978" style="stop-color:#C5DBFF"/>
	<stop  offset="0.6488" style="stop-color:#D3E9FF"/>
	<stop  offset="1" style="stop-color:#E9FFFF"/>
</linearGradient>
<path class="st12" d="M754.4,438.7l-57.2-32.4c-1-0.6-0.9-1.5,0.3-2.2l56.6-32.1c1.1-0.6,2.8-0.7,3.8-0.2l57.2,32.4
	c1,0.6,0.9,1.5-0.3,2.2l-56.6,32.1C757.1,439.2,755.4,439.3,754.4,438.7z"/>
<path class="st4" d="M754.6,434.9l-50.7-28.8c-0.9-0.5-0.8-1.4,0.2-1.9l50.2-28.5c1-0.6,2.5-0.6,3.4-0.1l50.7,28.8
	c0.9,0.5,0.8,1.4-0.2,1.9L758,434.8C757,435.4,755.5,435.4,754.6,434.9z"/>
<path class="st5" d="M754.7,432.5l-46.5-26.4c-0.8-0.5-0.7-1.2,0.2-1.8l46.1-26.2c0.9-0.5,2.3-0.6,3.1-0.1l46.5,26.4
	c0.8,0.5,0.7,1.2-0.2,1.8l-46.1,26.2C756.9,432.9,755.5,433,754.7,432.5z"/>
<path class="st1" d="M631.5,637.8c-0.9,0-1.8-0.2-2.6-0.7L582,610.5l0.6-1.1l46.9,26.6c1.2,0.7,2.8,0.7,4,0L843,517
	c0.3-0.2,0.5-0.5,0.5-0.8s-0.2-0.6-0.5-0.8l-48-27.2l0.6-1.1l48,27.2c0.7,0.4,1.1,1.1,1.1,1.9c0,0.8-0.4,1.5-1.1,1.9L634,637.1
	C633.3,637.5,632.4,637.8,631.5,637.8z"/>
<path class="st1" d="M234.8,536.5c-1.2,0-2.3-0.3-3.3-0.9l-114.1-64.7c-0.6-0.4-1-1-1-1.7s0.4-1.3,1-1.7l75.2-42.7l0.6,1.1
	L118,468.6c-0.3,0.2-0.4,0.5-0.4,0.6s0,0.4,0.4,0.6l114.1,64.7c1.7,1,3.8,1,5.5,0l23-13.1l0.6,1.1l-23,13.1
	C237.1,536.2,236,536.5,234.8,536.5z"/>
<linearGradient id="SVGID_8_" gradientUnits="userSpaceOnUse" x1="1420.3207" y1="343.2498" x2="1706.4441" y2="343.2498" gradientTransform="matrix(-1 0 0 -1 2110.0825 695.8898)">
	<stop  offset="0" style="stop-color:#D4D4D4"/>
	<stop  offset="0.3183" style="stop-color:#D9D9D9"/>
	<stop  offset="0.6928" style="stop-color:#E7E7E7"/>
	<stop  offset="1" style="stop-color:#F8F8F8"/>
</linearGradient>
<path class="st13" d="M403.7,370.1l31-180.8l-2.5-1l3.7-2.1l0,0c0.7-0.5,1.8-0.4,2.9,0.2L686.5,327c2,1.2,3.6,4.1,3.2,6.2
	l-31.2,182.2c-0.2,0.9-0.6,1.6-1.3,1.9l0,0l-3.7,2.1l-0.6-3.4l0.2,0.1L406.9,376.3C404.9,375.1,403.3,372.1,403.7,370.1z"/>
<linearGradient id="SVGID_9_" gradientUnits="userSpaceOnUse" x1="1420.3058" y1="271.1898" x2="1469.4325" y2="271.1898" gradientTransform="matrix(-1 0 0 -1 2110.0825 695.8898)">
	<stop  offset="0" style="stop-color:#7D7D7D"/>
	<stop  offset="0.1961" style="stop-color:#828282"/>
	<stop  offset="0.4273" style="stop-color:#909090"/>
	<stop  offset="0.6761" style="stop-color:#A8A8A8"/>
	<stop  offset="0.9359" style="stop-color:#C9C9C9"/>
	<stop  offset="1" style="stop-color:#D2D2D2"/>
</linearGradient>
<path class="st14" d="M685.1,331.9l4.1-1.8c0.5,1,0.7,2.1,0.5,3l-31.2,182.2c-0.2,0.9-0.6,1.6-1.3,1.9l0,0l-3.7,2.1l-0.6-3.4
	l0.2,0.1l-12.5-7.1L685.1,331.9z"/>
<path class="st15" d="M403,378.4L650.7,519c1.9,1.1,3.5,0.5,3.9-1.5l31.2-182.2c0.4-2.1-1.2-5-3.2-6.2L434.9,188.6
	c-1.9-1.1-3.5-0.5-3.9,1.5l-31.2,182.2C399.4,374.3,401,377.3,403,378.4z"/>
<g>
	<polygon class="st5" points="438.2,200.2 676.9,335.7 647.3,507.3 408.7,371.9 	"/>
</g>
<path class="st1" d="M499,656.4c-2.1,0-4.4-0.5-6.1-1.5L229.3,505.2c-1.8-1-2.8-2.4-2.8-3.8c0-1.2,0.7-2.3,2.1-3.1L395,403.9
	c2.9-1.6,7.7-1.4,10.9,0.4L669.5,554c1.8,1,2.8,2.4,2.8,3.8c0,1.2-0.7,2.3-2.1,3.1l-166.4,94.4C502.5,656,500.8,656.4,499,656.4z
	 M399.7,404c-1.6,0-3.1,0.3-4.2,0.9l-166.4,94.4c-1,0.5-1.5,1.2-1.5,2c0,1,0.8,2,2.2,2.8l263.6,149.7c2.9,1.6,7.2,1.8,9.7,0.4
	l166.4-94.4c1-0.5,1.5-1.2,1.5-2c0-1-0.8-2-2.2-2.8L405.2,405.3C403.6,404.4,401.6,404,399.7,404z"/>
<path class="st0" d="M249.4,503.1l245.1,139.2c2.7,1.5,6.7,1.7,9.1,0.4l146.3-83c2.3-1.3,2-3.6-0.7-5.1L404.1,415.3
	c-2.7-1.5-6.7-1.7-9.1-0.4l-146.3,83C246.4,499.3,246.7,501.6,249.4,503.1z"/>
<linearGradient id="SVGID_10_" gradientUnits="userSpaceOnUse" x1="1458.6824" y1="190.0898" x2="1862.7823" y2="190.0898" gradientTransform="matrix(-1 0 0 -1 2110.0825 695.8898)">
	<stop  offset="0" style="stop-color:#7D7D7D"/>
	<stop  offset="0.1961" style="stop-color:#828282"/>
	<stop  offset="0.4273" style="stop-color:#909090"/>
	<stop  offset="0.6761" style="stop-color:#A8A8A8"/>
	<stop  offset="0.9359" style="stop-color:#C9C9C9"/>
	<stop  offset="1" style="stop-color:#D2D2D2"/>
</linearGradient>
<path class="st16" d="M247.3,464.7l13.5,6.9l135.5-76.9c2.3-1.3,6.2-1.1,8.8,0.4L639,527.8c2.2-1.2,12.4-6.1,12.4-6.1l-4.9,12.7l0,0
	c-0.2,0.6-0.6,1.1-1.4,1.5l-142.7,81c-2.3,1.3-6.2,1.1-8.8-0.4L254.3,480.8c-1.1-0.6-1.7-1.3-2-2.1l0,0L247.3,464.7z"/>
<linearGradient id="SVGID_11_" gradientUnits="userSpaceOnUse" x1="1594.4526" y1="203.2898" x2="1998.7401" y2="203.2898" gradientTransform="matrix(-1 0 0 -1 2110.0825 695.8898)">
	<stop  offset="0" style="stop-color:#D4D4D4"/>
	<stop  offset="0.3183" style="stop-color:#D9D9D9"/>
	<stop  offset="0.6928" style="stop-color:#E7E7E7"/>
	<stop  offset="1" style="stop-color:#F8F8F8"/>
</linearGradient>
<path class="st17" d="M249.4,466.9l245.1,139.2c2.7,1.5,6.7,1.7,9.1,0.4l146.3-83c2.3-1.3,2-3.6-0.7-5.1L404.1,379.1
	c-2.7-1.5-6.7-1.7-9.1-0.4l-146.3,83C246.4,463.1,246.7,465.4,249.4,466.9z"/>
<path class="st18" d="M568.5,576v-2.6c0-0.3-0.2-0.4-0.3-0.3l-9.5,5.4c-0.2,0.1-0.3,0.4-0.3,0.7v2.6c0,0.3,0.2,0.4,0.3,0.3l9.5-5.4
	C568.3,576.5,568.5,576.2,568.5,576z"/>
<path class="st18" d="M554.3,584v-2.6c0-0.3-0.2-0.4-0.3-0.3l-9.5,5.4c-0.2,0.1-0.3,0.4-0.3,0.7v2.6c0,0.3,0.2,0.4,0.3,0.3l9.5-5.4
	C554.2,584.5,554.3,584.3,554.3,584z"/>
<path class="st19" d="M611.8,515.6L408.1,400c-1.4-0.8-3-0.8-4.4,0l-72.5,41.3c-1,0.6-1,2.1,0,2.7l203.6,115.6c1.4,0.8,3,0.8,4.4,0
	l72.6-41.2C612.8,517.7,612.8,516.2,611.8,515.6z"/>
<path class="st20" d="M611.8,518.3l-0.7,0.4l-203-115.2c-1.4-0.8-3-0.8-4.4,0l-71.8,40.9l-0.7-0.4c-1-0.6-1-2.1,0-2.7l72.5-41.3
	c1.4-0.8,3-0.8,4.4,0l203.7,115.6C612.8,516.2,612.8,517.7,611.8,518.3z"/>
<g>
	<polygon class="st15" points="398.2,410.4 575.2,510.9 583,506.4 406.1,405.9 	"/>
	<polygon class="st15" points="378.9,421.4 544.9,515.6 552.8,511.1 386.8,416.9 	"/>
	<polygon class="st15" points="366.3,428.5 561.8,539.4 569.6,535 374.2,424 	"/>
	<polygon class="st15" points="353.8,435.6 549.2,546.6 557.1,542.1 361.6,431.2 	"/>
	<polygon class="st15" points="341.2,442.8 536.6,553.7 544.5,549.2 349.1,438.3 	"/>
	<polygon class="st5" points="585.8,516.9 593.7,521.4 601.6,516.9 593.7,512.5 	"/>
	<polygon class="st15" points="558.1,523.1 574.4,532.4 582.3,527.9 566,518.6 	"/>
</g>
<linearGradient id="SVGID_12_" gradientUnits="userSpaceOnUse" x1="1662.9073" y1="180.7398" x2="1766.3574" y2="180.7398" gradientTransform="matrix(-1 0 0 -1 2110.0825 695.8898)">
	<stop  offset="0" style="stop-color:#C0D6FF"/>
	<stop  offset="0.2978" style="stop-color:#C5DBFF"/>
	<stop  offset="0.6488" style="stop-color:#D3E9FF"/>
	<stop  offset="1" style="stop-color:#E9FFFF"/>
</linearGradient>
<path class="st21" d="M400.2,543.6l-54.9-31.2c-2.1-1.2-2.1-3.2,0-4.4l37.6-21.3c2.1-1.2,5.6-1.2,7.8,0l54.9,31.2
	c2.1,1.2,2.1,3.2,0,4.4L408,543.6C405.8,544.8,402.4,544.8,400.2,543.6z"/>
<path class="st22" d="M445.6,519.7l-54.9-31.2c-2.1-1.2-5.6-1.2-7.8,0l-37.6,21.3c-0.7,0.4-1.1,0.8-1.3,1.3
	c-0.6-1.1-0.1-2.3,1.3-3.1l37.6-21.3c2.1-1.2,5.6-1.2,7.8,0l54.9,31.2c1.5,0.8,1.9,2,1.3,3.1C446.6,520.5,446.2,520,445.6,519.7z"/>
<g class="st23">
	<g>
		<defs>
			<polygon id="SVGID_13_" points="438.2,200.2 676.9,335.7 647.3,507.3 408.7,371.9 			"/>
		</defs>
		<clipPath id="SVGID_14_">
			<use xlink:href="#SVGID_13_"  style="overflow:visible;"/>
		</clipPath>
		<g class="st24">
			
				<linearGradient id="SVGID_15_" gradientUnits="userSpaceOnUse" x1="1439.9923" y1="291.4398" x2="1844.2797" y2="291.4398" gradientTransform="matrix(-1 0 0 -1 2110.0825 695.8898)">
				<stop  offset="0" style="stop-color:#C0D6FF"/>
				<stop  offset="0.2978" style="stop-color:#C5DBFF"/>
				<stop  offset="0.6488" style="stop-color:#D3E9FF"/>
				<stop  offset="1" style="stop-color:#E9FFFF"/>
			</linearGradient>
			<path class="st25" d="M403.9,378.8L649,517.9c2.7,1.5,6.7,1.7,9.1,0.4l146.3-83c2.3-1.3,2-3.6-0.7-5.1L558.6,291
				c-2.7-1.5-6.7-1.7-9.1-0.4l-146.3,83C400.9,375,401.2,377.3,403.9,378.8z"/>
			
				<linearGradient id="SVGID_16_" gradientUnits="userSpaceOnUse" x1="1413.3075" y1="320.6023" x2="1516.7574" y2="320.6023" gradientTransform="matrix(-1 0 0 -1 2110.0825 695.8898)">
				<stop  offset="0" style="stop-color:#C0D6FF"/>
				<stop  offset="0.2978" style="stop-color:#C5DBFF"/>
				<stop  offset="0.6488" style="stop-color:#D3E9FF"/>
				<stop  offset="1" style="stop-color:#E9FFFF"/>
			</linearGradient>
			<path class="st26" d="M649.8,403.7l-54.9-31.2c-2.1-1.2-2.1-3.2,0-4.4l37.6-21.3c2.1-1.2,5.6-1.2,7.8,0l54.9,31.2
				c2.1,1.2,2.1,3.2,0,4.4l-37.6,21.3C655.4,405,651.9,405,649.8,403.7z"/>
			<path class="st22" d="M695.1,379.8l-54.9-31.2c-2.1-1.2-5.6-1.2-7.8,0l-37.6,21.3c-0.7,0.4-1.1,0.8-1.3,1.3
				c-0.6-1.1-0.1-2.3,1.3-3.1l37.6-21.3c2.1-1.2,5.6-1.2,7.8,0l54.9,31.2c1.5,0.8,1.9,2,1.3,3.1
				C696.2,380.6,695.8,380.2,695.1,379.8z"/>
			<g>
				<path class="st27" d="M719.2,452.5L515.5,336.8c-1.4-0.8-3-0.8-4.4,0l-72.5,41.3c-1,0.6-1,2.1,0,2.7l203.6,115.6
					c1.4,0.8,3,0.8,4.4,0l72.6-41.2C720.3,454.5,720.3,453.1,719.2,452.5z"/>
				<path class="st22" d="M719.2,455.1l-0.7,0.4l-203-115.2c-1.4-0.8-3-0.8-4.4,0l-71.8,40.9l-0.7-0.4c-1-0.6-1-2.1,0-2.7l72.5-41.3
					c1.4-0.8,3-0.8,4.4,0l203.7,115.6C720.3,453.1,720.3,454.5,719.2,455.1z"/>
				<g>
					<polygon class="st28" points="457.6,375.3 635,476 628,480 450.5,379.3 					"/>
					<polygon class="st28" points="476.3,364.7 645,460.4 637.9,464.4 469.2,368.7 					"/>
					<polygon class="st28" points="657.6,467.6 673.3,476.5 666.3,480.5 650.5,471.6 					"/>
					<polygon class="st28" points="643.6,480.9 654.6,487.1 647.6,491.1 636.6,484.9 					"/>
					<polygon class="st28" points="488,358 685,469.9 678,473.9 481,362 					"/>
					<polygon class="st28" points="499.7,351.4 696.7,463.2 689.7,467.2 492.7,355.4 					"/>
					<polygon class="st28" points="511.4,344.7 708.5,456.6 701.4,460.6 504.4,348.7 					"/>
				</g>
			</g>
		</g>
	</g>
</g>
<radialGradient id="SVGID_17_" cx="1605.6869" cy="241.0654" r="106.0887" gradientTransform="matrix(-1.0924 0 0 -1.0741 2287.6902 714.5283)" gradientUnits="userSpaceOnUse">
	<stop  offset="0" style="stop-color:#414141"/>
	<stop  offset="1" style="stop-color:#2B2B2B"/>
</radialGradient>
<polygon class="st29" points="517.4,505.3 570.2,473.4 451.5,405.9 395.4,443 "/>
<radialGradient id="SVGID_18_" cx="1582.4822" cy="288.7332" r="81.2258" gradientTransform="matrix(-1.0924 0 0 -1.0741 2287.6902 714.5283)" gradientUnits="userSpaceOnUse">
	<stop  offset="0" style="stop-color:#2B3AA5"/>
	<stop  offset="1" style="stop-color:#182484"/>
</radialGradient>
<polygon class="st30" points="570.2,473.4 582.3,398.2 470.9,335.4 470.9,416.8 "/>
<g>
	<polygon class="st31" points="578.9,305.3 566.2,298.3 566.7,295.6 579.3,302.6 	"/>
	<polygon class="st31" points="585.3,308.9 580.8,306.4 581.2,303.7 585.8,306.2 	"/>
	<polygon class="st31" points="590.4,311.7 587.3,310 587.7,307.3 590.8,309 	"/>
	<polygon class="st31" points="572.1,308.2 565.3,304.4 565.7,301.7 572.6,305.5 	"/>
	<polygon class="st31" points="582.5,314 574.1,309.3 574.5,306.6 582.9,311.3 	"/>
	<polygon class="st31" points="587.5,316.8 584.4,315.1 584.9,312.4 587.9,314.1 	"/>
	<polygon class="st31" points="592.3,319.5 589.2,317.8 589.6,315.1 592.7,316.8 	"/>
	<polygon class="st32" points="569.3,313.3 564.3,310.5 564.7,307.8 569.7,310.6 	"/>
	<polygon class="st32" points="572.9,315.3 571.2,314.4 571.6,311.7 573.3,312.6 	"/>
	<polygon class="st31" points="577.9,318.1 574.8,316.4 575.2,313.7 578.3,315.4 	"/>
	<polygon class="st31" points="581.7,326.9 563.3,316.6 563.7,314 582.1,324.2 	"/>
	<polygon class="st31" points="588.1,330.5 583.6,328 584,325.3 588.6,327.9 	"/>
	<polygon class="st31" points="567.3,325.6 562.3,322.8 562.8,320.1 567.7,322.9 	"/>
	<polygon class="st31" points="579,332.1 569.2,326.6 569.7,324 579.4,329.4 	"/>
	<polygon class="st31" points="584,334.9 580.9,333.2 581.3,330.5 584.4,332.2 	"/>
	<polygon class="st31" points="571.5,334.6 561.3,328.9 561.8,326.2 572,331.9 	"/>
	<polygon class="st32" points="580.8,339.8 573.5,335.7 573.9,333 581.2,337.1 	"/>
	<polygon class="st31" points="587.7,343.7 582.7,340.9 583.2,338.2 588.2,341 	"/>
	<polygon class="st31" points="563.8,337 560.4,335 560.8,332.4 564.2,334.3 	"/>
	<polygon class="st31" points="570.3,340.6 565.7,338 566.2,335.4 570.7,337.9 	"/>
	<polygon class="st31" points="579.5,345.8 572.2,341.7 572.6,339 580,343.1 	"/>
	<polygon class="st31" points="569.9,347.1 559.4,341.2 559.8,338.5 570.4,344.4 	"/>
	<polygon class="st31" points="581.7,353.7 571.8,348.1 572.3,345.5 582.1,351 	"/>
	<polygon class="st32" points="586.7,356.5 583.6,354.7 584.1,352.1 587.2,353.8 	"/>
	<polygon class="st31" points="591.5,359.2 588.5,357.4 588.9,354.7 592,356.5 	"/>
	<polygon class="st31" points="564.7,350.8 558.4,347.3 558.8,344.6 565.1,348.2 	"/>
	<polygon class="st32" points="598.9,316.5 607.7,321.4 608.1,318.7 599.4,313.9 	"/>
	<polygon class="st31" points="599.8,323.7 606.7,327.6 607.1,324.9 600.3,321 	"/>
	<polygon class="st31" points="600.8,330.9 605.7,333.7 606.2,331 601.2,328.2 	"/>
	<polygon class="st31" points="597.5,335.8 604.8,339.8 605.2,337.1 598,333.1 	"/>
	<polygon class="st31" points="598.8,343.2 603.8,346 604.2,343.3 599.2,340.5 	"/>
	<polygon class="st31" points="596.5,348.6 602.8,352.1 603.2,349.4 596.9,345.9 	"/>
	<polygon class="st31" points="598.4,356.3 601.8,358.2 602.3,355.5 598.8,353.6 	"/>
	<polygon class="st31" points="594.2,360.6 600.8,364.4 601.3,361.7 594.6,357.9 	"/>
	<polygon class="st31" points="593.6,367 599.9,370.5 600.3,367.8 594,364.3 	"/>
	<polygon class="st31" points="569.3,353.4 566.6,351.9 567.1,349.2 569.8,350.7 	"/>
	<polygon class="st31" points="577.3,357.9 571.3,354.5 571.7,351.8 577.7,355.2 	"/>
	<polygon class="st31" points="627.8,332.6 615.2,325.5 615.6,322.8 628.3,329.9 	"/>
	<polygon class="st31" points="634.3,336.2 629.8,333.6 630.2,331 634.7,333.5 	"/>
	<polygon class="st32" points="639.3,339 636.2,337.3 636.7,334.6 639.7,336.3 	"/>
	<polygon class="st31" points="621.1,335.5 614.2,331.6 614.7,329 621.5,332.8 	"/>
	<polygon class="st31" points="631.5,341.3 623,336.6 623.5,333.9 631.9,338.6 	"/>
	<polygon class="st32" points="636.5,344.1 633.4,342.4 633.8,339.7 636.9,341.4 	"/>
	<polygon class="st31" points="641.2,346.8 638.2,345 638.6,342.3 641.7,344.1 	"/>
	<polygon class="st31" points="618.2,340.6 613.2,337.8 613.7,335.1 618.6,337.9 	"/>
	<polygon class="st31" points="621.8,342.6 620.1,341.6 620.6,339 622.3,339.9 	"/>
	<polygon class="st31" points="626.9,345.4 623.8,343.7 624.2,341 627.3,342.7 	"/>
	<polygon class="st31" points="630.6,354.2 612.3,343.9 612.7,341.2 631.1,351.5 	"/>
	<polygon class="st31" points="637.1,357.8 632.6,355.3 633,352.6 637.5,355.1 	"/>
	<polygon class="st31" points="616.3,352.8 611.3,350 611.7,347.4 616.7,350.1 	"/>
	<polygon class="st31" points="627.9,359.4 618.2,353.9 618.6,351.2 628.4,356.7 	"/>
	<polygon class="st31" points="633,362.2 629.9,360.4 630.3,357.7 633.4,359.5 	"/>
	<polygon class="st32" points="620.5,361.9 610.3,356.2 610.7,353.5 620.9,359.2 	"/>
	<polygon class="st31" points="629.8,367.1 622.4,362.9 622.8,360.3 630.2,364.4 	"/>
	<polygon class="st31" points="636.7,370.9 631.7,368.1 632.1,365.5 637.1,368.2 	"/>
	<polygon class="st31" points="612.8,364.2 609.3,362.3 609.8,359.6 613.2,361.5 	"/>
	<polygon class="st31" points="619.2,367.8 614.7,365.3 615.1,362.6 619.7,365.2 	"/>
	<polygon class="st32" points="628.5,373 621.2,368.9 621.6,366.2 628.9,370.3 	"/>
	<polygon class="st31" points="618.9,374.3 608.3,368.4 608.8,365.8 619.3,371.6 	"/>
	<polygon class="st31" points="630.7,380.9 620.8,375.4 621.2,372.7 631.1,378.2 	"/>
	<polygon class="st31" points="635.7,383.7 632.6,382 633,379.3 636.1,381 	"/>
	<polygon class="st31" points="640.5,386.4 637.4,384.7 637.8,382 640.9,383.7 	"/>
	<polygon class="st31" points="613.7,378.1 607.4,374.6 607.8,371.9 614.1,375.4 	"/>
	<polygon class="st32" points="647.9,343.8 656.7,348.7 657.1,346 648.3,341.1 	"/>
	<polygon class="st31" points="648.8,351 655.7,354.8 656.1,352.1 649.2,348.3 	"/>
	<polygon class="st31" points="649.7,358.2 654.7,361 655.1,358.3 650.2,355.5 	"/>
	<polygon class="st31" points="646.5,363 653.7,367.1 654.1,364.4 646.9,360.4 	"/>
	<polygon class="st31" points="647.8,370.4 652.7,373.2 653.2,370.5 648.2,367.8 	"/>
	<polygon class="st31" points="645.4,375.8 651.8,379.4 652.2,376.7 645.9,373.1 	"/>
	<polygon class="st31" points="647.3,383.6 650.8,385.5 651.2,382.8 647.8,380.9 	"/>
	<polygon class="st31" points="643.1,387.9 649.8,391.6 650.2,388.9 643.6,385.2 	"/>
	<polygon class="st31" points="642.5,394.2 648.8,397.7 649.2,395.1 642.9,391.5 	"/>
	<polygon class="st32" points="618.3,380.7 615.6,379.2 616,376.5 618.7,378 	"/>
	<polygon class="st31" points="626.3,385.1 620.2,381.8 620.6,379.1 626.7,382.4 	"/>
	<polygon class="st31" points="570,360.5 557.4,353.5 557.9,350.8 570.5,357.8 	"/>
	<polygon class="st31" points="576.5,364.2 572,361.6 572.4,358.9 576.9,361.5 	"/>
	<polygon class="st31" points="581.5,367 578.4,365.2 578.9,362.5 582,364.3 	"/>
	<polygon class="st31" points="563.3,363.5 556.4,359.6 556.9,356.9 563.7,360.8 	"/>
	<polygon class="st31" points="573.7,369.2 565.2,364.5 565.7,361.8 574.1,366.6 	"/>
	<polygon class="st31" points="578.7,372 575.6,370.3 576,367.6 579.1,369.4 	"/>
	<polygon class="st31" points="583.5,374.7 580.4,373 580.8,370.3 583.9,372 	"/>
	<polygon class="st31" points="560.4,368.5 555.5,365.7 555.9,363.1 560.9,365.8 	"/>
	<polygon class="st31" points="564.1,370.6 562.4,369.6 562.8,366.9 564.5,367.9 	"/>
	<polygon class="st31" points="569.1,373.4 566,371.6 566.4,368.9 569.5,370.7 	"/>
	<polygon class="st31" points="572.8,382.1 554.5,371.9 554.9,369.2 573.3,379.5 	"/>
	<polygon class="st31" points="579.3,385.8 574.8,383.2 575.2,380.5 579.8,383.1 	"/>
	<polygon class="st31" points="558.5,380.8 553.5,378 553.9,375.3 558.9,378.1 	"/>
	<polygon class="st31" points="570.2,387.3 560.4,381.9 560.8,379.2 570.6,384.6 	"/>
	<polygon class="st31" points="575.2,390.1 572.1,388.4 572.5,385.7 575.6,387.4 	"/>
	<polygon class="st31" points="562.7,389.8 552.5,384.1 553,381.5 563.1,387.1 	"/>
	<polygon class="st31" points="572,395 564.6,390.9 565.1,388.2 572.4,392.3 	"/>
	<polygon class="st31" points="578.9,398.9 573.9,396.1 574.4,393.4 579.3,396.2 	"/>
	<polygon class="st31" points="555,392.2 551.5,390.3 552,387.6 555.4,389.5 	"/>
	<polygon class="st31" points="561.5,395.8 556.9,393.3 557.3,390.6 561.9,393.1 	"/>
	<polygon class="st31" points="570.7,401 563.4,396.9 563.8,394.2 571.1,398.3 	"/>
	<polygon class="st31" points="561.1,402.3 550.6,396.4 551,393.7 561.5,399.6 	"/>
	<polygon class="st31" points="572.9,408.9 563,403.4 563.5,400.7 573.3,406.2 	"/>
	<polygon class="st31" points="577.9,411.7 574.8,410 575.3,407.3 578.3,409 	"/>
	<polygon class="st31" points="582.7,414.4 579.6,412.7 580.1,410 583.2,411.7 	"/>
	<polygon class="st31" points="555.9,406.1 549.6,402.5 550,399.8 556.3,403.4 	"/>
	<polygon class="st31" points="590.1,371.8 598.9,376.7 599.3,374 590.6,369.1 	"/>
	<polygon class="st31" points="591,378.9 597.9,382.8 598.3,380.1 591.4,376.3 	"/>
	<polygon class="st31" points="591.9,386.1 596.9,388.9 597.3,386.2 592.4,383.5 	"/>
	<polygon class="st31" points="588.7,391 595.9,395.1 596.4,392.4 589.1,388.3 	"/>
	<polygon class="st31" points="590,398.4 595,401.2 595.4,398.5 590.4,395.7 	"/>
	<polygon class="st31" points="587.7,403.8 594,407.3 594.4,404.6 588.1,401.1 	"/>
	<polygon class="st31" points="589.6,411.5 593,413.4 593.4,410.8 590,408.8 	"/>
	<polygon class="st31" points="585.4,415.9 592,419.6 592.4,416.9 585.8,413.2 	"/>
	<polygon class="st31" points="584.7,422.2 591,425.7 591.5,423 585.2,419.5 	"/>
	<polygon class="st31" points="560.5,408.6 557.8,407.1 558.3,404.5 560.9,406 	"/>
	<polygon class="st31" points="568.5,413.1 562.4,409.7 562.9,407 568.9,410.4 	"/>
	<polygon class="st31" points="570.6,433.7 560.4,428 560.9,425.3 571.1,431 	"/>
	<polygon class="st31" points="577.6,437.6 573.6,435.4 574,432.7 578,434.9 	"/>
	<polygon class="st31" points="619,387.8 606.4,380.7 606.8,378.1 619.4,385.1 	"/>
	<polygon class="st31" points="625.5,391.4 620.9,388.9 621.4,386.2 625.9,388.7 	"/>
	<polygon class="st31" points="630.5,394.2 627.4,392.5 627.8,389.8 630.9,391.5 	"/>
	<polygon class="st31" points="612.3,390.7 605.4,386.9 605.8,384.2 612.7,388 	"/>
	<polygon class="st31" points="622.6,396.5 614.2,391.8 614.6,389.1 623.1,393.8 	"/>
	<polygon class="st31" points="627.7,399.3 624.6,397.6 625,394.9 628.1,396.6 	"/>
	<polygon class="st31" points="632.4,402 629.3,400.3 629.8,397.6 632.9,399.3 	"/>
	<polygon class="st31" points="609.4,395.8 604.4,393 604.9,390.3 609.8,393.1 	"/>
	<polygon class="st31" points="613,397.8 611.3,396.9 611.8,394.2 613.5,395.1 	"/>
	<polygon class="st31" points="618,400.6 615,398.9 615.4,396.2 618.5,397.9 	"/>
	<polygon class="st31" points="621.8,409.4 603.4,399.1 603.9,396.4 622.2,406.7 	"/>
	<polygon class="st31" points="628.3,413 623.7,410.5 624.2,407.8 628.7,410.3 	"/>
	<polygon class="st31" points="607.4,408 602.5,405.3 602.9,402.6 607.9,405.4 	"/>
	<polygon class="st31" points="619.1,414.6 609.4,409.1 609.8,406.4 619.5,411.9 	"/>
	<polygon class="st31" points="624.1,417.4 621,415.7 621.5,413 624.6,414.7 	"/>
	<polygon class="st31" points="611.7,417.1 601.5,411.4 601.9,408.7 612.1,414.4 	"/>
	<polygon class="st31" points="621,422.3 613.6,418.2 614,415.5 621.4,419.6 	"/>
	<polygon class="st31" points="627.9,426.1 622.9,423.4 623.3,420.7 628.3,423.5 	"/>
	<polygon class="st31" points="603.9,419.5 600.5,417.5 600.9,414.8 604.4,416.8 	"/>
	<polygon class="st31" points="610.4,423.1 605.9,420.5 606.3,417.8 610.8,420.4 	"/>
	<polygon class="st31" points="619.7,428.2 612.3,424.1 612.8,421.5 620.1,425.6 	"/>
	<polygon class="st31" points="610.1,429.5 599.5,423.7 600,421 610.5,426.9 	"/>
	<polygon class="st31" points="621.9,436.1 612,430.6 612.4,427.9 622.3,433.5 	"/>
	<polygon class="st31" points="626.9,439 623.8,437.2 624.2,434.5 627.3,436.3 	"/>
	<polygon class="st31" points="631.7,441.6 628.6,439.9 629,437.2 632.1,439 	"/>
	<polygon class="st31" points="604.9,433.3 598.5,429.8 599,427.1 605.3,430.6 	"/>
	<polygon class="st31" points="639.1,399 647.8,403.9 648.3,401.2 639.5,396.3 	"/>
	<polygon class="st31" points="640,406.2 646.9,410 647.3,407.4 640.4,403.5 	"/>
	<polygon class="st31" points="640.9,413.4 645.9,416.2 646.3,413.5 641.3,410.7 	"/>
	<polygon class="st31" points="637.7,418.3 644.9,422.3 645.3,419.6 638.1,415.6 	"/>
	<polygon class="st31" points="638.9,425.7 643.9,428.4 644.3,425.8 639.4,423 	"/>
	<polygon class="st31" points="636.6,431 642.9,434.6 643.4,431.9 637.1,428.4 	"/>
	<polygon class="st31" points="638.5,438.8 642,440.7 642.4,438 638.9,436.1 	"/>
	<polygon class="st31" points="634.3,443.1 641,446.8 641.4,444.2 634.7,440.4 	"/>
	<polygon class="st31" points="633.7,449.4 640,453 640.4,450.3 634.1,446.8 	"/>
	<polygon class="st31" points="609.5,435.9 606.8,434.4 607.2,431.7 609.9,433.2 	"/>
	<polygon class="st31" points="617.4,440.4 611.4,437 611.8,434.3 617.9,437.7 	"/>
	<polygon class="st31" points="619.6,461 609.4,455.3 609.8,452.6 620,458.3 	"/>
	<polygon class="st31" points="626.6,464.9 622.5,462.6 623,460 627,462.2 	"/>
</g>
<g>
	<polygon class="st31" points="461.2,238.9 448.6,231.9 449,229.2 461.6,236.3 	"/>
	<polygon class="st31" points="467.7,242.6 463.1,240 463.6,237.3 468.1,239.9 	"/>
	<polygon class="st31" points="472.7,245.4 469.6,243.6 470,241 473.1,242.7 	"/>
	<polygon class="st31" points="454.5,241.9 447.6,238 448,235.3 454.9,239.2 	"/>
	<polygon class="st31" points="464.8,247.6 456.4,242.9 456.8,240.3 465.3,245 	"/>
	<polygon class="st31" points="469.9,250.5 466.8,248.7 467.2,246 470.3,247.8 	"/>
	<polygon class="st31" points="474.6,253.1 471.5,251.4 472,248.7 475.1,250.4 	"/>
	<polygon class="st32" points="451.6,246.9 446.6,244.1 447.1,241.5 452,244.2 	"/>
	<polygon class="st32" points="455.2,249 453.5,248 454,245.3 455.7,246.3 	"/>
	<polygon class="st31" points="460.2,251.8 457.2,250 457.6,247.3 460.7,249.1 	"/>
	<polygon class="st31" points="464,260.5 445.6,250.3 446.1,247.6 464.4,257.9 	"/>
	<polygon class="st31" points="470.5,264.2 465.9,261.6 466.4,258.9 470.9,261.5 	"/>
	<polygon class="st31" points="449.6,259.2 444.7,256.4 445.1,253.7 450.1,256.5 	"/>
	<polygon class="st31" points="461.3,265.7 451.6,260.3 452,257.6 461.7,263 	"/>
	<polygon class="st31" points="466.3,268.5 463.2,266.8 463.7,264.1 466.8,265.8 	"/>
	<polygon class="st31" points="453.9,268.2 443.7,262.5 444.1,259.9 454.3,265.5 	"/>
	<polygon class="st32" points="463.2,273.4 455.8,269.3 456.2,266.6 463.6,270.7 	"/>
	<polygon class="st31" points="470.1,277.3 465.1,274.5 465.5,271.8 470.5,274.6 	"/>
	<polygon class="st31" points="446.1,270.6 442.7,268.7 443.1,266 446.6,267.9 	"/>
	<polygon class="st31" points="452.6,274.2 448.1,271.7 448.5,269 453,271.5 	"/>
	<polygon class="st31" points="461.9,279.4 454.5,275.3 455,272.6 462.3,276.7 	"/>
	<polygon class="st31" points="452.3,280.7 441.7,274.8 442.2,272.1 452.7,278 	"/>
	<polygon class="st31" points="464.1,287.3 454.2,281.8 454.6,279.1 464.5,284.6 	"/>
	<polygon class="st32" points="469.1,290.1 466,288.4 466.4,285.7 469.5,287.4 	"/>
	<polygon class="st31" points="473.9,292.8 470.8,291.1 471.2,288.4 474.3,290.1 	"/>
	<polygon class="st31" points="447.1,284.5 440.7,280.9 441.2,278.3 447.5,281.8 	"/>
	<polygon class="st32" points="481.3,250.2 490,255.1 490.5,252.4 481.7,247.5 	"/>
	<polygon class="st31" points="482.2,257.3 489.1,261.2 489.5,258.5 482.6,254.7 	"/>
	<polygon class="st31" points="483.1,264.5 488.1,267.3 488.5,264.6 483.5,261.9 	"/>
	<polygon class="st31" points="479.9,269.4 487.1,273.5 487.5,270.8 480.3,266.7 	"/>
	<polygon class="st31" points="481.1,276.8 486.1,279.6 486.5,276.9 481.6,274.1 	"/>
	<polygon class="st31" points="478.8,282.2 485.1,285.7 485.6,283 479.3,279.5 	"/>
	<polygon class="st31" points="480.7,289.9 484.2,291.9 484.6,289.2 481.2,287.2 	"/>
	<polygon class="st31" points="476.5,294.3 483.2,298 483.6,295.3 476.9,291.6 	"/>
	<polygon class="st31" points="475.9,300.6 482.2,304.1 482.6,301.4 476.3,297.9 	"/>
	<polygon class="st31" points="451.7,287 449,285.5 449.4,282.9 452.1,284.4 	"/>
	<polygon class="st31" points="459.6,291.5 453.6,288.1 454,285.4 460.1,288.8 	"/>
	<polygon class="st31" points="510.2,266.2 497.5,259.1 498,256.5 510.6,263.5 	"/>
	<polygon class="st31" points="516.6,269.8 512.1,267.3 512.5,264.6 517.1,267.1 	"/>
	<polygon class="st32" points="521.7,272.6 518.6,270.9 519,268.2 522.1,269.9 	"/>
	<polygon class="st31" points="503.4,269.1 496.6,265.3 497,262.6 503.9,266.4 	"/>
	<polygon class="st31" points="513.8,274.9 505.4,270.2 505.8,267.5 514.2,272.2 	"/>
	<polygon class="st32" points="518.8,277.7 515.7,276 516.2,273.3 519.2,275 	"/>
	<polygon class="st31" points="523.6,280.4 520.5,278.7 520.9,276 524,277.7 	"/>
	<polygon class="st31" points="500.6,274.2 495.6,271.4 496,268.7 501,271.5 	"/>
	<polygon class="st31" points="504.2,276.2 502.5,275.3 502.9,272.6 504.6,273.5 	"/>
	<polygon class="st31" points="509.2,279 506.1,277.3 506.5,274.6 509.6,276.3 	"/>
	<polygon class="st31" points="513,287.8 494.6,277.5 495,274.9 513.4,285.1 	"/>
	<polygon class="st31" points="519.4,291.4 514.9,288.9 515.3,286.2 519.9,288.7 	"/>
	<polygon class="st31" points="498.6,286.5 493.6,283.7 494.1,281 499,283.8 	"/>
	<polygon class="st31" points="510.3,293 500.5,287.5 501,284.8 510.7,290.3 	"/>
	<polygon class="st31" points="515.3,295.8 512.2,294.1 512.6,291.4 515.7,293.1 	"/>
	<polygon class="st32" points="502.8,295.5 492.6,289.8 493.1,287.1 503.3,292.8 	"/>
	<polygon class="st31" points="512.1,300.7 504.8,296.6 505.2,293.9 512.5,298 	"/>
	<polygon class="st31" points="519,304.5 514,301.8 514.5,299.1 519.4,301.9 	"/>
	<polygon class="st31" points="495.1,297.9 491.7,295.9 492.1,293.2 495.5,295.2 	"/>
	<polygon class="st31" points="501.6,301.5 497,298.9 497.5,296.2 502,298.8 	"/>
	<polygon class="st32" points="510.8,306.6 503.5,302.6 503.9,299.9 511.3,304 	"/>
	<polygon class="st31" points="501.2,308 490.7,302.1 491.1,299.4 501.6,305.3 	"/>
	<polygon class="st31" points="513,314.6 503.1,309 503.6,306.3 513.4,311.9 	"/>
	<polygon class="st31" points="518,317.4 514.9,315.6 515.4,312.9 518.5,314.7 	"/>
	<polygon class="st31" points="522.8,320 519.8,318.3 520.2,315.6 523.3,317.4 	"/>
	<polygon class="st31" points="496,311.7 489.7,308.2 490.1,305.5 496.4,309 	"/>
	<polygon class="st32" points="530.2,277.4 539,282.3 539.4,279.6 530.7,274.7 	"/>
	<polygon class="st31" points="531.1,284.6 538,288.5 538.4,285.8 531.6,281.9 	"/>
	<polygon class="st31" points="532.1,291.8 537,294.6 537.5,291.9 532.5,289.1 	"/>
	<polygon class="st31" points="528.8,296.7 536.1,300.7 536.5,298 529.2,294 	"/>
	<polygon class="st31" points="530.1,304.1 535.1,306.8 535.5,304.2 530.5,301.4 	"/>
	<polygon class="st31" points="527.8,309.5 534.1,313 534.5,310.3 528.2,306.8 	"/>
	<polygon class="st31" points="529.7,317.2 533.1,319.1 533.5,316.4 530.1,314.5 	"/>
	<polygon class="st31" points="525.5,321.5 532.1,325.2 532.6,322.6 525.9,318.8 	"/>
	<polygon class="st31" points="524.8,327.8 531.2,331.4 531.6,328.7 525.3,325.2 	"/>
	<polygon class="st32" points="500.6,314.3 497.9,312.8 498.4,310.1 501.1,311.6 	"/>
	<polygon class="st31" points="508.6,318.8 502.6,315.4 503,312.7 509,316.1 	"/>
	<polygon class="st31" points="452.4,294.2 439.8,287.1 440.2,284.4 452.8,291.5 	"/>
	<polygon class="st31" points="458.9,297.8 454.3,295.2 454.7,292.6 459.3,295.1 	"/>
	<polygon class="st31" points="463.9,300.6 460.8,298.9 461.2,296.2 464.3,297.9 	"/>
	<polygon class="st31" points="445.7,297.1 438.8,293.2 439.2,290.6 446.1,294.4 	"/>
	<polygon class="st31" points="456,302.9 447.6,298.2 448,295.5 456.4,300.2 	"/>
	<polygon class="st31" points="461,305.7 457.9,303.9 458.4,301.3 461.5,303 	"/>
	<polygon class="st31" points="465.8,308.3 462.7,306.6 463.1,303.9 466.2,305.7 	"/>
	<polygon class="st31" points="442.8,302.1 437.8,299.4 438.2,296.7 443.2,299.5 	"/>
	<polygon class="st31" points="446.4,304.2 444.7,303.2 445.1,300.5 446.8,301.5 	"/>
	<polygon class="st31" points="451.4,307 448.3,305.3 448.8,302.6 451.9,304.3 	"/>
	<polygon class="st31" points="455.2,315.8 436.8,305.5 437.3,302.8 455.6,313.1 	"/>
	<polygon class="st31" points="461.7,319.4 457.1,316.8 457.5,314.2 462.1,316.7 	"/>
	<polygon class="st31" points="440.8,314.4 435.8,311.6 436.3,308.9 441.2,311.7 	"/>
	<polygon class="st31" points="452.5,320.9 442.7,315.5 443.2,312.8 452.9,318.3 	"/>
	<polygon class="st31" points="457.5,323.7 454.4,322 454.9,319.3 457.9,321.1 	"/>
	<polygon class="st31" points="445,323.5 434.9,317.8 435.3,315.1 445.5,320.8 	"/>
	<polygon class="st31" points="454.3,328.6 447,324.5 447.4,321.8 454.8,326 	"/>
	<polygon class="st31" points="461.2,332.5 456.3,329.7 456.7,327 461.7,329.8 	"/>
	<polygon class="st31" points="437.3,325.8 433.9,323.9 434.3,321.2 437.8,323.1 	"/>
	<polygon class="st31" points="443.8,329.4 439.3,326.9 439.7,324.2 444.2,326.8 	"/>
	<polygon class="st31" points="453,334.6 445.7,330.5 446.2,327.8 453.5,331.9 	"/>
	<polygon class="st31" points="443.4,335.9 432.9,330 433.3,327.3 443.9,333.2 	"/>
	<polygon class="st31" points="455.2,342.5 445.4,337 445.8,334.3 455.7,339.8 	"/>
	<polygon class="st31" points="460.3,345.3 457.2,343.6 457.6,340.9 460.7,342.6 	"/>
	<polygon class="st31" points="465.1,348 462,346.3 462.4,343.6 465.5,345.3 	"/>
	<polygon class="st31" points="438.2,339.7 431.9,336.2 432.4,333.5 438.7,337 	"/>
	<polygon class="st31" points="472.5,305.4 481.2,310.3 481.6,307.6 472.9,302.7 	"/>
	<polygon class="st31" points="473.4,312.6 480.2,316.4 480.7,313.7 473.8,309.9 	"/>
	<polygon class="st31" points="474.3,319.8 479.3,322.5 479.7,319.9 474.7,317.1 	"/>
	<polygon class="st31" points="471,324.6 478.3,328.7 478.7,326 471.5,321.9 	"/>
	<polygon class="st31" points="472.3,332 477.3,334.8 477.7,332.1 472.8,329.3 	"/>
	<polygon class="st31" points="470,337.4 476.3,340.9 476.7,338.3 470.4,334.7 	"/>
	<polygon class="st31" points="471.9,345.2 475.3,347.1 475.8,344.4 472.3,342.5 	"/>
	<polygon class="st31" points="467.7,349.5 474.4,353.2 474.8,350.5 468.1,346.8 	"/>
	<polygon class="st31" points="467.1,355.8 473.4,359.3 473.8,356.7 467.5,353.1 	"/>
	<polygon class="st31" points="442.8,342.3 440.2,340.8 440.6,338.1 443.3,339.6 	"/>
	<polygon class="st31" points="450.8,346.7 444.8,343.3 445.2,340.7 451.2,344 	"/>
	<polygon class="st31" points="453,367.3 442.8,361.6 443.2,359 453.4,364.7 	"/>
	<polygon class="st31" points="459.9,371.3 455.9,369 456.4,366.3 460.4,368.6 	"/>
	<polygon class="st31" points="501.3,321.4 488.7,314.4 489.2,311.7 501.8,318.7 	"/>
	<polygon class="st31" points="507.8,325 503.3,322.5 503.7,319.8 508.2,322.4 	"/>
	<polygon class="st31" points="512.8,327.8 509.7,326.1 510.2,323.4 513.3,325.2 	"/>
	<polygon class="st31" points="494.6,324.3 487.7,320.5 488.2,317.8 495,321.7 	"/>
	<polygon class="st31" points="505,330.1 496.5,325.4 497,322.7 505.4,327.4 	"/>
	<polygon class="st31" points="510,332.9 506.9,331.2 507.3,328.5 510.4,330.3 	"/>
	<polygon class="st31" points="514.8,335.6 511.7,333.9 512.1,331.2 515.2,332.9 	"/>
	<polygon class="st31" points="491.7,329.4 486.8,326.6 487.2,323.9 492.2,326.7 	"/>
	<polygon class="st31" points="495.4,331.4 493.7,330.5 494.1,327.8 495.8,328.8 	"/>
	<polygon class="st31" points="500.4,334.2 497.3,332.5 497.7,329.8 500.8,331.6 	"/>
	<polygon class="st31" points="504.1,343 485.8,332.8 486.2,330.1 504.6,340.3 	"/>
	<polygon class="st31" points="510.6,346.6 506.1,344.1 506.5,341.4 511,344 	"/>
	<polygon class="st31" points="489.8,341.7 484.8,338.9 485.2,336.2 490.2,339 	"/>
	<polygon class="st31" points="501.5,348.2 491.7,342.8 492.1,340.1 501.9,345.5 	"/>
	<polygon class="st31" points="506.5,351 503.4,349.3 503.8,346.6 506.9,348.3 	"/>
	<polygon class="st31" points="494,350.7 483.8,345 484.3,342.3 494.4,348 	"/>
	<polygon class="st31" points="503.3,355.9 495.9,351.8 496.4,349.1 503.7,353.2 	"/>
	<polygon class="st31" points="510.2,359.8 505.2,357 505.7,354.3 510.6,357.1 	"/>
	<polygon class="st31" points="486.3,353.1 482.8,351.2 483.3,348.5 486.7,350.4 	"/>
	<polygon class="st31" points="492.8,356.7 488.2,354.2 488.6,351.5 493.2,354 	"/>
	<polygon class="st31" points="502,361.9 494.7,357.8 495.1,355.1 502.4,359.2 	"/>
	<polygon class="st31" points="492.4,363.2 481.9,357.3 482.3,354.6 492.8,360.5 	"/>
	<polygon class="st31" points="504.2,369.8 494.3,364.3 494.8,361.6 504.6,367.1 	"/>
	<polygon class="st31" points="509.2,372.6 506.1,370.9 506.5,368.2 509.6,369.9 	"/>
	<polygon class="st31" points="514,375.3 510.9,373.5 511.4,370.9 514.5,372.6 	"/>
	<polygon class="st31" points="487.2,366.9 480.9,363.4 481.3,360.7 487.6,364.3 	"/>
	<polygon class="st31" points="521.4,332.6 530.2,337.5 530.6,334.9 521.9,330 	"/>
	<polygon class="st31" points="522.3,339.8 529.2,343.7 529.6,341 522.7,337.1 	"/>
	<polygon class="st31" points="523.2,347 528.2,349.8 528.6,347.1 523.7,344.3 	"/>
	<polygon class="st31" points="520,351.9 527.2,355.9 527.7,353.3 520.4,349.2 	"/>
	<polygon class="st31" points="521.3,359.3 526.3,362.1 526.7,359.4 521.7,356.6 	"/>
	<polygon class="st31" points="519,364.7 525.3,368.2 525.7,365.5 519.4,362 	"/>
	<polygon class="st31" points="520.9,372.4 524.3,374.3 524.7,371.6 521.3,369.7 	"/>
	<polygon class="st31" points="516.7,376.7 523.3,380.5 523.7,377.8 517.1,374.1 	"/>
	<polygon class="st31" points="516,383.1 522.3,386.6 522.8,383.9 516.5,380.4 	"/>
	<polygon class="st31" points="491.8,369.5 489.1,368 489.6,365.3 492.2,366.8 	"/>
	<polygon class="st31" points="499.8,374 493.7,370.6 494.2,367.9 500.2,371.3 	"/>
	<polygon class="st31" points="501.9,394.6 491.7,388.9 492.2,386.2 502.4,391.9 	"/>
	<polygon class="st31" points="508.9,398.5 504.9,396.3 505.3,393.6 509.3,395.8 	"/>
</g>
<g>
	
		<linearGradient id="SVGID_19_" gradientUnits="userSpaceOnUse" x1="1519.5782" y1="265.9033" x2="1596.918" y2="405.1646" gradientTransform="matrix(-1 0 0 -1 2110.0825 695.8898)">
		<stop  offset="0" style="stop-color:#7D7D7D"/>
		<stop  offset="4.386092e-02" style="stop-color:#828282"/>
		<stop  offset="9.556892e-02" style="stop-color:#909090"/>
		<stop  offset="0.1512" style="stop-color:#A8A8A8"/>
		<stop  offset="0.2093" style="stop-color:#C9C9C9"/>
		<stop  offset="0.2237" style="stop-color:#D2D2D2"/>
	</linearGradient>
	<path class="st33" d="M459.2,298.9l11.8-6.7l0,0c0.2-0.1,0.4-0.1,0.6,0l147.7,83.9c0.5,0.3,0.9,1,0.9,1.6v27.4
		c0,0.3-0.1,0.5-0.2,0.6l0,0l0,0l0,0l-11.9,6.7l-0.1-13.2l-136.3-77.4c-0.5-0.3-0.9-1-0.9-1.6v-9.4L459.2,298.9z"/>
	
		<linearGradient id="SVGID_20_" gradientUnits="userSpaceOnUse" x1="1613.3003" y1="268.2627" x2="1563.808" y2="365.0144" gradientTransform="matrix(-1 0 0 -1 2110.0825 695.8898)">
		<stop  offset="0" style="stop-color:#D4D4D4"/>
		<stop  offset="0.3183" style="stop-color:#D9D9D9"/>
		<stop  offset="0.6928" style="stop-color:#E7E7E7"/>
		<stop  offset="1" style="stop-color:#F8F8F8"/>
	</linearGradient>
	<path class="st34" d="M459.7,328.6l147.7,83.9c0.5,0.3,0.9,0,0.9-0.6v-27.4c0-0.6-0.4-1.4-0.9-1.6L459.7,299
		c-0.5-0.3-0.9,0-0.9,0.6V327C458.9,327.6,459.3,328.4,459.7,328.6z"/>
	<path class="st35" d="M480.1,323.1l115,66.5c-3.6,3-6.9,6.5-10,10.2L469.2,334C472.6,330,476.2,326.3,480.1,323.1z"/>
	<path class="st36" d="M463.9,320.4l139.3,79.1c0.3,0.2,0.6,0,0.6-0.4v-6.9c0-0.4-0.3-0.9-0.6-1.1L463.9,312c-0.3-0.2-0.6,0-0.6,0.4
		v6.9C463.3,319.7,463.6,320.2,463.9,320.4z"/>
	<path class="st5" d="M463.9,312l2.8,1.6v3.7c0,0.4,0.3,0.9,0.6,1.1l136.4,77.5v3.2c0,0.4-0.3,0.6-0.6,0.4l-139.3-79.1
		c-0.3-0.2-0.6-0.7-0.6-1.1v-6.9C463.3,312,463.6,311.8,463.9,312z"/>
</g>
<linearGradient id="SVGID_21_" gradientUnits="userSpaceOnUse" x1="1754.8683" y1="85.9131" x2="1591.9237" y2="374.6358" gradientTransform="matrix(-1 0 0 -1 2110.0825 695.8898)">
	<stop  offset="0" style="stop-color:#D4D4D4"/>
	<stop  offset="8.166328e-02" style="stop-color:#D7D7D7"/>
	<stop  offset="0.1401" style="stop-color:#E0E0E0"/>
	<stop  offset="0.1911" style="stop-color:#F0F0F0"/>
	<stop  offset="0.2117" style="stop-color:#F8F8F8"/>
	<stop  offset="0.2466" style="stop-color:#ECECEC"/>
	<stop  offset="0.3072" style="stop-color:#DEDEDE"/>
	<stop  offset="0.3823" style="stop-color:#D6D6D6"/>
	<stop  offset="0.5143" style="stop-color:#D4D4D4"/>
	<stop  offset="0.635" style="stop-color:#E4E4E4"/>
	<stop  offset="0.755" style="stop-color:#F8F8F8"/>
	<stop  offset="1" style="stop-color:#D4D4D4"/>
</linearGradient>
<path class="st37" d="M385.7,617.1l-115.9-65.8l0,0c14.9-8.5,27.5-27.1,31.4-44.8c1.6-7.2,6-13.4,12.5-17.1l87.6-49.7
	c24.4-13.8,40.2-38.8,41.9-66.4c1.4-23.3,19.3-46.3,33.3-54.2l0,0l115.9,65.8l0,0c-13.7,7.8-28.8,29.6-30.5,52.5
	c-2.1,27.6-17.4,52.7-41.8,66.5l-90.4,51.3c-6.5,3.7-11,9.9-12.5,17.1C413.2,590,400.6,608.6,385.7,617.1L385.7,617.1z"/>
<path class="st38" d="M476.4,319l115.9,65.8c-0.9,0.5-1.8,1.1-2.8,1.7l0,0l-115.9-65.8C474.6,320.1,475.5,319.6,476.4,319z"/>
<polygon class="st5" points="520,396.8 540.3,408.4 540.5,406.1 520.2,394.6 "/>
<polygon class="st5" points="509.8,391 516.9,395.1 517.1,392.8 510,388.8 "/>
<polygon class="st5" points="501.9,386.5 506.7,389.3 507,387.1 502.1,384.3 "/>
<polygon class="st5" points="528.8,407.3 539.9,413.7 540.1,411.4 529,405 "/>
<polygon class="st5" points="512.2,397.8 525.7,405.5 525.9,403.2 512.4,395.6 "/>
<polygon class="st5" points="504.3,393.3 509.2,396.1 509.4,393.8 504.5,391 "/>
<polygon class="st5" points="496.8,389 501.6,391.8 501.9,389.5 497.1,386.8 "/>
<polygon class="st5" points="531.4,414.4 539.6,419.1 539.7,416.7 531.6,412.1 "/>
<polygon class="st5" points="525.6,411 528.3,412.6 528.5,410.3 525.7,408.7 "/>
<polygon class="st5" points="517.5,406.3 522.4,409.2 522.6,406.9 517.7,404 "/>
<polygon class="st5" points="509.4,407.2 539.2,424.4 539.3,422.1 509.6,404.9 "/>
<polygon class="st5" points="499.2,401.3 506.3,405.4 506.6,403.1 499.4,399 "/>
<polygon class="st5" points="530.6,425.1 538.8,429.9 539,427.5 530.8,422.7 "/>
<polygon class="st5" points="511.7,414.1 527.4,423.3 527.6,420.9 511.9,411.8 "/>
<polygon class="st5" points="503.6,409.4 508.6,412.3 508.8,410 503.9,407.1 "/>
<polygon class="st5" points="521.6,425.5 538.4,435.4 538.6,432.9 521.8,423.2 "/>
<polygon class="st5" points="506.6,416.7 518.5,423.7 518.7,421.3 506.8,414.4 "/>
<polygon class="st5" points="495.6,410.3 503.5,414.9 503.8,412.6 495.9,408 "/>
<polygon class="st5" points="532.3,437.5 538,440.9 538.2,438.5 532.5,435.1 "/>
<polygon class="st5" points="521.6,431.2 529.1,435.6 529.3,433.2 521.8,428.9 "/>
<polygon class="st5" points="506.6,422.4 518.5,429.4 518.7,427 506.8,420 "/>
<polygon class="st5" points="520.1,436.1 537.6,446.5 537.8,444 520.3,433.7 "/>
<polygon class="st5" points="501,424.8 517,434.2 517.2,431.8 501.2,422.4 "/>
<polygon class="st5" points="492.9,420 497.9,422.9 498.1,420.6 493.2,417.7 "/>
<polygon class="st5" points="485.3,415.5 490.2,418.4 490.4,416.1 485.6,413.2 "/>
<polygon class="st5" points="526.7,445.8 537.2,452.1 537.4,449.6 526.8,443.4 "/>
<polygon class="st5" points="480.2,374.1 466.9,366.6 467.2,364.5 480.4,372 "/>
<polygon class="st5" points="542.5,396.8 469.5,355.3 471.1,349.5 543.9,390.9 "/>
<polygon class="st5" points="476.7,377.5 466.3,371.5 466.6,369.4 477,375.3 "/>
<polygon class="st5" points="473.2,380.8 465.6,376.5 465.9,374.3 473.4,378.6 "/>
<polygon class="st5" points="476,387.8 464.9,381.5 465.2,379.3 476.3,385.6 "/>
<polygon class="st5" points="471.9,390.9 464.3,386.5 464.6,384.3 472.2,388.7 "/>
<polygon class="st5" points="473.3,397.2 463.6,391.6 463.9,389.3 473.6,395 "/>
<polygon class="st5" points="468.2,399.8 462.9,396.7 463.2,394.4 468.5,397.5 "/>
<polygon class="st5" points="472.5,407.9 462.2,401.8 462.5,399.6 472.8,405.6 "/>
<polygon class="st5" points="471.3,412.9 461.5,407 461.8,404.7 471.6,410.6 "/>
<polygon class="st5" points="519,441.3 523.5,443.9 523.7,441.5 519.2,438.8 "/>
<polygon class="st5" points="506,433.5 515.8,439.4 516.1,437 506.2,431.1 "/>
<path class="st1" d="M246.4,633.8l-42-23.9l42-23.9l42,23.9L246.4,633.8z M206.7,609.9l39.7,22.6l39.7-22.6l-39.7-22.6L206.7,609.9z
	"/>
<path class="st1" d="M703.3,563l-42-23.9l42-23.9l42,23.9L703.3,563z M663.6,539.1l39.7,22.6l39.7-22.6l-39.7-22.6L663.6,539.1z"/>
<path class="st39" d="M175.6,214c0,17.6,12.7,39.2,28.2,48L323,329.6c15.5,8.8,28.2,1.6,28.2-16V178.3c0-17.6-12.7-39.2-28.2-48
	L203.8,62.7c-15.5-8.8-28.2-1.6-28.2,16V214z"/>
<path class="st40" d="M351.2,313.6V178.3c0-17.6-12.7-39.2-28.2-48L203.8,62.7c-7.5-4.3-14.3-4.8-19.4-2.2l0,0l30.2-17
	c5.1-2.5,11.9-2,19.3,2.2l119.2,67.7c15.5,8.8,28.2,30.4,28.2,48v135.3c0,8.5-3,14.6-7.8,17.7l-30.4,17.1l0,0
	C348.1,328.5,351.2,322.4,351.2,313.6z"/>
<g>
	<g>
		<g>
			<path class="st41" d="M409.3,440.9c1.5,0.6,2.5,2.8,3.3,5.4c0.1,0.1,0.1,0.3,0.1,0.4c0.6,1.9,1.1,4,1.7,5.9
				c0,0.2,0.1,0.3,0.1,0.4c0.1,0.3,0.1,0.5,0.2,0.7c0.1,0.3,0.2,0.6,0.3,0.8l0.2,0.7c0.9,2.1,1.9,3.6,3.4,3.6
				c1.8-0.1,3.4-2.1,4.9-4.4c0.1-0.2,0.2-0.4,0.4-0.6c0.2-0.2,0.3-0.5,0.5-0.7l0.1-0.2c0.1-0.1,0.2-0.2,0.3-0.4
				c0.5-0.7,0.9-1.3,1.4-1.8l0.2-0.2c0.9-1,1.9-1.6,2.9-1.7c2.6-0.1,4.2,3.5,5.5,7.8c0,0.1,0.1,0.2,0.1,0.3c0.3,0.9,0.5,1.9,0.8,2.8
				c0,0.2,0.1,0.3,0.1,0.4c0.1,0.3,0.1,0.5,0.2,0.7c0.1,0.3,0.2,0.6,0.2,0.8c0.1,0.2,0.1,0.5,0.2,0.7c1.3,4.6,2.6,8.5,4.7,8.4
				c0.5,0,0.9-0.2,1.3-0.5c0.2-0.1,0.4-0.3,0.5-0.5c0.2-0.2,0.4-0.5,0.6-0.7c0.1-0.1,0.2-0.3,0.3-0.4c0.1-0.1,0.1-0.2,0.2-0.3
				c0.1-0.1,0.1-0.2,0.2-0.3c0.2-0.3,0.3-0.5,0.5-0.8c0.1-0.1,0.1-0.2,0.2-0.4c3.7-7.2,7.1-22,11-22.3c3.5-0.1,4.6,11.6,6.9,20.7
				c0,0.2,0.1,0.4,0.1,0.6c1.4,5.4,3.2,9.8,6.2,9.9c0.1,0,0.2,0,0.2,0c1,0,1.9-0.5,2.9-1.2c0.2-0.1,0.4-0.3,0.6-0.5
				c1.9-1.6,3.7-4.2,5.1-6.5l-1.8,32.8c-0.1,2-1.7,3.5-3.3,3.6c-0.4,0-0.9-0.1-1.3-0.3l-60.3-34c-2.2-1.2-3.5-3.8-3.3-6.8
				L409.3,440.9z"/>
		</g>
	</g>
</g>
<g>
	<g>
		<g>
			<path class="st42" d="M406.6,449.4c1.6,2.2,3.3,3.4,5.1,3.6c0.1,0,0.3,0.1,0.4,0.1c0.2,0,0.4,0,0.6,0c0.1,0,0.2,0,0.3,0
				c0.9,0,1.8-0.5,2.6-1c0.6-0.3,1.1-0.6,1.7-0.8c0.5-0.2,0.9-0.3,1.4-0.3c1.3,0,2.5,0.6,3.4,1.7c0.1,0.2,0.2,0.3,0.2,0.3
				c1.3,1.8,1.9,4.2,2.5,6.4c0.1,0.3,0.2,0.6,0.2,0.9c0.1,0.3,0.1,0.6,0.2,1c0.4,1.9,1.1,5,2.6,5.1c1.2-0.1,2.3-2,3.3-3.6
				c0.6-1,1.2-2,1.8-2.5l0.2-0.2c0.6-0.7,1.7-1.6,2.9-1.7c0.1,0,0.2,0,0.3,0c3,0,4.1,4.7,5.2,9.8v0.2l0.1,0.3l0.1,0.2
				c0.4,2.4,1,4.3,1.6,6c0.4,1.1,1.1,3,2.5,3.1c1.7-0.1,3.2-2.1,4.6-3.9c0.6-0.8,1.2-1.6,1.7-2.1c1.5-1.4,3.1-2.2,4.6-2.2
				c0.9,0,1.7,0.2,2.5,0.6c1.5,0.9,2.6,2.8,3.6,4.7c1.5,2.7,3,5.3,5.5,5.3c0.4,0,0.8-0.1,1.3-0.3c1.7-0.7,3.2-2.2,4.5-3.7v0.7
				c-1.3,1.4-2.7,2.8-4.4,3.5c-0.4,0.1-0.8,0.2-1.2,0.3c-0.1,0-0.2,0-0.3,0c-2.8,0.1-4.3-2.7-5.9-5.5c-1.1-1.9-2.1-3.8-3.5-4.6
				c-0.7-0.4-1.5-0.6-2.3-0.6c-1.4,0-2.8,0.8-4.2,2.1c-0.5,0.5-1.1,1.2-1.7,2c-1.4,1.8-3,3.9-4.7,4.1c-0.1,0-0.2,0-0.2,0
				c-1.7-0.2-2.5-2.3-2.9-3.4c-0.6-1.7-1.2-3.7-1.6-6.1v-0.2c-1.1-5.3-2.1-10-4.9-10c-0.1,0-0.2,0-0.2,0c-1.1,0-2.1,1-2.7,1.7
				c-0.5,0.5-1.1,1.5-1.7,2.4c-1.1,1.8-2.3,3.8-3.7,3.9c-1.9-0.1-2.6-3.3-3-5.4c-0.1-0.4-0.2-0.7-0.2-1c-0.1-0.3-0.2-0.6-0.2-0.9
				c-0.6-2.2-1.1-4.5-2.3-6.2c-0.1-0.1-0.2-0.2-0.2-0.3c-0.9-1.1-2-1.7-3.2-1.7c-0.4,0-0.8,0.1-1.2,0.2c-0.6,0.2-1.1,0.5-1.6,0.8
				c-0.9,0.5-1.8,1-2.9,1.1c-0.1,0-0.2,0-0.3,0c-0.2,0-0.3,0-0.3,0c-0.3,0-0.5,0-0.7-0.1c-1.7-0.2-3.4-1.3-5-3.3L406.6,449.4z"/>
		</g>
	</g>
</g>
<g>
	<g>
		<g>
			<path class="st41" d="M422.2,525.5c0.4,0.1,0.6,0.3,0.6,0.6l0.1,1.5c0,0.1,0,0.3-0.1,0.4l-5.2,8.2c-0.1,0.1-0.2,0.2-0.4,0.2
				c-0.3,0-0.4-0.1-0.5-0.3l-21.9-41.2l-8.8,23.3c-0.1,0.2-0.2,0.3-0.4,0.3c-0.2,0-0.4-0.1-0.5-0.3l-9.9-15.4l-12-3.9
				c-0.2,0-0.3-0.2-0.4-0.3l-8.2-18.6l-6.5,3.9c-0.1,0-0.2,0.1-0.2,0.1c-0.1,0-0.2,0-0.3-0.1c-0.2-0.1-0.3-0.3-0.3-0.5l-0.1-1
				c0-0.2,0.1-0.4,0.3-0.5l7.5-4.5c0.1,0,0.2-0.1,0.2-0.1c0.1,0,0.1,0,0.2,0c0.1,0.1,0.3,0.2,0.3,0.3l8.6,19.4l11.9,3.8
				c0.1,0,0.2,0.1,0.3,0.2l8.7,13.5l8.9-23.6c0.1-0.2,0.2-0.3,0.5-0.3c0.2,0,0.4,0.1,0.5,0.3l22.3,41.8l4.6-7.2
				C421.9,525.5,422.1,525.5,422.2,525.5z M394.6,492.9C394.7,492.9,394.7,492.9,394.6,492.9v-0.2V492.9L394.6,492.9 M385.3,516.7
				L385.3,516.7c0-0.1,0-0.1-0.1-0.1l0,0l0,0L385.3,516.7 M417.2,534.7L417.2,534.7C417.2,534.6,417.2,534.6,417.2,534.7
				L417.2,534.7"/>
		</g>
	</g>
</g>
<path class="st43" d="M398,492.6c-1.3-2.3-3.6-3.5-5.1-2.7s-1.6,3.4-0.2,5.7c1.2,2,3.4,3.6,5.1,2.7
	C399.3,497.5,399.3,494.9,398,492.6z"/>
<path class="st44" d="M386.6,515.6c-0.7-1.3-2-2-2.8-1.5s-0.9,1.9-0.1,3.2c0.7,1.1,1.9,2,2.8,1.5
	C387.3,518.3,387.3,516.9,386.6,515.6z"/>
<path class="st42" d="M418.7,533.2c-0.7-1.3-2-2-2.8-1.5s-0.9,1.9-0.1,3.2c0.7,1.1,1.9,2,2.8,1.5C419.4,536,419.5,534.5,418.7,533.2
	z"/>
<path class="st45" d="M377,500.8c-0.9-1.6-2.4-2.4-3.4-1.8s-1,2.3-0.1,3.8c0.8,1.4,2.3,2.4,3.4,1.8
	C377.8,504.1,377.9,502.3,377,500.8z"/>
<path class="st42" d="M364.3,496c-0.7-1.3-2-2-2.8-1.5s-0.9,1.9-0.1,3.2c0.7,1.1,1.9,2,2.8,1.5C365,498.7,365.1,497.3,364.3,496z"/>
<path class="st45" d="M356.4,478.9c-0.7-1.3-2-2-2.8-1.5s-0.9,1.9-0.1,3.2c0.7,1.1,1.9,2,2.8,1.5
	C357.1,481.7,357.2,480.2,356.4,478.9z"/>
<g>
	<path class="st42" d="M755.9,395.6c10.8,0,19.5,4.4,19.5,9.7h-19.5l-7.4-9C750.8,395.9,753.3,395.6,755.9,395.6z"/>
	<path class="st43" d="M748.6,396.4l7.4,9l-14.7,6.4c-1.5-0.9-2.8-1.9-3.6-3s-1.2-2.2-1.2-3.4C736.4,401.3,741.4,397.8,748.6,396.4z
		"/>
	<path class="st45" d="M741.2,411.8c0.1,0.1,0.3,0.2,0.5,0.3c3.6,1.9,8.6,3.1,14.2,3.1c10.8,0,19.5-4.4,19.5-9.7h-19.5L741.2,411.8z
		"/>
</g>
<g class="st46">
	
		<linearGradient id="SVGID_22_" gradientUnits="userSpaceOnUse" x1="210.594" y1="337.1105" x2="238.2879" y2="337.1105" gradientTransform="matrix(1 0 0 -1 0 695.8898)">
		<stop  offset="0" style="stop-color:#D4D4D4"/>
		<stop  offset="8.166328e-02" style="stop-color:#D7D7D7"/>
		<stop  offset="0.1401" style="stop-color:#E0E0E0"/>
		<stop  offset="0.1911" style="stop-color:#F0F0F0"/>
		<stop  offset="0.2117" style="stop-color:#F8F8F8"/>
		<stop  offset="0.2466" style="stop-color:#ECECEC"/>
		<stop  offset="0.3072" style="stop-color:#DEDEDE"/>
		<stop  offset="0.3823" style="stop-color:#D6D6D6"/>
		<stop  offset="0.5143" style="stop-color:#D4D4D4"/>
		<stop  offset="0.635" style="stop-color:#E4E4E4"/>
		<stop  offset="0.755" style="stop-color:#F8F8F8"/>
		<stop  offset="1" style="stop-color:#D4D4D4"/>
	</linearGradient>
	<path class="st47" d="M211.5,366.5c-0.1,0-0.2-0.1-0.2-0.1c-0.1-0.1,0-0.3,0.1-0.4l25.9-14.9c0.1-0.1,0.3,0,0.4,0.1
		c0.1,0.1,0,0.3-0.1,0.4l-25.9,14.9C211.6,366.5,211.5,366.5,211.5,366.5z"/>
	<g>
		
			<linearGradient id="SVGID_23_" gradientUnits="userSpaceOnUse" x1="228.353" y1="337.3105" x2="243.9144" y2="337.3105" gradientTransform="matrix(1 0 0 -1 0 695.8898)">
			<stop  offset="0" style="stop-color:#D4D4D4"/>
			<stop  offset="8.166328e-02" style="stop-color:#D7D7D7"/>
			<stop  offset="0.1401" style="stop-color:#E0E0E0"/>
			<stop  offset="0.1911" style="stop-color:#F0F0F0"/>
			<stop  offset="0.2117" style="stop-color:#F8F8F8"/>
			<stop  offset="0.2466" style="stop-color:#ECECEC"/>
			<stop  offset="0.3072" style="stop-color:#DEDEDE"/>
			<stop  offset="0.3823" style="stop-color:#D6D6D6"/>
			<stop  offset="0.5143" style="stop-color:#D4D4D4"/>
			<stop  offset="0.635" style="stop-color:#E4E4E4"/>
			<stop  offset="0.755" style="stop-color:#F8F8F8"/>
			<stop  offset="1" style="stop-color:#D4D4D4"/>
		</linearGradient>
		<path class="st48" d="M229.2,362.8c-0.1,0-0.2-0.1-0.2-0.1c-0.1-0.1,0-0.3,0.1-0.4l13.8-7.9c0.1-0.1,0.3,0,0.4,0.1
			c0.1,0.1,0,0.3-0.1,0.4l-13.8,7.9C229.3,362.8,229.3,362.8,229.2,362.8z"/>
		
			<linearGradient id="SVGID_24_" gradientUnits="userSpaceOnUse" x1="216.253" y1="328.9105" x2="226.9044" y2="328.9105" gradientTransform="matrix(1 0 0 -1 0 695.8898)">
			<stop  offset="0" style="stop-color:#D4D4D4"/>
			<stop  offset="8.166328e-02" style="stop-color:#D7D7D7"/>
			<stop  offset="0.1401" style="stop-color:#E0E0E0"/>
			<stop  offset="0.1911" style="stop-color:#F0F0F0"/>
			<stop  offset="0.2117" style="stop-color:#F8F8F8"/>
			<stop  offset="0.2466" style="stop-color:#ECECEC"/>
			<stop  offset="0.3072" style="stop-color:#DEDEDE"/>
			<stop  offset="0.3823" style="stop-color:#D6D6D6"/>
			<stop  offset="0.5143" style="stop-color:#D4D4D4"/>
			<stop  offset="0.635" style="stop-color:#E4E4E4"/>
			<stop  offset="0.755" style="stop-color:#F8F8F8"/>
			<stop  offset="1" style="stop-color:#D4D4D4"/>
		</linearGradient>
		<path class="st49" d="M217.1,369.8c-0.1,0-0.2-0.1-0.2-0.1c-0.1-0.1,0-0.3,0.1-0.4l8.9-5.1c0.1-0.1,0.3,0,0.4,0.1
			c0.1,0.1,0,0.3-0.1,0.4l-8.9,5.1C217.2,369.8,217.2,369.8,217.1,369.8z"/>
	</g>
	
		<linearGradient id="SVGID_25_" gradientUnits="userSpaceOnUse" x1="221.8998" y1="330.5105" x2="249.5937" y2="330.5105" gradientTransform="matrix(1 0 0 -1 0 695.8898)">
		<stop  offset="0" style="stop-color:#D4D4D4"/>
		<stop  offset="8.166328e-02" style="stop-color:#D7D7D7"/>
		<stop  offset="0.1401" style="stop-color:#E0E0E0"/>
		<stop  offset="0.1911" style="stop-color:#F0F0F0"/>
		<stop  offset="0.2117" style="stop-color:#F8F8F8"/>
		<stop  offset="0.2466" style="stop-color:#ECECEC"/>
		<stop  offset="0.3072" style="stop-color:#DEDEDE"/>
		<stop  offset="0.3823" style="stop-color:#D6D6D6"/>
		<stop  offset="0.5143" style="stop-color:#D4D4D4"/>
		<stop  offset="0.635" style="stop-color:#E4E4E4"/>
		<stop  offset="0.755" style="stop-color:#F8F8F8"/>
		<stop  offset="1" style="stop-color:#D4D4D4"/>
	</linearGradient>
	<path class="st50" d="M222.8,373.1c-0.1,0-0.2-0.1-0.2-0.1c-0.1-0.1,0-0.3,0.1-0.4l25.9-14.9c0.1-0.1,0.3,0,0.4,0.1
		c0.1,0.1,0,0.3-0.1,0.4l-26,14.8C222.9,373.1,222.8,373.1,222.8,373.1z"/>
	<g>
		
			<linearGradient id="SVGID_26_" gradientUnits="userSpaceOnUse" x1="227.553" y1="324.2605" x2="245.0054" y2="324.2605" gradientTransform="matrix(1 0 0 -1 0 695.8898)">
			<stop  offset="0" style="stop-color:#D4D4D4"/>
			<stop  offset="8.166328e-02" style="stop-color:#D7D7D7"/>
			<stop  offset="0.1401" style="stop-color:#E0E0E0"/>
			<stop  offset="0.1911" style="stop-color:#F0F0F0"/>
			<stop  offset="0.2117" style="stop-color:#F8F8F8"/>
			<stop  offset="0.2466" style="stop-color:#ECECEC"/>
			<stop  offset="0.3072" style="stop-color:#DEDEDE"/>
			<stop  offset="0.3823" style="stop-color:#D6D6D6"/>
			<stop  offset="0.5143" style="stop-color:#D4D4D4"/>
			<stop  offset="0.635" style="stop-color:#E4E4E4"/>
			<stop  offset="0.755" style="stop-color:#F8F8F8"/>
			<stop  offset="1" style="stop-color:#D4D4D4"/>
		</linearGradient>
		<path class="st51" d="M228.4,376.4c-0.1,0-0.2-0.1-0.2-0.1c-0.1-0.1,0-0.3,0.1-0.4l15.7-9c0.1-0.1,0.3,0,0.4,0.1
			c0.1,0.1,0,0.3-0.1,0.4l-15.7,9C228.5,376.4,228.5,376.4,228.4,376.4z"/>
		
			<linearGradient id="SVGID_27_" gradientUnits="userSpaceOnUse" x1="246.553" y1="332.7605" x2="255.227" y2="332.7605" gradientTransform="matrix(1 0 0 -1 0 695.8898)">
			<stop  offset="0" style="stop-color:#D4D4D4"/>
			<stop  offset="8.166328e-02" style="stop-color:#D7D7D7"/>
			<stop  offset="0.1401" style="stop-color:#E0E0E0"/>
			<stop  offset="0.1911" style="stop-color:#F0F0F0"/>
			<stop  offset="0.2117" style="stop-color:#F8F8F8"/>
			<stop  offset="0.2466" style="stop-color:#ECECEC"/>
			<stop  offset="0.3072" style="stop-color:#DEDEDE"/>
			<stop  offset="0.3823" style="stop-color:#D6D6D6"/>
			<stop  offset="0.5143" style="stop-color:#D4D4D4"/>
			<stop  offset="0.635" style="stop-color:#E4E4E4"/>
			<stop  offset="0.755" style="stop-color:#F8F8F8"/>
			<stop  offset="1" style="stop-color:#D4D4D4"/>
		</linearGradient>
		<path class="st52" d="M247.4,365.4c-0.1,0-0.2-0.1-0.2-0.1c-0.1-0.1,0-0.3,0.1-0.4l6.9-4c0.1-0.1,0.3,0,0.4,0.1
			c0.1,0.1,0,0.3-0.1,0.4l-6.9,4C247.5,365.4,247.5,365.4,247.4,365.4z"/>
	</g>
</g>
<g class="st46">
	
		<linearGradient id="SVGID_28_" gradientUnits="userSpaceOnUse" x1="210.594" y1="337.1105" x2="238.2879" y2="337.1105" gradientTransform="matrix(1 0 0 -1 0 695.8898)">
		<stop  offset="0" style="stop-color:#D4D4D4"/>
		<stop  offset="8.166328e-02" style="stop-color:#D7D7D7"/>
		<stop  offset="0.1401" style="stop-color:#E0E0E0"/>
		<stop  offset="0.1911" style="stop-color:#F0F0F0"/>
		<stop  offset="0.2117" style="stop-color:#F8F8F8"/>
		<stop  offset="0.2466" style="stop-color:#ECECEC"/>
		<stop  offset="0.3072" style="stop-color:#DEDEDE"/>
		<stop  offset="0.3823" style="stop-color:#D6D6D6"/>
		<stop  offset="0.5143" style="stop-color:#D4D4D4"/>
		<stop  offset="0.635" style="stop-color:#E4E4E4"/>
		<stop  offset="0.755" style="stop-color:#F8F8F8"/>
		<stop  offset="1" style="stop-color:#D4D4D4"/>
	</linearGradient>
	<path class="st53" d="M211.5,366.5c-0.1,0-0.2-0.1-0.2-0.1c-0.1-0.1,0-0.3,0.1-0.4l25.9-14.9c0.1-0.1,0.3,0,0.4,0.1
		c0.1,0.1,0,0.3-0.1,0.4l-25.9,14.9C211.6,366.5,211.5,366.5,211.5,366.5z"/>
	<g>
		
			<linearGradient id="SVGID_29_" gradientUnits="userSpaceOnUse" x1="228.353" y1="337.3105" x2="243.9144" y2="337.3105" gradientTransform="matrix(1 0 0 -1 0 695.8898)">
			<stop  offset="0" style="stop-color:#D4D4D4"/>
			<stop  offset="8.166328e-02" style="stop-color:#D7D7D7"/>
			<stop  offset="0.1401" style="stop-color:#E0E0E0"/>
			<stop  offset="0.1911" style="stop-color:#F0F0F0"/>
			<stop  offset="0.2117" style="stop-color:#F8F8F8"/>
			<stop  offset="0.2466" style="stop-color:#ECECEC"/>
			<stop  offset="0.3072" style="stop-color:#DEDEDE"/>
			<stop  offset="0.3823" style="stop-color:#D6D6D6"/>
			<stop  offset="0.5143" style="stop-color:#D4D4D4"/>
			<stop  offset="0.635" style="stop-color:#E4E4E4"/>
			<stop  offset="0.755" style="stop-color:#F8F8F8"/>
			<stop  offset="1" style="stop-color:#D4D4D4"/>
		</linearGradient>
		<path class="st54" d="M229.2,362.8c-0.1,0-0.2-0.1-0.2-0.1c-0.1-0.1,0-0.3,0.1-0.4l13.8-7.9c0.1-0.1,0.3,0,0.4,0.1
			c0.1,0.1,0,0.3-0.1,0.4l-13.8,7.9C229.3,362.8,229.3,362.8,229.2,362.8z"/>
		
			<linearGradient id="SVGID_30_" gradientUnits="userSpaceOnUse" x1="216.253" y1="328.9105" x2="226.9044" y2="328.9105" gradientTransform="matrix(1 0 0 -1 0 695.8898)">
			<stop  offset="0" style="stop-color:#D4D4D4"/>
			<stop  offset="8.166328e-02" style="stop-color:#D7D7D7"/>
			<stop  offset="0.1401" style="stop-color:#E0E0E0"/>
			<stop  offset="0.1911" style="stop-color:#F0F0F0"/>
			<stop  offset="0.2117" style="stop-color:#F8F8F8"/>
			<stop  offset="0.2466" style="stop-color:#ECECEC"/>
			<stop  offset="0.3072" style="stop-color:#DEDEDE"/>
			<stop  offset="0.3823" style="stop-color:#D6D6D6"/>
			<stop  offset="0.5143" style="stop-color:#D4D4D4"/>
			<stop  offset="0.635" style="stop-color:#E4E4E4"/>
			<stop  offset="0.755" style="stop-color:#F8F8F8"/>
			<stop  offset="1" style="stop-color:#D4D4D4"/>
		</linearGradient>
		<path class="st55" d="M217.1,369.8c-0.1,0-0.2-0.1-0.2-0.1c-0.1-0.1,0-0.3,0.1-0.4l8.9-5.1c0.1-0.1,0.3,0,0.4,0.1
			c0.1,0.1,0,0.3-0.1,0.4l-8.9,5.1C217.2,369.8,217.2,369.8,217.1,369.8z"/>
	</g>
	
		<linearGradient id="SVGID_31_" gradientUnits="userSpaceOnUse" x1="221.8998" y1="330.5105" x2="249.5937" y2="330.5105" gradientTransform="matrix(1 0 0 -1 0 695.8898)">
		<stop  offset="0" style="stop-color:#D4D4D4"/>
		<stop  offset="8.166328e-02" style="stop-color:#D7D7D7"/>
		<stop  offset="0.1401" style="stop-color:#E0E0E0"/>
		<stop  offset="0.1911" style="stop-color:#F0F0F0"/>
		<stop  offset="0.2117" style="stop-color:#F8F8F8"/>
		<stop  offset="0.2466" style="stop-color:#ECECEC"/>
		<stop  offset="0.3072" style="stop-color:#DEDEDE"/>
		<stop  offset="0.3823" style="stop-color:#D6D6D6"/>
		<stop  offset="0.5143" style="stop-color:#D4D4D4"/>
		<stop  offset="0.635" style="stop-color:#E4E4E4"/>
		<stop  offset="0.755" style="stop-color:#F8F8F8"/>
		<stop  offset="1" style="stop-color:#D4D4D4"/>
	</linearGradient>
	<path class="st56" d="M222.8,373.1c-0.1,0-0.2-0.1-0.2-0.1c-0.1-0.1,0-0.3,0.1-0.4l25.9-14.9c0.1-0.1,0.3,0,0.4,0.1
		c0.1,0.1,0,0.3-0.1,0.4l-26,14.8C222.9,373.1,222.8,373.1,222.8,373.1z"/>
	<g>
		
			<linearGradient id="SVGID_32_" gradientUnits="userSpaceOnUse" x1="227.553" y1="324.2605" x2="245.0054" y2="324.2605" gradientTransform="matrix(1 0 0 -1 0 695.8898)">
			<stop  offset="0" style="stop-color:#D4D4D4"/>
			<stop  offset="8.166328e-02" style="stop-color:#D7D7D7"/>
			<stop  offset="0.1401" style="stop-color:#E0E0E0"/>
			<stop  offset="0.1911" style="stop-color:#F0F0F0"/>
			<stop  offset="0.2117" style="stop-color:#F8F8F8"/>
			<stop  offset="0.2466" style="stop-color:#ECECEC"/>
			<stop  offset="0.3072" style="stop-color:#DEDEDE"/>
			<stop  offset="0.3823" style="stop-color:#D6D6D6"/>
			<stop  offset="0.5143" style="stop-color:#D4D4D4"/>
			<stop  offset="0.635" style="stop-color:#E4E4E4"/>
			<stop  offset="0.755" style="stop-color:#F8F8F8"/>
			<stop  offset="1" style="stop-color:#D4D4D4"/>
		</linearGradient>
		<path class="st57" d="M228.4,376.4c-0.1,0-0.2-0.1-0.2-0.1c-0.1-0.1,0-0.3,0.1-0.4l15.7-9c0.1-0.1,0.3,0,0.4,0.1
			c0.1,0.1,0,0.3-0.1,0.4l-15.7,9C228.5,376.4,228.5,376.4,228.4,376.4z"/>
		
			<linearGradient id="SVGID_33_" gradientUnits="userSpaceOnUse" x1="246.553" y1="332.7605" x2="255.227" y2="332.7605" gradientTransform="matrix(1 0 0 -1 0 695.8898)">
			<stop  offset="0" style="stop-color:#D4D4D4"/>
			<stop  offset="8.166328e-02" style="stop-color:#D7D7D7"/>
			<stop  offset="0.1401" style="stop-color:#E0E0E0"/>
			<stop  offset="0.1911" style="stop-color:#F0F0F0"/>
			<stop  offset="0.2117" style="stop-color:#F8F8F8"/>
			<stop  offset="0.2466" style="stop-color:#ECECEC"/>
			<stop  offset="0.3072" style="stop-color:#DEDEDE"/>
			<stop  offset="0.3823" style="stop-color:#D6D6D6"/>
			<stop  offset="0.5143" style="stop-color:#D4D4D4"/>
			<stop  offset="0.635" style="stop-color:#E4E4E4"/>
			<stop  offset="0.755" style="stop-color:#F8F8F8"/>
			<stop  offset="1" style="stop-color:#D4D4D4"/>
		</linearGradient>
		<path class="st58" d="M247.4,365.4c-0.1,0-0.2-0.1-0.2-0.1c-0.1-0.1,0-0.3,0.1-0.4l6.9-4c0.1-0.1,0.3,0,0.4,0.1
			c0.1,0.1,0,0.3-0.1,0.4l-6.9,4C247.5,365.4,247.5,365.4,247.4,365.4z"/>
	</g>
</g>
<g>
	<path class="st43" d="M337.1,542.5c-3.7-2.4-7.3-4.7-11-7.1c-2.4,7.9,0.2,16.8,4.2,23.7c2.4-1.4,7.9-4.6,7.9-4.6s-1-1.9-1.1-2.3
		c-0.3-0.7-0.5-1.5-0.7-2.2C335.8,547.7,335.7,544.7,337.1,542.5z"/>
	<path class="st42" d="M331.3,528C331.3,528,331.2,528,331.3,528c-1.5,0.9-2.7,2-3.6,3.4l-0.1,0.1c-0.6,0.9-1,1.8-1.4,2.9
		c-0.1,0.2-0.2,0.7-0.3,0.8l11,7.1c0.4-0.7,1-1.3,1.7-1.7c3.5-2,8.9,0.9,12.2,6.4l3.3-1.9l4.6-2.6C351.4,530,339.2,523.5,331.3,528z
		"/>
	<path class="st59" d="M363.8,559c-0.2-5.1-1.9-10.9-5.1-16.3l-4.6,2.6l-3.3,1.9c3.2,5.6,3,11.7-0.5,13.8c-3.9,2.3-9.3-1.6-12.2-6.5
		l-7.9,4.5c4.2,7.3,10.9,13.5,17.5,15.4c3.5,1,6.9,0.9,10-0.9C362,571,364.1,565.5,363.8,559z"/>
</g>
</svg>
