<?xml version="1.0" standalone="no"?>
<!DOCTYPE svg PUBLIC "-//W3C//DTD SVG 20010904//EN"
 "http://www.w3.org/TR/2001/REC-SVG-20010904/DTD/svg10.dtd">
<svg version="1.0" xmlns="http://www.w3.org/2000/svg"
 width="574.000000pt" height="574.000000pt" viewBox="0 0 574.000000 574.000000"
 preserveAspectRatio="xMidYMid meet">
<metadata>
Created by potrace 1.14, written by Peter Selinger 2001-2017
</metadata>
<g transform="translate(0.000000,574.000000) scale(0.100000,-0.100000)"
fill="#000000" stroke="none">
<path d="M4348 5665 c-2 -2 -31 -6 -65 -9 -159 -17 -371 -106 -525 -221 -278
-209 -500 -516 -705 -975 -36 -80 -71 -158 -78 -175 -114 -252 -241 -689 -290
-995 -3 -19 -7 -46 -10 -60 -2 -14 -7 -47 -10 -75 -3 -27 -8 -61 -10 -75 -7
-46 -19 -184 -24 -262 -1 -9 -92 -108 -204 -220 -256 -256 -360 -353 -550
-512 -139 -115 -266 -211 -377 -283 -47 -31 -96 -63 -110 -72 -97 -65 -327
-161 -426 -177 -206 -34 -439 68 -519 226 -43 85 -50 168 -24 284 66 300 345
666 879 1152 69 62 212 185 243 207 15 12 27 24 27 29 0 19 -317 -223 -508
-387 -151 -130 -346 -325 -465 -465 -54 -63 -101 -119 -105 -125 -4 -5 -30
-41 -58 -80 -269 -367 -425 -757 -425 -1065 0 -124 33 -254 93 -368 79 -150
183 -239 333 -287 80 -26 279 -27 380 -1 246 62 524 204 833 425 100 71 286
214 302 231 3 3 30 25 60 50 30 25 64 54 76 65 12 11 47 43 79 70 108 92 301
274 461 433 66 66 83 79 88 65 2 -10 16 -65 30 -123 194 -820 832 -1405 1829
-1675 109 -29 96 -26 235 -54 116 -24 141 -28 197 -36 22 -3 51 -8 65 -10 14
-3 48 -7 75 -10 28 -3 66 -8 85 -10 145 -18 480 -27 480 -13 0 4 -12 8 -27 9
-16 0 -37 2 -48 3 -11 2 -45 6 -75 10 -30 4 -133 23 -228 42 -621 127 -1100
377 -1432 749 -83 93 -150 186 -219 303 -166 281 -269 624 -298 995 -7 94 -9
374 -3 483 3 57 6 65 49 110 160 173 299 329 511 574 8 10 51 62 95 115 44 54
85 103 90 109 6 6 69 88 141 181 263 343 451 627 581 880 48 93 125 275 116
275 -3 0 -1 6 5 13 25 31 57 205 56 307 -2 221 -127 348 -400 405 -65 13 -267
28 -276 20z m-368 -1084 c0 -22 -56 -164 -103 -261 -91 -188 -233 -401 -351
-525 l-67 -70 41 120 c23 66 45 129 50 140 5 11 23 54 41 95 17 41 35 79 40
84 5 6 9 15 9 22 0 17 87 170 133 234 50 68 122 138 162 156 36 16 45 17 45 5z"/>
</g>
</svg>
